<svg xmlns="http://www.w3.org/2000/svg" viewBox="0 0 388.47 153.73"><defs><style>.cls-1{fill:#fff;}</style></defs><title>Recurso 3</title><g id="Capa_2" data-name="Capa 2"><g id="Layer_1" data-name="Layer 1"><path class="cls-1" d="M188,43.36a33.06,33.06,0,0,0-11.62-8.85,38.1,38.1,0,0,0-16.27-3.28,38.1,38.1,0,0,0-16.28,3.23,33,33,0,0,0-11.64,8.81,36.37,36.37,0,0,0-6.92,13.17A57.67,57.67,0,0,0,123,72.87a57.65,57.65,0,0,0,2.22,16.44,36.34,36.34,0,0,0,6.88,13.19,32.24,32.24,0,0,0,11.61,8.78,38.91,38.91,0,0,0,16.27,3.2,38.91,38.91,0,0,0,16.28-3.15,32.29,32.29,0,0,0,11.64-8.74,36.51,36.51,0,0,0,6.92-13.17A57.76,57.76,0,0,0,197.14,73a57.78,57.78,0,0,0-2.22-16.44A36.54,36.54,0,0,0,188,43.36M175.87,94.5q-5.13,7.75-15.83,7.73t-15.72-7.78q-5-7.76-5-21.56t5.08-21.46q5-7.66,15.75-7.65t15.8,7.7Q181,59.17,181,73T175.87,94.5"/><path class="cls-1" d="M114.88,101.07c-1.19.1-2.22.15-3.15.15a17.61,17.61,0,0,1-3.74-.39,5.83,5.83,0,0,1-3-1.72,9,9,0,0,1-1.85-3.8c-.52-1.65-.31-3.93-.31-6.83L103,0,88,0l-.15,91.89c0,4.13,0,7.6,1.15,10.39s2.14,5,4.1,6.67a17.87,17.87,0,0,0,6.82,3.58,30.88,30.88,0,0,0,8.37,1.1q2.63,0,5.74-.22a20.83,20.83,0,0,0,5.28-1,47.3,47.3,0,0,0-1.37-11.79,18.91,18.91,0,0,1-3,.46"/><path class="cls-1" d="M66.35,34.1A25.35,25.35,0,0,0,58,38.19a35.21,35.21,0,0,0-9.68-5.13,37.52,37.52,0,0,0-12.63-2,40.77,40.77,0,0,0-13.8,2.15,29.45,29.45,0,0,0-10.16,6A25.67,25.67,0,0,0,5.4,48,27.87,27.87,0,0,0,3.22,59,26.14,26.14,0,0,0,6.3,71.83a26.6,26.6,0,0,0,8.2,9.24A26.66,26.66,0,0,0,7.59,88.5,18.63,18.63,0,0,0,5,98.42a12.89,12.89,0,0,0,2.08,7.52,18.49,18.49,0,0,0,5.19,5A25,25,0,0,0,3.43,119a7.58,7.58,0,0,0-1.62,3l-.22.42A21.62,21.62,0,0,0,0,130.35Q0,141,8.35,146t24.34,5a70.43,70.43,0,0,0,17-1.91,45.54,45.54,0,0,0,13.58-5.56,28.89,28.89,0,0,0,9-8.67,17.29,17.29,0,0,0,3.23-10.37c0-.52,0-1,0-1.53v-.84c-.3-6.68-2.32-10.49-6.12-13.92-4.13-3.73-10.79-5.74-20-6l-20.62-.37c-4.65-.11-7.65-.88-9-2.27a6.82,6.82,0,0,1-2-4.89,8.54,8.54,0,0,1,2.1-5.5,15.85,15.85,0,0,1,4.27-3.79,43.54,43.54,0,0,0,11.47,1.41,40.94,40.94,0,0,0,12.87-1.92,29.68,29.68,0,0,0,10.16-5.57,25,25,0,0,0,6.6-8.75,27.41,27.41,0,0,0,2.34-11.47,23.32,23.32,0,0,0-.92-6.91A19.66,19.66,0,0,0,64,46.71l14,0c.21-1.67.36-2.7.47-3.94s.16-2.54.16-3.68A33.41,33.41,0,0,0,78,32.45,39.31,39.31,0,0,0,66.35,34.1M17.93,118.22c2.33-2.58,5.82-3.86,10.47-3.75l17.67.31c5.27.11,8.79,1.07,10.75,2.73a6.64,6.64,0,0,1,2.56,4.6v-.17c0,.81.38,1.66.37,2.61l-.06.62c-.28,3.9-2.2,6.94-6.85,9.67s-11.11,4.09-19.38,4.08a50,50,0,0,1-7.66-.56,36.71,36.71,0,0,1-6-1.87A10,10,0,0,1,15.81,133a10.14,10.14,0,0,1-1.39-5.59,10.56,10.56,0,0,1,.8-4.82l.31-.56a10.31,10.31,0,0,1,2.4-3.83M48,71q-4,4.65-12.41,4.63T23.27,71q-3.94-4.65-3.93-11.94,0-7.44,4-12.16t12.33-4.71Q44,42.2,48,46.94t4,12.17Q52,66.4,48,71"/><path class="cls-1" d="M329.94,38.55c-5.37-4.71-13.56-7.07-23.9-7.09a84.47,84.47,0,0,0-12.24.91A70.64,70.64,0,0,0,282.18,35a24.14,24.14,0,0,0,2.95,12.25A78,78,0,0,1,294.4,45a58.12,58.12,0,0,1,10.24-.84c5.89,0,10.56,1.21,13.66,3.59s5,6.62,5,12.72v2.95c-1.67-.21-3.58-.39-5.69-.55s-5.18-.24-8.49-.25a48.91,48.91,0,0,0-12.71,1.61,32.73,32.73,0,0,0-10.71,4.95,23.65,23.65,0,0,0-10.1,20.06,26.47,26.47,0,0,0,2.32,11.63,20.88,20.88,0,0,0,6.6,7.92,28.16,28.16,0,0,0,10.42,4.51,62.79,62.79,0,0,0,13.8,1.42,96.24,96.24,0,0,0,16-1.29c5.17-.87,10.18-1.71,13.52-2.54l.08-49.77c0-10.34-3-17.86-8.36-22.57m-6.73,62.24a42.78,42.78,0,0,1-7.09,1.15c-2.54.25-5.33.38-7.71.37a58.7,58.7,0,0,1-5.89-.32,14.72,14.72,0,0,1-5.66-1.71,11.75,11.75,0,0,1-4.26-4A13.3,13.3,0,0,1,290.91,89q0-7.29,5.05-10.84t14.65-3.55c1.66,0,4,.11,6.39.32s4.57.42,6.23.63Z"/><path class="cls-1" d="M264.85,99a39,39,0,0,1-8,2.16,55.43,55.43,0,0,1-8.6.61q-11.63,0-18.29-6.93T223.34,73q0-13,5.93-20.92t17.84-7.88a53.08,53.08,0,0,1,17.36,2.66,26.6,26.6,0,0,0,1.95-6.12,31.94,31.94,0,0,0,.71-6.12,46.85,46.85,0,0,0-9.45-2.5,75.33,75.33,0,0,0-11.47-.79,41.06,41.06,0,0,0-16.9,3.23,34.66,34.66,0,0,0-12.18,8.81,37.36,37.36,0,0,0-7.39,13.17A52.7,52.7,0,0,0,207.22,73q0,19.07,10,30.33t29.9,11.28a57.42,57.42,0,0,0,20.94-3.53,29.17,29.17,0,0,0-1.07-6.67A24.76,24.76,0,0,0,264.85,99"/><path class="cls-1" d="M386.08,101a19.14,19.14,0,0,1-3,.46c-1.19.1-2.25.15-3.18.15a18.25,18.25,0,0,1-3.81-.39A6.21,6.21,0,0,1,373,99.54a9.07,9.07,0,0,1-2.13-3.8,23.3,23.3,0,0,1-.85-6.83L370.12.45l-15,0-.15,91.88a27.66,27.66,0,0,0,1.68,10.39,16.8,16.8,0,0,0,4.64,6.67,17.88,17.88,0,0,0,6.82,3.57,30.88,30.88,0,0,0,8.37,1.1q2.63,0,5.74-.22a20.81,20.81,0,0,0,5.27-1A47.21,47.21,0,0,0,386.08,101"/><path class="cls-1" d="M196.35,127.85h3.33l0,20.5h-2.23l-1-1.73-1.53,1.7a4.75,4.75,0,0,1-1.85.37c-3.65,0-5.57-2.68-5.56-7.83,0-5.71,2.61-7.88,5.55-7.87a5.07,5.07,0,0,1,3.27,1.12Zm0,8.68a4.39,4.39,0,0,0-2.55-.85c-1.81,0-2.8.84-2.81,4.48v1.54c0,3.51,1,4.8,2.81,4.8a3.56,3.56,0,0,0,2.53-1.24Z"/><path class="cls-1" d="M209.75,146.11a10.93,10.93,0,0,0,4-.93l.46,2.47a10.5,10.5,0,0,1-4.69,1.14c-4.34,0-6.54-2.75-6.53-7.91s2.41-7.87,6.18-7.86c4,0,5.58,2.73,5.57,7.12v1.81h-8.29c0,3.19.93,4.19,3.3,4.2m1.86-6.45v-.51c0-2.77-.73-3.74-2.42-3.74s-2.6.94-2.72,4.25Z"/><path class="cls-1" d="M217.31,147.82l.34-2.38a9.5,9.5,0,0,0,3.73.87c1.8,0,2.69-.52,2.69-2s-.72-1.55-3.31-2.23c-2.11-.5-3.62-1.55-3.62-4.46,0-3.2,2.1-4.63,5.29-4.62a9.4,9.4,0,0,1,4.25.9l-.48,2.41a10.56,10.56,0,0,0-3.47-.63c-1.79,0-2.54.37-2.54,1.76s.79,1.52,3.14,2.1c2.55.6,3.92,1.66,3.91,4.56s-1.82,4.66-5.48,4.66a9.61,9.61,0,0,1-4.47-1"/><path class="cls-1" d="M230.28,129.34a2,2,0,0,1,4,0,2,2,0,0,1-4,0m.31,4h3.35l0,15h-3.35Z"/><path class="cls-1" d="M250.09,132.62v2.77h-3.36l2,1.2a3.72,3.72,0,0,1,.23,1.4c0,3.73-2.65,5-5.71,5a7.75,7.75,0,0,1-2.52-.41,1.5,1.5,0,0,0-.6,1.18c0,.82.52,1.25,1.71,1.25h3.35c3.08,0,4.7,1.17,4.7,3.86,0,3.51-3.21,4.75-6.88,4.75-3.82,0-5.8-1.31-5.8-3.61a2.87,2.87,0,0,1,.67-1.93l1.56-.73a2.44,2.44,0,0,1-1.85-2.5,3.23,3.23,0,0,1,.58-1.89l1.75-1-1.74-1.09a5.58,5.58,0,0,1-.68-2.78c0-3.74,2.88-5,5.77-5a6.24,6.24,0,0,1,3.21.76ZM240,149.41c0,1.29.81,1.84,3,1.84,2.49,0,3.71-.88,3.71-2V149c0-.78-.37-1.35-1.82-1.36H240.7a2.65,2.65,0,0,0-.71,1.8m5.63-11.09v-.47c0-1.71-.77-2.37-2.42-2.37s-2.46.65-2.47,2.29v.52c0,1.87.77,2.57,2.46,2.57s2.42-.7,2.42-2.54"/><path class="cls-1" d="M257.43,133.65a5.92,5.92,0,0,1,2.55-.57c2.62,0,4.07,1.61,4.06,4.86l0,10.5h-3.32l0-10.83c0-1.33-.72-1.84-1.93-1.84a5.77,5.77,0,0,0-2.82.84l0,11.82h-3.34l0-15h2.2l1.08,2Z"/><path class="cls-1" d="M287.3,133.7a5.87,5.87,0,0,1,2.51-.57c2.58,0,4,1.61,4,4.86l0,10.5h-3.35l0-10.83c0-1.36-.66-1.84-1.85-1.84a5,5,0,0,0-2.62.84l0,11.82h-3.35l0-10.83a1.62,1.62,0,0,0-1.84-1.84,5.2,5.2,0,0,0-2.63.83l0,11.83h-3.34l0-15h2.21l1.07,1.92,1.46-1.67a5.91,5.91,0,0,1,5.06,0l1.14,1.78Z"/><path class="cls-1" d="M304.79,138.09c0-1.25-.48-2.09-2.14-2.09a14.66,14.66,0,0,0-4.56,1l-.45-2.51a12.21,12.21,0,0,1,5.33-1.31c3.71,0,5.13,1.7,5.12,6.09v6.59c0,.73.29.88.86.88h.68l.06,1.49a2.93,2.93,0,0,1-2,.65,4.75,4.75,0,0,1-1.54-.23L305,146.95l-1.16,1.43a6.21,6.21,0,0,1-2.63.55c-2.18,0-4.18-1.15-4.17-4.33s1.57-4.24,5.6-4.81l2.2-.29Zm0,3.32-2,.3c-1.91.25-2.66.82-2.66,2.53v.23a2,2,0,0,0,2.25,2.21,3,3,0,0,0,2.38-1Z"/><path class="cls-1" d="M324.37,132.74v2.77H321l2,1.2a3.74,3.74,0,0,1,.22,1.4c0,3.73-2.66,5-5.72,5a7.78,7.78,0,0,1-2.51-.41,1.46,1.46,0,0,0-.59,1.18c0,.82.5,1.25,1.7,1.25h3.33c3.09,0,4.71,1.17,4.71,3.86,0,3.51-3.2,4.75-6.89,4.75s-5.78-1.31-5.78-3.61a3,3,0,0,1,.66-1.93l1.56-.73a2.46,2.46,0,0,1-1.84-2.5,3.21,3.21,0,0,1,.57-1.89l1.74-1-1.74-1.09a5.66,5.66,0,0,1-.68-2.78c0-3.74,2.89-5,5.77-5a6.34,6.34,0,0,1,3.24.76Zm-10.09,16.79c0,1.29.81,1.84,3,1.84,2.48,0,3.71-.88,3.71-2v-.26c0-.78-.37-1.35-1.82-1.36H315a2.69,2.69,0,0,0-.71,1.8m5.64-11.09V138c0-1.71-.77-2.37-2.43-2.37s-2.46.65-2.46,2.29v.52c0,1.87.77,2.57,2.45,2.57s2.44-.7,2.44-2.54"/><path class="cls-1" d="M333.65,138.13c0-1.25-.47-2.09-2.12-2.09a14.86,14.86,0,0,0-4.57,1l-.45-2.51a12.27,12.27,0,0,1,5.34-1.31c3.71,0,5.13,1.7,5.13,6.09v6.59c0,.73.28.88.85.88h.69l.06,1.49a2.91,2.91,0,0,1-2,.65,4.79,4.79,0,0,1-1.54-.23L333.82,147l-1.13,1.43A6.34,6.34,0,0,1,330,149c-2.19,0-4.19-1.15-4.19-4.33s1.58-4.24,5.6-4.81l2.18-.29Zm0,3.32-2,.3c-1.92.25-2.67.82-2.67,2.53v.23a2,2,0,0,0,2.26,2.21,3,3,0,0,0,2.36-1Z"/><polygon class="cls-1" points="340.42 145.85 346.33 137.49 348.02 135.95 345 136.2 340.75 136.2 340.75 133.54 350.82 133.56 350.82 136.43 345.04 144.68 343.15 146.5 346.26 146.08 350.92 146.09 350.91 148.59 340.41 148.57 340.42 145.85"/><path class="cls-1" d="M353.9,129.54a2,2,0,0,1,4,0,2,2,0,0,1-4,0m.32,4h3.34l0,15H354.2Z"/><path class="cls-1" d="M366.67,133.83a5.94,5.94,0,0,1,2.55-.57c2.62,0,4.08,1.61,4.08,4.86l0,10.5h-3.34l0-10.83c0-1.33-.71-1.84-1.92-1.84a5.89,5.89,0,0,0-2.83.84l0,11.82h-3.32l0-15h2.19l1.09,2Z"/><path class="cls-1" d="M383.26,146.39a11,11,0,0,0,4-.93l.45,2.47a10.57,10.57,0,0,1-4.69,1.14c-4.34,0-6.54-2.75-6.53-7.91s2.4-7.87,6.18-7.86c4,0,5.59,2.73,5.58,7.12v1.81H380c0,3.19.92,4.19,3.29,4.2m1.87-6.45v-.51c0-2.77-.73-3.74-2.42-3.74s-2.6.94-2.73,4.25Z"/><path class="cls-1" d="M382.08,18a6.8,6.8,0,0,1-2.6-.49,5.87,5.87,0,0,1-3.3-3.36,6.81,6.81,0,0,1-.46-2.55,6.82,6.82,0,0,1,.47-2.54,5.93,5.93,0,0,1,1.3-2,6,6,0,0,1,2-1.33,7.23,7.23,0,0,1,5.21,0,5.72,5.72,0,0,1,2,1.34,6.13,6.13,0,0,1,1.3,2,6.83,6.83,0,0,1,.46,2.55,6.87,6.87,0,0,1-.47,2.55,6.09,6.09,0,0,1-1.3,2,6,6,0,0,1-2,1.34,6.79,6.79,0,0,1-2.61.48m0-1.27a5.34,5.34,0,0,0,2.1-.39,4.55,4.55,0,0,0,2.56-2.7,6.1,6.1,0,0,0,0-4,4.59,4.59,0,0,0-1-1.63,4.7,4.7,0,0,0-1.57-1.09,5.78,5.78,0,0,0-4.2,0,4.56,4.56,0,0,0-2.56,2.7,6.12,6.12,0,0,0,0,4,4.78,4.78,0,0,0,1,1.62A4.59,4.59,0,0,0,380,16.36a5.32,5.32,0,0,0,2.1.4M379.8,8.2c.32-.05.63-.1.93-.12a9.76,9.76,0,0,1,1,0,3.71,3.71,0,0,1,2.34.58,1.86,1.86,0,0,1,.7,1.52,2.24,2.24,0,0,1-.24,1,2.19,2.19,0,0,1-.52.7l-.26.2,1.5,2.68a3.78,3.78,0,0,1-.5,0l-.57,0-.45,0a2.71,2.71,0,0,1-.42,0l-1.55-3,.28-.17a2.86,2.86,0,0,0,.65-.52,1,1,0,0,0,.26-.7.9.9,0,0,0-.24-.64,1,1,0,0,0-.75-.25h-.22l-.26,0v5.26a4.24,4.24,0,0,1-.81.07l-.43,0a3.55,3.55,0,0,1-.44,0Z"/></g></g></svg>