<svg xmlns="http://www.w3.org/2000/svg" xmlns:xlink="http://www.w3.org/1999/xlink" viewBox="0 0 390.47 35.57"><defs><style>.cls-1{fill:none;}.cls-2{clip-path:url(#clip-path);}.cls-3{fill:#262424;}.cls-4{fill:#222220;}</style><clipPath id="clip-path"><rect class="cls-1" width="381.95" height="35.57"/></clipPath></defs><title>Recurso 1</title><g id="Capa_2" data-name="Capa 2"><g id="Layer_1" data-name="Layer 1"><g class="cls-2"><path class="cls-3" d="M11.71,23.57A7.3,7.3,0,0,1,16.51,25a5,5,0,0,1,1.54,3.92,5,5,0,0,1-.79,2.74,6.93,6.93,0,0,1-2.14,2.1,11.15,11.15,0,0,1-3.23,1.32,16.51,16.51,0,0,1-4,.47,17.23,17.23,0,0,1-3.65-.34,8,8,0,0,1-2.46-.95A3.62,3.62,0,0,1,.41,32.77a4.69,4.69,0,0,1-.41-2,4.36,4.36,0,0,1,.77-2.65,7.07,7.07,0,0,1,2.06-1.82,4.11,4.11,0,0,1-1.31-1.24A3.38,3.38,0,0,1,1,23.21,3.93,3.93,0,0,1,1.61,21,6.49,6.49,0,0,1,3.3,19.34,6,6,0,0,1,.68,14.29a6.27,6.27,0,0,1,.54-2.6A5.85,5.85,0,0,1,2.78,9.62,7.31,7.31,0,0,1,5.27,8.24a9.93,9.93,0,0,1,3.29-.5,9.52,9.52,0,0,1,3.3.55,8,8,0,0,1,2.5,1.42,4.34,4.34,0,0,1,1.69-1.35,6.74,6.74,0,0,1,2.72-.44c.05.31.09.61.12.91a7.12,7.12,0,0,1,.06.95c0,.38,0,.76,0,1.14a10.12,10.12,0,0,1-.14,1.19h-2.9a5.22,5.22,0,0,1,.32.86,4.75,4.75,0,0,1,.14,1.32,6.42,6.42,0,0,1-.52,2.6A5.59,5.59,0,0,1,14.29,19a7.71,7.71,0,0,1-2.45,1.36,10.13,10.13,0,0,1-3.28.5,11,11,0,0,1-2.76-.32,1.71,1.71,0,0,0-.75.84,3,3,0,0,0-.14.84,1.23,1.23,0,0,0,.37.93,2.45,2.45,0,0,0,1.53.4ZM7.13,27.29a3.19,3.19,0,0,0-1.31.18A2.2,2.2,0,0,0,5,28a1.77,1.77,0,0,0-.43.75,2.53,2.53,0,0,0-.13.8,1.85,1.85,0,0,0,1,1.85,6.54,6.54,0,0,0,2.74.48,8,8,0,0,0,3.64-.71,2.17,2.17,0,0,0,1.38-1.94,2.54,2.54,0,0,0-.09-.68,1.54,1.54,0,0,0-.34-.59,1.93,1.93,0,0,0-.7-.45,3.3,3.3,0,0,0-1.2-.18ZM8.6,17.51a2.56,2.56,0,0,0,2.16-.85,3.77,3.77,0,0,0,.67-2.37,3.8,3.8,0,0,0-.67-2.38A2.52,2.52,0,0,0,8.6,11a2.61,2.61,0,0,0-2.22.88,3.74,3.74,0,0,0-.68,2.38,3.71,3.71,0,0,0,.68,2.37A2.66,2.66,0,0,0,8.6,17.51Z"/><path class="cls-3" d="M21.46.47A14.61,14.61,0,0,1,24,.25a14.41,14.41,0,0,1,2.5.22v18.8a10.52,10.52,0,0,0,.13,1.79A2.77,2.77,0,0,0,27,22.12a1.44,1.44,0,0,0,.7.52,3.68,3.68,0,0,0,1.08.14,4.59,4.59,0,0,0,.62,0c.23,0,.45-.06.67-.1a11.11,11.11,0,0,1,.39,2.86V26a2,2,0,0,1-.07.52,6.71,6.71,0,0,1-1.38.25c-.54.05-1,.07-1.49.07a6.28,6.28,0,0,1-4.42-1.52c-1.11-1-1.66-2.67-1.66-5Z"/><path class="cls-3" d="M41.05,27.08a9.67,9.67,0,0,1-3.93-.74,7.37,7.37,0,0,1-2.75-2,8.85,8.85,0,0,1-1.65-3.06,12.56,12.56,0,0,1-.56-3.8,12.85,12.85,0,0,1,.56-3.83,8.86,8.86,0,0,1,1.65-3.1,7.52,7.52,0,0,1,2.75-2.06,9.5,9.5,0,0,1,3.93-.75A9.65,9.65,0,0,1,45,8.45a7.76,7.76,0,0,1,2.79,2.06,8.55,8.55,0,0,1,1.65,3.1A13.18,13.18,0,0,1,50,17.44a12.88,12.88,0,0,1-.53,3.8,8.54,8.54,0,0,1-1.65,3.06,7.6,7.6,0,0,1-2.79,2A9.82,9.82,0,0,1,41.05,27.08Zm0-3.87a3.1,3.1,0,0,0,2.88-1.49,8.54,8.54,0,0,0,.88-4.28,8.57,8.57,0,0,0-.88-4.28,3.09,3.09,0,0,0-2.88-1.48,3,3,0,0,0-2.85,1.48,8.46,8.46,0,0,0-.88,4.28,8.44,8.44,0,0,0,.88,4.28A3,3,0,0,0,41.05,23.21Z"/><path class="cls-3" d="M66.4,22.28a7.22,7.22,0,0,1,.72,1.66,7.86,7.86,0,0,1,.29,2.24,11.37,11.37,0,0,1-2.69.74,22,22,0,0,1-2.61.16,10.24,10.24,0,0,1-4-.74,7.72,7.72,0,0,1-2.85-2,8.62,8.62,0,0,1-1.7-3.06,12.53,12.53,0,0,1-.57-3.85,12.56,12.56,0,0,1,.55-3.8,8.63,8.63,0,0,1,1.69-3.08A7.85,7.85,0,0,1,58,8.45a9.49,9.49,0,0,1,3.9-.75c.53,0,1,0,1.45,0a10.07,10.07,0,0,1,1.27.14,10.78,10.78,0,0,1,1.22.29c.41.12.86.27,1.36.46A9.28,9.28,0,0,1,67,10.48a8.35,8.35,0,0,1-.68,1.95,10,10,0,0,0-3.73-.61,4,4,0,0,0-3.35,1.45,6.64,6.64,0,0,0-1.13,4.14,6.11,6.11,0,0,0,1.22,4.22A4.24,4.24,0,0,0,62.61,23l1,0a6.4,6.4,0,0,0,.88-.09,7.46,7.46,0,0,0,.88-.21Z"/><path class="cls-3" d="M80.23,14.47a3,3,0,0,0-.29-1.4,2.11,2.11,0,0,0-.78-.84,3.36,3.36,0,0,0-1.24-.41,11.5,11.5,0,0,0-1.63-.11,12.73,12.73,0,0,0-4.12.75,9.39,9.39,0,0,1-.75-1.75,6.74,6.74,0,0,1-.25-2A19.11,19.11,0,0,1,74.32,8a18.42,18.42,0,0,1,2.94-.25,8.71,8.71,0,0,1,5.82,1.79q2.08,1.8,2.09,5.73V26a30.74,30.74,0,0,1-3,.75,20.74,20.74,0,0,1-4,.36,15.85,15.85,0,0,1-3.35-.33,7.07,7.07,0,0,1-2.61-1.07,5.08,5.08,0,0,1-1.69-1.93,6.52,6.52,0,0,1-.59-2.9A5.33,5.33,0,0,1,70.58,18a5.79,5.79,0,0,1,1.89-1.86,8.32,8.32,0,0,1,2.6-1,13.34,13.34,0,0,1,2.87-.31c.69,0,1.45,0,2.29.11Zm0,3.69L79.3,18c-.34,0-.63-.05-.9-.05a5.24,5.24,0,0,0-2.77.63,2.19,2.19,0,0,0-1,2A2.28,2.28,0,0,0,75,22.06a2.34,2.34,0,0,0,1,.74,3.84,3.84,0,0,0,1.18.28c.42,0,.78.06,1.09.06a6.56,6.56,0,0,0,1.08-.09l.93-.16Z"/><path class="cls-3" d="M89.54.47A14.78,14.78,0,0,1,92.08.25a14.52,14.52,0,0,1,2.51.22v18.8a9.58,9.58,0,0,0,.13,1.79,2.61,2.61,0,0,0,.39,1.06,1.4,1.4,0,0,0,.7.52,3.61,3.61,0,0,0,1.07.14,4.74,4.74,0,0,0,.63,0,6.53,6.53,0,0,0,.66-.1,10.72,10.72,0,0,1,.4,2.86V26a2.58,2.58,0,0,1-.07.52,7,7,0,0,1-1.38.25c-.54.05-1,.07-1.49.07a6.27,6.27,0,0,1-4.42-1.52c-1.11-1-1.67-2.67-1.67-5Z"/><path class="cls-3" d="M120.27.47a11.42,11.42,0,0,1,1.28-.15c.41,0,.83,0,1.23,0l1.26,0a11.88,11.88,0,0,1,1.29.15V26a27,27,0,0,1-3.43.77,27.81,27.81,0,0,1-4.2.27,12.86,12.86,0,0,1-3.64-.52A8.4,8.4,0,0,1,111,24.91,7.76,7.76,0,0,1,108.9,22a11.1,11.1,0,0,1-.77-4.37,11.16,11.16,0,0,1,.66-3.85,9.35,9.35,0,0,1,1.9-3.13,9,9,0,0,1,3-2.1,9.71,9.71,0,0,1,3.91-.77c.43,0,.88,0,1.34.06a6.47,6.47,0,0,1,1.34.23Zm0,11.49a10.14,10.14,0,0,0-1.16-.23,9,9,0,0,0-1.13-.05,4.11,4.11,0,0,0-3.51,1.77,5.58,5.58,0,0,0-.84,1.9,9.41,9.41,0,0,0-.27,2.27,7.53,7.53,0,0,0,.36,2.49,4.17,4.17,0,0,0,1,1.63,3.59,3.59,0,0,0,1.48.88,6.15,6.15,0,0,0,1.86.27,9.29,9.29,0,0,0,1.11-.06,5.64,5.64,0,0,0,1.11-.23Z"/><path class="cls-3" d="M134.28,19a3.89,3.89,0,0,0,1.5,3.11,6,6,0,0,0,3.59,1,14.1,14.1,0,0,0,4.9-.9,8.68,8.68,0,0,1,.68,1.72,9.21,9.21,0,0,1,.33,2.15A17.44,17.44,0,0,1,139,27.08a12.15,12.15,0,0,1-4.42-.72,7.62,7.62,0,0,1-4.73-5,13.19,13.19,0,0,1,0-7.67,8.93,8.93,0,0,1,1.7-3.11,7.91,7.91,0,0,1,2.79-2.1,9.25,9.25,0,0,1,3.89-.77,8.35,8.35,0,0,1,3.44.68,7.71,7.71,0,0,1,2.56,1.86,8,8,0,0,1,1.59,2.82,11,11,0,0,1,.54,3.49c0,.45,0,.9,0,1.34s-.08.79-.13,1.06Zm7.27-3.55a4.48,4.48,0,0,0-1-2.77,3,3,0,0,0-2.45-1.06,3.51,3.51,0,0,0-2.72,1,4.6,4.6,0,0,0-1.11,2.83Z"/><path class="cls-3" d="M153.94,18.59a7,7,0,0,1-3.13-1.7,4.61,4.61,0,0,1-1.13-3.39,5.14,5.14,0,0,1,1.95-4.26A8.36,8.36,0,0,1,157,7.7a15,15,0,0,1,2.76.25,18.3,18.3,0,0,1,2.76.75,10.11,10.11,0,0,1-.36,1.94,9.26,9.26,0,0,1-.68,1.75,12.83,12.83,0,0,0-1.9-.62,8.65,8.65,0,0,0-2.19-.27,3.94,3.94,0,0,0-1.89.37,1.26,1.26,0,0,0-.68,1.2,1.23,1.23,0,0,0,.48,1.11,5.34,5.34,0,0,0,1.38.61l2,.61a10.34,10.34,0,0,1,1.81.7,5,5,0,0,1,1.38,1,4.26,4.26,0,0,1,.89,1.51,6.29,6.29,0,0,1,.33,2.18,5.59,5.59,0,0,1-.56,2.47,5.69,5.69,0,0,1-1.61,2,8,8,0,0,1-2.56,1.32,10.9,10.9,0,0,1-3.4.49c-.58,0-1.1,0-1.58-.06a10,10,0,0,1-1.38-.18c-.44-.08-.88-.18-1.31-.3s-.89-.27-1.39-.46a9.71,9.71,0,0,1,.34-2,12.16,12.16,0,0,1,.7-1.91,15.28,15.28,0,0,0,2.23.7,10.62,10.62,0,0,0,2.21.23,7.37,7.37,0,0,0,1.09-.09,4.18,4.18,0,0,0,1.09-.32,2.53,2.53,0,0,0,.84-.61,1.67,1.67,0,0,0-.18-2.22,4.92,4.92,0,0,0-1.45-.67Z"/><path class="cls-3" d="M167.84,12h-2.4a7.31,7.31,0,0,1-.16-1,8.44,8.44,0,0,1-.06-1,8.58,8.58,0,0,1,.22-1.9h7.38V26.65a15.65,15.65,0,0,1-2.51.21,15.35,15.35,0,0,1-2.47-.21Zm-.75-7a13.15,13.15,0,0,1-.22-2.4,13.64,13.64,0,0,1,.22-2.4c.4-.07.84-.12,1.3-.16s.89,0,1.28,0,.84,0,1.32.05.92.09,1.33.16a10.2,10.2,0,0,1,.14,1.21c0,.39,0,.79,0,1.19s0,.78,0,1.19A10,10,0,0,1,172.32,5a10.47,10.47,0,0,1-1.31.15l-1.31,0-1.29,0A10,10,0,0,1,167.09,5Z"/><path class="cls-3" d="M188.22,23.57A7.32,7.32,0,0,1,193,25a5,5,0,0,1,1.54,3.92,5,5,0,0,1-.79,2.74,6.86,6.86,0,0,1-2.15,2.1,11.08,11.08,0,0,1-3.22,1.32,16.51,16.51,0,0,1-4,.47,17.33,17.33,0,0,1-3.66-.34,7.88,7.88,0,0,1-2.45-.95,3.56,3.56,0,0,1-1.36-1.51,4.54,4.54,0,0,1-.41-2,4.29,4.29,0,0,1,.77-2.65,7.07,7.07,0,0,1,2.06-1.82A4.11,4.11,0,0,1,178,25.09a3.38,3.38,0,0,1-.48-1.88,3.93,3.93,0,0,1,.57-2.22,6.6,6.6,0,0,1,1.68-1.65,6.18,6.18,0,0,1-1.93-2.18,6,6,0,0,1-.68-2.87,6.43,6.43,0,0,1,.53-2.6,5.85,5.85,0,0,1,1.56-2.07,7.31,7.31,0,0,1,2.49-1.38,10,10,0,0,1,3.3-.5,9.43,9.43,0,0,1,3.29.55,8,8,0,0,1,2.51,1.42,4.24,4.24,0,0,1,1.68-1.35,6.82,6.82,0,0,1,2.73-.44c0,.31.09.61.12.91a7.18,7.18,0,0,1,0,.95q0,.57,0,1.14c0,.39-.07.78-.14,1.19h-2.91a5.17,5.17,0,0,1,.33.86,5.16,5.16,0,0,1,.14,1.32,6.42,6.42,0,0,1-.52,2.6A5.7,5.7,0,0,1,190.8,19a7.66,7.66,0,0,1-2.46,1.36,10,10,0,0,1-3.27.5,11,11,0,0,1-2.76-.32,1.62,1.62,0,0,0-.75.84,2.67,2.67,0,0,0-.15.84,1.24,1.24,0,0,0,.38.93,2.43,2.43,0,0,0,1.52.4Zm-4.59,3.72a3.14,3.14,0,0,0-1.3.18,2.33,2.33,0,0,0-.83.56,2,2,0,0,0-.43.75,2.82,2.82,0,0,0-.12.8,1.85,1.85,0,0,0,1,1.85,6.51,6.51,0,0,0,2.74.48,8,8,0,0,0,3.63-.71,2.17,2.17,0,0,0,1.38-1.94,2.54,2.54,0,0,0-.09-.68,1.42,1.42,0,0,0-.34-.59,1.88,1.88,0,0,0-.69-.45,3.3,3.3,0,0,0-1.2-.18Zm1.47-9.78a2.57,2.57,0,0,0,2.17-.85,3.83,3.83,0,0,0,.66-2.37,3.87,3.87,0,0,0-.66-2.38A2.52,2.52,0,0,0,185.1,11a2.64,2.64,0,0,0-2.22.88,3.8,3.8,0,0,0-.68,2.38,3.77,3.77,0,0,0,.68,2.37A2.69,2.69,0,0,0,185.1,17.51Z"/><path class="cls-3" d="M198.1,8.13a8.83,8.83,0,0,1,1-.16,9.43,9.43,0,0,1,1.11,0,8.64,8.64,0,0,1,1.07,0,9.31,9.31,0,0,1,1,.16,2.09,2.09,0,0,1,.2.52c.06.23.11.47.16.72s.09.49.12.73.07.44.09.61a9,9,0,0,1,.86-1.08,6.11,6.11,0,0,1,1.16-1,6.38,6.38,0,0,1,1.49-.7,5.86,5.86,0,0,1,1.83-.27,6.13,6.13,0,0,1,4.74,1.72q1.6,1.72,1.6,5.41V26.65a15.53,15.53,0,0,1-5.09,0V16.19a6,6,0,0,0-.59-3,2.15,2.15,0,0,0-2.06-1,4.61,4.61,0,0,0-1.25.18,2.64,2.64,0,0,0-1.17.7,3.85,3.85,0,0,0-.84,1.45,7.73,7.73,0,0,0-.32,2.43v9.71a15.53,15.53,0,0,1-5.09,0Z"/><path class="cls-3" d="M227,8.13A8.66,8.66,0,0,1,228,8a9.53,9.53,0,0,1,1.11,0,8.65,8.65,0,0,1,2,.21,2.09,2.09,0,0,1,.2.52c.06.23.11.47.16.72s.09.49.13.73.06.44.09.61a5.86,5.86,0,0,1,.75-1.08,5.48,5.48,0,0,1,1.11-1,5.91,5.91,0,0,1,1.45-.7,5.69,5.69,0,0,1,1.81-.27q4.33,0,5.55,3.3a7,7,0,0,1,2-2.31,5.35,5.35,0,0,1,3.32-1,5.75,5.75,0,0,1,4.63,1.74q1.49,1.74,1.49,5.42V26.65a15.53,15.53,0,0,1-5.09,0V16.19a7.28,7.28,0,0,0-.48-3,1.92,1.92,0,0,0-2-1,4.06,4.06,0,0,0-1.2.18,2.58,2.58,0,0,0-1.07.66,3.42,3.42,0,0,0-.79,1.36,6.89,6.89,0,0,0-.31,2.28v10a15.47,15.47,0,0,1-5.08,0V16.19a7.09,7.09,0,0,0-.49-3,1.92,1.92,0,0,0-1.95-1,4.29,4.29,0,0,0-1.22.18,2.4,2.4,0,0,0-1.09.7,3.67,3.67,0,0,0-.77,1.45,8.49,8.49,0,0,0-.29,2.43v9.71a15.47,15.47,0,0,1-5.08,0Z"/><path class="cls-3" d="M267.73,14.47a2.88,2.88,0,0,0-.29-1.4,2.11,2.11,0,0,0-.78-.84,3.36,3.36,0,0,0-1.24-.41,11.5,11.5,0,0,0-1.63-.11,12.73,12.73,0,0,0-4.12.75,10.11,10.11,0,0,1-.75-1.75,6.74,6.74,0,0,1-.25-2A19.11,19.11,0,0,1,261.82,8a18.42,18.42,0,0,1,2.94-.25,8.71,8.71,0,0,1,5.82,1.79c1.4,1.2,2.09,3.11,2.09,5.73V26a30.74,30.74,0,0,1-3,.75,20.6,20.6,0,0,1-4.05.36,15.85,15.85,0,0,1-3.35-.33,7.14,7.14,0,0,1-2.61-1.07,5,5,0,0,1-1.68-1.93,6.38,6.38,0,0,1-.59-2.9,5.32,5.32,0,0,1,.73-2.89A5.73,5.73,0,0,1,260,16.1a8.17,8.17,0,0,1,2.59-1,13.34,13.34,0,0,1,2.87-.31c.69,0,1.46,0,2.29.11Zm0,3.69L266.8,18c-.33,0-.63-.05-.9-.05a5.24,5.24,0,0,0-2.77.63,2.19,2.19,0,0,0-1,2,2.28,2.28,0,0,0,.39,1.43,2.41,2.41,0,0,0,.95.74,3.84,3.84,0,0,0,1.18.28c.42,0,.79.06,1.1.06a6.53,6.53,0,0,0,1.07-.09l.93-.16Z"/><path class="cls-3" d="M287.57,23.57a7.28,7.28,0,0,1,4.8,1.45,5,5,0,0,1,1.54,3.92,5,5,0,0,1-.78,2.74,7.07,7.07,0,0,1-2.15,2.1,11.15,11.15,0,0,1-3.23,1.32,16.51,16.51,0,0,1-4,.47,17.23,17.23,0,0,1-3.65-.34,8,8,0,0,1-2.46-.95,3.62,3.62,0,0,1-1.36-1.51,4.69,4.69,0,0,1-.41-2,4.36,4.36,0,0,1,.77-2.65,7.07,7.07,0,0,1,2.06-1.82,4.22,4.22,0,0,1-1.31-1.24,3.38,3.38,0,0,1-.48-1.88,3.93,3.93,0,0,1,.57-2.22,6.66,6.66,0,0,1,1.69-1.65,6.21,6.21,0,0,1-1.94-2.18,6.11,6.11,0,0,1-.68-2.87,6.27,6.27,0,0,1,.54-2.6,5.85,5.85,0,0,1,1.56-2.07,7.31,7.31,0,0,1,2.49-1.38,9.93,9.93,0,0,1,3.29-.5,9.52,9.52,0,0,1,3.3.55,7.91,7.91,0,0,1,2.5,1.42,4.34,4.34,0,0,1,1.69-1.35,6.77,6.77,0,0,1,2.72-.44c.05.31.09.61.13.91a9.41,9.41,0,0,1,.05.95c0,.38,0,.76,0,1.14a10.12,10.12,0,0,1-.14,1.19h-2.9a5.22,5.22,0,0,1,.32.86,4.75,4.75,0,0,1,.14,1.32,6.59,6.59,0,0,1-.51,2.6A5.73,5.73,0,0,1,290.15,19a7.6,7.6,0,0,1-2.45,1.36,10.13,10.13,0,0,1-3.28.5,11.07,11.07,0,0,1-2.76-.32,1.71,1.71,0,0,0-.75.84,3,3,0,0,0-.14.84,1.23,1.23,0,0,0,.37.93,2.47,2.47,0,0,0,1.53.4ZM283,27.29a3.19,3.19,0,0,0-1.31.18,2.29,2.29,0,0,0-.82.56,1.88,1.88,0,0,0-.43.75,2.84,2.84,0,0,0-.13.8,1.85,1.85,0,0,0,1,1.85,6.54,6.54,0,0,0,2.74.48,8,8,0,0,0,3.64-.71,2.17,2.17,0,0,0,1.38-1.94,2.54,2.54,0,0,0-.09-.68,1.42,1.42,0,0,0-.34-.59,1.93,1.93,0,0,0-.7-.45,3.3,3.3,0,0,0-1.2-.18Zm1.47-9.78a2.56,2.56,0,0,0,2.16-.85,3.77,3.77,0,0,0,.67-2.37,3.8,3.8,0,0,0-.67-2.38,2.52,2.52,0,0,0-2.16-.88,2.61,2.61,0,0,0-2.22.88,3.74,3.74,0,0,0-.68,2.38,3.71,3.71,0,0,0,.68,2.37A2.66,2.66,0,0,0,284.46,17.51Z"/><path class="cls-3" d="M306.7,14.47a3,3,0,0,0-.29-1.4,2.11,2.11,0,0,0-.78-.84,3.36,3.36,0,0,0-1.24-.41,11.5,11.5,0,0,0-1.63-.11,12.73,12.73,0,0,0-4.12.75,10.11,10.11,0,0,1-.75-1.75,6.74,6.74,0,0,1-.25-2A19.11,19.11,0,0,1,300.79,8a18.42,18.42,0,0,1,2.94-.25,8.71,8.71,0,0,1,5.82,1.79q2.08,1.8,2.09,5.73V26a30.74,30.74,0,0,1-3,.75,20.67,20.67,0,0,1-4.05.36,15.85,15.85,0,0,1-3.35-.33,7.14,7.14,0,0,1-2.61-1.07,5.08,5.08,0,0,1-1.69-1.93,6.52,6.52,0,0,1-.59-2.9,5.33,5.33,0,0,1,.74-2.89,5.79,5.79,0,0,1,1.89-1.86,8.32,8.32,0,0,1,2.6-1,13.34,13.34,0,0,1,2.87-.31c.69,0,1.45,0,2.29.11Zm0,3.69-.93-.13c-.33,0-.63-.05-.9-.05a5.24,5.24,0,0,0-2.77.63,2.19,2.19,0,0,0-1,2,2.28,2.28,0,0,0,.39,1.43,2.34,2.34,0,0,0,.95.74,3.84,3.84,0,0,0,1.18.28c.42,0,.78.06,1.09.06a6.56,6.56,0,0,0,1.08-.09l.93-.16Z"/><path class="cls-3" d="M314.61,26.22,323,12h-7.09a7.69,7.69,0,0,1-.14-1c0-.34,0-.67,0-1a9.1,9.1,0,0,1,0-.91,6.82,6.82,0,0,1,.14-.95h14.58l.18.43-8.49,14.18H330a8.06,8.06,0,0,1,.14,1c0,.34,0,.67,0,1s0,.61,0,.91a7,7,0,0,1-.14.95H314.9Z"/><path class="cls-3" d="M334.82,12h-2.4a7.31,7.31,0,0,1-.16-1,8.44,8.44,0,0,1-.06-1,8,8,0,0,1,.22-1.9h7.37V26.65a14.81,14.81,0,0,1-5,0Zm-.76-7a14.07,14.07,0,0,1-.21-2.4,14.62,14.62,0,0,1,.21-2.4c.41-.07.85-.12,1.31-.16s.89,0,1.27,0,.85,0,1.33.05.92.09,1.32.16c.07.41.12.81.15,1.21s0,.79,0,1.19,0,.78,0,1.19-.08.81-.15,1.21a10.1,10.1,0,0,1-1.3.15l-1.31,0-1.29,0A10.38,10.38,0,0,1,334.06,5Z"/><path class="cls-3" d="M344.81,8.13a8.66,8.66,0,0,1,1-.16,9.64,9.64,0,0,1,1.11,0,8.65,8.65,0,0,1,2,.21,2.09,2.09,0,0,1,.2.52c.06.23.11.47.16.72s.09.49.13.73.06.44.09.61a7.39,7.39,0,0,1,.86-1.08,6.11,6.11,0,0,1,1.16-1,6.2,6.2,0,0,1,1.49-.7,5.8,5.8,0,0,1,1.82-.27,6.15,6.15,0,0,1,4.75,1.72q1.59,1.72,1.59,5.41V26.65a15.47,15.47,0,0,1-5.08,0V16.19a6.12,6.12,0,0,0-.59-3,2.17,2.17,0,0,0-2.06-1,4.68,4.68,0,0,0-1.26.18,2.61,2.61,0,0,0-1.16.7,3.61,3.61,0,0,0-.84,1.45,7.42,7.42,0,0,0-.33,2.43v9.71a15.47,15.47,0,0,1-5.08,0Z"/><path class="cls-3" d="M369.88,19a3.91,3.91,0,0,0,1.5,3.11A6.05,6.05,0,0,0,375,23a14.33,14.33,0,0,0,2.49-.23,14.24,14.24,0,0,0,2.41-.67,8.11,8.11,0,0,1,.68,1.72,8.71,8.71,0,0,1,.33,2.15,17.44,17.44,0,0,1-6.31,1.08,12.15,12.15,0,0,1-4.42-.72,7.62,7.62,0,0,1-4.73-5,12.68,12.68,0,0,1-.55-3.84,12.58,12.58,0,0,1,.57-3.83,8.93,8.93,0,0,1,1.7-3.11,7.86,7.86,0,0,1,2.8-2.1,9.17,9.17,0,0,1,3.88-.77,8.31,8.31,0,0,1,3.44.68,7.71,7.71,0,0,1,2.56,1.86,7.81,7.81,0,0,1,1.59,2.82,11,11,0,0,1,.54,3.49c0,.45,0,.9-.05,1.34s-.08.79-.13,1.06Zm7.27-3.55a4.48,4.48,0,0,0-.95-2.77,3,3,0,0,0-2.45-1.06,3.51,3.51,0,0,0-2.72,1,4.72,4.72,0,0,0-1.11,2.83Z"/></g><path class="cls-4" d="M387.06,12.8a3.66,3.66,0,0,1-1.39-.26,3.25,3.25,0,0,1-1.07-.72,3,3,0,0,1-.69-1.08,3.8,3.8,0,0,1,0-2.71,3.16,3.16,0,0,1,.69-1.09,3.08,3.08,0,0,1,1.07-.71A3.66,3.66,0,0,1,387.06,6a3.48,3.48,0,0,1,1.39.26,3.08,3.08,0,0,1,1.08.71A3.38,3.38,0,0,1,390.22,8a3.58,3.58,0,0,1,.25,1.36,3.54,3.54,0,0,1-.25,1.36,3.18,3.18,0,0,1-.69,1.08,3.4,3.4,0,0,1-1.08.72,3.66,3.66,0,0,1-1.39.26m0-.68a2.83,2.83,0,0,0,1.12-.21,2.52,2.52,0,0,0,.84-.58,2.4,2.4,0,0,0,.53-.87,3.14,3.14,0,0,0,.18-1.08,3.22,3.22,0,0,0-.18-1.08,2.44,2.44,0,0,0-.53-.86,2.38,2.38,0,0,0-.84-.58,3.09,3.09,0,0,0-2.24,0,2.38,2.38,0,0,0-.84.58,2.59,2.59,0,0,0-.53.86,3.22,3.22,0,0,0-.18,1.08,3.14,3.14,0,0,0,.18,1.08,2.45,2.45,0,0,0,1.37,1.45,2.83,2.83,0,0,0,1.12.21m-1.23-4.57.5-.06a4.22,4.22,0,0,1,.53,0,2,2,0,0,1,1.25.31,1,1,0,0,1,.38.82,1.24,1.24,0,0,1-.13.55,1,1,0,0,1-.28.37l-.13.11.8,1.43a1.12,1.12,0,0,1-.27,0h-.54a.78.78,0,0,1-.22,0l-.83-1.6.14-.1a1.11,1.11,0,0,0,.35-.28.49.49,0,0,0,.14-.37.45.45,0,0,0-.13-.34.52.52,0,0,0-.4-.14h-.12l-.14,0v2.81a1.8,1.8,0,0,1-.43,0h-.23l-.24,0Z"/></g></g></svg>