<?xml version="1.0" standalone="no"?>
<!DOCTYPE svg PUBLIC "-//W3C//DTD SVG 1.1//EN" "http://www.w3.org/Graphics/SVG/1.1/DTD/svg11.dtd" >
<svg xmlns="http://www.w3.org/2000/svg" xmlns:xlink="http://www.w3.org/1999/xlink" version="1.1">
<metadata>
Created by FontForge 20170910 at Tue Mar 13 16:04:34 2018
 By Jimmy Wärting
Copyright (C) 1990 The Monotype Corporation Plc. All Rights Reserved. 
</metadata>
<defs>
<font id="Bembo-Bold" horiz-adv-x="573" >
  <font-face 
    font-family="Bembo Bold"
    font-weight="700"
    font-stretch="normal"
    units-per-em="1000"
    panose-1="0 0 0 0 0 0 0 0 0 0"
    ascent="800"
    descent="-200"
    x-height="408"
    cap-height="622"
    bbox="-154 -233 1031 871"
    underline-thickness="50"
    underline-position="-100"
    unicode-range="U+000D-FB02"
  />
<missing-glyph horiz-adv-x="333" 
 />
    <glyph glyph-name=".notdef" horiz-adv-x="333" 
 />
    <glyph glyph-name=".null" horiz-adv-x="0" 
 />
    <glyph glyph-name=".null" horiz-adv-x="0" 
 />
    <glyph glyph-name="nonmarkingreturn" unicode="&#xd;" horiz-adv-x="250" 
 />
    <glyph glyph-name="space" unicode=" " horiz-adv-x="333" 
 />
    <glyph glyph-name="exclam" unicode="!" horiz-adv-x="313" 
d="M156 124q35 0 58 -19t23 -48q0 -28 -22.5 -48t-58.5 -20t-58 20t-22 48q0 29 24 48t56 19zM139 224l-56 372q-4 26 1 33.5t27 7.5h90q24 0 28 -7.5t1 -33.5l-57 -372h-34z" />
    <glyph glyph-name="quotedbl" unicode="&#x22;" horiz-adv-x="552" 
d="M332 499q-5 17 -7.5 33.5t-2.5 29.5q0 32 20.5 53.5t51.5 21.5t51.5 -21.5t20.5 -53.5q0 -13 -2.5 -29.5t-7.5 -33.5l-50 -187h-24zM96 499q-5 17 -7.5 33.5t-2.5 29.5q0 32 20.5 53.5t51.5 21.5t51.5 -21.5t20.5 -53.5q0 -13 -2.5 -29.5t-7.5 -33.5l-50 -187h-24z" />
    <glyph glyph-name="numbersign" unicode="#" horiz-adv-x="668" 
d="M199 470l42 194h70l-42 -194h195l41 194h70l-41 -194h92v-70h-105l-36 -171h141v-70h-155l-41 -193h-70l41 193h-196l-41 -193h-70l41 193h-93v70h107l36 171h-143v70h157zM219 229h196l36 171h-196z" />
    <glyph glyph-name="dollar" unicode="$" horiz-adv-x="479" 
d="M217 -10q-38 1 -72.5 13t-60 30.5t-40.5 42.5t-15 50q0 25 15.5 41t38.5 16t34.5 -10.5t18 -27t10.5 -36t11 -37t21 -31t39 -17.5v242q-80 39 -125.5 84.5t-45.5 113.5q0 63 41.5 108.5t129.5 56.5v43h31v-43q34 -1 65 -11.5t55 -26.5t38.5 -36.5t14.5 -42.5
q0 -21 -15 -36t-37 -15q-30 0 -41.5 17.5t-19.5 40.5t-19.5 44.5t-40.5 30.5v-200q49 -24 86 -47t61.5 -48t36.5 -54.5t12 -65.5q0 -38 -14.5 -71t-40.5 -58t-62 -41t-79 -19v-83h-31v83zM217 597q-34 -5 -56 -27.5t-22 -54.5q0 -31 18 -55.5t60 -48.5v186zM248 23
q40 6 66.5 36t26.5 71q0 37 -22 65t-71 54v-226z" />
    <glyph glyph-name="percent" unicode="%" horiz-adv-x="896" 
d="M706 -8q-28 0 -51.5 12.5t-40.5 35t-26.5 53t-9.5 67.5q0 77 35.5 124t92.5 47q58 0 93.5 -47t35.5 -124q0 -37 -9.5 -67.5t-27 -53t-41 -35t-51.5 -12.5zM665 90q0 -27 7.5 -49.5t33.5 -22.5q14 0 22.5 6t13 16.5t5.5 23.5t1 26v146q0 12 -1.5 24.5t-6 22.5t-12.5 16.5
t-22 6.5q-25 0 -33 -22.5t-8 -47.5v-146zM189 298q-28 0 -51.5 12.5t-40.5 35t-26.5 53t-9.5 67.5q0 77 35.5 124t92.5 47q58 0 93.5 -47t35.5 -124q0 -37 -9.5 -67.5t-27 -53t-41 -35t-51.5 -12.5zM148 396q0 -27 7.5 -49.5t33.5 -22.5q14 0 22.5 6t13 16.5t5.5 23.5t1 26
v146q0 12 -1.5 24.5t-6 22.5t-12.5 16.5t-22 6.5q-25 0 -33 -22.5t-8 -47.5v-146zM635 638h71l-445 -666h-71z" />
    <glyph glyph-name="ampersand" unicode="&#x26;" horiz-adv-x="750" 
d="M714 41q-27 -25 -65.5 -40t-76.5 -15q-23 0 -41 5t-34 15.5t-30.5 28t-31.5 42.5q-41 -42 -95.5 -66.5t-107.5 -24.5q-35 0 -67 12t-56 34t-38 53.5t-14 70.5q0 57 38.5 99t122.5 76q-39 36 -56.5 66.5t-17.5 65.5q0 27 12 49.5t34 38t52.5 24.5t67.5 9q66 0 106 -28
t40 -76q0 -73 -91 -116q19 -14 35 -28t32 -30.5t33 -37.5t38 -49q14 20 28 43.5t25 46t18 40.5t7 27t-10 13t-36 4h-12v38h198v-38h-16q-23 0 -36 -3.5t-24 -14.5q-9 -9 -20.5 -29.5t-26 -47t-32 -57t-39.5 -60.5q17 -28 30 -52t26 -41.5t26.5 -27t29.5 -9.5q13 0 28 7
t28 19zM180 195q0 -27 9.5 -52t26 -44t37.5 -30t45 -11q29 0 55.5 13.5t59.5 44.5q-28 53 -72 100.5t-90 89.5q-71 -43 -71 -111zM253 492q0 -30 18.5 -51.5t57.5 -52.5q43 40 43 88q0 32 -18 51t-47 19q-25 0 -39.5 -14.5t-14.5 -39.5z" />
    <glyph glyph-name="quotesingle" unicode="'" horiz-adv-x="281" 
d="M79 499q-5 17 -7.5 33.5t-2.5 29.5q0 32 20.5 53.5t51.5 21.5t51.5 -21.5t20.5 -53.5q0 -13 -2.5 -29.5t-7.5 -33.5l-50 -187h-24z" />
    <glyph glyph-name="parenleft" unicode="(" horiz-adv-x="354" 
d="M189 220q0 -56 6.5 -111t22.5 -108t42.5 -103t66.5 -95h-42q-108 91 -163 197t-55 220t55 220t163 197h42q-40 -45 -66.5 -95t-42.5 -103t-22.5 -108t-6.5 -111z" />
    <glyph glyph-name="parenright" unicode=")" horiz-adv-x="354" 
d="M165 220q0 56 -6.5 111t-22.5 108t-42.5 103t-66.5 95h42q108 -91 163 -197t55 -220t-55 -220t-163 -197h-42q40 45 66.5 95t42.5 103t22.5 108t6.5 111z" />
    <glyph glyph-name="asterisk" unicode="*" horiz-adv-x="521" 
d="M140 212l-33 20l65 147l-136 79l12 38l159 -14l34 155h37l35 -155l160 14l12 -38l-138 -79l63 -147l-32 -20l-120 105z" />
    <glyph glyph-name="plus" unicode="+" horiz-adv-x="667" 
d="M600 364v-76h-229v-229h-76v229h-229v76h229v229h76v-229h229z" />
    <glyph glyph-name="comma" unicode="," horiz-adv-x="313" 
d="M77 -104q48 4 79 27t31 56q0 9 -4 12t-10.5 3t-15.5 -1.5t-18 -1.5q-36 0 -55.5 18t-19.5 48t21 48.5t56 18.5q50 0 79 -31t29 -84q0 -34 -12.5 -63t-34 -49.5t-51.5 -32t-66 -10.5z" />
    <glyph glyph-name="hyphen" unicode="-" horiz-adv-x="417" 
d="M35 251h346v-98h-346v98z" />
    <glyph glyph-name="period" unicode="." horiz-adv-x="313" 
d="M156 124q35 0 58 -19t23 -48q0 -28 -22.5 -48t-58.5 -20t-58 20t-22 48q0 29 24 48t56 19z" />
    <glyph glyph-name="slash" unicode="/" horiz-adv-x="531" 
d="M485 641l-357 -659h-81l357 659h81z" />
    <glyph glyph-name="zero" unicode="0" horiz-adv-x="500" 
d="M42 311q0 81 17 142t45.5 102t66.5 61.5t79 20.5q38 0 75.5 -19t66.5 -59t47 -101.5t18 -146.5q0 -91 -19.5 -153t-50 -100t-67 -55t-70.5 -17q-40 0 -78 20t-66.5 60.5t-46 101.5t-17.5 143zM170 189q0 -83 16.5 -124.5t62.5 -41.5q48 0 64 43t16 139v221q0 56 -7 90
t-18 53t-25 25t-28 6q-45 0 -63 -36.5t-18 -114.5v-260z" />
    <glyph glyph-name="one" unicode="1" horiz-adv-x="500" 
d="M324 79q0 -22 8 -33.5t29 -11.5h64v-34h-318v34h60q19 0 27 11t8 30v437q-23 -15 -56 -30t-62 -23l-13 30q119 58 197 148h56v-558z" />
    <glyph glyph-name="two" unicode="2" horiz-adv-x="500" 
d="M32 35q76 84 126.5 139.5t81 97.5t43.5 77t13 76q0 60 -27 94.5t-74 34.5q-42 0 -73.5 -31t-40.5 -80h-39q6 43 23 79t43.5 61.5t60 39.5t72.5 14q38 0 70 -13.5t55.5 -37.5t37 -56.5t13.5 -70.5q0 -54 -22 -93t-59 -76.5t-85.5 -80.5t-102.5 -105h189q40 0 53.5 19.5
t18.5 57.5h33l-20 -181h-390v35z" />
    <glyph glyph-name="three" unicode="3" horiz-adv-x="500" 
d="M152 333q54 43 78.5 78t24.5 73q0 33 -20 54.5t-52 21.5q-55 0 -95 -73l-29 13q23 65 69.5 101t108.5 36q29 0 53.5 -8.5t42.5 -23.5t28.5 -35t10.5 -43q0 -38 -24.5 -73t-80.5 -67l2 -2q33 2 60.5 -10t47.5 -34.5t31.5 -54t11.5 -68.5q0 -50 -18.5 -93t-51.5 -74
t-78.5 -48.5t-98.5 -17.5q-31 0 -57.5 6.5t-46 18t-30.5 26.5t-11 33q0 23 15 37.5t38 14.5q26 0 40 -14t25.5 -30.5t26.5 -30.5t42 -14q39 0 63 37.5t24 98.5q0 64 -28 103.5t-73 39.5q-9 0 -15.5 -1.5t-16.5 -5.5z" />
    <glyph glyph-name="four" unicode="4" horiz-adv-x="500" 
d="M250 156h-217v45l286 436h53v-415h85v-66h-85v-171h-122v171zM250 460h-2l-155 -238h157v238z" />
    <glyph glyph-name="five" unicode="5" horiz-adv-x="500" 
d="M96 622h223q18 0 25 3.5t11 13.5h33l-17 -115h-237l-5 -120q28 8 44.5 10t36.5 2q48 0 88 -15.5t69.5 -43.5t45.5 -66.5t16 -84.5q0 -48 -18.5 -88.5t-51 -70t-77 -46t-97.5 -16.5q-62 0 -101 23t-39 58q0 23 14.5 36.5t37.5 13.5q26 0 39.5 -13.5t24 -30t23 -30.5
t35.5 -14q40 0 66.5 37.5t26.5 94.5q0 67 -33 107.5t-87 40.5q-41 0 -78 -20l-29 15z" />
    <glyph glyph-name="six" unicode="6" horiz-adv-x="500" 
d="M403 607q-90 -30 -146.5 -96.5t-71.5 -158.5q26 18 50.5 26.5t52.5 8.5q38 0 69.5 -14t54 -39t34.5 -60t12 -77q0 -46 -14.5 -85t-41 -67t-63 -43.5t-80.5 -15.5q-48 0 -88 19t-68.5 53.5t-44 82.5t-15.5 107q0 74 24 138t68.5 115t107.5 86t141 51zM330 185
q0 24 -1.5 51t-9 50t-22 38t-41.5 15t-46 -11t-33 -22q-2 -10 -4 -34t-2 -62q0 -26 2.5 -58.5t10.5 -61t25 -48t45 -19.5t43.5 15.5t22.5 39t8.5 52t1.5 55.5z" />
    <glyph glyph-name="seven" unicode="7" horiz-adv-x="500" 
d="M351 510h-200q-22 0 -36 -2t-22 -8t-12.5 -18t-8.5 -33h-36l14 173h405v-40l-230 -597h-99z" />
    <glyph glyph-name="eight" unicode="8" horiz-adv-x="500" 
d="M439 487q0 -45 -28 -78t-90 -60q68 -35 100 -79t32 -99q0 -38 -16.5 -72t-44.5 -59.5t-65.5 -40t-79.5 -14.5q-40 0 -76.5 12.5t-64 35t-44 53t-16.5 66.5q0 97 121 147q-55 39 -82.5 78.5t-27.5 90.5q0 36 14.5 67t40.5 53.5t61 35.5t75 13q39 0 74 -12t61 -32.5
t41 -47.5t15 -58zM354 122q0 27 -9 47t-27.5 37t-47 33.5t-66.5 37.5q-29 -24 -41 -51t-12 -71q0 -63 26.5 -98t74.5 -35q45 0 73.5 28t28.5 72zM341 486q0 54 -25 84t-72 30q-40 0 -64.5 -24t-24.5 -62q0 -42 31 -74.5t105 -69.5q26 22 38 49.5t12 66.5z" />
    <glyph glyph-name="nine" unicode="9" horiz-adv-x="500" 
d="M93 18q49 16 86.5 41.5t64.5 58.5t44 72.5t26 81.5q-31 -19 -53.5 -26.5t-49.5 -7.5q-37 0 -68.5 14t-54.5 39t-35.5 60t-12.5 76q0 45 15 83.5t42 66.5t64 44t80 16q48 0 88 -18t68.5 -52t44 -84t15.5 -113q0 -70 -24 -133.5t-68.5 -114t-107.5 -86t-141 -51.5zM168 445
q0 -26 1 -54t8 -51.5t21 -39t41 -15.5q23 0 43.5 9t39.5 22q2 23 4.5 51t2.5 54q0 28 -3 59.5t-12 58t-26 44t-45 17.5q-25 0 -40 -13.5t-23 -35t-10 -49.5t-2 -57z" />
    <glyph glyph-name="colon" unicode=":" horiz-adv-x="313" 
d="M156 419q35 0 58 -19t23 -48q0 -28 -22.5 -48t-58.5 -20t-58 20t-22 48q0 29 24 48t56 19zM156 124q35 0 58 -19t23 -48q0 -28 -22.5 -48t-58.5 -20t-58 20t-22 48q0 29 24 48t56 19z" />
    <glyph glyph-name="semicolon" unicode=";" horiz-adv-x="313" 
d="M77 -104q48 4 79 27t31 56q0 9 -4 12t-10.5 3t-15.5 -1.5t-18 -1.5q-36 0 -55.5 18t-19.5 48t21 48.5t56 18.5q50 0 79 -31t29 -84q0 -34 -12.5 -63t-34 -49.5t-51.5 -32t-66 -10.5zM159 419q35 0 58 -19t23 -48q0 -28 -22.5 -48t-58.5 -20t-58 20t-22 48q0 29 24 48
t56 19z" />
    <glyph glyph-name="less" unicode="&#x3c;" horiz-adv-x="667" 
d="M66 361l534 224v-83l-430 -176l430 -176v-83l-534 224v70z" />
    <glyph glyph-name="equal" unicode="=" horiz-adv-x="667" 
d="M600 480v-76h-534v76h534zM600 250v-76h-534v76h534z" />
    <glyph glyph-name="greater" unicode="&#x3e;" horiz-adv-x="667" 
d="M601 291l-534 -224v83l430 176l-430 176v83l534 -224v-70z" />
    <glyph glyph-name="question" unicode="?" horiz-adv-x="365" 
d="M114 185q-42 71 -42 114q0 30 15.5 46.5t39 27t50.5 16.5t50.5 15.5t39 24t15.5 41.5q0 28 -18 46t-47 18q-16 0 -29.5 -2.5t-26.5 -6t-26.5 -6t-29.5 -2.5q-29 0 -45 14t-16 39q0 31 26.5 49t71.5 18q41 0 75.5 -15t59.5 -42t39 -64t14 -82q0 -47 -14.5 -76.5t-36.5 -48
t-48 -28t-48 -16t-36.5 -13t-14.5 -18.5q0 -10 3 -19.5t14 -29.5h-35zM143 124q35 0 58 -19t23 -48q0 -28 -22.5 -48t-58.5 -20t-58 20t-22 48q0 29 24 48t56 19z" />
    <glyph glyph-name="at" unicode="@" horiz-adv-x="927" 
d="M695 457l-90 -307q-5 -17 -9.5 -40t-4.5 -35q0 -17 11.5 -28t28.5 -11q24 0 60 20.5t69.5 59.5t57 95t23.5 128q0 68 -23 125t-64 97.5t-99 63t-127 22.5q-111 0 -192 -41.5t-134.5 -106.5t-79.5 -145.5t-26 -157.5q0 -85 28 -155.5t79 -121.5t121 -79.5t154 -28.5
q67 0 130.5 19.5t117 55t93 85t58.5 110.5h31q-58 -144 -169 -220.5t-262 -76.5q-94 0 -173.5 32t-137 89t-89.5 135.5t-32 172.5q0 101 35.5 186t98.5 147t149.5 97t188.5 35q79 0 143.5 -23.5t110.5 -67t71.5 -104.5t25.5 -135q0 -73 -22.5 -137t-62 -110.5t-93 -73.5
t-115.5 -27q-47 0 -73 23t-26 64q0 12 3 29.5t9 35.5l-2 2q-42 -72 -80 -113t-87 -41q-38 0 -59.5 29.5t-21.5 80.5q0 72 26.5 137t64.5 114.5t82 79t78 29.5q31 0 47.5 -18t21.5 -58h2l16 58zM502 435q-21 0 -45.5 -33.5t-45 -80.5t-34.5 -98.5t-14 -86.5q0 -20 8 -33
t21 -13q16 0 40.5 25.5t48 66t40 90.5t16.5 98q0 30 -10 47.5t-25 17.5z" />
    <glyph glyph-name="A" unicode="A" horiz-adv-x="740" 
d="M224 231l-42 -117q-7 -19 -9 -33t5.5 -23.5t27 -14t55.5 -4.5h13v-39h-265v39h15q36 0 57.5 19.5t40.5 72.5l171 477l-11 29h148l200 -508q10 -25 19.5 -41.5t21 -27t26 -15t33.5 -6.5v-39h-325v39h35q46 0 55.5 19.5t-5.5 56.5l-47 116h-219zM328 520l-84 -234h176z" />
    <glyph glyph-name="B" unicode="B" horiz-adv-x="698" 
d="M131 495q0 29 -3 46.5t-12 26.5t-26 12t-46 3h-25v39q19 1 52.5 3.5t73.5 4.5q45 2 87.5 4.5t74.5 2.5q94 0 164 -15t111 -56q19 -19 28.5 -43.5t9.5 -47.5q0 -90 -123 -117v-2q73 -16 115.5 -61.5t42.5 -106.5q0 -38 -17 -72.5t-50 -60t-81 -40.5t-110 -15h-387v39
q37 0 60.5 5t37 15t18.5 26t5 38v372zM269 135q0 -55 21.5 -72.5t69.5 -17.5q42 0 69 12.5t43 32t22 44.5t6 50q0 23 -6.5 49t-24 48t-48 37t-79.5 15q-14 0 -38 -1t-35 -2v-195zM269 373q17 -1 40 -1.5t37 -0.5q38 0 62 9t38 24t19.5 34t5.5 38q0 21 -6.5 43t-23 39.5
t-45.5 28.5t-74 11q-16 0 -28 -0.5t-25 -2.5v-222z" />
    <glyph glyph-name="C" unicode="C" horiz-adv-x="740" 
d="M702 179q-3 -20 -8.5 -43.5t-13 -48t-16.5 -47.5t-18 -43q-22 7 -59 7q-35 0 -75.5 -9t-96.5 -9q-77 0 -143.5 25t-115.5 68.5t-77 102.5t-28 127q0 69 30 129t81.5 104t121.5 69.5t150 25.5q39 0 71 -6.5t56.5 -14t41 -14t23.5 -6.5q11 0 20 10h25l9 -175h-39
q-24 75 -75.5 115t-123.5 40q-54 0 -98.5 -19.5t-76.5 -54.5t-49.5 -84t-17.5 -108q0 -60 19.5 -112.5t53.5 -90.5t80 -60t100 -22q69 0 123.5 37.5t85.5 106.5h40z" />
    <glyph glyph-name="D" unicode="D" horiz-adv-x="823" 
d="M21 622q41 2 84 4t77 4q38 2 69 3.5t68 1.5q75 0 131.5 -5t100 -16.5t76 -30.5t60.5 -47q40 -40 62 -93t22 -117q0 -69 -26.5 -126.5t-66.5 -97.5q-19 -19 -45.5 -37.5t-66 -32.5t-95 -23t-132.5 -9h-318v39q50 0 71.5 13.5t21.5 56.5v386q0 27 -3.5 44t-14 26.5
t-28.5 13.5t-47 4v39zM252 116q0 -25 3 -40t12 -23t26 -10.5t46 -2.5q84 0 139 26t87 66t44.5 88t12.5 93q0 63 -20 116t-54 87q-37 37 -89 54.5t-129 17.5q-20 0 -38 -1t-40 -4v-467z" />
    <glyph glyph-name="E" unicode="E" horiz-adv-x="646" 
d="M543 477q-8 51 -21 70.5t-48 19.5h-219v-225h162q42 0 58.5 16t16.5 56h40v-199h-40q0 20 -3 34t-13 22.5t-27.5 12t-46.5 3.5h-147v-180q0 -32 7.5 -42t29.5 -10h167q24 0 42.5 4t32 15.5t23.5 31.5t17 51h38l-12 -157h-602v39h41q44 0 61 17.5t17 54.5v399
q0 41 -17.5 57t-69.5 16h-10v39h551l10 -145h-38z" />
    <glyph glyph-name="F" unicode="F" horiz-adv-x="594" 
d="M251 342h139q53 0 70 15t17 58h40v-199h-40q0 36 -14.5 53.5t-54.5 17.5h-157v-161q0 -27 3 -44t10.5 -26.5t20.5 -13t33 -3.5h19v-39h-299v39h16q32 0 45.5 12.5t13.5 44.5v405q0 48 -14.5 65.5t-47.5 17.5h-13v38h505v-141h-36q-3 50 -16 68t-47 18h-193v-225z" />
    <glyph glyph-name="G" unicode="G" horiz-adv-x="781" 
d="M758 261q-40 -1 -55.5 -14.5t-15.5 -48.5v-149q-27 -12 -59 -23.5t-66 -20.5t-69 -14t-67 -5q-95 0 -165.5 25t-117 69.5t-69.5 105.5t-23 133q0 69 27 127t75 100.5t115 66.5t147 24q39 0 73 -5.5t61.5 -12t48.5 -12t34 -5.5q20 0 30 13h25v-183h-40q-20 77 -74.5 119.5
t-132.5 42.5q-53 0 -97.5 -20t-76 -56t-49 -86.5t-17.5 -111.5t18.5 -113.5t50.5 -91t76.5 -60t96.5 -21.5q29 0 58 7t49 19v138q0 19 -5 31t-18.5 18.5t-37.5 9.5t-62 4v38h332v-38z" />
    <glyph glyph-name="H" unicode="H" horiz-adv-x="833" 
d="M506 39q40 0 57.5 18t17.5 59v178h-330v-180q0 -40 17.5 -57.5t59.5 -17.5h15v-39h-321v39h17q74 0 74 73v398q0 38 -17.5 55.5t-57.5 17.5h-16v39h321v-39h-14q-39 0 -58.5 -15.5t-19.5 -57.5v-157h330v154q0 42 -18 59t-62 17h-9v39h320v-39h-18q-38 0 -56.5 -16
t-18.5 -57v-396q0 -39 16.5 -57t60.5 -18h16v-39h-320v39h14z" />
    <glyph glyph-name="I" unicode="I" horiz-adv-x="365" 
d="M23 622h318v-39h-17q-41 0 -58.5 -18t-17.5 -57v-396q0 -37 16 -55t62 -18h15v-39h-318v39h14q40 0 56.5 18t16.5 51v400q0 39 -16 57t-58 18h-13v39z" />
    <glyph glyph-name="J" unicode="J" horiz-adv-x="344" 
d="M7 622h317v-39h-15q-14 0 -27 -2.5t-23 -11t-16 -23t-6 -38.5v-437q0 -149 -87 -236q-32 -32 -71.5 -47t-90.5 -15q-108 0 -108 58q0 25 21 44t49 19q19 0 32.5 -9.5t25 -20.5t21 -20.5t21.5 -9.5q20 0 34.5 21t14.5 77v577q0 37 -16 55.5t-58 18.5h-18v39z" />
    <glyph glyph-name="K" unicode="K" horiz-adv-x="740" 
d="M253 112q0 -42 19.5 -57.5t59.5 -15.5h14v-39h-326v39h18q38 0 57.5 15.5t19.5 59.5v393q0 40 -16.5 58t-61.5 18h-17v39h326v-39h-17q-49 0 -62.5 -19.5t-13.5 -60.5v-180q30 4 64 23t68 53q12 12 29 32t32 42t25.5 42.5t10.5 34.5q0 16 -14 24.5t-46 8.5h-11v39h267
v-39q-22 -1 -38.5 -3.5t-28.5 -6t-22 -10t-20 -16.5q-17 -17 -34.5 -42t-37 -52.5t-42.5 -54.5t-51 -48q11 -6 24.5 -17.5t28 -26.5t28 -31.5t25.5 -31.5l87 -111q38 -50 71.5 -71.5t80.5 -21.5v-39h-341v39q32 0 51 5.5t19 21.5q0 8 -15.5 29.5t-38.5 49t-50 56.5t-51 53
t-38 30t-32 6v-178z" />
    <glyph glyph-name="L" unicode="L" horiz-adv-x="604" 
d="M549 0h-536v39h17q48 0 65.5 17.5t17.5 54.5v400q0 44 -22.5 58t-56.5 14h-19v39h339v-39h-29q-39 0 -56.5 -17.5t-17.5 -52.5v-412q0 -28 10.5 -37t39.5 -9h127q25 0 43 6.5t34 21t34 37t43 54.5h40z" />
    <glyph glyph-name="M" unicode="M" horiz-adv-x="927" 
d="M184 494h-2l-22 -356q-1 -25 -0.5 -43.5t8 -30.5t25 -18.5t49.5 -6.5v-39h-222v39q29 0 45.5 5t24.5 17t10.5 32.5t4.5 51.5l22 362q1 19 0 33t-7.5 23t-20.5 14t-39 6v39h211l195 -420l187 420h215v-39q-27 -1 -42.5 -3t-22.5 -9.5t-8 -22t1 -41.5l24 -369
q2 -31 4.5 -50t11 -29t25.5 -14t47 -6v-39h-315v39h17q16 0 30 1t24.5 7t16.5 19.5t6 37.5q0 12 -0.5 24t-1.5 23l-23 355h-2l-224 -506h-24z" />
    <glyph glyph-name="N" unicode="N" horiz-adv-x="813" 
d="M167 120q0 -23 4 -38.5t15.5 -25t30.5 -13.5t49 -4v-39h-242v39h6q46 0 61 16t15 47v459q-32 22 -80 22v39h206l408 -426v302q0 27 -3.5 43.5t-14 26t-29 12.5t-48.5 3h-10v39h258v-39h-10q-47 0 -64.5 -11t-17.5 -40v-535h-55l-479 501v-378z" />
    <glyph glyph-name="O" unicode="O" horiz-adv-x="844" 
d="M52 301q0 74 28.5 136.5t79.5 107.5t121 70.5t154 25.5q78 0 144 -23.5t113 -65.5t73.5 -100.5t26.5 -128.5q0 -67 -25 -128t-73 -107.5t-118 -74t-160 -27.5q-86 0 -154 25.5t-114.5 69t-71 100.5t-24.5 120zM201 349q0 -72 17.5 -131t49 -101t75 -65t96.5 -23
q52 0 90.5 21t63.5 56.5t37.5 82t12.5 98.5q0 60 -15 116.5t-44 99.5t-72.5 69t-100.5 26q-48 0 -86.5 -17.5t-66 -50t-42.5 -78.5t-15 -103z" />
    <glyph glyph-name="P" unicode="P" horiz-adv-x="646" 
d="M252 114q0 -44 19 -59.5t68 -15.5h30v-39h-340v39h15q42 0 56 11.5t14 45.5v429q0 35 -14 46.5t-56 11.5h-22v39q29 2 69.5 5.5t92.5 5.5q50 2 94 3.5t65 1.5q72 0 124 -16t85.5 -43t49.5 -62.5t16 -74.5q0 -43 -17.5 -78.5t-50.5 -60t-79.5 -38t-104.5 -13.5
q-27 0 -54.5 2.5t-59.5 7.5v-148zM252 303q29 -7 72 -7q70 0 107.5 39t37.5 113q0 69 -38.5 107.5t-107.5 38.5q-37 0 -71 -7v-284z" />
    <glyph glyph-name="Q" unicode="Q" horiz-adv-x="844" 
d="M788 -221q-16 -4 -26.5 -5t-29.5 -1q-78 0 -139.5 30t-112.5 69.5t-95.5 77.5t-90.5 53q-55 14 -100 42.5t-76.5 68t-48.5 88t-17 102.5q0 73 29 135t80 107t121 70t153 25q78 0 144 -23.5t113 -65.5t73.5 -100t26.5 -128q0 -64 -22 -118.5t-59.5 -96.5t-86.5 -70
t-102 -39q42 -26 73.5 -57t62.5 -58.5t65 -46.5t82 -20zM201 349q0 -72 17 -131t48.5 -101t75 -65.5t96.5 -23.5q56 0 94.5 22.5t63.5 59.5t36 84t11 96t-13 103.5t-41 100t-72 75t-107 29.5q-48 0 -86.5 -17.5t-65.5 -50t-42 -78.5t-15 -103z" />
    <glyph glyph-name="R" unicode="R" horiz-adv-x="771" 
d="M251 112q0 -38 18 -55.5t61 -17.5h30v-39h-350v39h16q46 0 66.5 14.5t20.5 58.5v395q0 36 -15 56t-65 20h-21v39q38 2 68 4t61 4q21 2 44 3t45.5 2t42 1.5t32.5 0.5q110 0 175 -15.5t102 -53.5q48 -48 48 -114q0 -57 -39 -99.5t-109 -61.5q25 -21 45 -45.5t39.5 -51
t40 -54t47.5 -54.5q15 -15 29 -25.5t29 -17t32.5 -10.5t41.5 -6v-39q-17 -1 -28 -1h-34q-46 0 -80 3.5t-59.5 11.5t-45 20t-37.5 30q-19 19 -39 46.5t-41.5 57t-44.5 57.5t-47 49h-79v-152zM251 306h39q91 0 141 32t50 112q0 40 -14 67.5t-38.5 44.5t-57 24.5t-68.5 7.5h-52
v-288z" />
    <glyph glyph-name="S" unicode="S" horiz-adv-x="563" 
d="M58 184h39q50 -150 171 -150q50 0 83 28t33 70q0 37 -24 63t-59.5 47.5t-77 42t-77 46t-59.5 60t-24 83.5q0 36 15 66t42 51.5t64 33.5t82 12q29 0 54 -4t45 -9t33.5 -9t19.5 -4q5 0 10 2t12 9h21l19 -162h-40q-17 61 -61 97.5t-102 36.5q-42 0 -70 -20t-28 -49
q0 -34 27.5 -57.5t69.5 -45.5t90.5 -49t90.5 -69q31 -31 44 -63.5t13 -68.5q0 -39 -16.5 -73t-45.5 -59t-67.5 -39.5t-83.5 -14.5q-30 0 -58 5t-51 11t-39 11t-23 5q-14 0 -21 -16h-26z" />
    <glyph glyph-name="T" unicode="T" horiz-adv-x="729" 
d="M433 114q0 -39 17 -57t70 -18h24v-39h-360v39h34q42 0 59.5 17.5t17.5 57.5v456h-118q-29 0 -46.5 -3.5t-29 -15.5t-18.5 -35.5t-14 -63.5h-41l18 187h32q6 -5 10 -8.5t9 -5.5q11 -3 29 -3h476q20 0 28 3t20 14h32l18 -187h-41q-7 39 -14 62.5t-18 36t-29 16t-47 3.5
h-118v-456z" />
    <glyph glyph-name="U" unicode="U" horiz-adv-x="771" 
d="M507 622h259v-39h-7q-30 0 -48 -6t-28 -17.5t-13 -26.5t-3 -33v-249q0 -84 -27 -135.5t-68.5 -80.5t-91 -39t-94.5 -10q-67 0 -121.5 14.5t-93 43.5t-59 72.5t-20.5 100.5v298q0 38 -14 53t-56 15h-17v39h313v-39h-17q-32 0 -51.5 -15.5t-19.5 -52.5v-298q0 -46 15.5 -77
t41 -50.5t58 -28t66.5 -8.5q99 0 147.5 50.5t48.5 133.5v243q0 54 -17.5 78.5t-64.5 24.5h-18v39z" />
    <glyph glyph-name="V" unicode="V" horiz-adv-x="750" 
d="M116 499q-12 27 -22 43.5t-21 25.5t-25.5 12t-35.5 3h-7v39h347v-39h-17q-63 0 -76.5 -21t7.5 -66l157 -334l153 364q11 26 -6 41.5t-60 15.5h-20v39h254v-39h-7q-22 0 -38 -5.5t-28.5 -18t-24 -32.5t-23.5 -50l-208 -491h-63z" />
    <glyph glyph-name="W" unicode="W" horiz-adv-x="1000" 
d="M108 499q-11 24 -20 40t-18.5 26t-22.5 14t-33 4h-8v39h265v-39q-31 -3 -35.5 -17.5t9.5 -43.5l185 -386l64 131l-118 248q-19 41 -32.5 54t-35.5 14v39h438v-39q-14 -3 -24 -7.5t-18.5 -12.5t-16 -20.5t-17.5 -32.5l-73 -148l105 -213l138 350q17 42 7 62.5t-55 21.5v39
h202v-39q-36 -2 -56.5 -21t-40.5 -69l-202 -507h-65l-107 220l-104 -220h-67zM624 537q12 23 7.5 34.5t-38.5 11.5h-54q-30 0 -35 -10.5t6 -33.5l57 -115z" />
    <glyph glyph-name="X" unicode="X" horiz-adv-x="802" 
d="M216 93q-24 -24 -12 -39t57 -15h22v-39h-274v39q26 3 46.5 9t39.5 17.5t38.5 28t42.5 40.5l157 162l-150 188q-23 29 -41.5 48t-35 30t-32.5 16t-35 5h-24v39h379v-39h-36q-43 0 -49 -15.5t18 -44.5l102 -127l101 106q34 36 36 58.5t-48 22.5h-26v39h270v-39
q-23 0 -42 -4.5t-36.5 -14t-35 -25t-38.5 -37.5l-143 -152l179 -223q20 -25 36.5 -41.5t33 -26.5t35 -14.5t42.5 -5.5v-39h-350v39h20q17 0 29 4t17 12.5t1.5 21t-18.5 30.5l-122 144z" />
    <glyph glyph-name="Y" unicode="Y" horiz-adv-x="750" 
d="M459 113q0 -36 16.5 -55t70.5 -19h15v-39h-341v39h25q45 0 60.5 19t15.5 53v139l-215 286q-11 14 -19.5 23.5t-18 14.5t-22 7t-31.5 2h-7v39h326v-39h-12q-44 0 -52.5 -15.5t7.5 -35.5l160 -211l116 182q10 15 15.5 29.5t2.5 26t-15.5 18t-38.5 6.5h-12v39h236v-39
q-22 -1 -37 -4.5t-27 -11t-22.5 -20.5t-24.5 -34l-171 -263v-137z" />
    <glyph glyph-name="Z" unicode="Z" horiz-adv-x="750" 
d="M691 0h-633v55l444 512h-269q-44 0 -67.5 -24t-28.5 -89h-38l7 168h578v-57l-444 -510h306q27 0 45.5 7t31.5 23.5t22.5 44.5t19.5 70h38z" />
    <glyph glyph-name="bracketleft" unicode="[" horiz-adv-x="365" 
d="M228 -110q0 -12 4 -20.5t15 -13.5t30.5 -7.5t50.5 -2.5h27v-33h-240v809h240v-33h-27q-31 0 -50.5 -2.5t-30.5 -7.5t-15 -13.5t-4 -20.5v-655z" />
    <glyph glyph-name="backslash" unicode="\" horiz-adv-x="531" 
d="M484 -18h-81l-357 659h81z" />
    <glyph glyph-name="bracketright" unicode="]" horiz-adv-x="365" 
d="M137 545q0 12 -4 20.5t-15 13.5t-30.5 7.5t-50.5 2.5h-27v33h240v-809h-240v33h27q31 0 50.5 2.5t30.5 7.5t15 13.5t4 20.5v655z" />
    <glyph glyph-name="asciicircum" unicode="^" horiz-adv-x="583" 
d="M271 669h40l199 -351h-83l-136 241l-136 -241h-83z" />
    <glyph glyph-name="underscore" unicode="_" horiz-adv-x="500" 
d="M-8 -125v50h516v-50h-516z" />
    <glyph glyph-name="grave" unicode="`" horiz-adv-x="333" 
d="M184 477l-177 189h161l74 -189h-58z" />
    <glyph glyph-name="a" unicode="a" horiz-adv-x="479" 
d="M461 50q-23 -26 -56 -43t-58 -17q-28 0 -46.5 16.5t-23.5 45.5q-30 -29 -55.5 -46t-67.5 -17q-54 0 -85 28.5t-31 76.5q0 24 9 45.5t22 34.5q18 18 41 27t50 17.5t56.5 20.5t58.5 36v37q0 29 -18 48t-45 19q-26 0 -42 -19t-10 -58l-112 -39q-7 31 -3 53.5t24 42.5
q13 13 33.5 24t43.5 19t46.5 12.5t41.5 4.5t46 -6t54 -20t44.5 -37.5t18.5 -58.5v-189q0 -26 5.5 -36t16.5 -10q6 0 11 2t16 10zM275 230q-18 -16 -38.5 -24.5t-38 -19t-29 -26.5t-11.5 -46q0 -32 13.5 -50.5t36.5 -18.5q24 0 67 42v143z" />
    <glyph glyph-name="b" unicode="b" 
d="M78 523q0 16 -1 26t-5 16.5t-11 10.5t-19 9l-26 11v24l152 49h32v-334q44 41 85.5 62.5t81.5 21.5q34 0 63.5 -15t51 -41t34 -61t12.5 -75q0 -51 -19 -94.5t-53 -75.5t-79.5 -50t-99.5 -18q-24 0 -50.5 3t-52.5 7.5t-51 10.5t-45 11v502zM200 168q0 -72 21 -104t69 -32
q54 0 83.5 39.5t29.5 111.5q0 70 -32 113.5t-83 43.5q-23 0 -47 -14.5t-41 -37.5v-120z" />
    <glyph glyph-name="c" unicode="c" horiz-adv-x="490" 
d="M458 96q-70 -107 -204 -107q-46 0 -84.5 15t-66.5 41t-43.5 62.5t-15.5 79.5q0 49 20 91.5t55 73.5t82 49t102 18q32 0 60 -6.5t48 -17.5t31.5 -27t11.5 -34q0 -23 -14 -36.5t-37 -13.5q-26 0 -43.5 14t-32.5 30.5t-30 30.5t-37 14q-38 0 -61 -41.5t-23 -109.5
q0 -40 9 -73.5t25.5 -57.5t39.5 -37t51 -13q67 0 128 71z" />
    <glyph glyph-name="d" unicode="d" 
d="M366 69q-47 -42 -85.5 -61t-75.5 -19q-35 0 -65 14t-51.5 39t-33.5 60t-12 76q0 42 13.5 85t41.5 77.5t72.5 56.5t105.5 22q47 0 90 -13v128q0 28 -14.5 40.5t-52.5 20.5v24l155 50h34v-537q0 -45 8 -59.5t32 -14.5q13 0 30 5v-31l-166 -43h-26v80zM366 336
q-28 25 -48.5 34t-47.5 9q-50 0 -78 -39t-28 -109q0 -75 30.5 -121t81.5 -46q21 0 46.5 14t43.5 36v222z" />
    <glyph glyph-name="e" unicode="e" horiz-adv-x="479" 
d="M439 116q-42 -60 -99 -93.5t-115 -33.5q-41 0 -74.5 15t-57.5 42t-37.5 65t-13.5 83q0 50 16 91t44.5 71t67.5 46.5t86 16.5q78 0 126 -48q22 -22 30 -43t12 -39t7.5 -31t16.5 -20v-29h-277q3 -31 14.5 -58t28 -46.5t37.5 -30.5t43 -11q28 0 56.5 17t65.5 55zM310 248
q-1 58 -20 91t-51 33q-15 0 -29 -9.5t-24.5 -26t-15.5 -39t-2 -49.5h142z" />
    <glyph glyph-name="f" unicode="f" horiz-adv-x="323" 
d="M205 111q0 -45 18.5 -62t67.5 -17h21v-32h-303v32h18q31 0 43.5 15.5t12.5 54.5v254h-74v20l75 32q0 68 26.5 117.5t66 82t84.5 48.5t82 16q26 0 49.5 -6t41.5 -15t28.5 -20t10.5 -21q0 -4 -1.5 -6.5t-6.5 -9.5l-31 -40q-10 -13 -21 -13t-24 11.5t-29 25.5t-35 25.5
t-41 11.5q-13 0 -27.5 -5t-25.5 -17t-18.5 -33t-7.5 -53v-99h99l-6 -52h-93v-245z" />
    <glyph glyph-name="g" unicode="g" horiz-adv-x="552" 
d="M538 312l-100 23q20 -27 20 -64t-19 -64t-49 -44t-67.5 -24.5t-75.5 -6.5q-41 -14 -62 -24.5t-21 -22.5q0 -33 124 -33h88q32 0 59.5 -7.5t48 -22.5t32.5 -36.5t12 -49.5q0 -36 -21.5 -66.5t-59 -53t-89.5 -35t-112 -12.5q-44 0 -81.5 7.5t-65 21t-43 32t-15.5 39.5
q0 24 12 36t28.5 20.5t33 16t24.5 22.5q-41 14 -63.5 38t-22.5 56t33 48.5t103 35.5v2q-26 1 -49.5 11.5t-41.5 27.5t-29 38.5t-11 44.5q0 33 15.5 61t43 48.5t65 32t80.5 11.5q82 0 135 -40l141 36v-103zM275 -54q-25 0 -47 1.5t-42 6.5q-18 -13 -28.5 -28t-10.5 -28
q0 -18 12 -33.5t32 -27t47 -18.5t57 -7q31 0 57 6.5t45 17.5t30 26.5t11 33.5q0 50 -83 50h-80zM181 281q0 -110 83 -110q34 0 52 23t18 65q0 56 -20.5 86.5t-58.5 30.5q-35 0 -54.5 -25t-19.5 -70z" />
    <glyph glyph-name="h" unicode="h" horiz-adv-x="563" 
d="M200 101q0 -24 3 -37.5t9.5 -20.5t16.5 -9t23 -2h10v-32h-253v32h14q38 0 46.5 16.5t8.5 56.5v437q0 22 -6 30t-26 15l-29 10v23l159 49h24v-326q21 15 44.5 28.5t47 24t46.5 17t42 6.5q109 0 109 -177v-132q0 -45 8 -61.5t37 -16.5h10v-32h-236v32h8q32 0 41.5 15
t9.5 58v151q0 41 -17.5 64.5t-47.5 23.5q-20 0 -48 -10.5t-54 -27.5v-205z" />
    <glyph glyph-name="i" unicode="i" horiz-adv-x="292" 
d="M265 0h-250v32h11q31 0 43.5 15.5t12.5 54.5v192q0 20 -6.5 27.5t-27.5 15.5l-33 12v24l171 57h18v-335q0 -31 14 -47t47 -16v-32zM139 657q35 0 57 -19.5t22 -48.5q0 -30 -24 -49t-55 -19q-35 0 -57.5 19.5t-22.5 48.5q0 27 24 47.5t56 20.5z" />
    <glyph glyph-name="j" unicode="j" horiz-adv-x="281" 
d="M205 5q0 -44 -13 -86t-39.5 -75t-67.5 -53t-98 -20q-49 0 -76 15.5t-27 43.5q0 23 19.5 41.5t43.5 18.5q19 0 32 -10.5t23 -23t19.5 -23t21.5 -10.5q17 0 28.5 23.5t11.5 66.5v379q0 23 -5 30t-28 15l-34 12v24l169 57h20v-425zM141 657q35 0 57 -19.5t22 -48.5
q0 -30 -24 -49t-55 -19q-35 0 -57.5 19.5t-22.5 48.5q0 27 24 47.5t56 20.5z" />
    <glyph glyph-name="k" unicode="k" horiz-adv-x="542" 
d="M455 87q25 -31 41.5 -43t35.5 -12h9v-32h-231v32q23 0 24 9t-10 23l-124 161h-2v-126q0 -32 12 -49.5t47 -17.5v-32h-242v32q35 0 48 14.5t13 55.5v440q0 22 -6 30t-26 15l-29 10v23l159 49h24v-435l140 117q8 8 7 16.5t-24 8.5h-24v32h207v-32q-38 0 -67.5 -13
t-63.5 -42l-63 -53z" />
    <glyph glyph-name="l" unicode="l" horiz-adv-x="271" 
d="M195 102q0 -35 12.5 -52.5t47.5 -17.5v-32h-248v32h10q32 0 44 16t12 54v412q0 33 -4.5 43.5t-21.5 16.5l-43 16v29l173 50h18v-567z" />
    <glyph glyph-name="m" unicode="m" horiz-adv-x="927" 
d="M528 99q0 -35 14 -51t42 -16v-32h-235v32q32 0 44.5 15.5t12.5 54.5v143q0 98 -61 98q-27 0 -59.5 -14.5t-81.5 -48.5v-184q0 -34 15 -49t44 -15h8v-32h-252v32h6q32 0 44.5 15.5t12.5 54.5v195q0 17 -9 25.5t-34 17.5l-22 8v24l169 58h18v-115q40 29 71.5 48.5t57.5 32
t47 18t40 5.5q43 0 70.5 -27t33.5 -77q27 20 56.5 38.5t58.5 33t57 23.5t51 9q55 0 80 -40.5t25 -131.5v-156q0 -37 13.5 -48t42.5 -11v-32h-235v32q31 2 44 26.5t13 86.5v87q0 60 -16 85.5t-46 25.5q-23 0 -56 -14t-84 -49v-181z" />
    <glyph glyph-name="n" unicode="n" 
d="M495 91q0 -37 14 -48t43 -11v-32h-236v32q31 2 44 26.5t13 86.5v87q0 60 -16 85.5t-46 25.5q-23 0 -48.5 -11t-57.5 -33v-203q0 -34 14.5 -49t44.5 -15h9v-32h-253v32h6q32 0 44.5 15.5t12.5 54.5v195q0 17 -10.5 27t-36.5 18l-21 6v24l171 58h19v-89q55 36 102 57t83 21
q55 0 80 -40.5t25 -131.5v-156z" />
    <glyph glyph-name="o" unicode="o" 
d="M43 198q0 47 19 87.5t53 70t79.5 46.5t99.5 17q51 0 94.5 -15.5t75 -43t49 -66t17.5 -83.5q0 -48 -19 -88.5t-53 -70t-79.5 -46.5t-99.5 -17q-52 0 -95 15.5t-74.5 43.5t-49 66t-17.5 84zM175 257q0 -31 7 -70.5t23 -73.5t41 -57.5t61 -23.5q44 0 67.5 32t23.5 92
q0 48 -9.5 88.5t-27 69.5t-41 45.5t-52.5 16.5q-45 0 -69 -31t-24 -88z" />
    <glyph glyph-name="p" unicode="p" 
d="M201 -105q0 -25 4 -41.5t15 -27t30 -15.5t50 -7v-31h-287v31h12q29 0 41.5 15t12.5 51v420q0 21 -6.5 32t-20.5 16l-37 13v25l160 54h26v-96q21 17 40.5 32.5t39.5 27t41 18.5t46 7q35 0 64.5 -14.5t51.5 -40t34.5 -60t12.5 -74.5q0 -42 -14 -84.5t-42.5 -77.5t-71.5 -57
t-100 -22q-44 0 -102 13v-107zM201 75q22 -23 49.5 -36t53.5 -13q46 0 75 40.5t29 106.5q0 33 -7 64t-20.5 55t-34 38t-47.5 14q-41 0 -98 -51v-218z" />
    <glyph glyph-name="q" unicode="q" 
d="M371 74q-45 -42 -83.5 -63.5t-79.5 -21.5q-35 0 -65 14.5t-52 40t-34.5 60.5t-12.5 75q0 51 18.5 95t51.5 76t77.5 50.5t96.5 18.5q38 0 76.5 -10.5t70.5 -29.5l43 40h24q-4 -27 -6.5 -60t-2.5 -62v-425q0 -32 11 -48.5t49 -19.5v-31h-283v31h39q38 0 50 16t12 55v199z
M371 258q0 57 -22.5 87.5t-64.5 30.5q-54 0 -84.5 -41t-30.5 -113q0 -34 8.5 -62t23.5 -48.5t35.5 -32t45.5 -11.5q24 0 43 10.5t46 39.5v140z" />
    <glyph glyph-name="r" unicode="r" horiz-adv-x="396" 
d="M300 0h-278v32h7q31 0 43.5 15.5t12.5 54.5v163q0 34 -6.5 46t-29.5 21l-27 11v25l164 62h21v-112h2q28 54 45 77.5t42 23.5q13 0 20 -3l79 -29q-18 -65 -48 -106q-23 9 -47 17t-34 8q-15 0 -28.5 -11t-30.5 -34v-162q0 -36 14 -51.5t53 -15.5h26v-32z" />
    <glyph glyph-name="s" unicode="s" horiz-adv-x="375" 
d="M42 118h32q13 -42 42.5 -64t61.5 -22q21 0 36.5 13.5t15.5 32.5q0 17 -14 31.5t-35 28t-45 28t-45 32.5t-35 41t-14 53q0 57 43 92t114 35q29 0 54.5 -5t57.5 -16l2 -107h-32q-28 85 -94 85q-20 0 -33 -10.5t-13 -27.5q0 -20 14.5 -35t36.5 -28.5t47.5 -27t47.5 -31.5
t36.5 -42t14.5 -58q0 -56 -36 -91t-94 -35q-26 0 -44 2t-30 5t-19.5 5t-12.5 2q-8 0 -20 -13h-29z" />
    <glyph glyph-name="t" unicode="t" horiz-adv-x="344" 
d="M199 111q0 -53 46 -53q18 0 36 12t40 38l14 -28q-23 -41 -63 -66t-82 -25q-51 0 -82 29.5t-31 94.5v240h-53v26q23 9 46 26.5t43 39t35 44.5t22 44h29v-125h131l-15 -55h-116v-242z" />
    <glyph glyph-name="u" unicode="u" 
d="M363 69q-69 -44 -109.5 -62t-69.5 -18q-27 0 -47.5 11.5t-34 30t-20.5 43.5t-7 52v167q0 29 -4 39.5t-17 16.5l-21 10v23l144 37h20v-255q0 -45 15.5 -72t49.5 -27q37 0 101 41v181q0 29 -6.5 40t-29.5 18l-46 14v23l184 37h20v-306q0 -38 5.5 -49t23.5 -11q7 0 13.5 1
t16.5 5v-31l-162 -39h-19v80z" />
    <glyph glyph-name="v" unicode="v" horiz-adv-x="521" 
d="M4 408h254v-32h-35q-16 0 -21 -14t8 -42l89 -199l78 176q17 39 5.5 56.5t-64.5 22.5v32h199v-32q-19 -2 -32 -5.5t-22 -10.5t-16 -17.5t-14 -26.5l-143 -323h-60l-149 321q-14 31 -29 44.5t-48 17.5v32z" />
    <glyph glyph-name="w" unicode="w" horiz-adv-x="781" 
d="M82 315q-13 29 -31.5 45t-46.5 16v32h239v-32q-26 -2 -34.5 -17t0.5 -36l80 -191l80 182q-13 34 -27 48t-36 14v32h227v-32q-30 0 -40 -14t3 -46l76 -184l70 171q14 34 1 52.5t-51 20.5v32h184v-32q-19 -2 -32 -7t-22.5 -15t-18 -25.5t-17.5 -37.5l-126 -298h-55
l-112 261l-120 -261h-53z" />
    <glyph glyph-name="x" unicode="x" horiz-adv-x="531" 
d="M179 95q-30 -32 -23.5 -47.5t38.5 -15.5v-32h-177v32q19 0 41 12t44 34l103 106l-115 138q-24 30 -40.5 41t-40.5 13v32h245v-32q-23 0 -31.5 -8t5.5 -25l61 -75l55 59q20 21 10.5 35t-40.5 14v32h187v-32q-31 -4 -59 -20.5t-60 -50.5l-68 -71l128 -157q17 -20 37 -32.5
t38 -12.5h6v-32h-258v32h9q26 0 30 12.5t-11 30.5l-61 76z" />
    <glyph glyph-name="y" unicode="y" horiz-adv-x="521" 
d="M96 285q-13 27 -23.5 44.5t-21 28t-22.5 14.5t-28 4v32h255v-32q-39 0 -47 -15t6 -45l83 -172l76 154q16 32 4.5 54.5t-56.5 23.5v32h186v-32q-17 -4 -28.5 -8.5t-21 -13t-17.5 -22.5t-19 -35l-224 -456q-37 -74 -91 -74q-27 0 -45 16t-18 41q0 12 4 23.5t11 18.5
q17 17 35.5 18.5t38 5t39 18t39.5 58.5l20 44z" />
    <glyph glyph-name="z" unicode="z" horiz-adv-x="510" 
d="M30 32l264 321h-139q-15 0 -25.5 -3.5t-20.5 -13t-19 -26t-21 -42.5h-33l33 168h33q-3 -13 3 -20.5t30 -7.5h334v-28l-267 -325h129q26 0 42 3t29 12t25.5 25.5t30.5 43.5h31l-47 -139h-412v32z" />
    <glyph glyph-name="braceleft" unicode="{" horiz-adv-x="396" 
d="M63 233q24 2 42 12.5t30 26t18 34t6 36.5q0 23 -4 44.5t-9 41.5t-9 39.5t-4 39.5q0 23 10.5 51t34.5 52.5t62.5 41.5t93.5 17v-23q-27 -4 -45 -14t-29 -23.5t-16 -28.5t-5 -28q0 -22 3 -42t8 -41q5 -20 8.5 -41.5t3.5 -44.5q0 -57 -43.5 -102t-115.5 -61v-2
q72 -16 115.5 -61t43.5 -102q0 -23 -3.5 -44t-8.5 -42q-5 -20 -8 -40.5t-3 -42.5q0 -13 5 -28t16 -28.5t29 -23.5t45 -14v-23q-55 0 -93.5 17t-62.5 41.5t-34.5 52.5t-10.5 51q0 21 4 40.5t9 39.5t9 41t4 44q0 18 -6 36.5t-18 34t-30 26t-42 12.5v28z" />
    <glyph glyph-name="bar" unicode="|" horiz-adv-x="566" 
d="M322 641v-776h-78v776h78z" />
    <glyph glyph-name="braceright" unicode="}" horiz-adv-x="396" 
d="M333 205q-24 -2 -42 -12.5t-30 -26t-18 -34t-6 -36.5q0 -23 4 -44t9 -41t9 -39.5t4 -40.5q0 -23 -10.5 -51t-34.5 -52.5t-62 -41.5t-94 -17v23q27 4 45 14t29 23.5t16 28.5t5 28q0 22 -3.5 42.5t-7.5 40.5q-5 20 -8.5 41.5t-3.5 44.5q0 57 43.5 102t115.5 61v2
q-72 16 -115.5 61t-43.5 102q0 23 3.5 44.5t8 41.5t8 40.5t3.5 42.5q0 13 -5 28t-16 28.5t-29 23.5t-45 14v23q56 0 94 -17t62 -41.5t34.5 -52.5t10.5 -51q0 -20 -4 -40t-9 -40t-9 -41t-4 -44q0 -18 6 -36.5t18 -34t30 -26t42 -12.5v-28z" />
    <glyph glyph-name="asciitilde" unicode="~" horiz-adv-x="521" 
d="M537 400q-1 -50 -13.5 -84t-32.5 -54.5t-47.5 -29.5t-60.5 -9q-41 0 -78 13t-75 29q-36 15 -67.5 28.5t-59.5 13.5q-41 0 -57 -22t-22 -62h-39q1 50 13 84t31.5 54.5t46.5 29.5t59 9q38 0 78.5 -12t78.5 -26t71 -26t55 -12q42 0 59 17t21 59h39z" />
    <glyph glyph-name="exclamdown" unicode="&#xa1;" horiz-adv-x="313" 
d="M157 280q-35 0 -58 19t-23 48q0 28 22.5 48t58.5 20t58 -20t22 -48q0 -29 -24 -48t-56 -19zM174 180l56 -372q4 -26 -1 -33.5t-27 -7.5h-90q-24 0 -28.5 7.5t-0.5 33.5l57 372h34z" />
    <glyph glyph-name="cent" unicode="&#xa2;" horiz-adv-x="490" 
d="M142 -168h-41l68 172q-60 23 -92.5 71t-32.5 112q0 49 21.5 93.5t60 77t92 49t117.5 10.5l47 118h41l-50 -126q38 -10 59.5 -29.5t21.5 -45.5q0 -23 -13.5 -36.5t-36.5 -13.5q-19 0 -35 8t-33 27l-101 -253q28 -25 68 -25q66 0 126 71l29 -16q-44 -65 -109 -90.5
t-143 -11.5zM308 349q-25 24 -48 24q-37 0 -60.5 -41.5t-23.5 -108.5q0 -37 8 -69t22 -55z" />
    <glyph glyph-name="sterling" unicode="&#xa3;" horiz-adv-x="833" 
d="M337 97q-20 -32 -46 -66.5t-55 -63.5l2 -2q28 9 51 13t41 4q54 0 96.5 -24t78 -52.5t65.5 -52.5t59 -24q30 0 47 17.5t17 38.5q0 17 -5 29.5t-11 24t-11 23.5t-5 28q0 21 13 34t35 13q29 0 46 -23.5t17 -62.5q0 -41 -18.5 -74t-47.5 -56t-63 -35.5t-66 -12.5
q-63 0 -106.5 24t-78.5 52.5t-65 52.5t-66 24q-16 0 -29 -4t-40 -14q-26 -58 -57.5 -96.5t-64.5 -38.5q-15 0 -25 11t-10 28q0 58 113 121q18 35 39.5 81t36.5 83h-146l13 38h149l81 173q30 63 65 126t77 114t91 82.5t106 31.5q29 0 54.5 -6.5t44.5 -17.5t30.5 -25t11.5 -28
q0 -10 -5 -21.5t-12.5 -21t-17.5 -15.5t-19 -6q-17 0 -30.5 15.5t-27 33.5t-27.5 33.5t-32 15.5q-31 0 -54 -36.5t-50 -101t-64.5 -153.5t-97.5 -193h185l-12 -38h-200z" />
    <glyph glyph-name="currency" unicode="&#xa4;" horiz-adv-x="667" 
d="M526 570l51 -52l-62 -63q23 -33 32.5 -63.5t9.5 -66.5t-9.5 -66t-32.5 -63l62 -62l-51 -52l-62 62q-34 -23 -63.5 -32.5t-65.5 -9.5q-37 0 -67.5 10t-63.5 32l-63 -62l-52 52l63 62q-23 33 -32.5 63t-9.5 67q0 36 9.5 66t32.5 64l-63 62l52 52l63 -63q35 23 64.5 32.5
t64.5 9.5q37 0 66.5 -9.5t64.5 -32.5zM183 326q0 -31 12 -58.5t32.5 -48t48 -32.5t58.5 -12t58 12t47.5 32.5t32.5 48t12 58.5t-12 58t-32.5 47.5t-47.5 32.5t-58 12t-58.5 -12t-48 -32.5t-32.5 -47.5t-12 -58z" />
    <glyph glyph-name="yen" unicode="&#xa5;" horiz-adv-x="500" 
d="M401 470l21 33q9 14 14.5 28t3 25.5t-15 19t-38.5 7.5h-12v39h236v-39q-22 -1 -37 -5t-27.5 -12t-23 -20.5t-23.5 -32.5l-28 -43h111v-39h-136l-93 -142h229v-39h-254v-137q0 -36 16.5 -55t70.5 -19h15v-39h-333v39h25q45 0 60.5 19t15.5 53v139h-280v39h254l-106 142
h-148v39h119l-49 66q-11 14 -19.5 23.5t-18 14.5t-22 7t-31.5 2h-7v39h321v-39h-12q-43 0 -57.5 -15t2.5 -38l45 -60h212zM218 431l83 -114l74 114h-157z" />
    <glyph glyph-name="brokenbar" unicode="&#xa6;" horiz-adv-x="566" 
d="M322 198v-333h-78v333h78zM322 641v-332h-78v332h78z" />
    <glyph glyph-name="section" unicode="&#xa7;" horiz-adv-x="469" 
d="M183 570q0 -22 18 -55t44.5 -73.5t58 -87.5t58 -96.5t44.5 -101t18 -100.5q0 -47 -20 -89t-53.5 -74t-78.5 -50.5t-95 -18.5q-21 0 -41 6.5t-36.5 16.5t-26.5 23t-10 27q0 20 14 34t33 14q17 0 30 -11t26.5 -24.5t28.5 -24.5t36 -11t35 13.5t14 33.5q0 25 -17.5 58.5
t-43.5 72.5t-56.5 82.5t-56.5 90.5t-43.5 95.5t-17.5 96.5q0 55 20.5 100t53.5 77.5t74.5 50t83.5 17.5q25 0 48 -5.5t41 -15.5t29 -22t11 -26q0 -20 -14.5 -36t-31.5 -16q-16 0 -31 11.5t-30.5 25.5t-32 25.5t-35.5 11.5q-20 0 -34 -13.5t-14 -31.5zM321 -78l2 -2
q22 24 34.5 55t12.5 63q0 37 -16 78.5t-40.5 85t-53 89t-54 90t-44 88t-22.5 83.5q-41 -38 -41 -105q0 -40 17.5 -84.5t43.5 -91t56 -93.5t55 -92t39.5 -87t10.5 -79v2z" />
    <glyph glyph-name="dieresis" unicode="&#xa8;" horiz-adv-x="333" 
d="M264 619q25 0 42.5 -17.5t17.5 -42.5t-17.5 -42.5t-42.5 -17.5t-42.5 17.5t-17.5 42.5t17.5 42.5t42.5 17.5zM70 619q25 0 42.5 -17.5t17.5 -42.5t-17.5 -42.5t-42.5 -17.5t-42.5 17.5t-17.5 42.5t17.5 42.5t42.5 17.5z" />
    <glyph glyph-name="copyright" unicode="&#xa9;" horiz-adv-x="750" 
d="M539 411h-19q-10 50 -42 78t-78 28q-60 0 -93.5 -47.5t-33.5 -132.5q0 -51 11 -85.5t28.5 -56t40 -30.5t45.5 -9q37 0 67.5 16.5t59.5 51.5v-35q-60 -62 -156 -62q-45 0 -83 14.5t-65 41t-42 63t-15 80.5q0 47 16 86t44.5 68t68 45t85.5 16q24 0 43 -4t33.5 -9t25 -9
t17.5 -4q19 0 23 25h19v-129zM375 677q72 0 135 -27t110 -74t74 -110t27 -135t-27 -135t-74 -110t-110 -74t-135 -27t-135 27t-110 74t-74 110t-27 135t27 135t74 110t110 74t135 27zM375 634q-63 0 -118 -24t-96 -65t-65 -96t-24 -118t24 -118t65 -96t96 -65t118 -24
t118 24t96 65t65 96t24 118t-24 118t-65 96t-96 65t-118 24z" />
    <glyph glyph-name="ordfeminine" unicode="&#xaa;" horiz-adv-x="365" 
d="M325 420q-17 -16 -37.5 -26t-37.5 -10q-36 0 -46 37q-20 -20 -38.5 -28.5t-40.5 -8.5q-35 0 -55.5 17t-20.5 46q0 14 4.5 25.5t12.5 19.5q12 12 27 17.5t32 10.5t36.5 12t41.5 23v22q0 17 -10.5 27.5t-28.5 10.5q-20 0 -29.5 -13.5t-6.5 -30.5l-73 -23q-5 17 -0.5 32.5
t12.5 23.5q6 6 18.5 13t28 12t32 8.5t31.5 3.5q9 0 27 -3t35.5 -11.5t30.5 -23.5t13 -38v-115q0 -20 9.5 -22.5t21.5 7.5zM203 528q-12 -11 -25 -16t-24.5 -11t-19 -15t-7.5 -27q0 -19 9 -30.5t23 -11.5q8 0 21 9t23 19v83z" />
    <glyph glyph-name="guillemotleft" unicode="&#xab;" horiz-adv-x="427" 
d="M398 48h-33l-136 172l136 172h33l-63 -172zM224 35h-33l-168 185l168 185h33l-81 -185z" />
    <glyph glyph-name="logicalnot" unicode="&#xac;" horiz-adv-x="667" 
d="M600 480v-307h-77v230h-457v77h534z" />
    <glyph glyph-name="registered" unicode="&#xae;" horiz-adv-x="750" 
d="M385 532q82 0 118.5 -31.5t36.5 -75.5q0 -37 -22.5 -63t-64.5 -38l66 -122q13 -24 24.5 -35t27.5 -14v-16h-118l-101 180h-22v-97q0 -21 2 -33.5t8.5 -20t18 -10t30.5 -3.5v-16h-207v16q30 -1 40.5 12.5t10.5 54.5v231q0 38 -8 50t-35 14v17h195zM330 342q53 -9 79 18
t26 68q0 42 -22 62.5t-59 20.5h-24v-169zM375 677q72 0 135 -27t110 -74t74 -110t27 -135t-27 -135t-74 -110t-110 -74t-135 -27t-135 27t-110 74t-74 110t-27 135t27 135t74 110t110 74t135 27zM375 634q-63 0 -118 -24t-96 -65t-65 -96t-24 -118t24 -118t65 -96t96 -65
t118 -24t118 24t96 65t65 96t24 118t-24 118t-65 96t-96 65t-118 24z" />
    <glyph glyph-name="macron" unicode="&#xaf;" horiz-adv-x="333" 
d="M6 604h321v-80h-321v80z" />
    <glyph glyph-name="degree" unicode="&#xb0;" horiz-adv-x="396" 
d="M198 638q35 0 65.5 -13.5t53.5 -36.5t36.5 -53.5t13.5 -65.5t-13.5 -65.5t-36.5 -53.5t-53.5 -36.5t-65.5 -13.5t-65.5 13.5t-53.5 36.5t-36.5 53.5t-13.5 65.5t13.5 65.5t36.5 53.5t53.5 36.5t65.5 13.5zM198 574q-22 0 -41 -8t-33 -22.5t-22.5 -33.5t-8.5 -41t8.5 -41
t22.5 -33t33 -22.5t41 -8.5t41 8.5t33.5 22.5t22.5 33t8 41t-8 41t-22.5 33.5t-33.5 22.5t-41 8z" />
    <glyph glyph-name="plusminus" unicode="&#xb1;" horiz-adv-x="668" 
d="M601 53v-76h-534v76h534zM601 448v-76h-229v-229h-76v229h-229v76h229v229h76v-229h229z" />
    <glyph glyph-name="twosuperior" unicode="&#xb2;" horiz-adv-x="313" 
d="M21 326q44 41 74 69.5t48 50.5t26 40.5t8 38.5q0 29 -14 46t-39 17q-23 0 -40.5 -16t-22.5 -42h-34q7 48 40.5 76.5t83.5 28.5q48 0 78.5 -26.5t30.5 -67.5q0 -26 -10.5 -44t-30 -36t-48.5 -40.5t-66 -56.5h94q23 0 32 6.5t14 32.5h30l-12 -99h-242v22z" />
    <glyph glyph-name="threesuperior" unicode="&#xb3;" horiz-adv-x="313" 
d="M104 478q29 18 45 38.5t16 39.5q0 16 -10 26t-26 10t-28.5 -9.5t-24.5 -32.5l-27 11q14 35 43.5 54.5t68.5 19.5q36 0 60.5 -17t24.5 -43q0 -19 -13 -35t-42 -32v-2q39 -5 61 -27.5t22 -60.5q0 -26 -11.5 -48.5t-31.5 -39t-48 -25.5t-61 -9q-38 0 -64.5 13t-26.5 33
q0 10 9 20t29 10q17 0 26 -7t15.5 -16t14.5 -16t23 -7q20 0 32.5 18.5t12.5 47.5q0 32 -15 51t-39 19q-9 0 -22 -4z" />
    <glyph glyph-name="acute" unicode="&#xb4;" horiz-adv-x="333" 
d="M161 666h161l-177 -189h-58z" />
    <glyph glyph-name="mu" unicode="&#xb5;" horiz-adv-x="552" 
d="M184 408v-290q0 -34 17 -49.5t39 -15.5q23 0 49 14t45 45v296h122v-298q0 -22 8 -36t25 -14q18 0 26 16.5t12 53.5h20q-1 -32 -6 -52t-18 -38q-17 -26 -44.5 -40t-57.5 -14q-38 0 -54.5 19t-29.5 58q-36 -42 -76 -59.5t-78 -17.5q-20 0 -35.5 5.5t-38.5 22.5
q0 -34 4.5 -57.5t10 -42t10 -33.5t4.5 -31q0 -30 -16 -47.5t-43 -17.5q-52 0 -52 58q0 24 5.5 45.5t12 48.5t12 64t5.5 93v314h122z" />
    <glyph glyph-name="paragraph" unicode="&#xb6;" horiz-adv-x="542" 
d="M312 -233h-49v402q-71 0 -121 19t-81.5 50.5t-46 73t-14.5 85.5q0 47 15 88.5t44 70.5q19 19 39 31.5t46.5 20t61.5 11t83 3.5h252v-22h-21q-35 0 -53 -15.5t-18 -52.5v-765h-49v817h-88v-817z" />
    <glyph glyph-name="periodcentered" unicode="&#xb7;" horiz-adv-x="313" 
d="M156 379q35 0 58 -19t23 -48q0 -28 -22.5 -48t-58.5 -20t-58 20t-22 48q0 29 24 48t56 19z" />
    <glyph glyph-name="cedilla" unicode="&#xb8;" horiz-adv-x="333" 
d="M173 5h34l-22 -38q29 -8 45 -28.5t16 -50.5q0 -41 -28.5 -67t-72.5 -26q-23 0 -45.5 6t-41.5 18l9 30q11 -5 26.5 -8t29.5 -3q18 0 31 11.5t13 28.5q0 19 -13 27.5t-44 11.5z" />
    <glyph glyph-name="onesuperior" unicode="&#xb9;" horiz-adv-x="313" 
d="M207 348q0 -20 14 -20h44v-24h-199v24h43q13 0 13 18v215q-33 -17 -67 -24l-11 21q72 29 121 77h42v-287z" />
    <glyph glyph-name="ordmasculine" unicode="&#xba;" horiz-adv-x="375" 
d="M29 509q0 28 12.5 52t34.5 42t52 28t65 10q33 0 61.5 -9.5t48.5 -26t31.5 -39.5t11.5 -50q0 -28 -12.5 -52t-34 -42t-51.5 -28t-65 -10q-34 0 -62 9.5t-48.5 26t-32 39.5t-11.5 50zM115 544q0 -58 24 -95t61 -37q29 0 44.5 17.5t15.5 54.5q0 58 -23.5 93.5t-60.5 35.5
q-61 0 -61 -69z" />
    <glyph glyph-name="guillemotright" unicode="&#xbb;" horiz-adv-x="427" 
d="M29 392h33l136 -172l-136 -172h-33l63 172zM203 405h33l168 -185l-168 -185h-33l81 185z" />
    <glyph glyph-name="onequarter" unicode="&#xbc;" horiz-adv-x="823" 
d="M552 79h-127v27l170 225h41v-212h50v-40h-50v-87h-84v87zM552 221h-2l-75 -102h77v102zM559 637h71l-446 -665h-70zM204 350q0 -20 14 -20h44v-24h-199v24h43q13 0 13 18v215q-33 -17 -67 -24l-11 21q72 29 121 77h42v-287z" />
    <glyph glyph-name="onehalf" unicode="&#xbd;" horiz-adv-x="823" 
d="M559 637h71l-446 -665h-70zM456 22q44 41 74 69.5t48 50.5t26 40.5t8 38.5q0 29 -14 46t-39 17q-23 0 -40.5 -16t-22.5 -42h-34q7 48 40.5 76.5t83.5 28.5q48 0 78.5 -26.5t30.5 -67.5q0 -26 -10.5 -44t-30 -36t-48.5 -40.5t-66 -56.5h94q23 0 32 6.5t14 32.5h30l-12 -99
h-242v22zM204 350q0 -20 14 -20h44v-24h-199v24h43q13 0 13 18v215q-33 -17 -67 -24l-11 21q72 29 121 77h42v-287z" />
    <glyph glyph-name="threequarters" unicode="&#xbe;" horiz-adv-x="823" 
d="M578 637h71l-446 -665h-70zM119 480q29 18 45 38.5t16 39.5q0 16 -10 26t-26 10t-28.5 -9.5t-24.5 -32.5l-27 11q14 35 43.5 54.5t68.5 19.5q36 0 60.5 -17t24.5 -43q0 -19 -13 -35t-42 -32v-2q39 -5 61 -27.5t22 -60.5q0 -26 -11.5 -48.5t-31.5 -39t-48 -25.5t-61 -9
q-38 0 -64.5 13t-26.5 33q0 10 9 20t29 10q17 0 26 -7t15.5 -16t14.5 -16t23 -7q20 0 32.5 18.5t12.5 47.5q0 32 -15 51t-39 19q-9 0 -22 -4zM571 79h-127v27l170 225h41v-212h50v-40h-50v-87h-84v87zM571 221h-2l-75 -102h77v102z" />
    <glyph glyph-name="questiondown" unicode="&#xbf;" horiz-adv-x="365" 
d="M250 219q42 -70 42 -114q0 -30 -15.5 -46.5t-39 -27t-50.5 -16.5t-50.5 -15.5t-39 -24t-15.5 -41.5q0 -28 18 -46t47 -18q16 0 29.5 2.5t26.5 6t26.5 6t29.5 2.5q29 0 45 -14t16 -39q0 -31 -26.5 -49t-71.5 -18q-41 0 -75.5 15t-59.5 42t-39 64t-14 82q0 47 14.5 76.5
t36.5 48t48 28t48 16t36.5 13t14.5 18.5q0 10 -3 19.5t-14 29.5h35zM221 280q-35 0 -58 19t-23 48q0 28 22.5 48t58.5 20t58 -20t22 -48q0 -29 -24 -48t-56 -19z" />
    <glyph glyph-name="Agrave" unicode="&#xc0;" horiz-adv-x="740" 
d="M224 231l-42 -117q-7 -19 -9 -33t5.5 -23.5t27 -14t55.5 -4.5h13v-39h-265v39h15q36 0 57.5 19.5t40.5 72.5l171 477l-11 29h148l200 -508q10 -25 19.5 -41.5t21 -27t26 -15t33.5 -6.5v-39h-325v39h35q46 0 55.5 19.5t-5.5 56.5l-47 116h-219zM328 520l-84 -234h176z
M388 682l-177 189h161l74 -189h-58z" />
    <glyph glyph-name="Aacute" unicode="&#xc1;" horiz-adv-x="740" 
d="M224 231l-42 -117q-7 -19 -9 -33t5.5 -23.5t27 -14t55.5 -4.5h13v-39h-265v39h15q36 0 57.5 19.5t40.5 72.5l171 477l-11 29h148l200 -508q10 -25 19.5 -41.5t21 -27t26 -15t33.5 -6.5v-39h-325v39h35q46 0 55.5 19.5t-5.5 56.5l-47 116h-219zM328 520l-84 -234h176z
M365 871h161l-177 -189h-58z" />
    <glyph glyph-name="Acircumflex" unicode="&#xc2;" horiz-adv-x="740" 
d="M224 231l-42 -117q-7 -19 -9 -33t5.5 -23.5t27 -14t55.5 -4.5h13v-39h-265v39h15q36 0 57.5 19.5t40.5 72.5l171 477l-11 29h148l200 -508q10 -25 19.5 -41.5t21 -27t26 -15t33.5 -6.5v-39h-325v39h35q46 0 55.5 19.5t-5.5 56.5l-47 116h-219zM328 520l-84 -234h176z
M295 682h-80l80 189h148l84 -189h-78l-79 106z" />
    <glyph glyph-name="Atilde" unicode="&#xc3;" horiz-adv-x="740" 
d="M224 231l-42 -117q-7 -19 -9 -33t5.5 -23.5t27 -14t55.5 -4.5h13v-39h-265v39h15q36 0 57.5 19.5t40.5 72.5l171 477l-11 29h148l200 -508q10 -25 19.5 -41.5t21 -27t26 -15t33.5 -6.5v-39h-325v39h35q46 0 55.5 19.5t-5.5 56.5l-47 116h-219zM328 520l-84 -234h176z
M187 706q0 66 30.5 106.5t79.5 40.5q21 0 41.5 -8t39 -17.5t35 -17.5t30.5 -8q35 0 47 50h64q-1 -31 -10 -57.5t-23.5 -46t-34 -30.5t-41.5 -11q-21 0 -42 8t-40 17t-35.5 17t-30.5 8q-18 0 -29 -12t-18 -39h-63z" />
    <glyph glyph-name="Adieresis" unicode="&#xc4;" horiz-adv-x="740" 
d="M224 231l-42 -117q-7 -19 -9 -33t5.5 -23.5t27 -14t55.5 -4.5h13v-39h-265v39h15q36 0 57.5 19.5t40.5 72.5l171 477l-11 29h148l200 -508q10 -25 19.5 -41.5t21 -27t26 -15t33.5 -6.5v-39h-325v39h35q46 0 55.5 19.5t-5.5 56.5l-47 116h-219zM328 520l-84 -234h176z
M468 824q25 0 42.5 -17.5t17.5 -42.5t-17.5 -42.5t-42.5 -17.5t-42.5 17.5t-17.5 42.5t17.5 42.5t42.5 17.5zM274 824q25 0 42.5 -17.5t17.5 -42.5t-17.5 -42.5t-42.5 -17.5t-42.5 17.5t-17.5 42.5t17.5 42.5t42.5 17.5z" />
    <glyph glyph-name="Aring" unicode="&#xc5;" horiz-adv-x="740" 
d="M224 231l-42 -117q-7 -19 -9 -33t5.5 -23.5t27 -14t55.5 -4.5h13v-39h-265v39h15q36 0 57.5 19.5t40.5 72.5l171 477l-11 29h148l200 -508q10 -25 19.5 -41.5t21 -27t26 -15t33.5 -6.5v-39h-325v39h35q46 0 55.5 19.5t-5.5 56.5l-47 116h-219zM328 520l-84 -234h176z
M371 868q41 0 69 -28t28 -69t-28 -69t-69 -28t-69 28t-28 69t28 69t69 28zM371 833q-26 0 -44 -18t-18 -44t18 -44t44 -18t44 18t18 44t-18 44t-44 18z" />
    <glyph glyph-name="AE" unicode="&#xc6;" horiz-adv-x="896" 
d="M545 107q0 -32 7.5 -42t29.5 -10h127q24 0 42.5 4t32 15.5t23.5 31.5t17 51h38l-12 -157h-543v39h22q44 0 61 17.5t17 54.5v102h-193l-52 -101q-17 -32 -9.5 -52.5t43.5 -20.5h18v-39h-230v39h13q31 0 61.5 27.5t56.5 78.5l194 379q16 30 12.5 44.5t-36.5 14.5h-32v39
h566l10 -145h-38q-8 51 -21 70.5t-48 19.5h-177v-228h112q42 0 58.5 16t16.5 56h40v-199h-40q0 20 -3 34t-13 22.5t-27.5 12t-46.5 3.5h-97v-177zM407 589h-4l-161 -321h165v321z" />
    <glyph glyph-name="Ccedilla" unicode="&#xc7;" horiz-adv-x="740" 
d="M277 -151q11 -5 26.5 -8t29.5 -3q18 0 31 11.5t13 28.5q0 19 -13 27.5t-44 11.5l51 71q-69 7 -127.5 34.5t-101.5 70.5t-67 98t-24 118q0 69 30 129t81.5 104t121.5 69.5t150 25.5q39 0 71 -6.5t56.5 -14t41 -14t23.5 -6.5q11 0 20 10h25l9 -175h-39q-24 75 -75.5 115
t-123.5 40q-54 0 -98.5 -19.5t-76.5 -54.5t-49.5 -84t-17.5 -108q0 -60 19.5 -112.5t53.5 -90.5t80 -60t100 -22q69 0 123.5 37.5t85.5 106.5h40q-3 -20 -8.5 -43.5t-13 -48t-16.5 -47.5t-18 -43q-22 7 -59 7q-18 0 -36.5 -3t-40 -6t-47 -6t-57.5 -3l-11 -19q29 -8 45 -28.5
t16 -50.5q0 -41 -28.5 -67t-72.5 -26q-23 0 -45.5 6t-41.5 18z" />
    <glyph glyph-name="Egrave" unicode="&#xc8;" horiz-adv-x="646" 
d="M543 477q-8 51 -21 70.5t-48 19.5h-219v-225h162q42 0 58.5 16t16.5 56h40v-199h-40q0 20 -3 34t-13 22.5t-27.5 12t-46.5 3.5h-147v-180q0 -32 7.5 -42t29.5 -10h167q24 0 42.5 4t32 15.5t23.5 31.5t17 51h38l-12 -157h-602v39h41q44 0 61 17.5t17 54.5v399
q0 41 -17.5 57t-69.5 16h-10v39h551l10 -145h-38zM341 682l-177 189h161l74 -189h-58z" />
    <glyph glyph-name="Eacute" unicode="&#xc9;" horiz-adv-x="646" 
d="M543 477q-8 51 -21 70.5t-48 19.5h-219v-225h162q42 0 58.5 16t16.5 56h40v-199h-40q0 20 -3 34t-13 22.5t-27.5 12t-46.5 3.5h-147v-180q0 -32 7.5 -42t29.5 -10h167q24 0 42.5 4t32 15.5t23.5 31.5t17 51h38l-12 -157h-602v39h41q44 0 61 17.5t17 54.5v399
q0 41 -17.5 57t-69.5 16h-10v39h551l10 -145h-38zM318 871h161l-177 -189h-58z" />
    <glyph glyph-name="Ecircumflex" unicode="&#xca;" horiz-adv-x="646" 
d="M543 477q-8 51 -21 70.5t-48 19.5h-219v-225h162q42 0 58.5 16t16.5 56h40v-199h-40q0 20 -3 34t-13 22.5t-27.5 12t-46.5 3.5h-147v-180q0 -32 7.5 -42t29.5 -10h167q24 0 42.5 4t32 15.5t23.5 31.5t17 51h38l-12 -157h-602v39h41q44 0 61 17.5t17 54.5v399
q0 41 -17.5 57t-69.5 16h-10v39h551l10 -145h-38zM248 682h-80l80 189h148l84 -189h-78l-79 106z" />
    <glyph glyph-name="Edieresis" unicode="&#xcb;" horiz-adv-x="646" 
d="M543 477q-8 51 -21 70.5t-48 19.5h-219v-225h162q42 0 58.5 16t16.5 56h40v-199h-40q0 20 -3 34t-13 22.5t-27.5 12t-46.5 3.5h-147v-180q0 -32 7.5 -42t29.5 -10h167q24 0 42.5 4t32 15.5t23.5 31.5t17 51h38l-12 -157h-602v39h41q44 0 61 17.5t17 54.5v399
q0 41 -17.5 57t-69.5 16h-10v39h551l10 -145h-38zM421 824q25 0 42.5 -17.5t17.5 -42.5t-17.5 -42.5t-42.5 -17.5t-42.5 17.5t-17.5 42.5t17.5 42.5t42.5 17.5zM227 824q25 0 42.5 -17.5t17.5 -42.5t-17.5 -42.5t-42.5 -17.5t-42.5 17.5t-17.5 42.5t17.5 42.5t42.5 17.5z
" />
    <glyph glyph-name="Igrave" unicode="&#xcc;" horiz-adv-x="365" 
d="M23 622h318v-39h-17q-41 0 -58.5 -18t-17.5 -57v-396q0 -37 16 -55t62 -18h15v-39h-318v39h14q40 0 56.5 18t16.5 51v400q0 39 -16 57t-58 18h-13v39zM200 682l-177 189h161l74 -189h-58z" />
    <glyph glyph-name="Iacute" unicode="&#xcd;" horiz-adv-x="365" 
d="M23 622h318v-39h-17q-41 0 -58.5 -18t-17.5 -57v-396q0 -37 16 -55t62 -18h15v-39h-318v39h14q40 0 56.5 18t16.5 51v400q0 39 -16 57t-58 18h-13v39zM177 871h161l-177 -189h-58z" />
    <glyph glyph-name="Icircumflex" unicode="&#xce;" horiz-adv-x="365" 
d="M23 622h318v-39h-17q-41 0 -58.5 -18t-17.5 -57v-396q0 -37 16 -55t62 -18h15v-39h-318v39h14q40 0 56.5 18t16.5 51v400q0 39 -16 57t-58 18h-13v39zM107 682h-80l80 189h148l84 -189h-78l-79 106z" />
    <glyph glyph-name="Idieresis" unicode="&#xcf;" horiz-adv-x="365" 
d="M23 622h318v-39h-17q-41 0 -58.5 -18t-17.5 -57v-396q0 -37 16 -55t62 -18h15v-39h-318v39h14q40 0 56.5 18t16.5 51v400q0 39 -16 57t-58 18h-13v39zM280 824q25 0 42.5 -17.5t17.5 -42.5t-17.5 -42.5t-42.5 -17.5t-42.5 17.5t-17.5 42.5t17.5 42.5t42.5 17.5zM86 824
q25 0 42.5 -17.5t17.5 -42.5t-17.5 -42.5t-42.5 -17.5t-42.5 17.5t-17.5 42.5t17.5 42.5t42.5 17.5z" />
    <glyph glyph-name="Eth" unicode="&#xd0;" horiz-adv-x="823" 
d="M21 622q41 2 84 4t77 4q38 2 69 3.5t68 1.5q75 0 131.5 -5t100 -16.5t76 -30.5t60.5 -47q40 -40 62 -93t22 -117q0 -69 -26.5 -126.5t-66.5 -97.5q-19 -19 -45.5 -37.5t-66 -32.5t-95 -23t-132.5 -9h-318v39q50 0 71.5 13.5t21.5 56.5v170h-93v60h93v156q0 27 -3.5 44
t-14 26.5t-28.5 13.5t-47 4v39zM252 339h163v-60h-163v-163q0 -25 3 -40t12 -23t26 -10.5t46 -2.5q84 0 139 26t87 66t44.5 88t12.5 93q0 63 -20 116t-54 87q-37 37 -89 54.5t-129 17.5q-20 0 -38 -1t-40 -4v-244z" />
    <glyph glyph-name="Ntilde" unicode="&#xd1;" horiz-adv-x="813" 
d="M167 120q0 -23 4 -38.5t15.5 -25t30.5 -13.5t49 -4v-39h-242v39h6q46 0 61 16t15 47v459q-32 22 -80 22v39h206l408 -426v302q0 27 -3.5 43.5t-14 26t-29 12.5t-48.5 3h-10v39h258v-39h-10q-47 0 -64.5 -11t-17.5 -40v-535h-55l-479 501v-378zM223 706q0 66 30.5 106.5
t79.5 40.5q21 0 41.5 -8t39 -17.5t35 -17.5t30.5 -8q35 0 47 50h64q-1 -31 -10 -57.5t-23.5 -46t-34 -30.5t-41.5 -11q-21 0 -42 8t-40 17t-35.5 17t-30.5 8q-18 0 -29 -12t-18 -39h-63z" />
    <glyph glyph-name="Ograve" unicode="&#xd2;" horiz-adv-x="844" 
d="M52 301q0 74 28.5 136.5t79.5 107.5t121 70.5t154 25.5q78 0 144 -23.5t113 -65.5t73.5 -100.5t26.5 -128.5q0 -67 -25 -128t-73 -107.5t-118 -74t-160 -27.5q-86 0 -154 25.5t-114.5 69t-71 100.5t-24.5 120zM201 349q0 -72 17.5 -131t49 -101t75 -65t96.5 -23
q52 0 90.5 21t63.5 56.5t37.5 82t12.5 98.5q0 60 -15 116.5t-44 99.5t-72.5 69t-100.5 26q-48 0 -86.5 -17.5t-66 -50t-42.5 -78.5t-15 -103zM440 682l-177 189h161l74 -189h-58z" />
    <glyph glyph-name="Oacute" unicode="&#xd3;" horiz-adv-x="844" 
d="M52 301q0 74 28.5 136.5t79.5 107.5t121 70.5t154 25.5q78 0 144 -23.5t113 -65.5t73.5 -100.5t26.5 -128.5q0 -67 -25 -128t-73 -107.5t-118 -74t-160 -27.5q-86 0 -154 25.5t-114.5 69t-71 100.5t-24.5 120zM201 349q0 -72 17.5 -131t49 -101t75 -65t96.5 -23
q52 0 90.5 21t63.5 56.5t37.5 82t12.5 98.5q0 60 -15 116.5t-44 99.5t-72.5 69t-100.5 26q-48 0 -86.5 -17.5t-66 -50t-42.5 -78.5t-15 -103zM417 871h161l-177 -189h-58z" />
    <glyph glyph-name="Ocircumflex" unicode="&#xd4;" horiz-adv-x="844" 
d="M52 301q0 74 28.5 136.5t79.5 107.5t121 70.5t154 25.5q78 0 144 -23.5t113 -65.5t73.5 -100.5t26.5 -128.5q0 -67 -25 -128t-73 -107.5t-118 -74t-160 -27.5q-86 0 -154 25.5t-114.5 69t-71 100.5t-24.5 120zM201 349q0 -72 17.5 -131t49 -101t75 -65t96.5 -23
q52 0 90.5 21t63.5 56.5t37.5 82t12.5 98.5q0 60 -15 116.5t-44 99.5t-72.5 69t-100.5 26q-48 0 -86.5 -17.5t-66 -50t-42.5 -78.5t-15 -103zM347 682h-80l80 189h148l84 -189h-78l-79 106z" />
    <glyph glyph-name="Otilde" unicode="&#xd5;" horiz-adv-x="844" 
d="M52 301q0 74 28.5 136.5t79.5 107.5t121 70.5t154 25.5q78 0 144 -23.5t113 -65.5t73.5 -100.5t26.5 -128.5q0 -67 -25 -128t-73 -107.5t-118 -74t-160 -27.5q-86 0 -154 25.5t-114.5 69t-71 100.5t-24.5 120zM201 349q0 -72 17.5 -131t49 -101t75 -65t96.5 -23
q52 0 90.5 21t63.5 56.5t37.5 82t12.5 98.5q0 60 -15 116.5t-44 99.5t-72.5 69t-100.5 26q-48 0 -86.5 -17.5t-66 -50t-42.5 -78.5t-15 -103zM239 706q0 66 30.5 106.5t79.5 40.5q21 0 41.5 -8t39 -17.5t35 -17.5t30.5 -8q35 0 47 50h64q-1 -31 -10 -57.5t-23.5 -46
t-34 -30.5t-41.5 -11q-21 0 -42 8t-40 17t-35.5 17t-30.5 8q-18 0 -29 -12t-18 -39h-63z" />
    <glyph glyph-name="Odieresis" unicode="&#xd6;" horiz-adv-x="844" 
d="M52 301q0 74 28.5 136.5t79.5 107.5t121 70.5t154 25.5q78 0 144 -23.5t113 -65.5t73.5 -100.5t26.5 -128.5q0 -67 -25 -128t-73 -107.5t-118 -74t-160 -27.5q-86 0 -154 25.5t-114.5 69t-71 100.5t-24.5 120zM201 349q0 -72 17.5 -131t49 -101t75 -65t96.5 -23
q52 0 90.5 21t63.5 56.5t37.5 82t12.5 98.5q0 60 -15 116.5t-44 99.5t-72.5 69t-100.5 26q-48 0 -86.5 -17.5t-66 -50t-42.5 -78.5t-15 -103zM520 824q25 0 42.5 -17.5t17.5 -42.5t-17.5 -42.5t-42.5 -17.5t-42.5 17.5t-17.5 42.5t17.5 42.5t42.5 17.5zM326 824
q25 0 42.5 -17.5t17.5 -42.5t-17.5 -42.5t-42.5 -17.5t-42.5 17.5t-17.5 42.5t17.5 42.5t42.5 17.5z" />
    <glyph glyph-name="multiply" unicode="&#xd7;" horiz-adv-x="667" 
d="M140 78l-54 54l193 193l-194 194l54 54l194 -194l194 194l54 -54l-194 -194l194 -194l-54 -54l-194 194z" />
    <glyph glyph-name="Oslash" unicode="&#xd8;" horiz-adv-x="844" 
d="M574 514q-29 39 -69.5 61.5t-93.5 22.5q-48 0 -86.5 -17.5t-66 -50t-42.5 -78.5t-15 -103q0 -63 13.5 -116.5t39.5 -94.5zM275 108q31 -38 72.5 -58.5t91.5 -20.5q52 0 90.5 21t63.5 56.5t37.5 82t12.5 98.5q0 55 -12 105.5t-36 90.5zM670 570q58 -43 90 -106t32 -141
q0 -67 -25 -128t-73 -107.5t-118 -74t-160 -27.5q-60 0 -111 13t-93 36l-88 -102l-27 22l85 99q-63 44 -96.5 108.5t-33.5 138.5t28.5 136.5t79.5 107.5t121 70.5t154 25.5q59 0 110 -13t94 -38l81 95l29 -23z" />
    <glyph glyph-name="Ugrave" unicode="&#xd9;" horiz-adv-x="771" 
d="M507 622h259v-39h-7q-30 0 -48 -6t-28 -17.5t-13 -26.5t-3 -33v-249q0 -84 -27 -135.5t-68.5 -80.5t-91 -39t-94.5 -10q-67 0 -121.5 14.5t-93 43.5t-59 72.5t-20.5 100.5v298q0 38 -14 53t-56 15h-17v39h313v-39h-17q-32 0 -51.5 -15.5t-19.5 -52.5v-298q0 -46 15.5 -77
t41 -50.5t58 -28t66.5 -8.5q99 0 147.5 50.5t48.5 133.5v243q0 54 -17.5 78.5t-64.5 24.5h-18v39zM403 682l-177 189h161l74 -189h-58z" />
    <glyph glyph-name="Uacute" unicode="&#xda;" horiz-adv-x="771" 
d="M507 622h259v-39h-7q-30 0 -48 -6t-28 -17.5t-13 -26.5t-3 -33v-249q0 -84 -27 -135.5t-68.5 -80.5t-91 -39t-94.5 -10q-67 0 -121.5 14.5t-93 43.5t-59 72.5t-20.5 100.5v298q0 38 -14 53t-56 15h-17v39h313v-39h-17q-32 0 -51.5 -15.5t-19.5 -52.5v-298q0 -46 15.5 -77
t41 -50.5t58 -28t66.5 -8.5q99 0 147.5 50.5t48.5 133.5v243q0 54 -17.5 78.5t-64.5 24.5h-18v39zM380 871h161l-177 -189h-58z" />
    <glyph glyph-name="Ucircumflex" unicode="&#xdb;" horiz-adv-x="771" 
d="M507 622h259v-39h-7q-30 0 -48 -6t-28 -17.5t-13 -26.5t-3 -33v-249q0 -84 -27 -135.5t-68.5 -80.5t-91 -39t-94.5 -10q-67 0 -121.5 14.5t-93 43.5t-59 72.5t-20.5 100.5v298q0 38 -14 53t-56 15h-17v39h313v-39h-17q-32 0 -51.5 -15.5t-19.5 -52.5v-298q0 -46 15.5 -77
t41 -50.5t58 -28t66.5 -8.5q99 0 147.5 50.5t48.5 133.5v243q0 54 -17.5 78.5t-64.5 24.5h-18v39zM310 682h-80l80 189h148l84 -189h-78l-79 106z" />
    <glyph glyph-name="Udieresis" unicode="&#xdc;" horiz-adv-x="771" 
d="M507 622h259v-39h-7q-30 0 -48 -6t-28 -17.5t-13 -26.5t-3 -33v-249q0 -84 -27 -135.5t-68.5 -80.5t-91 -39t-94.5 -10q-67 0 -121.5 14.5t-93 43.5t-59 72.5t-20.5 100.5v298q0 38 -14 53t-56 15h-17v39h313v-39h-17q-32 0 -51.5 -15.5t-19.5 -52.5v-298q0 -46 15.5 -77
t41 -50.5t58 -28t66.5 -8.5q99 0 147.5 50.5t48.5 133.5v243q0 54 -17.5 78.5t-64.5 24.5h-18v39zM483 824q25 0 42.5 -17.5t17.5 -42.5t-17.5 -42.5t-42.5 -17.5t-42.5 17.5t-17.5 42.5t17.5 42.5t42.5 17.5zM289 824q25 0 42.5 -17.5t17.5 -42.5t-17.5 -42.5t-42.5 -17.5
t-42.5 17.5t-17.5 42.5t17.5 42.5t42.5 17.5z" />
    <glyph glyph-name="Yacute" unicode="&#xdd;" horiz-adv-x="750" 
d="M459 113q0 -36 16.5 -55t70.5 -19h15v-39h-341v39h25q45 0 60.5 19t15.5 53v139l-215 286q-11 14 -19.5 23.5t-18 14.5t-22 7t-31.5 2h-7v39h326v-39h-12q-44 0 -52.5 -15.5t7.5 -35.5l160 -211l116 182q10 15 15.5 29.5t2.5 26t-15.5 18t-38.5 6.5h-12v39h236v-39
q-22 -1 -37 -4.5t-27 -11t-22.5 -20.5t-24.5 -34l-171 -263v-137zM370 871h161l-177 -189h-58z" />
    <glyph glyph-name="Thorn" unicode="&#xde;" horiz-adv-x="646" 
d="M252 170q29 -7 72 -7q70 0 107.5 39t37.5 113q0 69 -38.5 107.5t-107.5 38.5q-37 0 -71 -7v-284zM252 502q17 0 37.5 1.5t53.5 1.5q75 0 127 -16t85 -43t48 -62.5t15 -74.5q0 -43 -17.5 -78.5t-50.5 -60t-79.5 -38t-104.5 -13.5q-27 0 -54.5 2.5t-59.5 7.5v-15
q0 -44 19 -59.5t68 -15.5h30v-39h-340v39h15q42 0 56 11.5t14 45.5v430q0 34 -14 45.5t-56 11.5h-15v39h308v-39q-27 0 -43.5 -1.5t-26 -9.5t-12.5 -24.5t-3 -45.5z" />
    <glyph glyph-name="germandbls" unicode="&#xdf;" horiz-adv-x="563" 
d="M266 376q107 4 107 123q0 38 -8.5 64t-22 42t-30.5 23.5t-35 7.5q-25 0 -41 -12t-25 -33.5t-12.5 -50.5t-3.5 -62v-387q0 -29 10.5 -44t39.5 -15v-32h-231v32q33 0 46 10.5t13 45.5v306q0 75 9 129.5t47 92.5q23 23 64 39.5t98 16.5q45 0 82 -11t63.5 -31t41 -48
t14.5 -62q0 -59 -42.5 -102t-115.5 -59v-2q47 -5 83 -21.5t60.5 -40.5t37 -54t12.5 -63t-14.5 -67.5t-44 -62.5t-73 -45t-101.5 -15v35q56 5 82 39.5t26 101.5q0 82 -35 129t-101 51v32z" />
    <glyph glyph-name="agrave" unicode="&#xe0;" horiz-adv-x="479" 
d="M461 50q-23 -26 -56 -43t-58 -17q-28 0 -46.5 16.5t-23.5 45.5q-30 -29 -55.5 -46t-67.5 -17q-54 0 -85 28.5t-31 76.5q0 24 9 45.5t22 34.5q18 18 41 27t50 17.5t56.5 20.5t58.5 36v37q0 29 -18 48t-45 19q-26 0 -42 -19t-10 -58l-112 -39q-7 31 -3 53.5t24 42.5
q13 13 33.5 24t43.5 19t46.5 12.5t41.5 4.5t46 -6t54 -20t44.5 -37.5t18.5 -58.5v-189q0 -26 5.5 -36t16.5 -10q6 0 11 2t16 10zM275 230q-18 -16 -38.5 -24.5t-38 -19t-29 -26.5t-11.5 -46q0 -32 13.5 -50.5t36.5 -18.5q24 0 67 42v143zM257 477l-177 189h161l74 -189h-58z
" />
    <glyph glyph-name="aacute" unicode="&#xe1;" horiz-adv-x="479" 
d="M461 50q-23 -26 -56 -43t-58 -17q-28 0 -46.5 16.5t-23.5 45.5q-30 -29 -55.5 -46t-67.5 -17q-54 0 -85 28.5t-31 76.5q0 24 9 45.5t22 34.5q18 18 41 27t50 17.5t56.5 20.5t58.5 36v37q0 29 -18 48t-45 19q-26 0 -42 -19t-10 -58l-112 -39q-7 31 -3 53.5t24 42.5
q13 13 33.5 24t43.5 19t46.5 12.5t41.5 4.5t46 -6t54 -20t44.5 -37.5t18.5 -58.5v-189q0 -26 5.5 -36t16.5 -10q6 0 11 2t16 10zM275 230q-18 -16 -38.5 -24.5t-38 -19t-29 -26.5t-11.5 -46q0 -32 13.5 -50.5t36.5 -18.5q24 0 67 42v143zM234 666h161l-177 -189h-58z" />
    <glyph glyph-name="acircumflex" unicode="&#xe2;" horiz-adv-x="479" 
d="M461 50q-23 -26 -56 -43t-58 -17q-28 0 -46.5 16.5t-23.5 45.5q-30 -29 -55.5 -46t-67.5 -17q-54 0 -85 28.5t-31 76.5q0 24 9 45.5t22 34.5q18 18 41 27t50 17.5t56.5 20.5t58.5 36v37q0 29 -18 48t-45 19q-26 0 -42 -19t-10 -58l-112 -39q-7 31 -3 53.5t24 42.5
q13 13 33.5 24t43.5 19t46.5 12.5t41.5 4.5t46 -6t54 -20t44.5 -37.5t18.5 -58.5v-189q0 -26 5.5 -36t16.5 -10q6 0 11 2t16 10zM275 230q-18 -16 -38.5 -24.5t-38 -19t-29 -26.5t-11.5 -46q0 -32 13.5 -50.5t36.5 -18.5q24 0 67 42v143zM164 477h-80l80 189h148l84 -189
h-78l-79 106z" />
    <glyph glyph-name="atilde" unicode="&#xe3;" horiz-adv-x="479" 
d="M461 50q-23 -26 -56 -43t-58 -17q-28 0 -46.5 16.5t-23.5 45.5q-30 -29 -55.5 -46t-67.5 -17q-54 0 -85 28.5t-31 76.5q0 24 9 45.5t22 34.5q18 18 41 27t50 17.5t56.5 20.5t58.5 36v37q0 29 -18 48t-45 19q-26 0 -42 -19t-10 -58l-112 -39q-7 31 -3 53.5t24 42.5
q13 13 33.5 24t43.5 19t46.5 12.5t41.5 4.5t46 -6t54 -20t44.5 -37.5t18.5 -58.5v-189q0 -26 5.5 -36t16.5 -10q6 0 11 2t16 10zM275 230q-18 -16 -38.5 -24.5t-38 -19t-29 -26.5t-11.5 -46q0 -32 13.5 -50.5t36.5 -18.5q24 0 67 42v143zM56 501q0 66 30.5 106.5t79.5 40.5
q21 0 41.5 -8t39 -17.5t35 -17.5t30.5 -8q35 0 47 50h64q-1 -31 -10 -57.5t-23.5 -46t-34 -30.5t-41.5 -11q-21 0 -42 8t-40 17t-35.5 17t-30.5 8q-18 0 -29 -12t-18 -39h-63z" />
    <glyph glyph-name="adieresis" unicode="&#xe4;" horiz-adv-x="479" 
d="M461 50q-23 -26 -56 -43t-58 -17q-28 0 -46.5 16.5t-23.5 45.5q-30 -29 -55.5 -46t-67.5 -17q-54 0 -85 28.5t-31 76.5q0 24 9 45.5t22 34.5q18 18 41 27t50 17.5t56.5 20.5t58.5 36v37q0 29 -18 48t-45 19q-26 0 -42 -19t-10 -58l-112 -39q-7 31 -3 53.5t24 42.5
q13 13 33.5 24t43.5 19t46.5 12.5t41.5 4.5t46 -6t54 -20t44.5 -37.5t18.5 -58.5v-189q0 -26 5.5 -36t16.5 -10q6 0 11 2t16 10zM275 230q-18 -16 -38.5 -24.5t-38 -19t-29 -26.5t-11.5 -46q0 -32 13.5 -50.5t36.5 -18.5q24 0 67 42v143zM337 619q25 0 42.5 -17.5
t17.5 -42.5t-17.5 -42.5t-42.5 -17.5t-42.5 17.5t-17.5 42.5t17.5 42.5t42.5 17.5zM143 619q25 0 42.5 -17.5t17.5 -42.5t-17.5 -42.5t-42.5 -17.5t-42.5 17.5t-17.5 42.5t17.5 42.5t42.5 17.5z" />
    <glyph glyph-name="aring" unicode="&#xe5;" horiz-adv-x="479" 
d="M461 50q-23 -26 -56 -43t-58 -17q-28 0 -46.5 16.5t-23.5 45.5q-30 -29 -55.5 -46t-67.5 -17q-54 0 -85 28.5t-31 76.5q0 24 9 45.5t22 34.5q18 18 41 27t50 17.5t56.5 20.5t58.5 36v37q0 29 -18 48t-45 19q-26 0 -42 -19t-10 -58l-112 -39q-7 31 -3 53.5t24 42.5
q13 13 33.5 24t43.5 19t46.5 12.5t41.5 4.5t46 -6t54 -20t44.5 -37.5t18.5 -58.5v-189q0 -26 5.5 -36t16.5 -10q6 0 11 2t16 10zM275 230q-18 -16 -38.5 -24.5t-38 -19t-29 -26.5t-11.5 -46q0 -32 13.5 -50.5t36.5 -18.5q24 0 67 42v143zM240 663q41 0 69 -28t28 -69
t-28 -69t-69 -28t-69 28t-28 69t28 69t69 28zM240 628q-26 0 -44 -18t-18 -44t18 -44t44 -18t44 18t18 44t-18 44t-44 18z" />
    <glyph glyph-name="ae" unicode="&#xe6;" horiz-adv-x="698" 
d="M654 110q-20 -27 -45 -49.5t-53 -38t-57 -24.5t-57 -9q-42 0 -84 19t-70 51q-37 -35 -71.5 -51.5t-69.5 -16.5q-51 0 -80.5 27.5t-29.5 75.5q0 21 8 43t24 38q19 19 43 28.5t50 17t53.5 17.5t53.5 31q6 50 -10.5 80.5t-50.5 30.5q-26 0 -41.5 -22t-4.5 -56l-115 -40
q-6 23 -0.5 52t22.5 46q13 13 33.5 24t43 18.5t45.5 12t42 4.5q72 0 120 -39q45 39 119 39q39 0 74 -13.5t58 -36.5q18 -18 25.5 -37t11.5 -37.5t8 -34t14 -26.5v-24h-273q8 -72 41 -109t84 -37q30 0 56.5 16t62.5 54zM269 224q-19 -13 -33 -20.5t-25.5 -12.5t-20 -9
t-16.5 -12t-13.5 -23t-5.5 -34q0 -29 13.5 -48.5t33.5 -19.5q17 0 35 10.5t32 28.5v140zM530 249q0 55 -19 89t-52 34t-51 -32t-18 -91h140z" />
    <glyph glyph-name="ccedilla" unicode="&#xe7;" horiz-adv-x="490" 
d="M458 96q-34 -52 -84.5 -79.5t-115.5 -27.5l-13 -22q29 -8 45 -28.5t16 -50.5q0 -41 -28.5 -67t-72.5 -26q-23 0 -45.5 6t-41.5 18l9 30q11 -5 26.5 -8t29.5 -3q18 0 31 11.5t13 28.5q0 19 -13 27.5t-44 11.5l54 75q-40 4 -73 20.5t-57 42t-37 59.5t-13 73q0 49 20 91.5
t55 73.5t82 49t102 18q32 0 60 -6.5t48 -17.5t31.5 -27t11.5 -34q0 -23 -14 -36.5t-37 -13.5q-26 0 -43.5 14t-32.5 30.5t-30 30.5t-37 14q-38 0 -61 -41.5t-23 -109.5q0 -40 9 -73.5t25.5 -57.5t39.5 -37t51 -13q67 0 128 71z" />
    <glyph glyph-name="egrave" unicode="&#xe8;" horiz-adv-x="479" 
d="M439 116q-42 -60 -99 -93.5t-115 -33.5q-41 0 -74.5 15t-57.5 42t-37.5 65t-13.5 83q0 50 16 91t44.5 71t67.5 46.5t86 16.5q78 0 126 -48q22 -22 30 -43t12 -39t7.5 -31t16.5 -20v-29h-277q3 -31 14.5 -58t28 -46.5t37.5 -30.5t43 -11q28 0 56.5 17t65.5 55zM310 248
q-1 58 -20 91t-51 33q-15 0 -29 -9.5t-24.5 -26t-15.5 -39t-2 -49.5h142zM257 477l-177 189h161l74 -189h-58z" />
    <glyph glyph-name="eacute" unicode="&#xe9;" horiz-adv-x="479" 
d="M439 116q-42 -60 -99 -93.5t-115 -33.5q-41 0 -74.5 15t-57.5 42t-37.5 65t-13.5 83q0 50 16 91t44.5 71t67.5 46.5t86 16.5q78 0 126 -48q22 -22 30 -43t12 -39t7.5 -31t16.5 -20v-29h-277q3 -31 14.5 -58t28 -46.5t37.5 -30.5t43 -11q28 0 56.5 17t65.5 55zM310 248
q-1 58 -20 91t-51 33q-15 0 -29 -9.5t-24.5 -26t-15.5 -39t-2 -49.5h142zM234 666h161l-177 -189h-58z" />
    <glyph glyph-name="ecircumflex" unicode="&#xea;" horiz-adv-x="479" 
d="M439 116q-42 -60 -99 -93.5t-115 -33.5q-41 0 -74.5 15t-57.5 42t-37.5 65t-13.5 83q0 50 16 91t44.5 71t67.5 46.5t86 16.5q78 0 126 -48q22 -22 30 -43t12 -39t7.5 -31t16.5 -20v-29h-277q3 -31 14.5 -58t28 -46.5t37.5 -30.5t43 -11q28 0 56.5 17t65.5 55zM310 248
q-1 58 -20 91t-51 33q-15 0 -29 -9.5t-24.5 -26t-15.5 -39t-2 -49.5h142zM164 477h-80l80 189h148l84 -189h-78l-79 106z" />
    <glyph glyph-name="edieresis" unicode="&#xeb;" horiz-adv-x="479" 
d="M439 116q-42 -60 -99 -93.5t-115 -33.5q-41 0 -74.5 15t-57.5 42t-37.5 65t-13.5 83q0 50 16 91t44.5 71t67.5 46.5t86 16.5q78 0 126 -48q22 -22 30 -43t12 -39t7.5 -31t16.5 -20v-29h-277q3 -31 14.5 -58t28 -46.5t37.5 -30.5t43 -11q28 0 56.5 17t65.5 55zM310 248
q-1 58 -20 91t-51 33q-15 0 -29 -9.5t-24.5 -26t-15.5 -39t-2 -49.5h142zM337 619q25 0 42.5 -17.5t17.5 -42.5t-17.5 -42.5t-42.5 -17.5t-42.5 17.5t-17.5 42.5t17.5 42.5t42.5 17.5zM143 619q25 0 42.5 -17.5t17.5 -42.5t-17.5 -42.5t-42.5 -17.5t-42.5 17.5t-17.5 42.5
t17.5 42.5t42.5 17.5z" />
    <glyph glyph-name="igrave" unicode="&#xec;" horiz-adv-x="292" 
d="M265 0h-250v32h11q31 0 43.5 15.5t12.5 54.5v192q0 20 -6.5 27.5t-27.5 15.5l-33 12v24l171 57h18v-335q0 -31 14 -47t47 -16v-32zM164 477l-177 189h161l74 -189h-58z" />
    <glyph glyph-name="iacute" unicode="&#xed;" horiz-adv-x="292" 
d="M265 0h-250v32h11q31 0 43.5 15.5t12.5 54.5v192q0 20 -6.5 27.5t-27.5 15.5l-33 12v24l171 57h18v-335q0 -31 14 -47t47 -16v-32zM141 666h161l-177 -189h-58z" />
    <glyph glyph-name="icircumflex" unicode="&#xee;" horiz-adv-x="292" 
d="M265 0h-250v32h11q31 0 43.5 15.5t12.5 54.5v192q0 20 -6.5 27.5t-27.5 15.5l-33 12v24l171 57h18v-335q0 -31 14 -47t47 -16v-32zM71 477h-80l80 189h148l84 -189h-78l-79 106z" />
    <glyph glyph-name="idieresis" unicode="&#xef;" horiz-adv-x="292" 
d="M265 0h-250v32h11q31 0 43.5 15.5t12.5 54.5v192q0 20 -6.5 27.5t-27.5 15.5l-33 12v24l171 57h18v-335q0 -31 14 -47t47 -16v-32zM244 619q25 0 42.5 -17.5t17.5 -42.5t-17.5 -42.5t-42.5 -17.5t-42.5 17.5t-17.5 42.5t17.5 42.5t42.5 17.5zM50 619q25 0 42.5 -17.5
t17.5 -42.5t-17.5 -42.5t-42.5 -17.5t-42.5 17.5t-17.5 42.5t17.5 42.5t42.5 17.5z" />
    <glyph glyph-name="eth" unicode="&#xf0;" horiz-adv-x="563" 
d="M188 669q38 -12 67.5 -26t69.5 -40l116 66l17 -32l-101 -57q81 -72 124.5 -159t43.5 -184q0 -57 -17.5 -103t-50 -78.5t-79 -49.5t-103.5 -17q-65 0 -110 20.5t-73.5 51t-41 67t-12.5 68.5q0 44 19 84.5t51.5 71.5t75 49t88.5 18q14 0 35.5 -4t44.5 -24l3 1
q-10 29 -20 50t-20 37.5t-19.5 30t-19.5 26.5l-125 -73l-17 31l119 70q-20 23 -37.5 38t-49.5 35zM391 156q0 39 -8 78.5t-24.5 71t-40.5 51t-56 19.5q-45 0 -68.5 -31.5t-23.5 -91.5q0 -33 7 -72t23 -73t40.5 -56.5t58.5 -22.5q13 0 29 5t30 18.5t23.5 38.5t9.5 65z" />
    <glyph glyph-name="ntilde" unicode="&#xf1;" 
d="M495 91q0 -37 14 -48t43 -11v-32h-236v32q31 2 44 26.5t13 86.5v87q0 60 -16 85.5t-46 25.5q-23 0 -48.5 -11t-57.5 -33v-203q0 -34 14.5 -49t44.5 -15h9v-32h-253v32h6q32 0 44.5 15.5t12.5 54.5v195q0 17 -10.5 27t-36.5 18l-21 6v24l171 58h19v-89q55 36 102 57t83 21
q55 0 80 -40.5t25 -131.5v-156zM103 501q0 66 30.5 106.5t79.5 40.5q21 0 41.5 -8t39 -17.5t35 -17.5t30.5 -8q35 0 47 50h64q-1 -31 -10 -57.5t-23.5 -46t-34 -30.5t-41.5 -11q-21 0 -42 8t-40 17t-35.5 17t-30.5 8q-18 0 -29 -12t-18 -39h-63z" />
    <glyph glyph-name="ograve" unicode="&#xf2;" 
d="M43 198q0 47 19 87.5t53 70t79.5 46.5t99.5 17q51 0 94.5 -15.5t75 -43t49 -66t17.5 -83.5q0 -48 -19 -88.5t-53 -70t-79.5 -46.5t-99.5 -17q-52 0 -95 15.5t-74.5 43.5t-49 66t-17.5 84zM175 257q0 -31 7 -70.5t23 -73.5t41 -57.5t61 -23.5q44 0 67.5 32t23.5 92
q0 48 -9.5 88.5t-27 69.5t-41 45.5t-52.5 16.5q-45 0 -69 -31t-24 -88zM304 477l-177 189h161l74 -189h-58z" />
    <glyph glyph-name="oacute" unicode="&#xf3;" 
d="M43 198q0 47 19 87.5t53 70t79.5 46.5t99.5 17q51 0 94.5 -15.5t75 -43t49 -66t17.5 -83.5q0 -48 -19 -88.5t-53 -70t-79.5 -46.5t-99.5 -17q-52 0 -95 15.5t-74.5 43.5t-49 66t-17.5 84zM175 257q0 -31 7 -70.5t23 -73.5t41 -57.5t61 -23.5q44 0 67.5 32t23.5 92
q0 48 -9.5 88.5t-27 69.5t-41 45.5t-52.5 16.5q-45 0 -69 -31t-24 -88zM281 666h161l-177 -189h-58z" />
    <glyph glyph-name="ocircumflex" unicode="&#xf4;" 
d="M43 198q0 47 19 87.5t53 70t79.5 46.5t99.5 17q51 0 94.5 -15.5t75 -43t49 -66t17.5 -83.5q0 -48 -19 -88.5t-53 -70t-79.5 -46.5t-99.5 -17q-52 0 -95 15.5t-74.5 43.5t-49 66t-17.5 84zM175 257q0 -31 7 -70.5t23 -73.5t41 -57.5t61 -23.5q44 0 67.5 32t23.5 92
q0 48 -9.5 88.5t-27 69.5t-41 45.5t-52.5 16.5q-45 0 -69 -31t-24 -88zM211 477h-80l80 189h148l84 -189h-78l-79 106z" />
    <glyph glyph-name="otilde" unicode="&#xf5;" 
d="M43 198q0 47 19 87.5t53 70t79.5 46.5t99.5 17q51 0 94.5 -15.5t75 -43t49 -66t17.5 -83.5q0 -48 -19 -88.5t-53 -70t-79.5 -46.5t-99.5 -17q-52 0 -95 15.5t-74.5 43.5t-49 66t-17.5 84zM175 257q0 -31 7 -70.5t23 -73.5t41 -57.5t61 -23.5q44 0 67.5 32t23.5 92
q0 48 -9.5 88.5t-27 69.5t-41 45.5t-52.5 16.5q-45 0 -69 -31t-24 -88zM103 501q0 66 30.5 106.5t79.5 40.5q21 0 41.5 -8t39 -17.5t35 -17.5t30.5 -8q35 0 47 50h64q-1 -31 -10 -57.5t-23.5 -46t-34 -30.5t-41.5 -11q-21 0 -42 8t-40 17t-35.5 17t-30.5 8q-18 0 -29 -12
t-18 -39h-63z" />
    <glyph glyph-name="odieresis" unicode="&#xf6;" 
d="M43 198q0 47 19 87.5t53 70t79.5 46.5t99.5 17q51 0 94.5 -15.5t75 -43t49 -66t17.5 -83.5q0 -48 -19 -88.5t-53 -70t-79.5 -46.5t-99.5 -17q-52 0 -95 15.5t-74.5 43.5t-49 66t-17.5 84zM175 257q0 -31 7 -70.5t23 -73.5t41 -57.5t61 -23.5q44 0 67.5 32t23.5 92
q0 48 -9.5 88.5t-27 69.5t-41 45.5t-52.5 16.5q-45 0 -69 -31t-24 -88zM384 619q25 0 42.5 -17.5t17.5 -42.5t-17.5 -42.5t-42.5 -17.5t-42.5 17.5t-17.5 42.5t17.5 42.5t42.5 17.5zM190 619q25 0 42.5 -17.5t17.5 -42.5t-17.5 -42.5t-42.5 -17.5t-42.5 17.5t-17.5 42.5
t17.5 42.5t42.5 17.5z" />
    <glyph glyph-name="divide" unicode="&#xf7;" horiz-adv-x="668" 
d="M601 364v-76h-534v76h534zM334 575q20 0 34 -14t14 -34t-14 -34t-34 -14t-34 14t-14 34t14 34t34 14zM334 173q20 0 34 -14t14 -34t-14 -34t-34 -14t-34 14t-14 34t14 34t34 14z" />
    <glyph glyph-name="oslash" unicode="&#xf8;" 
d="M486 465l28 -25l-61 -71q38 -29 57.5 -69.5t19.5 -88.5q0 -47 -19 -87.5t-52.5 -70.5t-79 -47t-98.5 -17q-35 0 -65.5 7t-63.5 22l-55 -64l-28 23l52 61q-38 29 -58 70.5t-20 89.5q0 47 19 87.5t52.5 70t79.5 46.5t99 17q72 0 129 -30zM360 318q-34 58 -92 58
q-44 0 -68.5 -31.5t-24.5 -86.5q0 -31 6.5 -66t17.5 -63zM215 92q38 -60 92 -60q45 0 68 32t23 93q0 32 -5 64t-16 60z" />
    <glyph glyph-name="ugrave" unicode="&#xf9;" 
d="M363 69q-69 -44 -109.5 -62t-69.5 -18q-27 0 -47.5 11.5t-34 30t-20.5 43.5t-7 52v167q0 29 -4 39.5t-17 16.5l-21 10v23l144 37h20v-255q0 -45 15.5 -72t49.5 -27q37 0 101 41v181q0 29 -6.5 40t-29.5 18l-46 14v23l184 37h20v-306q0 -38 5.5 -49t23.5 -11q7 0 13.5 1
t16.5 5v-31l-162 -39h-19v80zM304 477l-177 189h161l74 -189h-58z" />
    <glyph glyph-name="uacute" unicode="&#xfa;" 
d="M363 69q-69 -44 -109.5 -62t-69.5 -18q-27 0 -47.5 11.5t-34 30t-20.5 43.5t-7 52v167q0 29 -4 39.5t-17 16.5l-21 10v23l144 37h20v-255q0 -45 15.5 -72t49.5 -27q37 0 101 41v181q0 29 -6.5 40t-29.5 18l-46 14v23l184 37h20v-306q0 -38 5.5 -49t23.5 -11q7 0 13.5 1
t16.5 5v-31l-162 -39h-19v80zM281 666h161l-177 -189h-58z" />
    <glyph glyph-name="ucircumflex" unicode="&#xfb;" 
d="M363 69q-69 -44 -109.5 -62t-69.5 -18q-27 0 -47.5 11.5t-34 30t-20.5 43.5t-7 52v167q0 29 -4 39.5t-17 16.5l-21 10v23l144 37h20v-255q0 -45 15.5 -72t49.5 -27q37 0 101 41v181q0 29 -6.5 40t-29.5 18l-46 14v23l184 37h20v-306q0 -38 5.5 -49t23.5 -11q7 0 13.5 1
t16.5 5v-31l-162 -39h-19v80zM211 477h-80l80 189h148l84 -189h-78l-79 106z" />
    <glyph glyph-name="udieresis" unicode="&#xfc;" 
d="M363 69q-69 -44 -109.5 -62t-69.5 -18q-27 0 -47.5 11.5t-34 30t-20.5 43.5t-7 52v167q0 29 -4 39.5t-17 16.5l-21 10v23l144 37h20v-255q0 -45 15.5 -72t49.5 -27q37 0 101 41v181q0 29 -6.5 40t-29.5 18l-46 14v23l184 37h20v-306q0 -38 5.5 -49t23.5 -11q7 0 13.5 1
t16.5 5v-31l-162 -39h-19v80zM384 619q25 0 42.5 -17.5t17.5 -42.5t-17.5 -42.5t-42.5 -17.5t-42.5 17.5t-17.5 42.5t17.5 42.5t42.5 17.5zM190 619q25 0 42.5 -17.5t17.5 -42.5t-17.5 -42.5t-42.5 -17.5t-42.5 17.5t-17.5 42.5t17.5 42.5t42.5 17.5z" />
    <glyph glyph-name="yacute" unicode="&#xfd;" horiz-adv-x="521" 
d="M96 285q-13 27 -23.5 44.5t-21 28t-22.5 14.5t-28 4v32h255v-32q-39 0 -47 -15t6 -45l83 -172l76 154q16 32 4.5 54.5t-56.5 23.5v32h186v-32q-17 -4 -28.5 -8.5t-21 -13t-17.5 -22.5t-19 -35l-224 -456q-37 -74 -91 -74q-27 0 -45 16t-18 41q0 12 4 23.5t11 18.5
q17 17 35.5 18.5t38 5t39 18t39.5 58.5l20 44zM255 666h161l-177 -189h-58z" />
    <glyph glyph-name="thorn" unicode="&#xfe;" 
d="M201 -105q0 -25 4 -41.5t15 -27t30 -15.5t50 -7v-31h-287v31h12q29 0 41.5 15t12.5 51v659q0 21 -6.5 32t-20.5 16l-37 13v25l160 54h26v-335q21 17 40.5 32.5t39.5 27t41 18.5t46 7q35 0 64.5 -14.5t51.5 -40t34.5 -60t12.5 -74.5q0 -42 -14 -84.5t-42.5 -77.5
t-71.5 -57t-100 -22q-44 0 -102 13v-107zM201 75q22 -23 49.5 -36t53.5 -13q46 0 75 40.5t29 106.5q0 33 -7 64t-20.5 55t-34 38t-47.5 14q-41 0 -98 -51v-218z" />
    <glyph glyph-name="ydieresis" unicode="&#xff;" horiz-adv-x="521" 
d="M96 285q-13 27 -23.5 44.5t-21 28t-22.5 14.5t-28 4v32h255v-32q-39 0 -47 -15t6 -45l83 -172l76 154q16 32 4.5 54.5t-56.5 23.5v32h186v-32q-17 -4 -28.5 -8.5t-21 -13t-17.5 -22.5t-19 -35l-224 -456q-37 -74 -91 -74q-27 0 -45 16t-18 41q0 12 4 23.5t11 18.5
q17 17 35.5 18.5t38 5t39 18t39.5 58.5l20 44zM358 619q25 0 42.5 -17.5t17.5 -42.5t-17.5 -42.5t-42.5 -17.5t-42.5 17.5t-17.5 42.5t17.5 42.5t42.5 17.5zM164 619q25 0 42.5 -17.5t17.5 -42.5t-17.5 -42.5t-42.5 -17.5t-42.5 17.5t-17.5 42.5t17.5 42.5t42.5 17.5z" />
    <glyph glyph-name="dotlessi" unicode="&#x131;" horiz-adv-x="292" 
d="M265 0h-250v32h11q31 0 43.5 15.5t12.5 54.5v192q0 20 -6.5 27.5t-27.5 15.5l-33 12v24l171 57h18v-335q0 -31 14 -47t47 -16v-32z" />
    <glyph glyph-name="Lslash" unicode="&#x141;" horiz-adv-x="604" 
d="M251 101q0 -28 10.5 -37t39.5 -9h127q25 0 43 6.5t34 21t34 37t43 54.5h40l-73 -174h-536v39h17q48 0 65.5 17.5t17.5 54.5v124l-100 -79v64l100 79v212q0 44 -22.5 58t-56.5 14h-19v39h339v-39h-29q-39 0 -56.5 -17.5t-17.5 -52.5v-121l165 130v-64l-165 -130v-227z" />
    <glyph glyph-name="lslash" unicode="&#x142;" horiz-adv-x="271" 
d="M195 102q0 -35 12.5 -52.5t47.5 -17.5v-32h-248v32h10q32 0 44 16t12 54v139l-69 -69v54l69 69v219q0 33 -4.5 43.5t-21.5 16.5l-43 16v29l173 50h18v-269l76 76v-54l-76 -76v-244z" />
    <glyph glyph-name="OE" unicode="&#x152;" horiz-adv-x="1063" 
d="M697 107q0 -32 7.5 -42t29.5 -10h144q24 0 42.5 4t32 15.5t23.5 31.5t17 51h38l-12 -157h-494q-12 0 -23.5 -0.5t-26.5 -1.5q-15 -2 -34.5 -2.5t-48.5 -0.5q-92 0 -157 29.5t-106 75.5t-59.5 102.5t-18.5 109.5q0 48 18 104t58.5 103t107 78.5t162.5 31.5q27 0 44.5 -1
t33.5 -2q16 -2 34 -3t45 -1h436l10 -145h-38q-8 51 -21 70.5t-48 19.5h-196v-228h131q42 0 58.5 16t16.5 56h40v-199h-40q0 20 -3 34t-13 22.5t-27.5 12t-46.5 3.5h-116v-177zM559 455q0 29 -5.5 53t-20.5 41.5t-41.5 27t-67.5 9.5q-51 0 -92.5 -18t-71 -51.5t-45.5 -80.5
t-16 -104q0 -60 19 -113t51.5 -92.5t76.5 -62.5t94 -23q65 0 92 41.5t27 108.5v264z" />
    <glyph glyph-name="oe" unicode="&#x153;" horiz-adv-x="781" 
d="M748 106q-36 -53 -92 -83.5t-114 -30.5q-34 0 -60.5 8.5t-60.5 31.5q-77 -43 -153 -43q-48 0 -89 16.5t-71 45t-47 68t-17 84.5q0 46 18 85t49.5 67.5t75 45t93.5 16.5q44 0 82.5 -11t70.5 -34q35 26 65 36.5t68 10.5q35 0 68 -12t53 -32q18 -18 26 -34.5t13 -33.5
t10 -33.5t17 -34.5v-29h-258q8 -69 40 -105.5t80 -36.5q26 0 54.5 16t54.5 45zM171 264q0 -26 6.5 -65.5t21 -76.5t38 -63.5t58.5 -26.5q39 0 62.5 29.5t23.5 80.5q0 29 -6 68.5t-20 76t-38.5 62t-61.5 25.5q-38 0 -61 -30t-23 -80zM621 249q-2 60 -19 93.5t-46 33.5
q-19 0 -31.5 -10.5t-19.5 -28t-9.5 -40.5t-2.5 -48h128z" />
    <glyph glyph-name="Scaron" unicode="&#x160;" horiz-adv-x="563" 
d="M58 184h39q50 -150 171 -150q50 0 83 28t33 70q0 37 -24 63t-59.5 47.5t-77 42t-77 46t-59.5 60t-24 83.5q0 36 15 66t42 51.5t64 33.5t82 12q29 0 54 -4t45 -9t33.5 -9t19.5 -4q5 0 10 2t12 9h21l19 -162h-40q-17 61 -61 97.5t-102 36.5q-42 0 -70 -20t-28 -49
q0 -34 27.5 -57.5t69.5 -45.5t90.5 -49t90.5 -69q31 -31 44 -63.5t13 -68.5q0 -39 -16.5 -73t-45.5 -59t-67.5 -39.5t-83.5 -14.5q-30 0 -58 5t-51 11t-39 11t-23 5q-14 0 -21 -16h-26zM357 871h80l-80 -189h-148l-84 189h78l79 -106z" />
    <glyph glyph-name="scaron" unicode="&#x161;" horiz-adv-x="375" 
d="M42 118h32q13 -42 42.5 -64t61.5 -22q21 0 36.5 13.5t15.5 32.5q0 17 -14 31.5t-35 28t-45 28t-45 32.5t-35 41t-14 53q0 57 43 92t114 35q29 0 54.5 -5t57.5 -16l2 -107h-32q-28 85 -94 85q-20 0 -33 -10.5t-13 -27.5q0 -20 14.5 -35t36.5 -28.5t47.5 -27t47.5 -31.5
t36.5 -42t14.5 -58q0 -56 -36 -91t-94 -35q-26 0 -44 2t-30 5t-19.5 5t-12.5 2q-8 0 -20 -13h-29zM263 666h80l-80 -189h-148l-84 189h78l79 -106z" />
    <glyph glyph-name="Ydieresis" unicode="&#x178;" horiz-adv-x="750" 
d="M459 113q0 -36 16.5 -55t70.5 -19h15v-39h-341v39h25q45 0 60.5 19t15.5 53v139l-215 286q-11 14 -19.5 23.5t-18 14.5t-22 7t-31.5 2h-7v39h326v-39h-12q-44 0 -52.5 -15.5t7.5 -35.5l160 -211l116 182q10 15 15.5 29.5t2.5 26t-15.5 18t-38.5 6.5h-12v39h236v-39
q-22 -1 -37 -4.5t-27 -11t-22.5 -20.5t-24.5 -34l-171 -263v-137zM473 824q25 0 42.5 -17.5t17.5 -42.5t-17.5 -42.5t-42.5 -17.5t-42.5 17.5t-17.5 42.5t17.5 42.5t42.5 17.5zM279 824q25 0 42.5 -17.5t17.5 -42.5t-17.5 -42.5t-42.5 -17.5t-42.5 17.5t-17.5 42.5
t17.5 42.5t42.5 17.5z" />
    <glyph glyph-name="Zcaron" unicode="&#x17d;" horiz-adv-x="750" 
d="M691 0h-633v55l444 512h-269q-44 0 -67.5 -24t-28.5 -89h-38l7 168h578v-57l-444 -510h306q27 0 45.5 7t31.5 23.5t22.5 44.5t19.5 70h38zM451 871h80l-80 -189h-148l-84 189h78l79 -106z" />
    <glyph glyph-name="zcaron" unicode="&#x17e;" horiz-adv-x="510" 
d="M30 32l264 321h-139q-15 0 -25.5 -3.5t-20.5 -13t-19 -26t-21 -42.5h-33l33 168h33q-3 -13 3 -20.5t30 -7.5h334v-28l-267 -325h129q26 0 42 3t29 12t25.5 25.5t30.5 43.5h31l-47 -139h-412v32zM331 666h80l-80 -189h-148l-84 189h78l79 -106z" />
    <glyph glyph-name="florin" unicode="&#x192;" horiz-adv-x="500" 
d="M235 34q-10 -57 -31 -106.5t-68 -96.5q-30 -30 -68 -47t-89 -17q-46 0 -75 17t-29 44q0 20 17 35t40 15t35.5 -11.5t22.5 -26t20 -26t28 -11.5q27 0 44.5 29t25.5 80l75 451h-75l5 24q18 0 41.5 6.5t37.5 15.5q8 53 27 100.5t49.5 83.5t71.5 57.5t92 21.5q45 0 69.5 -15
t24.5 -42q0 -22 -15.5 -37t-38.5 -15q-21 0 -36 11t-27.5 23.5l-23.5 23.5t-24 11q-18 0 -26.5 -29t-19.5 -95l-16 -99h72l-10 -46h-71z" />
    <glyph glyph-name="circumflex" unicode="&#x2c6;" horiz-adv-x="333" 
d="M91 477h-80l80 189h148l84 -189h-78l-79 106z" />
    <glyph glyph-name="caron" unicode="&#x2c7;" horiz-adv-x="333" 
d="M242 666h80l-80 -189h-148l-84 189h78l79 -106z" />
    <glyph glyph-name="breve" unicode="&#x2d8;" horiz-adv-x="333" 
d="M71 654q11 -46 33 -65.5t64 -19.5q41 0 62.5 19.5t30.5 65.5h38q2 -39 -7.5 -70.5t-27.5 -53t-43 -33t-55 -11.5q-64 0 -97.5 43t-35.5 125h38z" />
    <glyph glyph-name="dotaccent" unicode="&#x2d9;" horiz-adv-x="333" 
d="M167 619q25 0 42.5 -17.5t17.5 -42.5t-17.5 -42.5t-42.5 -17.5t-42.5 17.5t-17.5 42.5t17.5 42.5t42.5 17.5z" />
    <glyph glyph-name="ring" unicode="&#x2da;" horiz-adv-x="333" 
d="M167 663q41 0 69 -28t28 -69t-28 -69t-69 -28t-69 28t-28 69t28 69t69 28zM167 628q-26 0 -44 -18t-18 -44t18 -44t44 -18t44 18t18 44t-18 44t-44 18z" />
    <glyph glyph-name="ogonek" unicode="&#x2db;" horiz-adv-x="333" 
d="M210 6q-8 -21 -11 -33t-3 -25q0 -44 32.5 -72.5t81.5 -28.5q16 0 29.5 3t35.5 11l12 -16q-40 -26 -66.5 -35.5t-58.5 -9.5q-55 0 -89.5 29.5t-34.5 77.5q0 52 44 99h28z" />
    <glyph glyph-name="tilde" unicode="&#x2dc;" horiz-adv-x="333" 
d="M-17 501q0 66 30.5 106.5t79.5 40.5q21 0 41.5 -8t39 -17.5t35 -17.5t30.5 -8q35 0 47 50h64q-1 -31 -10 -57.5t-23.5 -46t-34 -30.5t-41.5 -11q-21 0 -42 8t-40 17t-35.5 17t-30.5 8q-18 0 -29 -12t-18 -39h-63z" />
    <glyph glyph-name="hungarumlaut" unicode="&#x2dd;" horiz-adv-x="333" 
d="M278 666h161l-177 -189h-58zM102 666h161l-177 -189h-58z" />
    <glyph glyph-name="endash" unicode="&#x2013;" horiz-adv-x="500" 
d="M506 295v-90h-512v90h512z" />
    <glyph glyph-name="emdash" unicode="&#x2014;" horiz-adv-x="1000" 
d="M1006 295v-90h-1012v90h1012z" />
    <glyph glyph-name="quoteleft" unicode="&#x2018;" horiz-adv-x="313" 
d="M236 599q-48 -4 -79 -27t-31 -56q0 -9 4 -12t10.5 -3t15.5 1.5t18 1.5q36 0 55.5 -18t19.5 -48t-21 -48.5t-56 -18.5q-50 0 -79 31t-29 84q0 34 12.5 63t34 49.5t51.5 32t66 10.5z" />
    <glyph glyph-name="quoteright" unicode="&#x2019;" horiz-adv-x="313" 
d="M77 413q48 4 79 27t31 56q0 9 -4 12t-10.5 3t-15.5 -1.5t-18 -1.5q-36 0 -55.5 18t-19.5 48t21 48.5t56 18.5q50 0 79 -31t29 -84q0 -34 -12.5 -63t-34 -49.5t-51.5 -32t-66 -10.5z" />
    <glyph glyph-name="quotesinglbase" unicode="&#x201a;" horiz-adv-x="313" 
d="M77 -104q48 4 79 27t31 56q0 9 -4 12t-10.5 3t-15.5 -1.5t-18 -1.5q-36 0 -55.5 18t-19.5 48t21 48.5t56 18.5q50 0 79 -31t29 -84q0 -34 -12.5 -63t-34 -49.5t-51.5 -32t-66 -10.5z" />
    <glyph glyph-name="quotedblleft" unicode="&#x201c;" horiz-adv-x="583" 
d="M509 599q-48 -4 -79 -27t-31 -56q0 -9 4 -12t10.5 -3t15.5 1.5t18 1.5q36 0 55.5 -18t19.5 -48t-21 -48.5t-56 -18.5q-50 0 -79 31t-29 84q0 34 12.5 63t34 49.5t51.5 32t66 10.5zM233 599q-48 -4 -79 -27t-31 -56q0 -9 4 -12t10.5 -3t15.5 1.5t18 1.5q36 0 55.5 -18
t19.5 -48t-21 -48.5t-56 -18.5q-50 0 -79 31t-29 84q0 34 12.5 63t34 49.5t51.5 32t66 10.5z" />
    <glyph glyph-name="quotedblright" unicode="&#x201d;" horiz-adv-x="583" 
d="M350 413q48 4 79 27t31 56q0 9 -4 12t-10.5 3t-15.5 -1.5t-18 -1.5q-36 0 -55.5 18t-19.5 48t21 48.5t56 18.5q50 0 79 -31t29 -84q0 -34 -12.5 -63t-34 -49.5t-51.5 -32t-66 -10.5zM74 413q48 4 79 27t31 56q0 9 -4 12t-10.5 3t-15.5 -1.5t-18 -1.5q-36 0 -55.5 18
t-19.5 48t21 48.5t56 18.5q50 0 79 -31t29 -84q0 -34 -12.5 -63t-34 -49.5t-51.5 -32t-66 -10.5z" />
    <glyph glyph-name="quotedblbase" unicode="&#x201e;" horiz-adv-x="583" 
d="M350 -104q48 4 79 27t31 56q0 9 -4 12t-10.5 3t-15.5 -1.5t-18 -1.5q-36 0 -55.5 18t-19.5 48t21 48.5t56 18.5q50 0 79 -31t29 -84q0 -34 -12.5 -63t-34 -49.5t-51.5 -32t-66 -10.5zM74 -104q48 4 79 27t31 56q0 9 -4 12t-10.5 3t-15.5 -1.5t-18 -1.5q-36 0 -55.5 18
t-19.5 48t21 48.5t56 18.5q50 0 79 -31t29 -84q0 -34 -12.5 -63t-34 -49.5t-51.5 -32t-66 -10.5z" />
    <glyph glyph-name="dagger" unicode="&#x2020;" horiz-adv-x="469" 
d="M173 586q-9 44 34 44h55q28 0 32.5 -15t-0.5 -38l-42 -201l139 40q29 8 39 -2.5t10 -36.5v-42q0 -27 -12 -35t-40 0l-134 40l51 -460q4 -31 -5 -44t-39 -13h-57q-27 0 -36 15t-5 45l52 457l-134 -41q-27 -8 -39.5 2t-12.5 33v46q0 23 10.5 33.5t33.5 3.5l142 -41z" />
    <glyph glyph-name="daggerdbl" unicode="&#x2021;" horiz-adv-x="479" 
d="M270 630q44 0 33 -43l-44 -179l121 35q27 8 46 3t19 -30v-52q0 -26 -16.5 -32t-42.5 2l-127 37l30 -144l-30 -144l120 35q29 8 47.5 4t18.5 -29v-55q0 -25 -15.5 -31.5t-40.5 1.5l-130 38l44 -178q5 -21 -1.5 -33t-31.5 -12h-60q-20 0 -30 10t-5 33l45 180l-129 -38
q-22 -7 -39.5 -1t-17.5 31v53q0 23 16 30.5t41 -0.5l129 -38l-30 144l30 144l-133 -39q-21 -6 -37 0t-16 27v60q0 21 16.5 27t40.5 -1l129 -37l-45 183q-9 39 34 39h61z" />
    <glyph glyph-name="bullet" unicode="&#x2022;" horiz-adv-x="354" 
d="M177 450q29 0 54.5 -11t44.5 -29.5t30 -44t11 -54.5t-11 -54.5t-30 -44.5t-44.5 -30t-54.5 -11t-54.5 11t-44 30t-29.5 44.5t-11 54.5t11 54.5t29.5 44t44 29.5t54.5 11z" />
    <glyph glyph-name="ellipsis" unicode="&#x2026;" horiz-adv-x="1000" 
d="M834 124q35 0 58 -19t23 -48q0 -28 -22.5 -48t-58.5 -20t-58 20t-22 48q0 29 24 48t56 19zM500 124q35 0 58 -19t23 -48q0 -28 -22.5 -48t-58.5 -20t-58 20t-22 48q0 29 24 48t56 19zM166 124q35 0 58 -19t23 -48q0 -28 -22.5 -48t-58.5 -20t-58 20t-22 48q0 29 24 48
t56 19z" />
    <glyph glyph-name="perthousand" unicode="&#x2030;" horiz-adv-x="1021" 
d="M866 -8q-28 0 -51.5 12.5t-40.5 35t-26.5 53t-9.5 67.5q0 77 35.5 124t92.5 47q58 0 93.5 -47t35.5 -124q0 -37 -9.5 -67.5t-27 -53t-41 -35t-51.5 -12.5zM825 90q0 -27 7.5 -49.5t33.5 -22.5q14 0 22.5 6t13 16.5t5.5 23.5t1 26v146q0 12 -1.5 24.5t-6 22.5t-12.5 16.5
t-22 6.5q-25 0 -33 -22.5t-8 -47.5v-146zM559 -8q-28 0 -51.5 12.5t-40.5 35t-26.5 53t-9.5 67.5q0 77 35.5 124t92.5 47q58 0 93.5 -47t35.5 -124q0 -37 -9.5 -67.5t-27 -53t-41 -35t-51.5 -12.5zM518 90q0 -27 7.5 -49.5t33.5 -22.5q14 0 22.5 6t13 16.5t5.5 23.5t1 26
v146q0 12 -1.5 24.5t-6 22.5t-12.5 16.5t-22 6.5q-25 0 -33 -22.5t-8 -47.5v-146zM154 298q-28 0 -51.5 12.5t-40.5 35t-26.5 53t-9.5 67.5q0 77 35.5 124t92.5 47q58 0 93.5 -47t35.5 -124q0 -37 -9.5 -67.5t-27 -53t-41 -35t-51.5 -12.5zM113 396q0 -27 7.5 -49.5
t33.5 -22.5q14 0 22.5 6t13 16.5t5.5 23.5t1 26v146q0 12 -1.5 24.5t-6 22.5t-12.5 16.5t-22 6.5q-25 0 -33 -22.5t-8 -47.5v-146zM542 638h71l-445 -666h-71z" />
    <glyph glyph-name="guilsinglleft" unicode="&#x2039;" horiz-adv-x="250" 
d="M222 35h-33l-168 185l168 185h33l-81 -185z" />
    <glyph glyph-name="guilsinglright" unicode="&#x203a;" horiz-adv-x="250" 
d="M28 405h33l168 -185l-168 -185h-33l81 185z" />
    <glyph glyph-name="fraction" unicode="&#x2044;" horiz-adv-x="208" 
d="M291 637h71l-446 -665h-70z" />
    <glyph glyph-name="trademark" unicode="&#x2122;" horiz-adv-x="1000" 
d="M377 662v-110h-17q-3 47 -24 66t-70 19h-18v-287q0 -41 9 -53t40 -12v-17h-221v17q18 1 28 3t15 8.5t6 19.5t1 36v285h-16q-48 0 -69.5 -19.5t-26.5 -65.5h-16v110h379zM611 662l113 -242l109 242h172v-19q-16 0 -25.5 -2t-15 -9t-7.5 -19.5t-2 -33.5v-242q0 -28 12 -40
t38 -12v-17h-225v17q17 0 27.5 2.5t16 9t7.5 19t2 32.5v246h-2l-151 -326h-12l-154 326h-2v-251q0 -34 9.5 -46t46.5 -12v-17h-137v17q18 1 29 3t16.5 9t7 19.5t1.5 33.5v229q0 40 -8.5 52.5t-36.5 12.5l-9 -1v19h180z" />
    <glyph glyph-name="minus" unicode="&#x2212;" horiz-adv-x="667" 
d="M600 364v-76h-534v76h534z" />
    <glyph glyph-name="fi" unicode="&#xfb01;" horiz-adv-x="583" 
d="M206 98q0 -35 12.5 -50.5t54.5 -15.5v-32h-253v32q36 0 50 13t14 57v254h-64v20l64 32q0 61 23.5 110t60.5 83t83 52.5t92 18.5q23 0 46 -6t41 -15t29.5 -18.5t11.5 -16.5t-1 -11t-8 -12l-31 -38q-10 -12 -20 -12q-11 0 -24 11.5t-28.5 25.5t-34 25.5t-41.5 11.5
q-36 0 -56.5 -28.5t-20.5 -86.5v-94h99v-28l170 50h21v-335q0 -38 16 -50.5t41 -12.5v-32h-234v32q29 0 42 15t13 48v228q0 16 -3 24.5t-16 8.5h-16h-133v-258z" />
    <glyph glyph-name="fl" unicode="&#xfb02;" horiz-adv-x="583" 
d="M209 99q0 -38 10.5 -52.5t42.5 -14.5h12v-32h-254v32h11q31 0 43.5 15.5t12.5 54.5v254h-67v17l69 32q6 59 34 104.5t67 76.5t84 47t86 16q18 0 38.5 -2t34.5 -2q33 0 42 24h22v-569q0 -37 14 -52.5t41 -15.5v-32h-227v32q35 2 42.5 18t7.5 51v255h-166v-257zM375 552
q-46 36 -79 36q-51 0 -69 -36.5t-18 -93.5v-50h166v144z" />
    </font>
</defs>
</svg>
