<?xml version="1.0" standalone="no"?>
<!DOCTYPE svg PUBLIC "-//W3C//DTD SVG 1.1//EN" "http://www.w3.org/Graphics/SVG/1.1/DTD/svg11.dtd" >
<svg xmlns="http://www.w3.org/2000/svg" xmlns:xlink="http://www.w3.org/1999/xlink" version="1.1">
<metadata>
Created by FontForge 20170910 at Tue Mar 13 16:04:32 2018
 By Jimmy Wärting
Copyright (c) 1990 The Monotype Corporation plc 
</metadata>
<defs>
<font id="Bembo-SemiboldItalic" horiz-adv-x="333" >
  <font-face 
    font-family="Bembo SemBd"
    font-weight="600"
    font-style="italic"
    font-stretch="normal"
    units-per-em="1000"
    panose-1="0 0 0 0 0 0 0 0 0 0"
    ascent="750"
    descent="-250"
    x-height="413"
    cap-height="622"
    bbox="-200 -232 1140 864"
    underline-thickness="50"
    underline-position="-100"
    slope="-11.5"
    unicode-range="U+000D-FB02"
  />
<missing-glyph 
 />
    <glyph glyph-name=".notdef" 
 />
    <glyph glyph-name=".null" horiz-adv-x="0" 
 />
    <glyph glyph-name=".null" horiz-adv-x="0" 
 />
    <glyph glyph-name="nonmarkingreturn" unicode="&#xd;" horiz-adv-x="250" 
 />
    <glyph glyph-name="space" unicode=" " 
 />
    <glyph glyph-name="exclam" unicode="!" horiz-adv-x="279" 
d="M137 173l50 423q3 26 10.5 32t33.5 6h32q23 0 30 -3.5t7 -14.5q0 -5 -1.5 -10.5l-4.5 -16.5l-130 -416h-27zM130 116q20 0 33.5 -15.5t13.5 -38.5q0 -30 -18 -51.5t-44 -21.5q-21 0 -34.5 15t-13.5 39q0 29 19 51t44 22z" />
    <glyph glyph-name="quotedbl" unicode="&#x22;" horiz-adv-x="555" 
d="M386 517q-4 17 -6.5 34.5t-2.5 29.5q0 26 14.5 41.5t37.5 15.5t38 -15t15 -38q0 -9 -2.5 -27t-7.5 -41l-33 -143h-19zM207 517q-4 17 -6.5 34.5t-2.5 29.5q0 26 14.5 41.5t37.5 15.5t38 -15t15 -38q0 -9 -2.5 -27t-7.5 -41l-33 -143h-19z" />
    <glyph glyph-name="numbersign" unicode="#" horiz-adv-x="668" 
d="M235 477l42 194h70l-42 -194h195l41 194h70l-41 -194h92v-70h-105l-36 -171h141v-70h-155l-41 -193h-70l41 193h-196l-41 -193h-70l41 193h-93v70h107l36 171h-143v70h157zM255 236h196l36 171h-196z" />
    <glyph glyph-name="dollar" unicode="$" horiz-adv-x="424" 
d="M344 646h25l-11 -54q41 -10 67 -42t26 -74q0 -28 -12 -46t-31 -18q-17 0 -27.5 12.5t-10.5 33.5q0 10 4 28t4 26q0 28 -28 43l-51 -248q30 -27 48.5 -51.5t28 -45t13 -37.5t3.5 -31q0 -60 -40.5 -100t-116.5 -51l-14 -72h-25l14 70q-9 -1 -23 0.5t-20 3.5l-14 -74h-25
l16 81q-44 15 -69.5 45t-25.5 65q0 26 14 43t34 17q17 0 28 -12t11 -32q0 -6 -3 -22.5t-3 -23.5q0 -28 21 -45l50 247q-38 42 -55 78t-17 78q0 60 36 101.5t99 52.5l11 54h25l-11 -52q8 1 22 1t22 -2zM327 563q-6 2 -19.5 2t-23.5 -2l-40 -195q6 -8 16 -18t19 -20zM257 222
q-8 11 -17.5 19.5t-17.5 17.5l-48 -234q11 -5 21 -6t21 0zM242 22q31 8 50.5 34t19.5 60q0 49 -34 85zM257 555q-56 -26 -56 -85q0 -20 5 -37t18 -38z" />
    <glyph glyph-name="percent" unicode="%" horiz-adv-x="766" 
d="M265 566q0 24 -8.5 37.5t-24.5 13.5q-11 0 -18 -4.5t-13 -10.5q-16 -16 -28.5 -46.5t-21.5 -64.5t-14 -67t-5 -53q0 -52 32 -52q18 0 32 14q10 10 22 37.5t22.5 61.5t17.5 70t7 64zM330 524q0 -35 -12 -75t-33.5 -73.5t-52.5 -55.5t-69 -22q-43 0 -69.5 32t-26.5 86
q0 28 11 66.5t32.5 73t52.5 58.5t71 24q43 0 69.5 -31.5t26.5 -82.5zM660 638h61l-574 -678h-61zM779 217q0 -35 -12 -75t-33.5 -73.5t-52.5 -55.5t-69 -22q-43 0 -69.5 32t-26.5 86q0 28 11 66.5t32.5 73t52.5 58.5t71 24q43 0 69.5 -31.5t26.5 -82.5zM714 259
q0 24 -8.5 37.5t-24.5 13.5q-11 0 -18 -4.5t-13 -10.5q-16 -16 -28.5 -46.5t-21.5 -64.5t-14 -67t-5 -53q0 -52 32 -52q18 0 32 14q10 10 22 37.5t22.5 61.5t17.5 70t7 64z" />
    <glyph glyph-name="ampersand" unicode="&#x26;" horiz-adv-x="739" 
d="M338 378q23 0 31 -5t8 -16q0 -21 -24 -21q-6 0 -17 1.5t-22 1.5q-61 0 -95.5 -35t-34.5 -98q0 -39 14 -71t40 -55t62 -35.5t79 -12.5q45 0 86 13t72 35.5t49.5 52t18.5 62.5q0 21 -8.5 37.5t-23 27.5t-32.5 16.5t-37 5.5q-29 0 -48.5 -7.5t-19.5 -19.5q0 -5 4 -9t9 -8.5
t9 -10.5t4 -16q0 -14 -9.5 -22.5t-23.5 -8.5q-17 0 -28 13t-11 36q0 24 12 44t33 34.5t50 23t63 8.5q37 0 61.5 -4t52.5 -4q23 0 33 5.5t10 15.5t-10 20.5t-10 23.5q0 14 9 22t22 8q17 0 28.5 -12.5t11.5 -30.5q0 -43 -42 -72.5t-111 -35.5q34 -29 34 -79q0 -27 -15.5 -63.5
t-51.5 -69.5t-95 -56t-146 -23q-82 0 -132.5 23.5t-78 55t-37 64.5t-9.5 51q0 35 14.5 66t40.5 55.5t62.5 40.5t79.5 21v2q-53 8 -86 39t-33 73q0 35 18.5 65t51.5 52t78 34t98 12t87 -12.5t54.5 -30t28.5 -36.5t8 -32q0 -17 -10 -28t-27 -11q-8 0 -17 3.5t-18 12.5
q-8 8 -11.5 18t-6 21t-7 22t-15.5 22q-9 9 -23.5 15t-39.5 6q-29 0 -54.5 -12t-44 -32.5t-29.5 -48.5t-11 -60q0 -44 18 -60.5t60 -16.5z" />
    <glyph glyph-name="quotesingle" unicode="'" horiz-adv-x="278" 
d="M173 517q-4 17 -6.5 34.5t-2.5 29.5q0 26 14.5 41.5t37.5 15.5t38 -15t15 -38q0 -9 -2.5 -27t-7.5 -41l-33 -143h-19z" />
    <glyph glyph-name="parenleft" unicode="(" 
d="M209 -219q-61 96 -90 181.5t-29 167.5q0 74 22.5 147.5t64 142t99 129t126.5 108.5l15 -23q-53 -46 -97.5 -112t-77 -141t-50.5 -155.5t-18 -155.5q0 -68 14.5 -138.5t45.5 -141.5z" />
    <glyph glyph-name="parenright" unicode=")" 
d="M164 657q61 -96 90 -181.5t29 -167.5q0 -74 -22.5 -147.5t-64 -142t-99 -129t-126.5 -108.5l-15 23q53 46 97.5 112t77 141t50.5 155.5t18 155.5q0 68 -14.5 138.5t-45.5 141.5z" />
    <glyph glyph-name="asterisk" unicode="*" horiz-adv-x="514" 
d="M165 269l-26 25l97 134l-122 108l16 30l157 -51l65 156l34 -7v-169l165 -14v-34l-153 -52l37 -162l-33 -13l-97 132z" />
    <glyph glyph-name="plus" unicode="+" horiz-adv-x="667" 
d="M336 315v198h67v-198h198v-67h-198v-198h-67v198h-198v67h198z" />
    <glyph glyph-name="comma" unicode="," horiz-adv-x="279" 
d="M19 -146q92 42 92 107q0 18 -5.5 31t-11.5 23.5t-11.5 21t-5.5 24.5q0 24 15 39.5t38 15.5q29 0 46.5 -23t17.5 -61q0 -31 -11.5 -61.5t-33 -56.5t-51.5 -46.5t-67 -33.5z" />
    <glyph glyph-name="hyphen" unicode="-" 
d="M69 241h248l-16 -78h-248z" />
    <glyph glyph-name="period" unicode="." horiz-adv-x="279" 
d="M131 116q20 0 33.5 -15.5t13.5 -38.5q0 -30 -18 -51.5t-44 -21.5q-21 0 -34.5 15t-13.5 39q0 29 19 51t44 22z" />
    <glyph glyph-name="slash" unicode="/" horiz-adv-x="477" 
d="M499 671l-339 -687h-70l338 687h71z" />
    <glyph glyph-name="zero" unicode="0" horiz-adv-x="504" 
d="M506 420q0 -69 -20.5 -145.5t-57.5 -141t-87 -107t-110 -42.5q-34 0 -62.5 16t-48.5 45.5t-31 71t-11 92.5q0 63 20 138t56 139.5t86 108t110 43.5q35 0 63.5 -16t49 -44.5t32 -69t11.5 -88.5zM412 500q0 51 -16.5 79.5t-47.5 28.5q-14 0 -28 -7.5t-24 -17.5
q-18 -18 -34.5 -52t-30.5 -76.5t-25 -90t-18.5 -92.5t-11.5 -85t-4 -67q0 -51 15.5 -78.5t46.5 -27.5q30 0 53 23q17 17 33 50.5t30 76.5t25 91t19.5 94t13 85.5t4.5 65.5z" />
    <glyph glyph-name="one" unicode="1" horiz-adv-x="504" 
d="M109 0l5 25q26 0 42.5 3t26.5 11.5t16 24.5t12 43l85 415q-38 -28 -82 -53t-82 -41l7 34q85 42 141 84.5t88 90.5h47l-107 -525q-3 -15 -4 -27.5t-1 -19.5q0 -18 22 -29t49 -11l-5 -25h-260z" />
    <glyph glyph-name="two" unicode="2" horiz-adv-x="504" 
d="M41 0v24l123 125q67 68 110 119.5t68 92t34.5 72.5t9.5 62q0 38 -23.5 62t-61.5 24q-43 0 -77 -29t-57 -83h-30q21 78 74.5 123.5t124.5 45.5q32 0 59.5 -11t48 -30.5t32.5 -46t12 -56.5t-13.5 -61.5t-45.5 -72t-86 -92.5t-134 -123l-66 -58h201q17 0 25 2t12.5 8
t7.5 17.5t9 29.5h29l-29 -144h-357z" />
    <glyph glyph-name="three" unicode="3" horiz-adv-x="504" 
d="M200 352q89 54 129 95.5t40 79.5q0 26 -16 44t-42 18q-47 0 -106 -62l-18 16q36 49 75.5 72t86.5 23q51 0 82.5 -26.5t31.5 -70.5q0 -38 -33 -71t-115 -72v-2q118 -3 118 -120q0 -51 -27 -103t-70 -94t-96 -68.5t-105 -26.5q-38 0 -61.5 13t-23.5 35q0 18 11 31.5
t27 13.5q11 0 22 -7t24 -15t29 -15t36 -7q30 0 54.5 23t42 56.5t27 71t9.5 67.5q0 40 -19.5 65.5t-51.5 25.5q-16 0 -29 -4t-39 -18z" />
    <glyph glyph-name="four" unicode="4" horiz-adv-x="504" 
d="M279 173h-204v72l353 393h37l-80 -393h95l-15 -72h-95l-38 -189h-91zM345 497l-2 2l-227 -254h178z" />
    <glyph glyph-name="five" unicode="5" horiz-adv-x="504" 
d="M470 530q-12 -2 -30 -2.5t-31 -0.5q-40 0 -84.5 1.5t-77.5 1.5l-33 -123q19 5 32 7q7 2 12.5 2h12.5q60 0 97 -41.5t37 -108.5q0 -51 -26 -101.5t-67 -90.5t-93 -65t-105 -25q-38 0 -61 15t-23 40q0 17 12 28t30 11q15 0 26 -7t22.5 -16t25.5 -16t33 -7q28 0 53.5 19
t45 49t31.5 67t12 73q0 44 -22 68.5t-60 24.5q-37 0 -64 -24l-16 14l80 299q14 -1 35 -1.5t45 -1t49 -0.5h48q28 0 36 3.5t14 15.5h26z" />
    <glyph glyph-name="six" unicode="6" horiz-adv-x="504" 
d="M525 610q-99 -33 -170.5 -104t-127.5 -189l2 -2q35 23 59 32t50 9q54 0 86 -36t32 -95q0 -46 -19 -89.5t-50 -77t-71 -54t-83 -20.5q-33 0 -59.5 13.5t-46 37.5t-30 58t-10.5 75q0 89 40 169t103.5 143t142.5 104.5t158 53.5zM213 272q-8 -21 -15 -44.5t-12 -47
t-7.5 -44.5t-2.5 -37q0 -38 14.5 -61.5t39.5 -23.5q31 0 55 27t41 65t26 79.5t9 71.5q0 29 -13.5 45.5t-36.5 16.5q-18 0 -43.5 -12t-54.5 -35z" />
    <glyph glyph-name="seven" unicode="7" horiz-adv-x="504" 
d="M186 -16l278 547h-227q-17 0 -28 -2t-19 -11t-14.5 -26.5t-15.5 -49.5h-28l43 180h361v-31l-278 -607h-72z" />
    <glyph glyph-name="eight" unicode="8" horiz-adv-x="504" 
d="M82 127q0 29 10 52.5t30.5 45.5t51 43.5t71.5 46.5q-43 46 -60.5 81t-17.5 72q0 35 14.5 66t39 54t58 36.5t71.5 13.5q32 0 59.5 -9t47 -25t30.5 -38.5t11 -48.5q0 -24 -8 -45.5t-26.5 -41.5t-48.5 -41t-74 -45q54 -57 76.5 -99.5t22.5 -84.5q0 -36 -15.5 -68t-42.5 -56
t-63 -38t-76 -14q-35 0 -64.5 10.5t-51 29.5t-33.5 45.5t-12 57.5zM321 364q52 42 75.5 78.5t23.5 76.5q0 41 -22 65.5t-57 24.5q-21 0 -39 -8.5t-31.5 -23t-21.5 -34t-8 -41.5q0 -14 4 -28t13 -30t24.5 -35t38.5 -45zM263 293q-50 -38 -76.5 -84.5t-26.5 -96.5
q0 -45 22.5 -72t60.5 -27q22 0 42.5 9.5t36 25.5t24.5 37.5t9 44.5q0 35 -21.5 73.5t-70.5 89.5z" />
    <glyph glyph-name="nine" unicode="9" horiz-adv-x="504" 
d="M59 12q99 33 170.5 104t127.5 189l-2 2q-17 -11 -31.5 -19t-27.5 -13q-25 -9 -50 -9q-54 0 -86 36t-32 95q0 46 19 89.5t50 77t71 54t83 20.5q33 0 59.5 -13.5t46 -37.5t30 -58t10.5 -75q0 -88 -40 -168.5t-103.5 -143.5t-142.5 -104.5t-158 -53.5zM371 350q8 21 15 44.5
t12 47t7.5 44.5t2.5 37q0 38 -14.5 61.5t-39.5 23.5q-31 0 -55 -27t-41 -65t-26 -79.5t-9 -71.5q0 -29 13.5 -45.5t36.5 -16.5q18 0 43.5 12t54.5 35z" />
    <glyph glyph-name="colon" unicode=":" horiz-adv-x="279" 
d="M194 413q20 0 33.5 -15.5t13.5 -38.5q0 -30 -18 -51.5t-44 -21.5q-21 0 -34.5 15t-13.5 39q0 29 19 51t44 22zM131 116q20 0 33.5 -15.5t13.5 -38.5q0 -30 -18 -51.5t-44 -21.5q-21 0 -34.5 15t-13.5 39q0 29 19 51t44 22z" />
    <glyph glyph-name="semicolon" unicode=";" horiz-adv-x="279" 
d="M19 -146q92 42 92 107q0 18 -5.5 31t-11.5 23.5t-11.5 21t-5.5 24.5q0 24 15 39.5t38 15.5q29 0 46.5 -23t17.5 -61q0 -31 -11.5 -61.5t-33 -56.5t-51.5 -46.5t-67 -33.5zM194 413q20 0 33.5 -15.5t13.5 -38.5q0 -30 -18 -51.5t-44 -21.5q-21 0 -34.5 15t-13.5 39
q0 29 19 51t44 22z" />
    <glyph glyph-name="less" unicode="&#x3c;" horiz-adv-x="667" 
d="M139 252v60l462 194v-72l-372 -152l372 -152v-72z" />
    <glyph glyph-name="equal" unicode="=" horiz-adv-x="667" 
d="M601 416v-67h-463v67h463zM601 217v-67h-463v67h463z" />
    <glyph glyph-name="greater" unicode="&#x3e;" horiz-adv-x="667" 
d="M139 130l373 152l-373 152v72l462 -194v-60l-462 -194v72z" />
    <glyph glyph-name="question" unicode="?" horiz-adv-x="324" 
d="M117 172q2 48 14.5 95.5t42.5 77.5q14 14 30.5 23t34 17.5t34 18t29.5 22.5q9 9 14.5 20t5.5 28q0 27 -20.5 44t-52.5 17q-35 0 -61 -9t-43 -9t-28.5 14t-11.5 36q0 26 28.5 46.5t87.5 20.5q63 0 101 -46.5t38 -124.5q0 -51 -12 -84t-40 -61q-10 -10 -28.5 -21
t-38.5 -21.5t-37.5 -20.5t-26.5 -19q-13 -13 -21 -33t-11 -31h-28zM113 116q20 0 33.5 -15.5t13.5 -38.5q0 -30 -18.5 -51.5t-43.5 -21.5q-21 0 -34.5 15t-13.5 39q0 29 19 51t44 22z" />
    <glyph glyph-name="at" unicode="@" horiz-adv-x="832" 
d="M565 101q-4 -14 -6.5 -27t-2.5 -22q0 -14 9.5 -23.5t22.5 -9.5q17 0 47.5 15t60 47.5t51.5 83t22 121.5q0 59 -20 107.5t-56 83.5t-86 54.5t-110 19.5q-77 0 -144 -31t-117 -85t-78.5 -126.5t-28.5 -155.5q0 -73 24.5 -134t68.5 -105.5t104.5 -69t133.5 -24.5
q117 0 207.5 61.5t135.5 171.5h25q-22 -60 -58.5 -108t-84 -81.5t-105 -51t-121.5 -17.5q-81 0 -149 28t-117.5 77.5t-77.5 118t-28 149.5q0 86 31 160.5t85 129t127 86t157 31.5q77 0 135 -23.5t96 -63t57 -92t19 -109.5q0 -54 -16.5 -107.5t-47.5 -96t-76 -68.5t-103 -26
q-35 0 -55.5 17t-20.5 47q0 8 3 28.5t6 31.5l-2 2q-26 -38 -47 -62.5t-39.5 -39t-35 -20t-33.5 -5.5q-32 0 -52.5 26.5t-20.5 68.5q0 59 23.5 114t58 98t74.5 68.5t72 25.5q52 0 63 -62h2l13 48l85 9zM529 305q0 26 -11.5 42.5t-29.5 16.5q-24 0 -49.5 -30t-47 -72
t-35.5 -87t-14 -74q0 -20 11 -34.5t25 -14.5q12 0 26 7.5t34 27.5t36.5 46t28.5 55t19 59.5t7 57.5z" />
    <glyph glyph-name="A" unicode="A" horiz-adv-x="721" 
d="M10 27q39 0 69 20t67 71l380 520h87v-541q0 -22 3.5 -35.5t13 -21t26.5 -10.5t44 -3l-5 -27h-291l5 27q33 0 53 5t31.5 17t15 32.5t3.5 51.5v121h-226l-81 -111q-25 -34 -34 -52t-9 -25q0 -23 20.5 -31t59.5 -8l-5 -27h-232zM512 301v261h-2l-189 -261h191z" />
    <glyph glyph-name="B" unicode="B" horiz-adv-x="622" 
d="M448 622q44 0 76 -11t54 -29.5t32.5 -42.5t10.5 -49q0 -55 -41.5 -93t-121.5 -49v-2q71 -18 108 -59.5t37 -101.5q0 -28 -11 -60.5t-38.5 -60t-73.5 -46t-116 -18.5h-347l5 27q28 0 46 6.5t29.5 21.5t19 40t14.5 61l69 335q7 34 7 54q0 29 -20.5 39.5t-59.5 10.5l5 27
h316zM344 368q44 0 75.5 10.5t51.5 28.5t30 42t10 50q0 41 -25 66t-82 25h-83l-46 -222h69zM239 188q-8 -36 -10.5 -55t-2.5 -30q0 -71 101 -71q75 0 118 43.5t43 118.5q0 72 -42.5 107t-131.5 35h-45z" />
    <glyph glyph-name="C" unicode="C" horiz-adv-x="748" 
d="M635 0q-12 8 -29 8q-9 0 -29 -3.5t-46.5 -8.5t-58 -8.5t-62.5 -3.5q-90 0 -151.5 26t-99 66.5t-54 90.5t-16.5 99q0 58 25.5 123.5t80 120.5t140 91.5t206.5 36.5q64 0 123.5 -9t111.5 -27l-42 -166h-26q1 6 1.5 12.5t0.5 12.5q0 42 -14 70t-38 45.5t-56 24.5t-67 7
q-70 0 -131 -27t-106 -74.5t-71 -112t-26 -139.5q0 -58 16.5 -103t46 -75t69.5 -45.5t87 -15.5q78 0 141 38t120 119h27l-55 -173h-18z" />
    <glyph glyph-name="D" unicode="D" horiz-adv-x="784" 
d="M20 27q32 0 50.5 3t30 15t18.5 35.5t15 64.5l70 344q5 20 7 36.5t2 25.5q0 28 -21 37t-69 7l5 27h319q76 0 136.5 -20t102.5 -56.5t64.5 -87t22.5 -111.5q0 -30 -7.5 -67t-26 -75.5t-49 -75.5t-76.5 -65.5t-109 -46t-146 -17.5h-344zM242 181q-8 -38 -11 -59.5t-3 -34.5
q0 -31 23.5 -44t82.5 -13q91 0 153.5 30.5t101 77.5t55.5 104t17 110t-17 96.5t-51 75t-85 49t-118 17.5h-64z" />
    <glyph glyph-name="E" unicode="E" horiz-adv-x="622" 
d="M10 0l5 27q30 -1 48 3.5t29 17.5t18 35.5t14 58.5l71 349q5 21 6 33.5t1 21.5q0 28 -21.5 39.5t-63.5 9.5l5 27h529l-29 -144h-28q0 4 0.5 6.5t0.5 7.5q0 20 -4 37.5t-14.5 31t-27.5 21.5t-43 8h-190l-53 -260h154q46 0 74.5 15t42.5 55h28l-38 -188h-28q2 48 -15 67
t-62 19h-163l-32 -156q-6 -28 -7.5 -39.5t-1.5 -21.5q0 -15 4.5 -24.5t16 -15t31 -7.5t50.5 -2q49 0 87.5 5t68.5 17.5t54 33.5t45 54h29l-46 -142h-545z" />
    <glyph glyph-name="F" unicode="F" horiz-adv-x="580" 
d="M221 138q-3 -17 -5 -27.5t-3 -16.5t-1.5 -10.5t-0.5 -9.5q0 -30 22.5 -39t67.5 -8l-5 -27h-281l5 27q23 0 38 3t26 12t18 26.5t13 47.5l76 372q9 45 9 62q0 26 -18.5 35.5t-58.5 9.5l5 27h487l-29 -143h-26q1 35 -2 56.5t-14 33.5t-32 16.5t-57 4.5h-142l-53 -259h134
q29 0 48.5 2.5t33 10.5t23 22t19.5 37h27l-39 -189h-26q-1 27 -4.5 43.5t-12.5 26t-25.5 12.5t-42.5 3h-141z" />
    <glyph glyph-name="G" unicode="G" horiz-adv-x="784" 
d="M721 14q-62 -15 -129 -22.5t-135 -7.5q-102 0 -172 25.5t-113.5 67t-63 93.5t-19.5 104q0 77 34 143.5t93 115.5t139 77t173 28q61 0 122 -11t114 -32v-150h-23q-23 80 -78 121.5t-140 41.5q-66 0 -124.5 -27.5t-102.5 -75t-69.5 -110.5t-25.5 -135q0 -59 18.5 -104.5
t51.5 -77t79.5 -48t102.5 -16.5q45 0 74.5 9t47.5 26.5t25.5 43.5t7.5 59q0 23 -16 33.5t-53 11.5l6 27h243l-6 -27q-20 -2 -32.5 -5.5t-23.5 -14.5q-5 -5 -10.5 -20.5t-10 -33.5t-7 -35t-2.5 -25q0 -21 30 -23z" />
    <glyph glyph-name="H" unicode="H" horiz-adv-x="784" 
d="M613 343l34 162q3 14 4 22t1 16q0 30 -21 41t-53 11l5 27h283l-6 -27q-30 0 -49.5 -6t-32 -17t-19 -26t-10.5 -33l-80 -395q-3 -14 -4 -22.5t-1 -15.5q0 -18 8.5 -28.5t21.5 -16t27 -7t24 -1.5l-6 -27h-291l6 27q33 0 54 7.5t34 23t20.5 39.5t13.5 57l28 142h-342
l-36 -178q-3 -17 -4 -24.5t-1 -13.5q0 -53 94 -53l-6 -27h-301l6 27q32 0 52 7t32.5 22.5t20 39.5t14.5 58l71 351q2 11 3 20.5t1 17.5q0 28 -21.5 40t-63.5 12l6 27h289l-6 -27q-50 0 -74 -20.5t-32 -61.5l-36 -170h343z" />
    <glyph glyph-name="I" unicode="I" horiz-adv-x="343" 
d="M139 622h271l-6 -27q-28 0 -46 -5.5t-29.5 -18.5t-18.5 -35t-14 -55l-70 -343q-3 -17 -5 -27.5t-3 -17t-1.5 -10.5t-0.5 -9q0 -23 17 -35.5t68 -11.5l-6 -27h-278l6 27q25 0 41.5 3.5t27.5 15.5t19 35.5t16 63.5l69 341q8 38 8 58q0 26 -16.5 37.5t-54.5 13.5z" />
    <glyph glyph-name="J" unicode="J" horiz-adv-x="343" 
d="M129 622h274l-5 -27q-25 0 -41.5 -4t-27 -16t-17 -35.5t-13.5 -62.5l-84 -479q-10 -56 -41 -99t-74 -72t-91.5 -44t-92.5 -15q-14 0 -32.5 2t-35 6t-27.5 10t-11 14q0 4 4 15t11.5 22.5t16.5 20t20 8.5q12 0 26.5 -7t31 -15t37 -15t44.5 -7q81 0 100 109l98 555
q5 24 6 35.5t1 20.5q0 26 -18.5 40t-63.5 13z" />
    <glyph glyph-name="K" unicode="K" horiz-adv-x="711" 
d="M536 0l-238 307l-46 -31l-28 -140q-8 -38 -8 -57q0 -26 18.5 -39t62.5 -13l-6 -27h-278l6 27q29 0 46.5 4.5t28 17t17.5 36t14 60.5l69 339q5 25 7 39.5t2 24.5q0 26 -16.5 36.5t-52.5 10.5l6 27h265l-6 -27q-46 0 -69 -23t-34 -78l-34 -170l281 191q29 20 39 30.5
t10 22.5q0 14 -10.5 20.5t-39.5 6.5l6 27h250l-6 -27q-19 0 -38.5 -5t-45 -17t-59 -32.5t-78.5 -50.5l-190 -128l162 -208q32 -41 54 -66t40 -38.5t36.5 -18t42.5 -4.5l-6 -27h-174z" />
    <glyph glyph-name="L" unicode="L" horiz-adv-x="585" 
d="M8 0l6 27q28 0 45.5 3t29 15t19.5 35t16 63l70 341q6 30 8 42t2 23q0 28 -21 37t-63 9l6 27h281l-6 -27q-30 0 -48 -4t-28.5 -16t-17 -35.5t-14.5 -62.5l-70 -344q-3 -15 -5 -31t-2 -24q0 -13 4.5 -21.5t15.5 -13t31 -6t50 -1.5q60 0 99 3.5t67 15t49.5 32.5t48.5 56h26
l-48 -143h-551z" />
    <glyph glyph-name="M" unicode="M" horiz-adv-x="874" 
d="M268 536h-2l-100 -373q-8 -30 -11 -46.5t-3 -28.5q0 -58 73 -61l-5 -27h-209l5 27q24 2 41 9t30 23t23.5 43t21.5 67l88 324q6 23 8 34t2 19q0 25 -19 36t-68 13l6 27h205l82 -504l328 504h185l-6 -27q-30 0 -47.5 -3.5t-28 -15t-17.5 -35t-15 -64.5l-69 -339
q-5 -27 -7 -40.5t-2 -24.5q0 -28 20 -37t62 -9l-5 -27h-285l5 27q29 0 48 5.5t31 19.5t20 39t16 65l77 378l-2 2l-347 -536h-43z" />
    <glyph glyph-name="N" unicode="N" horiz-adv-x="775" 
d="M599 0l-364 516l-72 -356q-7 -32 -7 -56q0 -27 10.5 -42.5t24.5 -23t28.5 -9.5t23.5 -2l-5 -27h-214l5 27q19 0 33.5 4.5t26 18t21 38.5t17.5 65l83 405q-16 22 -34 29.5t-54 7.5l5 27h154l354 -503l72 354q5 25 7 37t2 22q0 34 -21 48.5t-64 14.5l5 27h213l-5 -27
q-30 0 -48.5 -13.5t-30 -33.5t-17.5 -44t-10 -45l-93 -459h-46z" />
    <glyph glyph-name="O" unicode="O" horiz-adv-x="802" 
d="M482 638q72 0 129 -23.5t97.5 -64t62 -94.5t21.5 -114q0 -67 -27 -131.5t-78 -115t-123.5 -81t-163.5 -30.5q-69 0 -126 22t-98 61t-64 94t-23 121q0 65 26.5 129t77 114.5t123.5 81.5t166 31zM484 608q-76 0 -130 -36.5t-88 -91t-49.5 -117.5t-15.5 -116
q0 -52 14.5 -94.5t41 -73.5t63.5 -48t82 -17q54 0 95.5 19t72.5 50t52 70t34 79.5t18.5 79t5.5 67.5q0 39 -11 80t-34.5 74t-60.5 54t-90 21z" />
    <glyph glyph-name="P" unicode="P" horiz-adv-x="595" 
d="M12 0l5 27q27 1 45 7.5t30 19t19 31.5t13 46l74 364q4 17 5.5 30.5t1.5 21.5q0 23 -17 34.5t-55 13.5l5 27h264q48 0 88 -11t69.5 -32t45.5 -53t16 -74q0 -37 -15 -75t-46.5 -68.5t-81 -50t-117.5 -19.5q-38 0 -68 6l5 26q10 -1 19 -1.5t17 -0.5q37 0 68 15t54 41
t36 62.5t13 78.5q0 28 -6.5 51.5t-22 41t-40 27t-60.5 9.5h-57l-96 -472q-6 -28 -6 -42q0 -29 23 -41.5t65 -12.5l-5 -27h-288z" />
    <glyph glyph-name="Q" unicode="Q" horiz-adv-x="802" 
d="M494 -6q23 -21 50 -40.5t55 -34.5t57 -24.5t56 -9.5q19 0 33 3.5t31 11.5l16 -21q-40 -29 -73 -41t-71 -12q-59 0 -146.5 41t-192.5 127q-52 14 -93 41.5t-69 65.5t-43 83.5t-15 95.5q0 68 27.5 132.5t78.5 114.5t123.5 80.5t163.5 30.5q75 0 132.5 -25t97 -66t60 -94.5
t20.5 -110.5q0 -62 -22.5 -119.5t-62 -104t-94 -79t-119.5 -45.5zM484 608q-51 0 -96 -19.5t-80 -54.5q-27 -27 -47 -62t-33.5 -74t-20 -78t-6.5 -73q0 -52 14.5 -94.5t41 -73.5t63.5 -48t82 -17q29 0 54.5 6.5t47.5 17t39.5 23.5t30.5 26q26 26 45.5 62t33 76t20.5 80.5
t7 75.5q0 44 -12 84.5t-36.5 72.5t-61 51t-86.5 19z" />
    <glyph glyph-name="R" unicode="R" horiz-adv-x="721" 
d="M237 138q-5 -26 -7 -39.5t-2 -24.5q0 -29 19.5 -38t71.5 -9l-5 -27h-298l5 27q32 0 51 5t31.5 19.5t20.5 39.5t16 65l67 331q5 23 6.5 35t1.5 21q0 27 -18 39.5t-60 12.5l5 27h305q44 0 77 -12.5t55.5 -33.5t34 -49t11.5 -59q0 -69 -51 -119t-139 -66q14 -18 30 -43.5
t34 -53t37.5 -54.5t40.5 -48q29 -29 64 -43t80 -14v-27l-7 -1q-22 -3 -37.5 -4t-32.5 -1q-55 0 -94 16t-71 48q-19 19 -39.5 48t-40.5 60t-38.5 59.5t-33.5 46.5h-63zM306 304q43 0 81 10.5t66 32t44 53t16 73.5q0 56 -32 86.5t-97 30.5h-55l-58 -286h35z" />
    <glyph glyph-name="S" unicode="S" horiz-adv-x="558" 
d="M90 196h25q-3 -43 9 -76.5t35 -57t56.5 -36t72.5 -12.5q31 0 57 8t45 23t29.5 35t10.5 44q0 27 -11 47.5t-35 44.5q-14 14 -37 32t-48 37t-47.5 36.5t-34.5 29.5q-27 27 -41 56.5t-14 65.5t15 66.5t42 52t64.5 34t82.5 12.5q18 0 41 -3t44 -6.5t37 -6.5t22 -3q14 0 22 12
h28l-21 -172h-26q-6 72 -44 110.5t-102 38.5q-52 0 -87 -26.5t-35 -66.5q0 -23 9 -40t27 -35q12 -12 37 -31.5t53 -41.5t54 -42.5t41 -35.5q33 -33 45 -60.5t12 -64.5q0 -40 -17.5 -73t-49 -57t-76 -37t-98.5 -13q-57 0 -110.5 13t-119.5 43z" />
    <glyph glyph-name="T" unicode="T" horiz-adv-x="711" 
d="M294 587q-61 0 -93.5 -26t-52.5 -83h-29l35 171h24q9 -27 92 -27h371q28 0 46.5 1t30.5 4t19.5 8t13.5 14h26l-35 -171h-26q3 62 -14 85.5t-70 23.5h-128l-91 -449q-5 -25 -7.5 -39t-2.5 -25q0 -29 22 -38.5t72 -8.5l-5 -27h-297l5 27q30 0 49 5.5t31 19t19 37t14 58.5
l90 440h-109z" />
    <glyph glyph-name="U" unicode="U" horiz-adv-x="748" 
d="M816 595q-23 0 -39 -7.5t-27.5 -24.5t-19.5 -44t-15 -67l-42 -238q-20 -112 -91 -171t-201 -59q-122 0 -189 49.5t-67 140.5q0 18 2.5 38t9.5 55l45 219q5 23 6.5 35.5t1.5 21.5q0 29 -18.5 41t-59.5 11l5 27h274l-5 -27q-27 0 -44 -3.5t-27.5 -14.5t-17 -31t-13.5 -53
l-43 -212q-16 -77 -16 -113q0 -65 49.5 -103.5t130.5 -38.5q52 0 92.5 13.5t69 38.5t46.5 59t25 75l40 232q6 36 8 52t2 30q0 38 -18.5 52.5t-67.5 16.5l5 27h214z" />
    <glyph glyph-name="V" unicode="V" horiz-adv-x="721" 
d="M224 519q2 44 -13 59t-59 17l5 27h264l-5 -27q-26 0 -43.5 -5.5t-28 -18.5t-15 -35.5t-5.5 -55.5l-10 -383l2 -2l328 407q27 33 27 54q0 19 -17 29t-47 10l5 27h219l-5 -27q-36 -2 -68.5 -23.5t-66.5 -63.5l-429 -524h-52z" />
    <glyph glyph-name="W" unicode="W" horiz-adv-x="1036" 
d="M566 -16l19 458l-2 2l-354 -460h-49l33 529q3 45 -11.5 62.5t-63.5 19.5l6 27h254l-6 -27q-23 -1 -38 -6.5t-24 -17.5t-13.5 -32t-6.5 -51l-23 -376l2 -2l297 387q2 56 -13.5 77t-65.5 21l6 27h261l-6 -27q-25 0 -40.5 -5t-24.5 -17.5t-12.5 -33t-4.5 -51.5l-16 -376
l2 -2l246 334q33 45 46 68.5t13 40.5q0 42 -65 42l6 27h222l-6 -27q-20 -1 -35 -5.5t-29.5 -15t-31.5 -29.5t-40 -50l-383 -511h-49z" />
    <glyph glyph-name="X" unicode="X" horiz-adv-x="739" 
d="M9 27q19 0 34 3.5t30 11.5t32 21.5t38 33.5l224 215l-115 201q-16 28 -27.5 44t-25.5 24.5t-32.5 11t-48.5 2.5l5 27h296l-5 -27q-45 0 -57.5 -8.5t-12.5 -22.5q0 -8 4.5 -20.5t10.5 -22.5l80 -138l127 123q20 20 28 32t8 23q0 34 -68 34l5 27h243l-5 -27q-22 0 -41 -4
t-39.5 -15.5t-46 -33t-62.5 -57.5l-132 -129l163 -278q14 -23 33.5 -36t57.5 -15l-5 -27h-271l5 27q38 0 52.5 7.5t14.5 25.5q0 7 -3 14.5t-11 21.5l-109 187l-153 -149q-17 -17 -29.5 -36.5t-12.5 -32.5q0 -36 70 -38l-5 -27h-249z" />
    <glyph glyph-name="Y" unicode="Y" horiz-adv-x="684" 
d="M199 499q-12 28 -22 46.5t-20.5 29t-22 15t-26.5 5.5l6 27h232l-6 -27q-56 -2 -56 -34q0 -6 2.5 -16t7.5 -19l103 -234l196 225q11 12 16 24t5 21q0 18 -14 25.5t-45 7.5l6 27h197l-6 -27q-26 -2 -48 -15.5t-48 -42.5l-249 -281l-24 -118q-5 -23 -6.5 -35t-1.5 -21
q0 -34 19.5 -45t76.5 -10l-6 -27h-306l6 27q29 -1 48 3.5t32 16.5t21 31.5t14 48.5l26 129z" />
    <glyph glyph-name="Z" unicode="Z" horiz-adv-x="703" 
d="M31 0v32l546 558h-201q-36 0 -64 -7.5t-50 -24.5t-39 -44t-32 -66h-27l40 174h512v-32l-546 -558h248q46 0 77 6t55.5 22t45.5 44.5t48 73.5h27l-51 -178h-589z" />
    <glyph glyph-name="bracketleft" unicode="[" 
d="M222 655h210l-6 -27h-82q-15 0 -24 -1.5t-15 -7.5t-9.5 -16.5t-7.5 -28.5l-146 -717q0 -3 -0.5 -8.5t-0.5 -8.5q0 -14 13 -18.5t49 -4.5h58l-5 -27h-210z" />
    <glyph glyph-name="backslash" unicode="\" horiz-adv-x="477" 
d="M487 -16h-70l-339 687h71z" />
    <glyph glyph-name="bracketright" unicode="]" 
d="M143 -210h-210l6 27h82q15 0 24 1.5t15 7.5t9.5 16.5t7.5 28.5l145 717q1 3 1.5 8.5t0.5 8.5q0 14 -13 18.5t-50 4.5h-57l5 27h210z" />
    <glyph glyph-name="asciicircum" unicode="^" horiz-adv-x="570" 
d="M315 622h34l174 -303h-65l-126 216l-126 -216h-65z" />
    <glyph glyph-name="underscore" unicode="_" horiz-adv-x="500" 
d="M506 -75v-50h-512v50h512z" />
    <glyph glyph-name="grave" unicode="`" 
d="M291 464l-131 190h92l87 -190h-48z" />
    <glyph glyph-name="a" unicode="a" horiz-adv-x="442" 
d="M431 77q-43 -43 -76 -65.5t-53 -22.5q-30 0 -30 47q0 6 1 18t3 24.5t4 24.5t4 19l-2 2q-36 -39 -63.5 -64.5t-47.5 -41.5t-33.5 -22.5t-22.5 -6.5q-12 0 -22.5 8.5t-18.5 22t-13 32t-5 37.5q0 33 10.5 66.5t27 63.5t36.5 55.5t40 43.5q33 29 65 47t63.5 28.5t63.5 14.5
t64 5l-63 -307l-3 -19.5t-1 -12.5q0 -18 11 -18q8 0 18 8t32 29zM329 346q-42 0 -70.5 -11t-51.5 -34q-15 -15 -27 -37t-19.5 -47t-11.5 -51.5t-4 -50.5q0 -27 5.5 -43t15.5 -16q14 0 45.5 28t80.5 79z" />
    <glyph glyph-name="b" unicode="b" horiz-adv-x="415" 
d="M173 271l2 -2q30 32 57.5 58.5t50 45.5t39 29.5t24.5 10.5q9 0 19.5 -10.5t18.5 -28.5t13.5 -42.5t5.5 -51.5q0 -63 -22 -116.5t-57 -92.5t-78.5 -60.5t-86.5 -21.5q-47 0 -74 25.5t-27 70.5q0 17 2.5 32.5t9.5 51.5l81 399q2 9 3 18t1 14q0 13 -9 13q-5 0 -21 -8
t-36 -20l-11 19q12 9 34.5 20.5t46 22t44 17.5t29.5 7q15 0 15 -24q0 -7 -1.5 -20t-5.5 -30zM143 119q-8 -38 -8 -52q0 -24 12.5 -39t32.5 -15q23 0 46.5 19t43 52.5t32 79t12.5 97.5q0 76 -24 76q-10 0 -41.5 -25.5t-82.5 -80.5z" />
    <glyph glyph-name="c" unicode="c" horiz-adv-x="316" 
d="M288 83q-93 -94 -173 -94q-45 0 -71 27.5t-26 75.5t19 104t51 104t75 80.5t92 32.5q28 0 47.5 -15t19.5 -36q0 -16 -11 -27t-27 -11q-12 0 -22.5 6.5t-20.5 14.5t-20 14.5t-22 6.5q-13 0 -22 -9q-17 -17 -30 -51t-22 -72.5t-13.5 -74t-4.5 -55.5q0 -34 14.5 -54t38.5 -20
q21 0 46.5 15.5t63.5 52.5z" />
    <glyph glyph-name="d" unicode="d" horiz-adv-x="442" 
d="M423 96q-38 -51 -73 -79t-59 -28q-34 0 -34 37q0 7 2 21t5 30t6.5 32t6.5 28l-2 2q-57 -79 -97 -114.5t-73 -35.5q-26 0 -43 33t-17 83q0 66 24.5 122.5t59.5 97.5t73.5 64.5t65.5 23.5q17 0 30.5 -6.5t28.5 -22.5l37 182q6 30 4.5 39t-9.5 9q-6 0 -25.5 -11t-42.5 -27
l-9 21q24 16 48.5 29.5t46 23.5t39 15.5t27.5 5.5q17 0 17 -21q0 -7 -1 -18.5t-5 -28.5l-101 -495q-2 -12 -5 -24.5t-3 -17.5q0 -4 2.5 -7.5t5.5 -3.5q5 0 22 17.5t31 38.5zM313 317q-24 61 -62 61q-9 0 -20 -5t-20 -14q-16 -16 -30.5 -43.5t-24.5 -59.5t-16 -67t-6 -67
t6.5 -51t18.5 -19q11 0 48 39t81 103z" />
    <glyph glyph-name="e" unicode="e" horiz-adv-x="360" 
d="M340 63q-42 -35 -89 -54.5t-88 -19.5q-53 0 -84 36t-31 96q0 56 20.5 109t54.5 93.5t78.5 65t91.5 24.5q40 0 63.5 -17.5t23.5 -46.5q0 -54 -63.5 -93.5t-170.5 -71.5q-9 -25 -9 -58q0 -44 21 -70t56 -26q23 0 50.5 12.5t63.5 38.5zM151 208q75 24 111 57t36 78
q0 20 -7.5 32t-21.5 12q-34 0 -64 -45.5t-54 -133.5z" />
    <glyph glyph-name="f" unicode="f" horiz-adv-x="268" 
d="M216 361l-34 -223q-12 -81 -32.5 -149t-54 -117t-82 -76.5t-117.5 -27.5q-29 0 -50 13t-21 39q0 19 12.5 31t31.5 12q17 0 27 -8.5t19.5 -19t20.5 -19t30 -8.5q22 0 39.5 12.5t32 44.5t27.5 87t26 141l42 268h-68l5 25q20 3 39 7t32 9q27 133 87 201t148 68q80 0 80 -50
q0 -18 -12 -29t-32 -11q-16 0 -27 8.5t-21 18t-20.5 18t-27.5 8.5t-29.5 -11.5t-23 -38.5t-20 -71.5t-19.5 -110.5h84l-8 -41h-84z" />
    <glyph glyph-name="g" unicode="g" horiz-adv-x="397" 
d="M358 359q11 -23 16 -43t5 -40q0 -24 -11 -60t-42 -67q-24 -24 -53.5 -40.5t-55.5 -28.5t-43.5 -21t-17.5 -18q0 -12 19 -26.5t45 -31t54 -34.5t46 -36q17 -17 22 -29t5 -20q0 -44 -60 -70t-160 -26q-91 0 -145 21.5t-54 57.5q0 15 9.5 28.5t30 28.5t53 33t78.5 41
q-6 8 -8 13.5t-2 12.5q0 15 14 29.5t46 33.5q-42 15 -66 50q-25 36 -25 80q0 39 20.5 78t53.5 69.5t74.5 49.5t84.5 19q11 0 21.5 -1t27.5 -4h75v-55zM198 100q17 0 33.5 11.5t30.5 34.5t22.5 58t8.5 83q0 95 -48 95q-22 0 -40.5 -20t-32 -50t-21 -64.5t-7.5 -62.5
q0 -39 14.5 -62t39.5 -23zM113 -39q-107 -47 -107 -103q0 -32 34.5 -50t96.5 -18q59 0 96.5 12t37.5 32q0 10 -12 22q-9 9 -21.5 17t-30.5 19.5t-41.5 28t-52.5 40.5z" />
    <glyph glyph-name="h" unicode="h" horiz-adv-x="477" 
d="M45 -11l120 586q3 14 3 16.5v5.5q0 16 -10 16q-6 0 -24 -9.5t-31 -18.5l-11 19q18 12 41.5 24t45.5 21.5t40 15.5t25 6q16 0 16 -21q0 -11 -2 -24.5t-10 -50.5l-76 -369l2 -2q44 57 78.5 96.5t61.5 64.5t47 36.5t35 11.5q21 0 32 -15t11 -42q0 -12 -1.5 -24.5t-7.5 -34.5
l-59 -229q-6 -25 8 -25q8 0 25 16.5t52 59.5l17 -15q-43 -55 -81.5 -85t-66.5 -30q-19 0 -30 11t-11 30q0 10 1.5 22.5t9.5 44.5l48 186q4 15 5.5 26.5t1.5 18.5q0 17 -11 17q-12 0 -33.5 -20t-47 -49t-51.5 -62t-45 -59l-34 -166h-83z" />
    <glyph glyph-name="i" unicode="i" horiz-adv-x="252" 
d="M245 91q-48 -50 -82 -76t-60 -26q-36 0 -36 40q0 7 1.5 19t3.5 22l49 239q2 8 2 16.5t-7 8.5q-11 0 -55 -45l-16 20q60 55 91.5 79.5t51.5 24.5q28 0 28 -30q0 -6 -1 -15t-3 -20l-54 -265q-2 -8 -2.5 -11t-0.5 -6q0 -12 9 -12t27 17t38 38zM225 631q17 0 26.5 -12.5
t9.5 -32.5q0 -35 -17.5 -61.5t-40.5 -26.5q-17 0 -28 13t-11 33q0 17 5 32.5t13.5 27.5t19.5 19.5t23 7.5z" />
    <glyph glyph-name="j" unicode="j" horiz-adv-x="235" 
d="M58 311q45 50 81.5 76t61.5 26q29 0 29 -30q0 -9 -1.5 -20t-5.5 -30l-62 -301q-11 -52 -30.5 -100t-47 -84.5t-63.5 -58t-79 -21.5q-38 0 -63.5 17t-25.5 42q0 16 10.5 27t26.5 11t27 -9.5t21.5 -20.5t22 -20.5t28.5 -9.5q26 0 40 22.5t27 86.5l78 385q4 19 3.5 26.5
t-8.5 7.5q-4 0 -11 -4.5t-15 -11t-15.5 -14l-12.5 -12.5zM234 631q16 0 25.5 -12.5t9.5 -32.5q0 -35 -17.5 -61.5t-40.5 -26.5q-17 0 -27.5 13t-10.5 33q0 17 5 32.5t13.5 27.5t19.5 19.5t23 7.5z" />
    <glyph glyph-name="k" unicode="k" horiz-adv-x="477" 
d="M368 -12q-37 8 -62.5 31t-46.5 52.5t-41.5 62.5t-47.5 60l-39 -192q-2 -9 -5.5 -11t-15.5 -2h-44q-13 0 -16 5.5t0 21.5l116 565q4 17 1 24.5t-9 7.5q-5 0 -18 -6.5t-30 -16.5l-8 18q18 12 39.5 23.5t41 20.5t36 14t25.5 5q16 0 16 -21q0 -9 -1.5 -18.5t-4.5 -23.5
l-73 -358l2 -2q85 83 137 124t78 41q12 0 24 -7t21.5 -18.5t15 -26.5t5.5 -31q0 -28 -14.5 -52.5t-40.5 -43.5t-62.5 -29.5t-81.5 -10.5l14.5 -14.5t14.5 -17.5l22 -28q26 -34 44.5 -50t44.5 -24l48 48l18 -17zM380 318q0 14 -6.5 23.5t-19.5 9.5t-33 -11.5t-41 -28
t-41 -34.5t-32 -30q-5 -5 -15.5 -17l-17.5 -20q54 -3 93 5.5t64 23.5t37 36t12 43z" />
    <glyph glyph-name="l" unicode="l" horiz-adv-x="252" 
d="M226 77q-41 -41 -77 -64.5t-57 -23.5q-20 0 -31 13t-11 35q0 24 8 67l95 466q2 12 3.5 17.5t1.5 9.5q0 15 -10 15q-13 0 -58 -28l-11 19q23 13 38.5 21.5t32.5 16.5q29 14 50.5 22t32.5 8q15 0 16 -23q0 -10 -2.5 -20.5t-5.5 -24.5l-106 -532q-4 -19 -2.5 -26t6.5 -7
t23 13t48 42z" />
    <glyph glyph-name="m" unicode="m" horiz-adv-x="711" 
d="M686 99q-46 -59 -75 -84.5t-57 -25.5q-18 0 -29.5 12.5t-11.5 32.5q0 7 1.5 17t3.5 19l47 234q6 33 -7 33q-8 0 -17 -9l-14 -14q-34 -34 -59 -65t-43.5 -62.5t-30.5 -64.5t-20 -70l-10 -46q-2 -9 -6.5 -13t-18.5 -4h-37q-20 0 -20 16q0 4 0.5 6.5t3.5 16.5l56 276
q4 20 1.5 26.5t-8.5 6.5q-4 0 -12 -5t-13 -10q-72 -72 -106.5 -129.5t-44.5 -106.5l-17 -82q-2 -10 -6.5 -12.5t-16.5 -2.5h-39q-14 0 -17.5 6.5t1.5 32.5l54 267q7 32 -5 32q-14 0 -43 -32l-13 16q50 57 82 79.5t49 22.5q29 0 29 -32q0 -7 -3 -22l-31 -151l2 -2
q75 105 130.5 156t86.5 51q34 0 34 -41q0 -8 -1 -17.5t-3 -17.5l-27 -129l2 -2q72 97 128.5 152t88.5 55q16 0 25.5 -11t9.5 -29q0 -8 -1 -17.5t-4 -25.5l-52 -252q-4 -25 7 -25q7 0 20.5 13t37.5 43z" />
    <glyph glyph-name="n" unicode="n" horiz-adv-x="486" 
d="M56 -11l64 313q5 22 -5 22q-6 0 -20.5 -14.5t-33.5 -40.5l-18 14q44 58 81.5 94t65.5 36q26 0 26 -29q0 -8 -1 -18.5t-3 -21.5l-29 -138l2 -2q45 58 79.5 98t61.5 64.5t47 35.5t35 11q20 0 31 -15t11 -41q0 -12 -2 -25.5t-7 -33.5l-55 -220q-5 -21 -3 -28t8 -7
q5 0 14.5 7t20 18.5t21.5 25t20 25.5l18 -15q-43 -54 -82.5 -84.5t-67.5 -30.5q-40 0 -40 43q0 8 2 18.5t5 22.5l47 190q5 18 8.5 36.5t3.5 29.5q0 16 -11 16q-18 0 -65 -51t-112 -139l-34 -166h-83z" />
    <glyph glyph-name="o" unicode="o" horiz-adv-x="415" 
d="M295 413q22 0 40 -11t31.5 -31t21 -47.5t7.5 -59.5q0 -63 -28 -114t-67.5 -87t-81.5 -55t-71 -19q-45 0 -74 41t-29 106q0 64 27.5 115.5t67 87.5t82.5 55t74 19zM246 374q-11 0 -23.5 -5t-23.5 -16q-16 -16 -28 -41t-20.5 -53t-13 -56.5t-4.5 -51.5q0 -57 19.5 -90
t44.5 -33q22 0 43 21q15 15 27.5 38t21 50t13 56t4.5 57q0 63 -20 93.5t-40 30.5z" />
    <glyph glyph-name="p" unicode="p" horiz-adv-x="459" 
d="M-70 -232l5 27q26 0 43 3t29 14t20 32t15 58l82 405q6 28 -5 28q-13 0 -64 -60l-19 15q45 55 87.5 89t66.5 34q29 0 29 -37q0 -11 -4 -31l-17 -82l2 -2q23 33 48 60.5t48 48t43 32t33 11.5q14 0 27 -11.5t22.5 -31t15 -45.5t5.5 -55q0 -50 -19 -100t-53 -90.5t-79 -65.5
t-98 -25q-13 0 -24 1t-25 4l-24 -114q-6 -32 -6 -44q0 -23 16.5 -32t60.5 -9l-5 -27h-256zM154 46q18 -15 32 -21t30 -6q28 0 53 19.5t43.5 52.5t29.5 77t11 94q0 38 -8 61t-22 23q-6 0 -16 -6t-25.5 -21.5t-38.5 -42t-56 -68.5z" />
    <glyph glyph-name="q" unicode="q" horiz-adv-x="423" 
d="M118 -232l5 27q27 1 44 3.5t27.5 10t16.5 20t10 32.5l53 256l-2 2q-42 -40 -71.5 -65.5t-49.5 -40t-32 -19.5t-19 -5q-12 0 -23.5 9.5t-20.5 25t-14.5 35t-5.5 40.5q0 46 26.5 100.5t73.5 102t112 79.5t141 32q17 0 21.5 -4t1.5 -18l-106 -521q-4 -19 -4 -36
q0 -23 15 -30.5t60 -8.5l-5 -27h-254zM320 347q-50 -1 -80.5 -12.5t-57.5 -38.5q-12 -12 -22.5 -35.5t-18 -51t-12 -54.5t-4.5 -45q0 -28 7.5 -43.5t20.5 -15.5q12 0 44 26.5t85 83.5z" />
    <glyph glyph-name="r" unicode="r" horiz-adv-x="306" 
d="M38 313q88 100 130 100q14 0 22 -9.5t8 -26.5q0 -12 -2 -29t-5.5 -34.5t-7 -34t-6.5 -28.5l-31 -117h10l42 111q30 80 62.5 124t65.5 44t33 -39q0 -23 -11 -38.5t-27 -15.5q-8 0 -17 3t-17 3q-17 0 -36 -23t-42 -86l-62 -171q-6 -18 -8.5 -29t-4 -17.5t-4.5 -8.5t-11 -2
h-51q-12 0 -15 6.5t1 23.5l60 294q5 26 -8 26q-5 0 -19.5 -12.5t-31.5 -30.5z" />
    <glyph glyph-name="s" unicode="s" horiz-adv-x="351" 
d="M100 273q0 20 13.5 44.5t36 45.5t51 35.5t57.5 14.5q35 0 57.5 -19t22.5 -49q0 -21 -12 -35t-31 -14q-18 0 -27 12t-15 27t-13.5 27t-22.5 12q-17 0 -31 -15.5t-14 -32.5q0 -22 18 -45t39.5 -48.5t39.5 -54t18 -60.5q0 -28 -13 -51.5t-35.5 -40.5t-53.5 -27t-68 -10
q-51 0 -77.5 14.5t-26.5 41.5q0 17 12 28.5t30 11.5q19 0 35 -9t31 -20t30 -20t32 -9q18 0 29 10.5t11 27.5q0 23 -19 48t-42.5 51.5t-42.5 54t-19 54.5z" />
    <glyph glyph-name="t" unicode="t" horiz-adv-x="261" 
d="M250 85q-108 -96 -158 -96q-42 0 -42 46q0 10 1.5 20.5t5.5 29.5l56 276h-52l5 24q91 32 158 150h26q-16 -36 -26.5 -67t-19.5 -66h81l-8 -41h-81l-56 -276q-5 -27 -5 -33q0 -15 11 -15q10 0 35.5 19.5t54.5 45.5z" />
    <glyph glyph-name="u" unicode="u" horiz-adv-x="486" 
d="M473 103q-18 -20 -37.5 -40t-38 -36.5t-35.5 -27t-29 -10.5q-28 0 -28 40q0 14 2.5 34.5t8.5 49.5l24 112l-2 2q-32 -49 -69 -92.5t-70.5 -75.5t-60.5 -51t-38 -19q-14 0 -21.5 13t-7.5 35q0 27 5 52l45 221q2 10 1 17t-6 7t-16.5 -10.5t-30.5 -34.5l-17 14
q41 51 76 80.5t56 29.5q14 0 22 -10.5t8 -27.5q0 -8 -1.5 -22t-5.5 -31l-45 -219q-7 -35 6 -35q5 0 16 7.5t18 14.5q24 24 48.5 53t45 57t35.5 53t22 42l21 95q3 14 6.5 18.5t14.5 4.5h42q16 0 19 -5t1 -18l-61 -301q-5 -23 3 -23t21.5 12.5t36.5 40.5z" />
    <glyph glyph-name="v" unicode="v" horiz-adv-x="451" 
d="M52 307q50 57 81.5 81.5t54.5 24.5q32 0 32 -39q0 -16 -3 -31l-42 -264q-4 -28 12 -28q15 0 43.5 24.5t54.5 60.5q31 43 51 92t20 84q0 13 -4.5 19.5t-10 11t-10 8.5t-4.5 11q0 19 21 35t46 16q26 0 40.5 -15t14.5 -41q0 -45 -37.5 -109.5t-112.5 -139.5q-24 -24 -50 -46
t-50 -38t-43 -25.5t-30 -9.5q-35 0 -35 56q0 13 1.5 29t6.5 42l31 191q3 20 1.5 27t-6.5 7q-17 0 -59 -50z" />
    <glyph glyph-name="w" unicode="w" horiz-adv-x="640" 
d="M38 296q50 61 82.5 89t53.5 28q31 0 31 -40q0 -7 -1 -17t-3 -22l-39 -244q-3 -17 0.5 -25.5t10.5 -8.5q17 0 73 63q6 7 19 23t27 34t26 34t16 23l24 156q2 15 6.5 19.5t17.5 4.5h39q14 0 17 -7t1 -21l-46 -295q-4 -22 0 -29t11 -7q14 0 40.5 25t52.5 63q31 45 48.5 89
t17.5 76q0 15 -4.5 22.5t-9.5 12t-9.5 8.5t-4.5 12q0 20 20 35.5t46 15.5q25 0 38.5 -15.5t13.5 -44.5q0 -42 -35 -103t-118 -144q-36 -36 -63.5 -59t-47.5 -36t-33 -17.5t-20 -4.5q-33 0 -33 50q0 15 2 39t4 35l17 79l-2 2q-13 -23 -40.5 -58t-58.5 -67.5t-61 -56
t-49 -23.5q-36 0 -36 66q0 10 1.5 27t3.5 31l30 187q3 20 2 26.5t-8 6.5q-8 0 -23.5 -14.5t-31.5 -34.5z" />
    <glyph glyph-name="x" unicode="x" horiz-adv-x="544" 
d="M490 112q-24 -55 -56.5 -89t-60.5 -34q-21 0 -36 19.5t-37 74.5l-29 73q-33 -46 -59 -77.5t-47.5 -51.5t-39.5 -29t-34 -9q-21 0 -35 13t-14 34q0 29 32 99h23q0 -7 -1 -12q2 -57 37 -57q11 0 22 5t26 18t34.5 35t46.5 56l-53 127q-11 27 -19.5 37.5t-19.5 10.5
q-14 0 -28 -15t-37 -55l-22 10q32 58 63.5 88t63.5 30q25 0 41.5 -17t34.5 -62l33 -83q32 47 56 78.5t43.5 50t36 26t33.5 7.5q23 0 37.5 -14.5t14.5 -37.5q0 -26 -13 -66h-26q1 4 1 6t1 6q-1 20 -12 31.5t-28 11.5q-16 0 -30.5 -8.5t-35.5 -30.5q-17 -17 -32.5 -36.5
t-35.5 -45.5l56 -140q8 -20 15 -27.5t17 -7.5q11 0 22.5 14.5t31.5 52.5z" />
    <glyph glyph-name="y" unicode="y" horiz-adv-x="451" 
d="M4 -232l5 27q22 0 39.5 3t27.5 13q8 7 24 37t32 69t28.5 81t12.5 73q0 25 -4 71.5t-11.5 92.5t-18 80t-23.5 34q-10 0 -25.5 -16.5t-33.5 -45.5l-19 14q32 49 62.5 80.5t56.5 31.5q27 0 45.5 -37t30 -92.5t16 -119t4.5 -116.5h2q29 53 50.5 98.5t35.5 80t20.5 56
t6.5 27.5t-4 10t-9 8.5t-9 11.5t-4 20q0 23 15.5 38t39.5 15q23 0 37.5 -14.5t14.5 -37.5q0 -13 -5.5 -30.5t-14.5 -36.5t-20 -38t-21 -34l-47 -71q-78 -119 -107 -192l-49 -124q-11 -26 1.5 -33t55.5 -7l-5 -27h-233z" />
    <glyph glyph-name="z" unicode="z" horiz-adv-x="480" 
d="M443 88q-36 -53 -66 -76t-61 -23q-19 0 -40 7t-55 24l-40 21q-31 17 -59 17q-39 0 -40 -34l-1 -15q0 -9 -6 -14.5t-15 -5.5q-11 0 -17.5 7t-6.5 18q0 37 60 94q18 18 39.5 34t47.5 32q14 8 39 22t59 32q60 32 95.5 59t58.5 58l-2 2q-63 -42 -116 -42q-20 0 -42 6.5
t-53 22.5q-23 11 -32.5 14.5t-20.5 3.5q-18 0 -31.5 -9.5t-32.5 -35.5l-21 13q32 49 64 71t71 22q20 0 37 -5.5t49 -22.5t52 -24t37 -7q18 0 29 8t19 28q9 23 24 23q19 0 19 -19q0 -17 -15.5 -42.5t-39.5 -49.5q-34 -35 -73 -61.5t-98 -57.5q-22 -11 -37 -19t-27 -15
t-23 -14.5t-25 -18.5q-17 -12 -26 -20t-20 -19l2 -2q47 31 93 31q10 0 19.5 -1.5t21.5 -5t27.5 -10t38.5 -16.5q22 -10 33.5 -13.5t22.5 -3.5q17 0 30.5 10t31.5 36z" />
    <glyph glyph-name="braceleft" unicode="{" horiz-adv-x="394" 
d="M138 217v-2q35 -9 62.5 -26t47 -38.5t30 -46t10.5 -49.5q0 -17 -3.5 -41.5t-8 -48.5t-8 -45.5t-3.5 -32.5q0 -15 7 -31t20.5 -30.5t33 -25t44.5 -13.5v-19q-42 1 -76.5 17.5t-60 42t-39.5 56.5t-14 62q0 18 3.5 38t8.5 40q4 21 7.5 41t3.5 37q0 40 -28.5 68t-76.5 35v22
q48 7 76.5 35t28.5 68q0 17 -3.5 37t-8 40.5t-8 40.5t-3.5 38q0 31 14 62t39.5 56.5t60 42t76.5 17.5v-19q-25 -3 -44.5 -13.5t-33 -25t-20.5 -30.5t-7 -31q0 -11 3.5 -32t8.5 -46q4 -24 7.5 -48.5t3.5 -41.5q0 -25 -10.5 -49.5t-30 -46t-47 -38.5t-62.5 -27v1z" />
    <glyph glyph-name="bar" unicode="|" horiz-adv-x="527" 
d="M336 671v-831h-67v831h67z" />
    <glyph glyph-name="braceright" unicode="}" horiz-adv-x="394" 
d="M309 215v2q-35 9 -62.5 26t-47 38.5t-30 46t-10.5 49.5q0 17 3.5 41.5t8 48.5t8 45.5t3.5 32.5q0 15 -7 31t-20.5 30.5t-33 25t-44.5 13.5v19q42 -1 76.5 -17.5t60 -42t39.5 -56.5t14 -62q0 -17 -3.5 -37.5t-7.5 -40.5q-5 -21 -8.5 -41t-3.5 -37q0 -40 28.5 -68t76.5 -35
v-22q-48 -7 -76.5 -35t-28.5 -68q0 -17 3.5 -37t8 -40.5t8 -40.5t3.5 -38q0 -31 -14 -62t-39.5 -56.5t-60 -42t-76.5 -17.5v19q25 3 44.5 13.5t33 25t20.5 30.5t7 31q0 11 -3.5 32.5t-7.5 45.5q-5 25 -8.5 49t-3.5 41q0 25 10.5 49.5t30 46t47 38.5t62.5 27v-1z" />
    <glyph glyph-name="asciitilde" unicode="~" horiz-adv-x="667" 
d="M593 395q-2 -63 -32.5 -100t-81.5 -37q-28 0 -61.5 12.5t-67.5 26.5q-33 14 -64.5 26t-54.5 12q-62 0 -74 -76h-25q2 60 30.5 98.5t79.5 38.5q32 0 66 -12t67 -27t64 -27t55 -12q32 0 51 20t23 57h25z" />
    <glyph glyph-name="exclamdown" unicode="&#xa1;" horiz-adv-x="279" 
d="M178 229l-50 -423q-3 -26 -10.5 -32t-33.5 -6h-32q-23 0 -30 3.5t-7 14.5q0 5 1.5 10.5l4.5 16.5l130 416h27zM185 286q-20 0 -33.5 15.5t-13.5 38.5q0 30 18 51.5t44 21.5q21 0 34.5 -15t13.5 -39q0 -29 -19 -51t-44 -22z" />
    <glyph glyph-name="cent" unicode="&#xa2;" horiz-adv-x="316" 
d="M77 -5q-59 23 -59 97q0 47 18.5 102.5t50.5 104.5t75 81.5t91 32.5l88 209h23l-87 -212q45 -14 45 -48q0 -16 -11 -27t-27 -11q-8 0 -15 3t-21 12l-121 -296q13 -13 33 -13q21 0 46.5 16t63.5 52l18 -15q-48 -48 -88.5 -71.5t-94.5 -22.5l-90 -221h-22zM229 354
q-16 12 -30 12q-8 0 -14.5 -3.5t-10.5 -7.5q-11 -11 -23 -41t-21.5 -67.5t-16 -77t-6.5 -69.5q0 -7 0.5 -14t1.5 -12h2z" />
    <glyph glyph-name="sterling" unicode="&#xa3;" horiz-adv-x="721" 
d="M87 58l6 32h142q74 197 136 319t124 184q47 47 85.5 62.5t76.5 15.5q48 0 77.5 -19t29.5 -50q0 -19 -11 -31t-28 -12q-21 0 -33 12t-22 26t-21 26t-30 12q-70 0 -146 -190l-43 -109q-15 -37 -28.5 -69t-27 -61.5t-27.5 -57.5t-31 -58h162l-6 -32h-174q-18 -32 -45.5 -72
t-53.5 -74q21 4 45 4q49 0 85.5 -16t67.5 -35.5t59.5 -35.5t61.5 -16q32 0 50 15t18 41q0 12 -4 24t-8.5 23t-8.5 21.5t-4 20.5q0 19 12 31t31 12q24 0 38.5 -20t14.5 -54q0 -26 -10 -54t-32 -51.5t-55 -38.5t-80 -15q-60 0 -100 17t-72 37t-63 37.5t-74 17.5
q-47 -59 -76 -84t-52 -25q-15 0 -24 9t-9 23q0 35 38 64t100 42q19 25 39 66t37 86h-137z" />
    <glyph glyph-name="currency" unicode="&#xa4;" horiz-adv-x="667" 
d="M561 570l51 -52l-62 -63q23 -33 32.5 -63t9.5 -66t-9.5 -66.5t-32.5 -63.5l62 -62l-51 -52l-62 62q-34 -23 -64 -32.5t-66 -9.5q-37 0 -67 10t-63 32l-63 -62l-52 52l63 62q-23 33 -32.5 63t-9.5 67q0 36 9.5 66t32.5 64l-63 62l52 52l63 -63q35 23 65 32.5t65 9.5
q37 0 66 -9.5t64 -32.5zM218 326q0 -31 12 -58.5t32.5 -48t48 -32.5t58.5 -12t58 12t47.5 32.5t32.5 48t12 58.5t-12 58t-32.5 47.5t-47.5 32.5t-58 12t-58.5 -12t-48 -32.5t-32.5 -47.5t-12 -58z" />
    <glyph glyph-name="yen" unicode="&#xa5;" horiz-adv-x="684" 
d="M402 230h256l-8 -32h-255l-12 -60q-5 -23 -6.5 -35t-1.5 -21q0 -34 19.5 -45t76.5 -10l-6 -27h-306l6 27q29 -1 48 3.5t32 16.5t21 31.5t14 48.5l14 71h-225l6 32h226l17 85h-228l6 32h208l-68 152q-12 28 -22 46.5t-20.5 29t-22 15t-26.5 5.5l6 27h232l-6 -27
q-56 -2 -56 -34q0 -6 2.5 -16t7.5 -19l78 -174l144 165q11 12 16 24t5 21q0 18 -14 25.5t-45 7.5l6 27h197l-6 -27q-26 -2 -48 -15.5t-48 -42.5l-169 -190h232l-8 -32h-252z" />
    <glyph glyph-name="brokenbar" unicode="&#xa6;" horiz-adv-x="527" 
d="M344 195v-355h-67v355h67zM344 671v-355h-67v355h67z" />
    <glyph glyph-name="section" unicode="&#xa7;" horiz-adv-x="451" 
d="M281 480q0 -46 15.5 -92t34 -92t34 -91.5t15.5 -91.5q0 -61 -27 -120.5t-69.5 -106.5t-94 -76t-100.5 -29q-19 0 -41.5 4t-42.5 12t-33.5 20.5t-13.5 30.5q0 16 11 27t26 11q14 0 26.5 -9t25.5 -20t29 -20t38 -9q15 0 32 7t30.5 20.5t22.5 33t9 44.5q0 48 -15.5 94.5
t-34.5 93t-34.5 93t-15.5 92.5q0 48 24 105.5t65 107t95.5 82.5t115.5 33q25 0 47.5 -5t39.5 -14t27 -21t10 -26q0 -15 -11 -26.5t-25 -11.5q-15 0 -28 9t-27.5 20t-30 20t-34.5 9q-20 0 -37.5 -8.5t-30 -23t-20 -34t-7.5 -42.5zM244 511l-2 2q-41 -45 -62 -93t-21 -97
q0 -42 15 -84t32.5 -86t32.5 -89.5t15 -93.5q0 -17 -0.5 -31t-9.5 -34l2 -2q21 13 37 35.5t27 49t16.5 53.5t5.5 50q0 46 -15 89t-33.5 85.5t-33.5 86.5t-15 92q0 32 9 69v-2z" />
    <glyph glyph-name="dieresis" unicode="&#xa8;" 
d="M183 598q20 0 33.5 -13.5t13.5 -33.5t-13.5 -33.5t-33.5 -13.5t-33.5 13.5t-13.5 33.5t13.5 33.5t33.5 13.5zM360 598q20 0 33.5 -13.5t13.5 -33.5t-13.5 -33.5t-33.5 -13.5t-33.5 13.5t-13.5 33.5t13.5 33.5t33.5 13.5z" />
    <glyph glyph-name="copyright" unicode="&#xa9;" horiz-adv-x="747" 
d="M592 416h-19q-35 116 -148 116q-72 0 -114.5 -51t-42.5 -139q0 -55 13 -93.5t35 -62.5t51.5 -35t62.5 -11q95 0 152 79l19 -9q-68 -99 -188 -99q-48 0 -89.5 16.5t-71.5 45.5t-47.5 68.5t-17.5 85.5q0 48 18.5 89.5t51 71.5t77 47.5t96.5 17.5q23 0 40 -3.5t30 -7.5
t22.5 -7.5t17.5 -3.5q10 0 15 6t8 16h19zM412 -16q-72 0 -135 27t-110 74t-74 109.5t-27 133.5q0 72 27 135t74 110t110 74t135 27t135 -27t110 -74t74 -110t27 -135q0 -71 -27 -133.5t-74 -109.5t-110 -74t-135 -27zM412 14q66 0 123.5 24.5t100 67.5t67.5 100t25 122
q0 66 -25 123.5t-67.5 100t-100 67.5t-123.5 25t-123.5 -25t-100 -67.5t-67.5 -100t-25 -123.5q0 -65 25 -122t67.5 -100t100 -67.5t123.5 -24.5z" />
    <glyph glyph-name="ordfeminine" unicode="&#xaa;" horiz-adv-x="279" 
d="M343 437q-59 -55 -87 -55q-24 0 -24 31q0 7 1 16.5t4 21.5l-2 2q-42 -42 -63.5 -56.5t-36.5 -14.5q-17 0 -29.5 19t-12.5 43q0 30 17.5 65t50 64.5t79 48.5t103.5 16l-44 -185q-2 -10 -1 -17t4 -7q4 0 13 8t17 16zM265 593q-27 -3 -41.5 -8.5t-26.5 -17.5
q-15 -15 -26 -45t-11 -56q0 -37 12 -37q3 0 10 5t12 10l50 43z" />
    <glyph glyph-name="guillemotleft" unicode="&#xab;" horiz-adv-x="424" 
d="M38 221l202 181h36l-144 -181l63 -184h-37zM235 221l140 162h36l-81 -162l15 -161h-36z" />
    <glyph glyph-name="logicalnot" unicode="&#xac;" horiz-adv-x="667" 
d="M601 416v-266h-67v199h-396v67h463z" />
    <glyph glyph-name="registered" unicode="&#xae;" horiz-adv-x="747" 
d="M263 483q0 20 -8.5 31t-36.5 11v18h188q66 0 106 -30t40 -80q0 -81 -109 -108l102 -146q17 -24 29 -32.5t30 -10.5v-16h-90l-144 198h-36v-144q0 -20 12 -29t45 -9v-16h-179v16q28 0 39.5 11t11.5 32v304zM353 339q23 0 44.5 5t38.5 15.5t27 27.5t10 41q0 40 -28 66.5
t-71 26.5q-11 0 -19 -1.5t-21 -5.5v-175h19zM756 328q0 -71 -27 -133.5t-74 -109.5t-110 -74t-135 -27t-135 27t-110 74t-74 109.5t-27 133.5q0 72 27 135t74 110t110 74t135 27t135 -27t110 -74t74 -110t27 -135zM726 328q0 66 -25 123.5t-67.5 100t-100 67.5t-123.5 25
t-123.5 -25t-100 -67.5t-67.5 -100t-25 -123.5q0 -65 25 -122t67.5 -100t100 -67.5t123.5 -24.5t123.5 24.5t100 67.5t67.5 100t25 122z" />
    <glyph glyph-name="macron" unicode="&#xaf;" 
d="M157 593h224l-16 -80h-224z" />
    <glyph glyph-name="degree" unicode="&#xb0;" horiz-adv-x="400" 
d="M248 638q29 0 54 -11t43.5 -29.5t29.5 -43.5t11 -54q0 -28 -11 -53.5t-29.5 -44t-43.5 -29.5t-54 -11q-28 0 -53.5 11t-44 29.5t-29.5 44t-11 53.5q0 29 11 54t29.5 43.5t44 29.5t53.5 11zM248 593q-38 0 -65.5 -27.5t-27.5 -65.5t27.5 -65.5t65.5 -27.5t65.5 27.5
t27.5 65.5t-27.5 65.5t-65.5 27.5z" />
    <glyph glyph-name="plusminus" unicode="&#xb1;" horiz-adv-x="667" 
d="M336 387v198h67v-198h198v-67h-198v-198h-67v198h-198v67h198zM601 46v-67h-463v67h463z" />
    <glyph glyph-name="twosuperior" unicode="&#xb2;" horiz-adv-x="297" 
d="M63 306l4 17l20 18q53 48 88 81.5t56 58t29.5 43.5t8.5 38q0 18 -12.5 29.5t-32.5 11.5q-49 0 -76 -58h-27q13 44 45.5 68.5t77.5 24.5q40 0 67 -22.5t27 -54.5q0 -16 -8 -32.5t-30 -39t-60.5 -54t-100.5 -77.5v-2h110q14 0 19.5 5t7.5 22h25l-16 -77h-222z" />
    <glyph glyph-name="threesuperior" unicode="&#xb3;" horiz-adv-x="297" 
d="M167 490q54 27 78 48t24 40q0 13 -8.5 21t-21.5 8q-26 0 -63 -34l-14 13q43 52 100 52q32 0 52 -14.5t20 -37.5q0 -20 -17 -35.5t-63 -36.5v-2q63 -7 63 -61q0 -27 -16.5 -54.5t-42.5 -49t-58.5 -35.5t-64.5 -14q-24 0 -39.5 7.5t-15.5 19.5q0 11 8.5 18.5t19.5 7.5
q7 0 14 -3.5t15 -8t17 -8t20 -3.5q13 0 26 9.5t23.5 25t17 35t6.5 38.5q0 20 -10.5 32t-27.5 12q-10 0 -21.5 -4t-25.5 -10z" />
    <glyph glyph-name="acute" unicode="&#xb4;" 
d="M284 654h92l-131 -190h-48z" />
    <glyph glyph-name="mu" unicode="&#xb5;" horiz-adv-x="500" 
d="M247 413l-74 -269q-5 -16 -7.5 -32t-2.5 -27q0 -20 11 -32t28 -12q16 0 32 8.5t27 19.5q24 24 45.5 63t39.5 105l48 176h83l-82 -298q-8 -27 -8 -48q0 -14 7 -22.5t18 -8.5q26 0 55 64h17q-13 -49 -44 -80t-70 -31q-38 0 -53.5 30.5t-7.5 78.5l-2 2q-35 -58 -74.5 -84.5
t-71.5 -26.5q-26 0 -41.5 10t-28.5 35q-4 -13 -8 -29.5t-7 -33t-5 -32t-2 -26.5q0 -50 -11.5 -85t-42.5 -35q-15 0 -25.5 12t-10.5 29q0 13 10 36l25 57.5t33 80t34 103.5l83 302h83z" />
    <glyph glyph-name="paragraph" unicode="&#xb6;" horiz-adv-x="540" 
d="M487 -232h-36v827h-91v-827h-36v485q-61 0 -105.5 13.5t-73 38t-42 58.5t-13.5 75q0 87 58 135.5t162 48.5h241v-27h-64v-827z" />
    <glyph glyph-name="periodcentered" unicode="&#xb7;" horiz-adv-x="289" 
d="M182 367q30 0 48.5 -16t18.5 -42t-18 -41t-49 -15q-30 0 -48 15t-18 41t18.5 42t47.5 16z" />
    <glyph glyph-name="cedilla" unicode="&#xb8;" 
d="M55 -185q102 -2 102 51q0 35 -49 38l49 96h21l-20 -37q62 -15 62 -73q0 -46 -38.5 -71.5t-107.5 -25.5h-12t-11 2z" />
    <glyph glyph-name="onesuperior" unicode="&#xb9;" horiz-adv-x="297" 
d="M107 306l4 19q17 0 27 1.5t16 6t9 12.5t6 21l47 202q-17 -10 -29 -16.5t-22.5 -11.5t-21 -8.5t-23.5 -8.5l5 24q54 22 85.5 43.5t52.5 47.5h36l-64 -272q-5 -23 0 -31.5t39 -9.5l-4 -19h-163z" />
    <glyph glyph-name="ordmasculine" unicode="&#xba;" horiz-adv-x="261" 
d="M261 638q32 0 51.5 -25t19.5 -66q0 -39 -19 -69.5t-45.5 -51.5t-54 -32.5t-45.5 -11.5q-32 0 -52 25t-20 65q0 36 17 66.5t42 52.5t54 34.5t52 12.5zM229 610q-12 0 -23.5 -11t-21 -29t-15 -41t-5.5 -47q0 -32 10 -52t26 -20q12 0 23.5 11t20.5 29t14.5 41.5t5.5 47.5
q0 32 -10 51.5t-25 19.5z" />
    <glyph glyph-name="guillemotright" unicode="&#xbb;" horiz-adv-x="424" 
d="M420 218l-201 -181h-37l144 181l-63 184h37zM223 218l-139 -162h-37l81 162l-15 161h36z" />
    <glyph glyph-name="onequarter" unicode="&#xbc;" horiz-adv-x="766" 
d="M562 88h-122v42l203 201h30l-41 -201h58l-9 -42h-58l-20 -96h-61zM594 242l-2 2l-114 -114h93zM651 638h60l-569 -678h-65zM98 306l4 19q31 -1 41.5 6.5t16.5 34.5l47 202q-17 -10 -29 -16.5t-22.5 -11.5t-21 -8.5t-23.5 -8.5l5 24q54 22 85.5 43.5t52.5 47.5h36
l-64 -272q-5 -23 0 -31.5t39 -9.5l-4 -19h-163z" />
    <glyph glyph-name="onehalf" unicode="&#xbd;" horiz-adv-x="766" 
d="M448 0l4 18l20 18q53 48 88 81.5t56 58t29.5 43.5t8.5 38q0 18 -12.5 29.5t-32.5 11.5q-49 0 -76 -58h-27q13 44 45.5 68.5t77.5 24.5q40 0 67 -22.5t27 -54.5q0 -16 -8 -32.5t-30 -39t-60.5 -54t-100.5 -77.5v-2h110q14 0 19.5 5t7.5 22h25l-16 -78h-222zM651 638h60
l-569 -678h-65zM98 306l4 19q31 -1 41.5 6.5t16.5 34.5l47 202q-17 -10 -29 -16.5t-22.5 -11.5t-21 -8.5t-23.5 -8.5l5 24q54 22 85.5 43.5t52.5 47.5h36l-64 -272q-5 -23 0 -31.5t39 -9.5l-4 -19h-163z" />
    <glyph glyph-name="threequarters" unicode="&#xbe;" horiz-adv-x="766" 
d="M165 490q54 27 78 48t24 40q0 13 -8.5 21t-21.5 8q-26 0 -63 -34l-14 13q43 52 100 52q32 0 52 -14.5t20 -37.5q0 -20 -17 -35.5t-63 -36.5v-2q63 -7 63 -61q0 -27 -16.5 -54.5t-42.5 -49t-58.5 -35.5t-64.5 -14q-24 0 -39.5 7.5t-15.5 19.5q0 11 8.5 18.5t19.5 7.5
q7 0 14 -3.5t15 -8t17 -8t20 -3.5q13 0 26 9.5t23.5 25t17 35t6.5 38.5q0 20 -10.5 32t-27.5 12q-10 0 -21.5 -4t-25.5 -10zM661 638h60l-569 -678h-65zM572 88h-122v42l203 201h30l-41 -201h58l-9 -42h-58l-20 -96h-61zM604 242l-2 2l-114 -114h93z" />
    <glyph glyph-name="questiondown" unicode="&#xbf;" horiz-adv-x="324" 
d="M260 230q-2 -48 -14.5 -95.5t-42.5 -77.5q-13 -13 -30 -22.5t-34.5 -18t-34 -18t-29.5 -22.5q-9 -9 -14.5 -20t-5.5 -28q0 -27 20.5 -44t52.5 -17q35 0 61 9t43 9t28.5 -14t11.5 -36q0 -26 -28.5 -46.5t-87.5 -20.5q-63 0 -101 46.5t-38 124.5q0 51 12 84t40 61
q10 10 28.5 21t38.5 21.5t37.5 20.5t26.5 19q13 13 21 33t11 31h28zM264 286q-20 0 -33.5 15.5t-13.5 38.5q0 30 18.5 51.5t43.5 21.5q21 0 34.5 -15t13.5 -39q0 -29 -19 -51t-44 -22z" />
    <glyph glyph-name="Agrave" unicode="&#xc0;" horiz-adv-x="721" 
d="M10 27q39 0 69 20t67 71l380 520h87v-541q0 -22 3.5 -35.5t13 -21t26.5 -10.5t44 -3l-5 -27h-291l5 27q33 0 53 5t31.5 17t15 32.5t3.5 51.5v121h-226l-81 -111q-25 -34 -34 -52t-9 -25q0 -23 20.5 -31t59.5 -8l-5 -27h-232zM512 301v261h-2l-189 -261h191zM575 674
l-131 190h92l87 -190h-48z" />
    <glyph glyph-name="Aacute" unicode="&#xc1;" horiz-adv-x="721" 
d="M10 27q39 0 69 20t67 71l380 520h87v-541q0 -22 3.5 -35.5t13 -21t26.5 -10.5t44 -3l-5 -27h-291l5 27q33 0 53 5t31.5 17t15 32.5t3.5 51.5v121h-226l-81 -111q-25 -34 -34 -52t-9 -25q0 -23 20.5 -31t59.5 -8l-5 -27h-232zM512 301v261h-2l-189 -261h191zM562 864h92
l-131 -190h-48z" />
    <glyph glyph-name="Acircumflex" unicode="&#xc2;" horiz-adv-x="721" 
d="M10 27q39 0 69 20t67 71l380 520h87v-541q0 -22 3.5 -35.5t13 -21t26.5 -10.5t44 -3l-5 -27h-291l5 27q33 0 53 5t31.5 17t15 32.5t3.5 51.5v121h-226l-81 -111q-25 -34 -34 -52t-9 -25q0 -23 20.5 -31t59.5 -8l-5 -27h-232zM512 301v261h-2l-189 -261h191zM552 864h94
l18 -190h-49l-34 109l-133 -109h-47z" />
    <glyph glyph-name="Atilde" unicode="&#xc3;" horiz-adv-x="721" 
d="M10 27q39 0 69 20t67 71l380 520h87v-541q0 -22 3.5 -35.5t13 -21t26.5 -10.5t44 -3l-5 -27h-291l5 27q33 0 53 5t31.5 17t15 32.5t3.5 51.5v121h-226l-81 -111q-25 -34 -34 -52t-9 -25q0 -23 20.5 -31t59.5 -8l-5 -27h-232zM512 301v261h-2l-189 -261h191zM386 700
q0 51 23.5 86.5t72.5 35.5q19 0 37.5 -7.5t36.5 -16.5t35.5 -16.5t34.5 -7.5q39 0 45 50h38q0 -64 -26.5 -93t-67.5 -29q-19 0 -37.5 7.5t-36.5 16.5t-36 16.5t-35 7.5q-38 0 -44 -50h-40z" />
    <glyph glyph-name="Adieresis" unicode="&#xc4;" horiz-adv-x="721" 
d="M10 27q39 0 69 20t67 71l380 520h87v-541q0 -22 3.5 -35.5t13 -21t26.5 -10.5t44 -3l-5 -27h-291l5 27q33 0 53 5t31.5 17t15 32.5t3.5 51.5v121h-226l-81 -111q-25 -34 -34 -52t-9 -25q0 -23 20.5 -31t59.5 -8l-5 -27h-232zM512 301v261h-2l-189 -261h191zM461 808
q20 0 33.5 -13.5t13.5 -33.5t-13.5 -33.5t-33.5 -13.5t-33.5 13.5t-13.5 33.5t13.5 33.5t33.5 13.5zM638 808q20 0 33.5 -13.5t13.5 -33.5t-13.5 -33.5t-33.5 -13.5t-33.5 13.5t-13.5 33.5t13.5 33.5t33.5 13.5z" />
    <glyph glyph-name="Aring" unicode="&#xc5;" horiz-adv-x="721" 
d="M10 27q39 0 69 20t67 71l380 520h87v-541q0 -22 3.5 -35.5t13 -21t26.5 -10.5t44 -3l-5 -27h-291l5 27q33 0 53 5t31.5 17t15 32.5t3.5 51.5v121h-226l-81 -111q-25 -34 -34 -52t-9 -25q0 -23 20.5 -31t59.5 -8l-5 -27h-232zM512 301v261h-2l-189 -261h191zM571 856
q39 0 66.5 -27.5t27.5 -66.5t-27.5 -66.5t-66.5 -27.5t-66.5 27.5t-27.5 66.5t27.5 66.5t66.5 27.5zM571 826q-26 0 -45 -19t-19 -45t19 -45t45 -19t45 19t19 45t-19 45t-45 19z" />
    <glyph glyph-name="AE" unicode="&#xc6;" horiz-adv-x="928" 
d="M-30 27q18 0 34.5 4.5t34.5 17t39 35t49 58.5l323 413q3 5 7 10.5t4 10.5q0 10 -16.5 15.5t-54.5 3.5l6 27h555l-30 -144h-27q1 64 -21 88t-81 24h-177l-53 -260h155q51 0 78 17.5t38 52.5h28l-38 -188h-28q0 26 -3.5 43t-14 26.5t-30.5 13t-53 3.5h-138l-32 -156
q-6 -30 -8 -42t-2 -20q0 -15 5 -24.5t17.5 -14.5t35.5 -7t59 -2q47 0 83 6t64.5 19t51 34t41.5 51h30l-46 -142h-547l6 27q30 0 48.5 6t30 21t19 40t14.5 62l18 89h-196l-80 -103q-23 -30 -34.5 -46t-11.5 -28q0 -22 21 -31.5t60 -9.5l-6 -27h-233zM450 277l62 302l-2 2
l-239 -304h179z" />
    <glyph glyph-name="Ccedilla" unicode="&#xc7;" horiz-adv-x="748" 
d="M635 0q-12 8 -29 8q-9 0 -29 -3.5t-46.5 -8.5t-58 -8.5t-62.5 -3.5q-90 0 -151.5 26t-99 66.5t-54 90.5t-16.5 99q0 58 25.5 123.5t80 120.5t140 91.5t206.5 36.5q64 0 123.5 -9t111.5 -27l-42 -166h-26q1 6 1.5 12.5t0.5 12.5q0 42 -14 70t-38 45.5t-56 24.5t-67 7
q-70 0 -131 -27t-106 -74.5t-71 -112t-26 -139.5q0 -58 16.5 -103t46 -75t69.5 -45.5t87 -15.5q78 0 141 38t120 119h27l-55 -173h-18zM285 -185q102 -2 102 51q0 35 -49 38l49 96h21l-20 -37q62 -15 62 -73q0 -46 -38.5 -71.5t-107.5 -25.5h-12t-11 2z" />
    <glyph glyph-name="Egrave" unicode="&#xc8;" horiz-adv-x="622" 
d="M10 0l5 27q30 -1 48 3.5t29 17.5t18 35.5t14 58.5l71 349q5 21 6 33.5t1 21.5q0 28 -21.5 39.5t-63.5 9.5l5 27h529l-29 -144h-28q0 4 0.5 6.5t0.5 7.5q0 20 -4 37.5t-14.5 31t-27.5 21.5t-43 8h-190l-53 -260h154q46 0 74.5 15t42.5 55h28l-38 -188h-28q2 48 -15 67
t-62 19h-163l-32 -156q-6 -28 -7.5 -39.5t-1.5 -21.5q0 -15 4.5 -24.5t16 -15t31 -7.5t50.5 -2q49 0 87.5 5t68.5 17.5t54 33.5t45 54h29l-46 -142h-545zM443 674l-131 190h92l87 -190h-48z" />
    <glyph glyph-name="Eacute" unicode="&#xc9;" horiz-adv-x="622" 
d="M10 0l5 27q30 -1 48 3.5t29 17.5t18 35.5t14 58.5l71 349q5 21 6 33.5t1 21.5q0 28 -21.5 39.5t-63.5 9.5l5 27h529l-29 -144h-28q0 4 0.5 6.5t0.5 7.5q0 20 -4 37.5t-14.5 31t-27.5 21.5t-43 8h-190l-53 -260h154q46 0 74.5 15t42.5 55h28l-38 -188h-28q2 48 -15 67
t-62 19h-163l-32 -156q-6 -28 -7.5 -39.5t-1.5 -21.5q0 -15 4.5 -24.5t16 -15t31 -7.5t50.5 -2q49 0 87.5 5t68.5 17.5t54 33.5t45 54h29l-46 -142h-545zM436 864h92l-131 -190h-48z" />
    <glyph glyph-name="Ecircumflex" unicode="&#xca;" horiz-adv-x="622" 
d="M10 0l5 27q30 -1 48 3.5t29 17.5t18 35.5t14 58.5l71 349q5 21 6 33.5t1 21.5q0 28 -21.5 39.5t-63.5 9.5l5 27h529l-29 -144h-28q0 4 0.5 6.5t0.5 7.5q0 20 -4 37.5t-14.5 31t-27.5 21.5t-43 8h-190l-53 -260h154q46 0 74.5 15t42.5 55h28l-38 -188h-28q2 48 -15 67
t-62 19h-163l-32 -156q-6 -28 -7.5 -39.5t-1.5 -21.5q0 -15 4.5 -24.5t16 -15t31 -7.5t50.5 -2q49 0 87.5 5t68.5 17.5t54 33.5t45 54h29l-46 -142h-545zM420 864h94l18 -190h-49l-34 109l-133 -109h-47z" />
    <glyph glyph-name="Edieresis" unicode="&#xcb;" horiz-adv-x="622" 
d="M10 0l5 27q30 -1 48 3.5t29 17.5t18 35.5t14 58.5l71 349q5 21 6 33.5t1 21.5q0 28 -21.5 39.5t-63.5 9.5l5 27h529l-29 -144h-28q0 4 0.5 6.5t0.5 7.5q0 20 -4 37.5t-14.5 31t-27.5 21.5t-43 8h-190l-53 -260h154q46 0 74.5 15t42.5 55h28l-38 -188h-28q2 48 -15 67
t-62 19h-163l-32 -156q-6 -28 -7.5 -39.5t-1.5 -21.5q0 -15 4.5 -24.5t16 -15t31 -7.5t50.5 -2q49 0 87.5 5t68.5 17.5t54 33.5t45 54h29l-46 -142h-545zM335 808q20 0 33.5 -13.5t13.5 -33.5t-13.5 -33.5t-33.5 -13.5t-33.5 13.5t-13.5 33.5t13.5 33.5t33.5 13.5zM512 808
q20 0 33.5 -13.5t13.5 -33.5t-13.5 -33.5t-33.5 -13.5t-33.5 13.5t-13.5 33.5t13.5 33.5t33.5 13.5z" />
    <glyph glyph-name="Igrave" unicode="&#xcc;" horiz-adv-x="343" 
d="M139 622h271l-6 -27q-28 0 -46 -5.5t-29.5 -18.5t-18.5 -35t-14 -55l-70 -343q-3 -17 -5 -27.5t-3 -17t-1.5 -10.5t-0.5 -9q0 -23 17 -35.5t68 -11.5l-6 -27h-278l6 27q25 0 41.5 3.5t27.5 15.5t19 35.5t16 63.5l69 341q8 38 8 58q0 26 -16.5 37.5t-54.5 13.5zM309 674
l-131 190h92l87 -190h-48z" />
    <glyph glyph-name="Iacute" unicode="&#xcd;" horiz-adv-x="343" 
d="M139 622h271l-6 -27q-28 0 -46 -5.5t-29.5 -18.5t-18.5 -35t-14 -55l-70 -343q-3 -17 -5 -27.5t-3 -17t-1.5 -10.5t-0.5 -9q0 -23 17 -35.5t68 -11.5l-6 -27h-278l6 27q25 0 41.5 3.5t27.5 15.5t19 35.5t16 63.5l69 341q8 38 8 58q0 26 -16.5 37.5t-54.5 13.5zM296 864
h92l-131 -190h-48z" />
    <glyph glyph-name="Icircumflex" unicode="&#xce;" horiz-adv-x="343" 
d="M139 622h271l-6 -27q-28 0 -46 -5.5t-29.5 -18.5t-18.5 -35t-14 -55l-70 -343q-3 -17 -5 -27.5t-3 -17t-1.5 -10.5t-0.5 -9q0 -23 17 -35.5t68 -11.5l-6 -27h-278l6 27q25 0 41.5 3.5t27.5 15.5t19 35.5t16 63.5l69 341q8 38 8 58q0 26 -16.5 37.5t-54.5 13.5zM280 864
h94l18 -190h-49l-34 109l-133 -109h-47z" />
    <glyph glyph-name="Idieresis" unicode="&#xcf;" horiz-adv-x="343" 
d="M139 622h271l-6 -27q-28 0 -46 -5.5t-29.5 -18.5t-18.5 -35t-14 -55l-70 -343q-3 -17 -5 -27.5t-3 -17t-1.5 -10.5t-0.5 -9q0 -23 17 -35.5t68 -11.5l-6 -27h-278l6 27q25 0 41.5 3.5t27.5 15.5t19 35.5t16 63.5l69 341q8 38 8 58q0 26 -16.5 37.5t-54.5 13.5zM195 808
q20 0 33.5 -13.5t13.5 -33.5t-13.5 -33.5t-33.5 -13.5t-33.5 13.5t-13.5 33.5t13.5 33.5t33.5 13.5zM372 808q20 0 33.5 -13.5t13.5 -33.5t-13.5 -33.5t-33.5 -13.5t-33.5 13.5t-13.5 33.5t13.5 33.5t33.5 13.5z" />
    <glyph glyph-name="Eth" unicode="&#xd0;" horiz-adv-x="784" 
d="M20 27q32 0 50.5 3t30 15t18.5 35.5t15 64.5l30 150h-95l5 32h98l32 162q4 20 6.5 36.5t2.5 25.5q0 28 -21 37t-69 7l5 27h318q76 0 136.5 -20t103 -56.5t65 -87t22.5 -111.5q0 -30 -7.5 -67t-26 -75.5t-49.5 -75.5t-77 -65.5t-109 -46t-146 -17.5h-343zM273 327h146
l-5 -32h-149l-23 -114q-8 -38 -11 -59.5t-3 -34.5q0 -31 23 -44t82 -13q91 0 153.5 30.5t101.5 77.5t56 104t17 110t-17.5 96.5t-51.5 75t-85 49t-118 17.5h-63z" />
    <glyph glyph-name="Ntilde" unicode="&#xd1;" horiz-adv-x="775" 
d="M599 0l-364 516l-72 -356q-7 -32 -7 -56q0 -27 10.5 -42.5t24.5 -23t28.5 -9.5t23.5 -2l-5 -27h-214l5 27q19 0 33.5 4.5t26 18t21 38.5t17.5 65l83 405q-16 22 -34 29.5t-54 7.5l5 27h154l354 -503l72 354q5 25 7 37t2 22q0 34 -21 48.5t-64 14.5l5 27h213l-5 -27
q-30 0 -48.5 -13.5t-30 -33.5t-17.5 -44t-10 -45l-93 -459h-46zM330 700q0 51 23.5 86.5t72.5 35.5q19 0 37.5 -7.5t36.5 -16.5t35.5 -16.5t34.5 -7.5q39 0 45 50h38q0 -64 -26.5 -93t-67.5 -29q-19 0 -37.5 7.5t-36.5 16.5t-36 16.5t-35 7.5q-38 0 -44 -50h-40z" />
    <glyph glyph-name="Ograve" unicode="&#xd2;" horiz-adv-x="802" 
d="M482 638q72 0 129 -23.5t97.5 -64t62 -94.5t21.5 -114q0 -67 -27 -131.5t-78 -115t-123.5 -81t-163.5 -30.5q-69 0 -126 22t-98 61t-64 94t-23 121q0 65 26.5 129t77 114.5t123.5 81.5t166 31zM484 608q-76 0 -130 -36.5t-88 -91t-49.5 -117.5t-15.5 -116
q0 -52 14.5 -94.5t41 -73.5t63.5 -48t82 -17q54 0 95.5 19t72.5 50t52 70t34 79.5t18.5 79t5.5 67.5q0 39 -11 80t-34.5 74t-60.5 54t-90 21zM539 674l-131 190h92l87 -190h-48z" />
    <glyph glyph-name="Oacute" unicode="&#xd3;" horiz-adv-x="802" 
d="M482 638q72 0 129 -23.5t97.5 -64t62 -94.5t21.5 -114q0 -67 -27 -131.5t-78 -115t-123.5 -81t-163.5 -30.5q-69 0 -126 22t-98 61t-64 94t-23 121q0 65 26.5 129t77 114.5t123.5 81.5t166 31zM484 608q-76 0 -130 -36.5t-88 -91t-49.5 -117.5t-15.5 -116
q0 -52 14.5 -94.5t41 -73.5t63.5 -48t82 -17q54 0 95.5 19t72.5 50t52 70t34 79.5t18.5 79t5.5 67.5q0 39 -11 80t-34.5 74t-60.5 54t-90 21zM526 864h92l-131 -190h-48z" />
    <glyph glyph-name="Ocircumflex" unicode="&#xd4;" horiz-adv-x="802" 
d="M482 638q72 0 129 -23.5t97.5 -64t62 -94.5t21.5 -114q0 -67 -27 -131.5t-78 -115t-123.5 -81t-163.5 -30.5q-69 0 -126 22t-98 61t-64 94t-23 121q0 65 26.5 129t77 114.5t123.5 81.5t166 31zM484 608q-76 0 -130 -36.5t-88 -91t-49.5 -117.5t-15.5 -116
q0 -52 14.5 -94.5t41 -73.5t63.5 -48t82 -17q54 0 95.5 19t72.5 50t52 70t34 79.5t18.5 79t5.5 67.5q0 39 -11 80t-34.5 74t-60.5 54t-90 21zM510 864h94l18 -190h-49l-34 109l-133 -109h-47z" />
    <glyph glyph-name="Otilde" unicode="&#xd5;" horiz-adv-x="802" 
d="M482 638q72 0 129 -23.5t97.5 -64t62 -94.5t21.5 -114q0 -67 -27 -131.5t-78 -115t-123.5 -81t-163.5 -30.5q-69 0 -126 22t-98 61t-64 94t-23 121q0 65 26.5 129t77 114.5t123.5 81.5t166 31zM484 608q-76 0 -130 -36.5t-88 -91t-49.5 -117.5t-15.5 -116
q0 -52 14.5 -94.5t41 -73.5t63.5 -48t82 -17q54 0 95.5 19t72.5 50t52 70t34 79.5t18.5 79t5.5 67.5q0 39 -11 80t-34.5 74t-60.5 54t-90 21zM344 700q0 51 23.5 86.5t72.5 35.5q19 0 37.5 -7.5t36.5 -16.5t35.5 -16.5t34.5 -7.5q39 0 45 50h38q0 -64 -26.5 -93t-67.5 -29
q-19 0 -37.5 7.5t-36.5 16.5t-36 16.5t-35 7.5q-38 0 -44 -50h-40z" />
    <glyph glyph-name="Odieresis" unicode="&#xd6;" horiz-adv-x="802" 
d="M482 638q72 0 129 -23.5t97.5 -64t62 -94.5t21.5 -114q0 -67 -27 -131.5t-78 -115t-123.5 -81t-163.5 -30.5q-69 0 -126 22t-98 61t-64 94t-23 121q0 65 26.5 129t77 114.5t123.5 81.5t166 31zM484 608q-76 0 -130 -36.5t-88 -91t-49.5 -117.5t-15.5 -116
q0 -52 14.5 -94.5t41 -73.5t63.5 -48t82 -17q54 0 95.5 19t72.5 50t52 70t34 79.5t18.5 79t5.5 67.5q0 39 -11 80t-34.5 74t-60.5 54t-90 21zM425 808q20 0 33.5 -13.5t13.5 -33.5t-13.5 -33.5t-33.5 -13.5t-33.5 13.5t-13.5 33.5t13.5 33.5t33.5 13.5zM602 808
q20 0 33.5 -13.5t13.5 -33.5t-13.5 -33.5t-33.5 -13.5t-33.5 13.5t-13.5 33.5t13.5 33.5t33.5 13.5z" />
    <glyph glyph-name="multiply" unicode="&#xd7;" horiz-adv-x="668" 
d="M375 327l166 166l47 -47l-166 -166l167 -167l-47 -47l-166 166l-167 -167l-48 48l167 167l-166 166l47 47z" />
    <glyph glyph-name="Oslash" unicode="&#xd8;" horiz-adv-x="802" 
d="M240 101q33 -49 75 -68t87 -19q54 0 95.5 19t72.5 50t52 70t34 79.5t18.5 79t5.5 67.5q0 20 -5.5 53t-16.5 59zM482 638q60 0 115.5 -19t93.5 -53l91 85l22 -24l-89 -83q41 -46 59 -97t18 -105q0 -67 -27 -131.5t-78 -115t-123.5 -81t-163.5 -30.5q-68 0 -123 21t-87 49
l-89 -83l-22 24l87 81q-39 47 -58 96.5t-19 109.5q0 65 26.5 129t77 114.5t123.5 81.5t166 31zM643 521q-22 38 -63.5 62.5t-95.5 24.5q-76 0 -130 -36.5t-88 -91t-49.5 -117.5t-15.5 -116q0 -32 6.5 -64.5t17.5 -51.5z" />
    <glyph glyph-name="Ugrave" unicode="&#xd9;" horiz-adv-x="748" 
d="M816 595q-23 0 -39 -7.5t-27.5 -24.5t-19.5 -44t-15 -67l-42 -238q-20 -112 -91 -171t-201 -59q-122 0 -189 49.5t-67 140.5q0 18 2.5 38t9.5 55l45 219q5 23 6.5 35.5t1.5 21.5q0 29 -18.5 41t-59.5 11l5 27h274l-5 -27q-27 0 -44 -3.5t-27.5 -14.5t-17 -31t-13.5 -53
l-43 -212q-16 -77 -16 -113q0 -65 49.5 -103.5t130.5 -38.5q52 0 92.5 13.5t69 38.5t46.5 59t25 75l40 232q6 36 8 52t2 30q0 38 -18.5 52.5t-67.5 16.5l5 27h214zM506 674l-131 190h92l87 -190h-48z" />
    <glyph glyph-name="Uacute" unicode="&#xda;" horiz-adv-x="748" 
d="M816 595q-23 0 -39 -7.5t-27.5 -24.5t-19.5 -44t-15 -67l-42 -238q-20 -112 -91 -171t-201 -59q-122 0 -189 49.5t-67 140.5q0 18 2.5 38t9.5 55l45 219q5 23 6.5 35.5t1.5 21.5q0 29 -18.5 41t-59.5 11l5 27h274l-5 -27q-27 0 -44 -3.5t-27.5 -14.5t-17 -31t-13.5 -53
l-43 -212q-16 -77 -16 -113q0 -65 49.5 -103.5t130.5 -38.5q52 0 92.5 13.5t69 38.5t46.5 59t25 75l40 232q6 36 8 52t2 30q0 38 -18.5 52.5t-67.5 16.5l5 27h214zM499 864h92l-131 -190h-48z" />
    <glyph glyph-name="Ucircumflex" unicode="&#xdb;" horiz-adv-x="748" 
d="M816 595q-23 0 -39 -7.5t-27.5 -24.5t-19.5 -44t-15 -67l-42 -238q-20 -112 -91 -171t-201 -59q-122 0 -189 49.5t-67 140.5q0 18 2.5 38t9.5 55l45 219q5 23 6.5 35.5t1.5 21.5q0 29 -18.5 41t-59.5 11l5 27h274l-5 -27q-27 0 -44 -3.5t-27.5 -14.5t-17 -31t-13.5 -53
l-43 -212q-16 -77 -16 -113q0 -65 49.5 -103.5t130.5 -38.5q52 0 92.5 13.5t69 38.5t46.5 59t25 75l40 232q6 36 8 52t2 30q0 38 -18.5 52.5t-67.5 16.5l5 27h214zM483 864h94l18 -190h-49l-34 109l-133 -109h-47z" />
    <glyph glyph-name="Udieresis" unicode="&#xdc;" horiz-adv-x="748" 
d="M816 595q-23 0 -39 -7.5t-27.5 -24.5t-19.5 -44t-15 -67l-42 -238q-20 -112 -91 -171t-201 -59q-122 0 -189 49.5t-67 140.5q0 18 2.5 38t9.5 55l45 219q5 23 6.5 35.5t1.5 21.5q0 29 -18.5 41t-59.5 11l5 27h274l-5 -27q-27 0 -44 -3.5t-27.5 -14.5t-17 -31t-13.5 -53
l-43 -212q-16 -77 -16 -113q0 -65 49.5 -103.5t130.5 -38.5q52 0 92.5 13.5t69 38.5t46.5 59t25 75l40 232q6 36 8 52t2 30q0 38 -18.5 52.5t-67.5 16.5l5 27h214zM398 808q20 0 33.5 -13.5t13.5 -33.5t-13.5 -33.5t-33.5 -13.5t-33.5 13.5t-13.5 33.5t13.5 33.5t33.5 13.5z
M575 808q20 0 33.5 -13.5t13.5 -33.5t-13.5 -33.5t-33.5 -13.5t-33.5 13.5t-13.5 33.5t13.5 33.5t33.5 13.5z" />
    <glyph glyph-name="Yacute" unicode="&#xdd;" horiz-adv-x="684" 
d="M199 499q-12 28 -22 46.5t-20.5 29t-22 15t-26.5 5.5l6 27h232l-6 -27q-56 -2 -56 -34q0 -6 2.5 -16t7.5 -19l103 -234l196 225q11 12 16 24t5 21q0 18 -14 25.5t-45 7.5l6 27h197l-6 -27q-26 -2 -48 -15.5t-48 -42.5l-249 -281l-24 -118q-5 -23 -6.5 -35t-1.5 -21
q0 -34 19.5 -45t76.5 -10l-6 -27h-306l6 27q29 -1 48 3.5t32 16.5t21 31.5t14 48.5l26 129zM467 864h92l-131 -190h-48z" />
    <glyph glyph-name="Thorn" unicode="&#xde;" horiz-adv-x="595" 
d="M342 501q47 0 78.5 -3.5t53.5 -9.5t37 -15t28 -21q26 -23 40 -55t13 -68q-2 -58 -31.5 -104t-82.5 -75q-20 -11 -44.5 -17.5t-48 -10t-41.5 -4.5t-25 -1q-31 0 -60 5.5t-39 8.5l-6 -32q-7 -37 16 -54.5t71 -17.5l-5 -27h-284l5 27q23 1 38.5 6t29.5 16t21 28.5t15 53.5
l73 363q5 21 6.5 32.5t1.5 19.5q0 21 -17 34t-56 14l6 28h268l-6 -28q-34 0 -61 -17t-33 -47l-6 -29h45zM227 159q14 -5 31.5 -8.5t45.5 -3.5q37 0 68.5 15t54.5 41t36 62.5t13 78.5q0 71 -41 103q-17 14 -39 18t-59 4h-46z" />
    <glyph glyph-name="germandbls" unicode="&#xdf;" horiz-adv-x="469" 
d="M117 358q11 71 34.5 136.5t65.5 107.5q11 11 27 23t36 22.5t44 17t51 6.5q30 0 52.5 -9.5t38 -25.5t23 -37.5t7.5 -44.5q0 -57 -41 -98.5t-116 -61.5v-2q57 -21 83.5 -56.5t26.5 -89.5q0 -49 -17.5 -95.5t-46.5 -82.5t-66 -57.5t-76 -21.5q-27 0 -43 11t-16 30
q0 16 10 26t26 9q14 -1 23.5 -8t16.5 -15t13.5 -15t15.5 -7q14 0 27 16t23 43t15.5 62.5t5.5 75.5q0 63 -19.5 99.5t-64.5 60.5l5 22q65 16 98.5 56t33.5 108q0 45 -18 65.5t-46 20.5q-21 0 -38.5 -10t-26.5 -19q-16 -16 -27.5 -36t-20.5 -48.5t-16.5 -68t-16.5 -95.5
l-33 -210q-8 -48 -15.5 -86.5t-12.5 -59.5q-17 -66 -39 -109t-51 -72q-32 -32 -73 -49.5t-90 -17.5q-37 0 -57.5 13.5t-20.5 37.5q0 17 12 28t30 11q15 0 27 -8t23 -18t23 -18t27 -8q16 0 32 9.5t30.5 34t27 67t22.5 108.5z" />
    <glyph glyph-name="agrave" unicode="&#xe0;" horiz-adv-x="442" 
d="M431 77q-43 -43 -76 -65.5t-53 -22.5q-30 0 -30 47q0 6 1 18t3 24.5t4 24.5t4 19l-2 2q-36 -39 -63.5 -64.5t-47.5 -41.5t-33.5 -22.5t-22.5 -6.5q-12 0 -22.5 8.5t-18.5 22t-13 32t-5 37.5q0 33 10.5 66.5t27 63.5t36.5 55.5t40 43.5q33 29 65 47t63.5 28.5t63.5 14.5
t64 5l-63 -307l-3 -19.5t-1 -12.5q0 -18 11 -18q8 0 18 8t32 29zM329 346q-42 0 -70.5 -11t-51.5 -34q-15 -15 -27 -37t-19.5 -47t-11.5 -51.5t-4 -50.5q0 -27 5.5 -43t15.5 -16q14 0 45.5 28t80.5 79zM346 464l-131 190h92l87 -190h-48z" />
    <glyph glyph-name="aacute" unicode="&#xe1;" horiz-adv-x="442" 
d="M431 77q-43 -43 -76 -65.5t-53 -22.5q-30 0 -30 47q0 6 1 18t3 24.5t4 24.5t4 19l-2 2q-36 -39 -63.5 -64.5t-47.5 -41.5t-33.5 -22.5t-22.5 -6.5q-12 0 -22.5 8.5t-18.5 22t-13 32t-5 37.5q0 33 10.5 66.5t27 63.5t36.5 55.5t40 43.5q33 29 65 47t63.5 28.5t63.5 14.5
t64 5l-63 -307l-3 -19.5t-1 -12.5q0 -18 11 -18q8 0 18 8t32 29zM329 346q-42 0 -70.5 -11t-51.5 -34q-15 -15 -27 -37t-19.5 -47t-11.5 -51.5t-4 -50.5q0 -27 5.5 -43t15.5 -16q14 0 45.5 28t80.5 79zM339 654h92l-131 -190h-48z" />
    <glyph glyph-name="acircumflex" unicode="&#xe2;" horiz-adv-x="442" 
d="M431 77q-43 -43 -76 -65.5t-53 -22.5q-30 0 -30 47q0 6 1 18t3 24.5t4 24.5t4 19l-2 2q-36 -39 -63.5 -64.5t-47.5 -41.5t-33.5 -22.5t-22.5 -6.5q-12 0 -22.5 8.5t-18.5 22t-13 32t-5 37.5q0 33 10.5 66.5t27 63.5t36.5 55.5t40 43.5q33 29 65 47t63.5 28.5t63.5 14.5
t64 5l-63 -307l-3 -19.5t-1 -12.5q0 -18 11 -18q8 0 18 8t32 29zM329 346q-42 0 -70.5 -11t-51.5 -34q-15 -15 -27 -37t-19.5 -47t-11.5 -51.5t-4 -50.5q0 -27 5.5 -43t15.5 -16q14 0 45.5 28t80.5 79zM323 654h94l18 -190h-49l-34 109l-133 -109h-47z" />
    <glyph glyph-name="atilde" unicode="&#xe3;" horiz-adv-x="442" 
d="M431 77q-43 -43 -76 -65.5t-53 -22.5q-30 0 -30 47q0 6 1 18t3 24.5t4 24.5t4 19l-2 2q-36 -39 -63.5 -64.5t-47.5 -41.5t-33.5 -22.5t-22.5 -6.5q-12 0 -22.5 8.5t-18.5 22t-13 32t-5 37.5q0 33 10.5 66.5t27 63.5t36.5 55.5t40 43.5q33 29 65 47t63.5 28.5t63.5 14.5
t64 5l-63 -307l-3 -19.5t-1 -12.5q0 -18 11 -18q8 0 18 8t32 29zM329 346q-42 0 -70.5 -11t-51.5 -34q-15 -15 -27 -37t-19.5 -47t-11.5 -51.5t-4 -50.5q0 -27 5.5 -43t15.5 -16q14 0 45.5 28t80.5 79zM157 490q0 51 23.5 86.5t72.5 35.5q19 0 37.5 -7.5t36.5 -16.5
t35.5 -16.5t34.5 -7.5q39 0 45 50h38q0 -64 -26.5 -93t-67.5 -29q-19 0 -37.5 7.5t-36.5 16.5t-36 16.5t-35 7.5q-38 0 -44 -50h-40z" />
    <glyph glyph-name="adieresis" unicode="&#xe4;" horiz-adv-x="442" 
d="M431 77q-43 -43 -76 -65.5t-53 -22.5q-30 0 -30 47q0 6 1 18t3 24.5t4 24.5t4 19l-2 2q-36 -39 -63.5 -64.5t-47.5 -41.5t-33.5 -22.5t-22.5 -6.5q-12 0 -22.5 8.5t-18.5 22t-13 32t-5 37.5q0 33 10.5 66.5t27 63.5t36.5 55.5t40 43.5q33 29 65 47t63.5 28.5t63.5 14.5
t64 5l-63 -307l-3 -19.5t-1 -12.5q0 -18 11 -18q8 0 18 8t32 29zM329 346q-42 0 -70.5 -11t-51.5 -34q-15 -15 -27 -37t-19.5 -47t-11.5 -51.5t-4 -50.5q0 -27 5.5 -43t15.5 -16q14 0 45.5 28t80.5 79zM238 598q20 0 33.5 -13.5t13.5 -33.5t-13.5 -33.5t-33.5 -13.5
t-33.5 13.5t-13.5 33.5t13.5 33.5t33.5 13.5zM415 598q20 0 33.5 -13.5t13.5 -33.5t-13.5 -33.5t-33.5 -13.5t-33.5 13.5t-13.5 33.5t13.5 33.5t33.5 13.5z" />
    <glyph glyph-name="aring" unicode="&#xe5;" horiz-adv-x="442" 
d="M431 77q-43 -43 -76 -65.5t-53 -22.5q-30 0 -30 47q0 6 1 18t3 24.5t4 24.5t4 19l-2 2q-36 -39 -63.5 -64.5t-47.5 -41.5t-33.5 -22.5t-22.5 -6.5q-12 0 -22.5 8.5t-18.5 22t-13 32t-5 37.5q0 33 10.5 66.5t27 63.5t36.5 55.5t40 43.5q33 29 65 47t63.5 28.5t63.5 14.5
t64 5l-63 -307l-3 -19.5t-1 -12.5q0 -18 11 -18q8 0 18 8t32 29zM329 346q-42 0 -70.5 -11t-51.5 -34q-15 -15 -27 -37t-19.5 -47t-11.5 -51.5t-4 -50.5q0 -27 5.5 -43t15.5 -16q14 0 45.5 28t80.5 79zM348 646q39 0 66.5 -27.5t27.5 -66.5t-27.5 -66.5t-66.5 -27.5
t-66.5 27.5t-27.5 66.5t27.5 66.5t66.5 27.5zM348 616q-26 0 -45 -19t-19 -45t19 -45t45 -19t45 19t19 45t-19 45t-45 19z" />
    <glyph glyph-name="ae" unicode="&#xe6;" horiz-adv-x="603" 
d="M575 60q-52 -37 -94 -54t-79 -17q-22 0 -43 7t-37.5 22.5t-26.5 40t-10 58.5q-40 -37 -68 -62t-48 -39.5t-34.5 -20.5t-26.5 -6q-28 0 -46.5 29.5t-18.5 74.5q0 46 24.5 102.5t72.5 105.5q35 36 72.5 58t73.5 34t70.5 16t63.5 4l-8 -42q59 42 121 42q42 0 66.5 -18
t24.5 -48q0 -51 -62.5 -94t-187.5 -66q-4 -21 -5.5 -33t-1.5 -27q0 -27 6.5 -46t17 -30t23.5 -16t26 -5q30 0 60 14t63 35zM325 345q-48 0 -75 -9.5t-49 -31.5q-19 -19 -32 -43t-21.5 -49t-12 -49t-3.5 -43q0 -62 30 -62q17 0 49 24t75 67zM378 208q76 17 120.5 47.5
t44.5 87.5q0 20 -10 32t-28 12q-15 0 -32.5 -11t-35 -33t-33 -56t-26.5 -79z" />
    <glyph glyph-name="ccedilla" unicode="&#xe7;" horiz-adv-x="316" 
d="M288 83q-93 -94 -173 -94q-45 0 -71 27.5t-26 75.5t19 104t51 104t75 80.5t92 32.5q28 0 47.5 -15t19.5 -36q0 -16 -11 -27t-27 -11q-12 0 -22.5 6.5t-20.5 14.5t-20 14.5t-22 6.5q-13 0 -22 -9q-17 -17 -30 -51t-22 -72.5t-13.5 -74t-4.5 -55.5q0 -34 14.5 -54t38.5 -20
q21 0 46.5 15.5t63.5 52.5zM0 -185q102 -2 102 51q0 35 -49 38l49 96h21l-20 -37q62 -15 62 -73q0 -46 -38.5 -71.5t-107.5 -25.5h-12t-11 2z" />
    <glyph glyph-name="egrave" unicode="&#xe8;" horiz-adv-x="360" 
d="M340 63q-42 -35 -89 -54.5t-88 -19.5q-53 0 -84 36t-31 96q0 56 20.5 109t54.5 93.5t78.5 65t91.5 24.5q40 0 63.5 -17.5t23.5 -46.5q0 -54 -63.5 -93.5t-170.5 -71.5q-9 -25 -9 -58q0 -44 21 -70t56 -26q23 0 50.5 12.5t63.5 38.5zM151 208q75 24 111 57t36 78
q0 20 -7.5 32t-21.5 12q-34 0 -64 -45.5t-54 -133.5zM305 464l-131 190h92l87 -190h-48z" />
    <glyph glyph-name="eacute" unicode="&#xe9;" horiz-adv-x="360" 
d="M340 63q-42 -35 -89 -54.5t-88 -19.5q-53 0 -84 36t-31 96q0 56 20.5 109t54.5 93.5t78.5 65t91.5 24.5q40 0 63.5 -17.5t23.5 -46.5q0 -54 -63.5 -93.5t-170.5 -71.5q-9 -25 -9 -58q0 -44 21 -70t56 -26q23 0 50.5 12.5t63.5 38.5zM151 208q75 24 111 57t36 78
q0 20 -7.5 32t-21.5 12q-34 0 -64 -45.5t-54 -133.5zM298 654h92l-131 -190h-48z" />
    <glyph glyph-name="ecircumflex" unicode="&#xea;" horiz-adv-x="360" 
d="M340 63q-42 -35 -89 -54.5t-88 -19.5q-53 0 -84 36t-31 96q0 56 20.5 109t54.5 93.5t78.5 65t91.5 24.5q40 0 63.5 -17.5t23.5 -46.5q0 -54 -63.5 -93.5t-170.5 -71.5q-9 -25 -9 -58q0 -44 21 -70t56 -26q23 0 50.5 12.5t63.5 38.5zM151 208q75 24 111 57t36 78
q0 20 -7.5 32t-21.5 12q-34 0 -64 -45.5t-54 -133.5zM282 654h94l18 -190h-49l-34 109l-133 -109h-47z" />
    <glyph glyph-name="edieresis" unicode="&#xeb;" horiz-adv-x="360" 
d="M340 63q-42 -35 -89 -54.5t-88 -19.5q-53 0 -84 36t-31 96q0 56 20.5 109t54.5 93.5t78.5 65t91.5 24.5q40 0 63.5 -17.5t23.5 -46.5q0 -54 -63.5 -93.5t-170.5 -71.5q-9 -25 -9 -58q0 -44 21 -70t56 -26q23 0 50.5 12.5t63.5 38.5zM151 208q75 24 111 57t36 78
q0 20 -7.5 32t-21.5 12q-34 0 -64 -45.5t-54 -133.5zM197 598q20 0 33.5 -13.5t13.5 -33.5t-13.5 -33.5t-33.5 -13.5t-33.5 13.5t-13.5 33.5t13.5 33.5t33.5 13.5zM374 598q20 0 33.5 -13.5t13.5 -33.5t-13.5 -33.5t-33.5 -13.5t-33.5 13.5t-13.5 33.5t13.5 33.5t33.5 13.5z
" />
    <glyph glyph-name="igrave" unicode="&#xec;" horiz-adv-x="252" 
d="M245 91q-48 -50 -82 -76t-60 -26q-36 0 -36 40q0 7 1.5 19t3.5 22l49 239q2 8 2 16.5t-7 8.5q-11 0 -55 -45l-16 20q60 55 91.5 79.5t51.5 24.5q28 0 28 -30q0 -6 -1 -15t-3 -20l-54 -265q-2 -8 -2.5 -11t-0.5 -6q0 -12 9 -12t27 17t38 38zM251 464l-131 190h92l87 -190
h-48z" />
    <glyph glyph-name="iacute" unicode="&#xed;" horiz-adv-x="252" 
d="M245 91q-48 -50 -82 -76t-60 -26q-36 0 -36 40q0 7 1.5 19t3.5 22l49 239q2 8 2 16.5t-7 8.5q-11 0 -55 -45l-16 20q60 55 91.5 79.5t51.5 24.5q28 0 28 -30q0 -6 -1 -15t-3 -20l-54 -265q-2 -8 -2.5 -11t-0.5 -6q0 -12 9 -12t27 17t38 38zM244 654h92l-131 -190h-48z
" />
    <glyph glyph-name="icircumflex" unicode="&#xee;" horiz-adv-x="252" 
d="M245 91q-48 -50 -82 -76t-60 -26q-36 0 -36 40q0 7 1.5 19t3.5 22l49 239q2 8 2 16.5t-7 8.5q-11 0 -55 -45l-16 20q60 55 91.5 79.5t51.5 24.5q28 0 28 -30q0 -6 -1 -15t-3 -20l-54 -265q-2 -8 -2.5 -11t-0.5 -6q0 -12 9 -12t27 17t38 38zM228 654h94l18 -190h-49
l-34 109l-133 -109h-47z" />
    <glyph glyph-name="idieresis" unicode="&#xef;" horiz-adv-x="252" 
d="M245 91q-48 -50 -82 -76t-60 -26q-36 0 -36 40q0 7 1.5 19t3.5 22l49 239q2 8 2 16.5t-7 8.5q-11 0 -55 -45l-16 20q60 55 91.5 79.5t51.5 24.5q28 0 28 -30q0 -6 -1 -15t-3 -20l-54 -265q-2 -8 -2.5 -11t-0.5 -6q0 -12 9 -12t27 17t38 38zM143 598q20 0 33.5 -13.5
t13.5 -33.5t-13.5 -33.5t-33.5 -13.5t-33.5 13.5t-13.5 33.5t13.5 33.5t33.5 13.5zM320 598q20 0 33.5 -13.5t13.5 -33.5t-13.5 -33.5t-33.5 -13.5t-33.5 13.5t-13.5 33.5t13.5 33.5t33.5 13.5z" />
    <glyph glyph-name="eth" unicode="&#xf0;" horiz-adv-x="417" 
d="M132 151q0 -52 17.5 -86.5t43.5 -34.5q11 0 25 6.5t26 18.5q11 11 22.5 31.5t20.5 47.5t15 58t6 64q0 24 -5.5 46t-14.5 38t-21.5 25.5t-26.5 9.5q-21 0 -40.5 -18.5t-34.5 -50t-24 -71.5t-9 -84zM476 581l-112 -37q32 -49 41.5 -101.5t9.5 -94.5q0 -35 -5 -71.5
t-15.5 -71t-26.5 -65t-39 -53.5q-16 -16 -38.5 -33t-47.5 -31.5t-50.5 -24t-47.5 -9.5q-24 0 -44 11t-34.5 31t-22.5 47.5t-8 60.5q0 67 29 119t69.5 88t82.5 54.5t67 18.5q18 0 30 -9q-1 17 -5 47t-17 63l-122 -41l-11 32l119 40q-12 23 -29.5 44t-41.5 35l17 24
q39 -14 68.5 -35t50.5 -47l122 41z" />
    <glyph glyph-name="ntilde" unicode="&#xf1;" horiz-adv-x="486" 
d="M56 -11l64 313q5 22 -5 22q-6 0 -20.5 -14.5t-33.5 -40.5l-18 14q44 58 81.5 94t65.5 36q26 0 26 -29q0 -8 -1 -18.5t-3 -21.5l-29 -138l2 -2q45 58 79.5 98t61.5 64.5t47 35.5t35 11q20 0 31 -15t11 -41q0 -12 -2 -25.5t-7 -33.5l-55 -220q-5 -21 -3 -28t8 -7
q5 0 14.5 7t20 18.5t21.5 25t20 25.5l18 -15q-43 -54 -82.5 -84.5t-67.5 -30.5q-40 0 -40 43q0 8 2 18.5t5 22.5l47 190q5 18 8.5 36.5t3.5 29.5q0 16 -11 16q-18 0 -65 -51t-112 -139l-34 -166h-83zM179 490q0 51 23.5 86.5t72.5 35.5q19 0 37.5 -7.5t36.5 -16.5
t35.5 -16.5t34.5 -7.5q39 0 45 50h38q0 -64 -26.5 -93t-67.5 -29q-19 0 -37.5 7.5t-36.5 16.5t-36 16.5t-35 7.5q-38 0 -44 -50h-40z" />
    <glyph glyph-name="ograve" unicode="&#xf2;" horiz-adv-x="415" 
d="M295 413q22 0 40 -11t31.5 -31t21 -47.5t7.5 -59.5q0 -63 -28 -114t-67.5 -87t-81.5 -55t-71 -19q-45 0 -74 41t-29 106q0 64 27.5 115.5t67 87.5t82.5 55t74 19zM246 374q-11 0 -23.5 -5t-23.5 -16q-16 -16 -28 -41t-20.5 -53t-13 -56.5t-4.5 -51.5q0 -57 19.5 -90
t44.5 -33q22 0 43 21q15 15 27.5 38t21 50t13 56t4.5 57q0 63 -20 93.5t-40 30.5zM332 464l-131 190h92l87 -190h-48z" />
    <glyph glyph-name="oacute" unicode="&#xf3;" horiz-adv-x="415" 
d="M295 413q22 0 40 -11t31.5 -31t21 -47.5t7.5 -59.5q0 -63 -28 -114t-67.5 -87t-81.5 -55t-71 -19q-45 0 -74 41t-29 106q0 64 27.5 115.5t67 87.5t82.5 55t74 19zM246 374q-11 0 -23.5 -5t-23.5 -16q-16 -16 -28 -41t-20.5 -53t-13 -56.5t-4.5 -51.5q0 -57 19.5 -90
t44.5 -33q22 0 43 21q15 15 27.5 38t21 50t13 56t4.5 57q0 63 -20 93.5t-40 30.5zM325 654h92l-131 -190h-48z" />
    <glyph glyph-name="ocircumflex" unicode="&#xf4;" horiz-adv-x="415" 
d="M295 413q22 0 40 -11t31.5 -31t21 -47.5t7.5 -59.5q0 -63 -28 -114t-67.5 -87t-81.5 -55t-71 -19q-45 0 -74 41t-29 106q0 64 27.5 115.5t67 87.5t82.5 55t74 19zM246 374q-11 0 -23.5 -5t-23.5 -16q-16 -16 -28 -41t-20.5 -53t-13 -56.5t-4.5 -51.5q0 -57 19.5 -90
t44.5 -33q22 0 43 21q15 15 27.5 38t21 50t13 56t4.5 57q0 63 -20 93.5t-40 30.5zM309 654h94l18 -190h-49l-34 109l-133 -109h-47z" />
    <glyph glyph-name="otilde" unicode="&#xf5;" horiz-adv-x="415" 
d="M295 413q22 0 40 -11t31.5 -31t21 -47.5t7.5 -59.5q0 -63 -28 -114t-67.5 -87t-81.5 -55t-71 -19q-45 0 -74 41t-29 106q0 64 27.5 115.5t67 87.5t82.5 55t74 19zM246 374q-11 0 -23.5 -5t-23.5 -16q-16 -16 -28 -41t-20.5 -53t-13 -56.5t-4.5 -51.5q0 -57 19.5 -90
t44.5 -33q22 0 43 21q15 15 27.5 38t21 50t13 56t4.5 57q0 63 -20 93.5t-40 30.5zM143 490q0 51 23.5 86.5t72.5 35.5q19 0 37.5 -7.5t36.5 -16.5t35.5 -16.5t34.5 -7.5q39 0 45 50h38q0 -64 -26.5 -93t-67.5 -29q-19 0 -37.5 7.5t-36.5 16.5t-36 16.5t-35 7.5
q-38 0 -44 -50h-40z" />
    <glyph glyph-name="odieresis" unicode="&#xf6;" horiz-adv-x="415" 
d="M295 413q22 0 40 -11t31.5 -31t21 -47.5t7.5 -59.5q0 -63 -28 -114t-67.5 -87t-81.5 -55t-71 -19q-45 0 -74 41t-29 106q0 64 27.5 115.5t67 87.5t82.5 55t74 19zM246 374q-11 0 -23.5 -5t-23.5 -16q-16 -16 -28 -41t-20.5 -53t-13 -56.5t-4.5 -51.5q0 -57 19.5 -90
t44.5 -33q22 0 43 21q15 15 27.5 38t21 50t13 56t4.5 57q0 63 -20 93.5t-40 30.5zM224 598q20 0 33.5 -13.5t13.5 -33.5t-13.5 -33.5t-33.5 -13.5t-33.5 13.5t-13.5 33.5t13.5 33.5t33.5 13.5zM401 598q20 0 33.5 -13.5t13.5 -33.5t-13.5 -33.5t-33.5 -13.5t-33.5 13.5
t-13.5 33.5t13.5 33.5t33.5 13.5z" />
    <glyph glyph-name="divide" unicode="&#xf7;" horiz-adv-x="668" 
d="M371 496q17 0 29 -12t12 -29t-12 -29.5t-29 -12.5t-29.5 12.5t-12.5 29.5t12.5 29t29.5 12zM602 315v-67h-463v67h463zM371 150q17 0 29 -12t12 -29t-12 -29.5t-29 -12.5t-29.5 12.5t-12.5 29.5t12.5 29t29.5 12z" />
    <glyph glyph-name="oslash" unicode="&#xf8;" horiz-adv-x="415" 
d="M141 88q17 -60 56 -60q22 0 43 21q32 32 49 86t17 115q0 5 -1.5 16.5t-1.5 15.5h-2zM295 413q20 0 34 -8t28 -22l54 64l18 -14l-58 -70q13 -19 18.5 -46t5.5 -53q0 -63 -28 -114t-67.5 -87t-81.5 -55t-71 -19q-18 0 -37 8.5t-27 20.5l-53 -63l-17 15l56 67
q-10 11 -17.5 40.5t-7.5 58.5q0 64 27.5 115.5t67 87.5t82.5 55t74 19zM298 312q-9 29 -23 45.5t-29 16.5q-11 0 -23.5 -5t-23.5 -16q-16 -16 -28 -41t-20 -53t-12.5 -56.5t-4.5 -51.5q0 -4 0.5 -16.5t1.5 -17.5z" />
    <glyph glyph-name="ugrave" unicode="&#xf9;" horiz-adv-x="486" 
d="M473 103q-18 -20 -37.5 -40t-38 -36.5t-35.5 -27t-29 -10.5q-28 0 -28 40q0 14 2.5 34.5t8.5 49.5l24 112l-2 2q-32 -49 -69 -92.5t-70.5 -75.5t-60.5 -51t-38 -19q-14 0 -21.5 13t-7.5 35q0 27 5 52l45 221q2 10 1 17t-6 7t-16.5 -10.5t-30.5 -34.5l-17 14
q41 51 76 80.5t56 29.5q14 0 22 -10.5t8 -27.5q0 -8 -1.5 -22t-5.5 -31l-45 -219q-7 -35 6 -35q5 0 16 7.5t18 14.5q24 24 48.5 53t45 57t35.5 53t22 42l21 95q3 14 6.5 18.5t14.5 4.5h42q16 0 19 -5t1 -18l-61 -301q-5 -23 3 -23t21.5 12.5t36.5 40.5zM368 464l-131 190h92
l87 -190h-48z" />
    <glyph glyph-name="uacute" unicode="&#xfa;" horiz-adv-x="486" 
d="M473 103q-18 -20 -37.5 -40t-38 -36.5t-35.5 -27t-29 -10.5q-28 0 -28 40q0 14 2.5 34.5t8.5 49.5l24 112l-2 2q-32 -49 -69 -92.5t-70.5 -75.5t-60.5 -51t-38 -19q-14 0 -21.5 13t-7.5 35q0 27 5 52l45 221q2 10 1 17t-6 7t-16.5 -10.5t-30.5 -34.5l-17 14
q41 51 76 80.5t56 29.5q14 0 22 -10.5t8 -27.5q0 -8 -1.5 -22t-5.5 -31l-45 -219q-7 -35 6 -35q5 0 16 7.5t18 14.5q24 24 48.5 53t45 57t35.5 53t22 42l21 95q3 14 6.5 18.5t14.5 4.5h42q16 0 19 -5t1 -18l-61 -301q-5 -23 3 -23t21.5 12.5t36.5 40.5zM361 654h92
l-131 -190h-48z" />
    <glyph glyph-name="ucircumflex" unicode="&#xfb;" horiz-adv-x="486" 
d="M473 103q-18 -20 -37.5 -40t-38 -36.5t-35.5 -27t-29 -10.5q-28 0 -28 40q0 14 2.5 34.5t8.5 49.5l24 112l-2 2q-32 -49 -69 -92.5t-70.5 -75.5t-60.5 -51t-38 -19q-14 0 -21.5 13t-7.5 35q0 27 5 52l45 221q2 10 1 17t-6 7t-16.5 -10.5t-30.5 -34.5l-17 14
q41 51 76 80.5t56 29.5q14 0 22 -10.5t8 -27.5q0 -8 -1.5 -22t-5.5 -31l-45 -219q-7 -35 6 -35q5 0 16 7.5t18 14.5q24 24 48.5 53t45 57t35.5 53t22 42l21 95q3 14 6.5 18.5t14.5 4.5h42q16 0 19 -5t1 -18l-61 -301q-5 -23 3 -23t21.5 12.5t36.5 40.5zM345 654h94l18 -190
h-49l-34 109l-133 -109h-47z" />
    <glyph glyph-name="udieresis" unicode="&#xfc;" horiz-adv-x="486" 
d="M473 103q-18 -20 -37.5 -40t-38 -36.5t-35.5 -27t-29 -10.5q-28 0 -28 40q0 14 2.5 34.5t8.5 49.5l24 112l-2 2q-32 -49 -69 -92.5t-70.5 -75.5t-60.5 -51t-38 -19q-14 0 -21.5 13t-7.5 35q0 27 5 52l45 221q2 10 1 17t-6 7t-16.5 -10.5t-30.5 -34.5l-17 14
q41 51 76 80.5t56 29.5q14 0 22 -10.5t8 -27.5q0 -8 -1.5 -22t-5.5 -31l-45 -219q-7 -35 6 -35q5 0 16 7.5t18 14.5q24 24 48.5 53t45 57t35.5 53t22 42l21 95q3 14 6.5 18.5t14.5 4.5h42q16 0 19 -5t1 -18l-61 -301q-5 -23 3 -23t21.5 12.5t36.5 40.5zM260 598
q20 0 33.5 -13.5t13.5 -33.5t-13.5 -33.5t-33.5 -13.5t-33.5 13.5t-13.5 33.5t13.5 33.5t33.5 13.5zM437 598q20 0 33.5 -13.5t13.5 -33.5t-13.5 -33.5t-33.5 -13.5t-33.5 13.5t-13.5 33.5t13.5 33.5t33.5 13.5z" />
    <glyph glyph-name="yacute" unicode="&#xfd;" horiz-adv-x="451" 
d="M4 -232l5 27q22 0 39.5 3t27.5 13q8 7 24 37t32 69t28.5 81t12.5 73q0 25 -4 71.5t-11.5 92.5t-18 80t-23.5 34q-10 0 -25.5 -16.5t-33.5 -45.5l-19 14q32 49 62.5 80.5t56.5 31.5q27 0 45.5 -37t30 -92.5t16 -119t4.5 -116.5h2q29 53 50.5 98.5t35.5 80t20.5 56
t6.5 27.5t-4 10t-9 8.5t-9 11.5t-4 20q0 23 15.5 38t39.5 15q23 0 37.5 -14.5t14.5 -37.5q0 -13 -5.5 -30.5t-14.5 -36.5t-20 -38t-21 -34l-47 -71q-78 -119 -107 -192l-49 -124q-11 -26 1.5 -33t55.5 -7l-5 -27h-233zM343 654h92l-131 -190h-48z" />
    <glyph glyph-name="thorn" unicode="&#xfe;" horiz-adv-x="459" 
d="M-70 -232l5 27q28 0 45.5 4t29 15t18.5 32t14 56l134 663q6 28 -5 28q-13 0 -64 -60l-19 15q45 55 87.5 89t66.5 34q29 0 29 -37q0 -11 -4 -31l-69 -340l2 -2q23 33 48 60.5t48 48t43 32t33 11.5q14 0 27 -11.5t22.5 -31t15 -45.5t5.5 -55q0 -50 -19 -100t-53 -90.5
t-79 -65.5t-98 -25q-13 0 -24 1t-25 4l-24 -114q-6 -32 -6 -44q0 -23 16.5 -32t60.5 -9l-5 -27h-256zM154 46q18 -15 32 -21.5t30 -6.5q28 0 53 19.5t43.5 52.5t29.5 77.5t11 94.5q0 38 -8 61t-22 23q-6 0 -16 -6t-25.5 -21.5t-38.5 -42t-56 -68.5z" />
    <glyph glyph-name="ydieresis" unicode="&#xff;" horiz-adv-x="451" 
d="M4 -232l5 27q22 0 39.5 3t27.5 13q8 7 24 37t32 69t28.5 81t12.5 73q0 25 -4 71.5t-11.5 92.5t-18 80t-23.5 34q-10 0 -25.5 -16.5t-33.5 -45.5l-19 14q32 49 62.5 80.5t56.5 31.5q27 0 45.5 -37t30 -92.5t16 -119t4.5 -116.5h2q29 53 50.5 98.5t35.5 80t20.5 56
t6.5 27.5t-4 10t-9 8.5t-9 11.5t-4 20q0 23 15.5 38t39.5 15q23 0 37.5 -14.5t14.5 -37.5q0 -13 -5.5 -30.5t-14.5 -36.5t-20 -38t-21 -34l-47 -71q-78 -119 -107 -192l-49 -124q-11 -26 1.5 -33t55.5 -7l-5 -27h-233zM242 598q20 0 33.5 -13.5t13.5 -33.5t-13.5 -33.5
t-33.5 -13.5t-33.5 13.5t-13.5 33.5t13.5 33.5t33.5 13.5zM419 598q20 0 33.5 -13.5t13.5 -33.5t-13.5 -33.5t-33.5 -13.5t-33.5 13.5t-13.5 33.5t13.5 33.5t33.5 13.5z" />
    <glyph glyph-name="dotlessi" unicode="&#x131;" horiz-adv-x="252" 
d="M245 91q-48 -50 -82 -76t-60 -26q-36 0 -36 40q0 7 1.5 19t3.5 22l49 239q2 8 2 16.5t-7 8.5q-11 0 -55 -45l-16 20q60 55 91.5 79.5t51.5 24.5q28 0 28 -30q0 -6 -1 -15t-3 -20l-54 -265q-2 -8 -2.5 -11t-0.5 -6q0 -12 9 -12t27 17t38 38z" />
    <glyph glyph-name="Lslash" unicode="&#x141;" horiz-adv-x="585" 
d="M8 0l6 27q22 0 35 1t20.5 3.5t11 5t6.5 5.5q11 11 18.5 31.5t9.5 31.5l27 115l-104 -71l10 50l103 74l43 211q6 30 8 42t2 23q0 28 -21 37t-63 9l6 27h281l-6 -27q-30 0 -48 -3.5t-28.5 -16t-17 -36t-14.5 -62.5l-25 -123l164 113l-10 -50l-164 -113l-36 -178
q-2 -10 -4 -25t-2 -23q0 -13 4.5 -21.5t15.5 -13t31 -6t50 -1.5q60 0 99 3.5t67 15t49.5 32.5t48.5 56h26l-48 -143h-551z" />
    <glyph glyph-name="lslash" unicode="&#x142;" horiz-adv-x="252" 
d="M226 77q-41 -41 -77 -64.5t-57 -23.5q-20 0 -31 13t-11 35q0 11 1.5 29t6.5 38l30 142l-2 2l-73 -83l-4 -4l12 62l79 87l53 261q2 12 3.5 17.5t1.5 9.5q0 15 -10 15q-13 0 -58 -28l-11 19q23 13 38.5 21.5t32.5 16.5q29 14 50.5 21.5t32.5 7.5q15 0 16 -22
q0 -10 -2 -20.5t-5 -24.5l-35 -174l2 -2l86 96l4 4l-12 -62l-92 -100l-60 -295q-4 -19 -2.5 -26t6.5 -7t23 13t48 42z" />
    <glyph glyph-name="OE" unicode="&#x152;" horiz-adv-x="1018" 
d="M563 0q-11 0 -29.5 -0.5t-38.5 -2.5q-20 -1 -39 -2t-32 -1q-95 0 -158.5 26.5t-102 68t-54.5 93t-16 100.5q0 63 23.5 125t73 111.5t125 80t179.5 30.5q13 0 30.5 -1t34.5 -3q18 -1 33.5 -2t24.5 -1h432l-29 -144h-28q0 56 -18 84t-73 28h-165l-53 -260h126q57 0 83 16.5
t40 53.5h28l-38 -188h-28q5 49 -14.5 67.5t-62.5 18.5h-141l-39 -187q-2 -9 -3 -16.5t-1 -15.5q0 -14 4.5 -23t16.5 -14.5t33 -7.5t53 -2q87 0 140 25.5t90 84.5h30l-46 -142h-391zM609 478q5 27 5 45q0 73 -119 73q-77 0 -132 -31.5t-90 -81.5t-51.5 -112t-16.5 -123
q0 -58 17 -100t45.5 -69t65.5 -40t77 -13q61 0 90 29t43 99z" />
    <glyph glyph-name="oe" unicode="&#x153;" horiz-adv-x="613" 
d="M570 62q-47 -35 -91.5 -54t-82.5 -19q-81 0 -107 73q-49 -40 -83.5 -56.5t-66.5 -16.5q-44 0 -72 41t-28 105q0 67 27.5 118.5t66.5 87t81 54t71 18.5q56 0 83 -77q71 77 160 77q43 0 67 -17t24 -49q0 -22 -13.5 -45t-43 -44.5t-77 -40t-116.5 -30.5q-3 -19 -4 -32
t-1 -27q0 -48 19 -74t54 -26q24 0 56 13t65 38zM233 374q-18 0 -36.5 -19.5t-33.5 -51t-25 -71.5t-10 -80q0 -54 17.5 -89t44.5 -35q20 0 37 17q14 14 26.5 39.5t21.5 56t14.5 63.5t5.5 61q0 46 -18 77.5t-44 31.5zM374 208q50 12 82 27.5t50.5 33t25.5 36.5t7 38
q0 20 -10 32t-27 12q-19 0 -38 -13.5t-36 -37t-31 -56.5t-23 -72z" />
    <glyph glyph-name="Scaron" unicode="&#x160;" horiz-adv-x="558" 
d="M90 196h25q-3 -43 9 -76.5t35 -57t56.5 -36t72.5 -12.5q31 0 57 8t45 23t29.5 35t10.5 44q0 27 -11 47.5t-35 44.5q-14 14 -37 32t-48 37t-47.5 36.5t-34.5 29.5q-27 27 -41 56.5t-14 65.5t15 66.5t42 52t64.5 34t82.5 12.5q18 0 41 -3t44 -6.5t37 -6.5t22 -3q14 0 22 12
h28l-21 -172h-26q-6 72 -44 110.5t-102 38.5q-52 0 -87 -26.5t-35 -66.5q0 -23 9 -40t27 -35q12 -12 37 -31.5t53 -41.5t54 -42.5t41 -35.5q33 -33 45 -60.5t12 -64.5q0 -40 -17.5 -73t-49 -57t-76 -37t-98.5 -13q-57 0 -110.5 13t-119.5 43zM407 674h-94l-18 190h49
l34 -109l133 109h47z" />
    <glyph glyph-name="scaron" unicode="&#x161;" horiz-adv-x="351" 
d="M100 273q0 20 13.5 44.5t36 45.5t51 35.5t57.5 14.5q35 0 57.5 -19t22.5 -49q0 -21 -12 -35t-31 -14q-18 0 -27 12t-15 27t-13.5 27t-22.5 12q-17 0 -31 -15.5t-14 -32.5q0 -22 18 -45t39.5 -48.5t39.5 -54t18 -60.5q0 -28 -13 -51.5t-35.5 -40.5t-53.5 -27t-68 -10
q-51 0 -77.5 14.5t-26.5 41.5q0 17 12 28.5t30 11.5q19 0 35 -9t31 -20t30 -20t32 -9q18 0 29 10.5t11 27.5q0 23 -19 48t-42.5 51.5t-42.5 54t-19 54.5zM296 464h-94l-18 190h49l34 -109l133 109h47z" />
    <glyph glyph-name="Ydieresis" unicode="&#x178;" horiz-adv-x="684" 
d="M199 499q-12 28 -22 46.5t-20.5 29t-22 15t-26.5 5.5l6 27h232l-6 -27q-56 -2 -56 -34q0 -6 2.5 -16t7.5 -19l103 -234l196 225q11 12 16 24t5 21q0 18 -14 25.5t-45 7.5l6 27h197l-6 -27q-26 -2 -48 -15.5t-48 -42.5l-249 -281l-24 -118q-5 -23 -6.5 -35t-1.5 -21
q0 -34 19.5 -45t76.5 -10l-6 -27h-306l6 27q29 -1 48 3.5t32 16.5t21 31.5t14 48.5l26 129zM366 808q20 0 33.5 -13.5t13.5 -33.5t-13.5 -33.5t-33.5 -13.5t-33.5 13.5t-13.5 33.5t13.5 33.5t33.5 13.5zM543 808q20 0 33.5 -13.5t13.5 -33.5t-13.5 -33.5t-33.5 -13.5
t-33.5 13.5t-13.5 33.5t13.5 33.5t33.5 13.5z" />
    <glyph glyph-name="Zcaron" unicode="&#x17d;" horiz-adv-x="703" 
d="M31 0v32l546 558h-201q-36 0 -64 -7.5t-50 -24.5t-39 -44t-32 -66h-27l40 174h512v-32l-546 -558h248q46 0 77 6t55.5 22t45.5 44.5t48 73.5h27l-51 -178h-589zM479 674h-94l-18 190h49l34 -109l133 109h47z" />
    <glyph glyph-name="zcaron" unicode="&#x17e;" horiz-adv-x="480" 
d="M443 88q-36 -53 -66 -76t-61 -23q-19 0 -40 7t-55 24l-40 21q-31 17 -59 17q-39 0 -40 -34l-1 -15q0 -9 -6 -14.5t-15 -5.5q-11 0 -17.5 7t-6.5 18q0 37 60 94q18 18 39.5 34t47.5 32q14 8 39 22t59 32q60 32 95.5 59t58.5 58l-2 2q-63 -42 -116 -42q-20 0 -42 6.5
t-53 22.5q-23 11 -32.5 14.5t-20.5 3.5q-18 0 -31.5 -9.5t-32.5 -35.5l-21 13q32 49 64 71t71 22q20 0 37 -5.5t49 -22.5t52 -24t37 -7q18 0 29 8t19 28q9 23 24 23q19 0 19 -19q0 -17 -15.5 -42.5t-39.5 -49.5q-34 -35 -73 -61.5t-98 -57.5q-22 -11 -37 -19t-27 -15
t-23 -14.5t-25 -18.5q-17 -12 -26 -20t-20 -19l2 -2q47 31 93 31q10 0 19.5 -1.5t21.5 -5t27.5 -10t38.5 -16.5q22 -10 33.5 -13.5t22.5 -3.5q17 0 30.5 10t31.5 36zM361 464h-94l-18 190h49l34 -109l133 109h47z" />
    <glyph glyph-name="florin" unicode="&#x192;" horiz-adv-x="488" 
d="M320 361l-34 -223q-12 -81 -32.5 -149t-54 -117t-82 -76.5t-117.5 -27.5q-29 0 -50 13t-21 39q0 19 12.5 31t31.5 12q17 0 27 -8.5t19.5 -19t20.5 -19t30 -8.5q23 0 40 12.5t31.5 44.5t27.5 87t26 141l42 268h-68l5 25q20 3 39 7t32 9q27 133 87 201t148 68q80 0 80 -50
q0 -18 -12 -29t-32 -11q-16 0 -27 8.5t-21 18t-20.5 18t-27.5 8.5t-29.5 -11.5t-23 -38.5t-20 -71.5t-19.5 -110.5h84l-8 -41h-84z" />
    <glyph glyph-name="circumflex" unicode="&#x2c6;" 
d="M268 654h94l18 -190h-49l-34 109l-133 -109h-47z" />
    <glyph glyph-name="caron" unicode="&#x2c7;" 
d="M287 464h-94l-18 190h49l34 -109l133 109h47z" />
    <glyph glyph-name="breve" unicode="&#x2d8;" 
d="M142 644q18 -90 101 -90q38 0 67.5 23.5t45.5 66.5h24q-14 -78 -53 -122t-97 -44q-53 0 -84 45.5t-29 120.5h25z" />
    <glyph glyph-name="dotaccent" unicode="&#x2d9;" 
d="M236 598q20 0 33.5 -13.5t13.5 -33.5t-13.5 -33.5t-33.5 -13.5t-33.5 13.5t-13.5 33.5t13.5 33.5t33.5 13.5z" />
    <glyph glyph-name="ring" unicode="&#x2da;" 
d="M293 646q39 0 66.5 -27.5t27.5 -66.5t-27.5 -66.5t-66.5 -27.5t-66.5 27.5t-27.5 66.5t27.5 66.5t66.5 27.5zM293 616q-26 0 -45 -19t-19 -45t19 -45t45 -19t45 19t19 45t-19 45t-45 19z" />
    <glyph glyph-name="ogonek" unicode="&#x2db;" 
d="M128 7q-8 -18 -11.5 -34t-3.5 -25q0 -35 28.5 -57.5t76.5 -22.5q18 0 27 1t24 6l15 -13q-32 -25 -61 -36t-61 -11q-51 0 -84.5 26.5t-33.5 66.5q0 25 12 47t42 52h30z" />
    <glyph glyph-name="tilde" unicode="&#x2dc;" 
d="M102 490q0 51 23.5 86.5t72.5 35.5q19 0 37.5 -7.5t36.5 -16.5t35.5 -16.5t34.5 -7.5q39 0 45 50h38q0 -64 -26.5 -93t-67.5 -29q-19 0 -37.5 7.5t-36.5 16.5t-36 16.5t-35 7.5q-38 0 -44 -50h-40z" />
    <glyph glyph-name="hungarumlaut" unicode="&#x2dd;" 
d="M363 654h92l-131 -190h-48zM238 654h92l-131 -190h-48z" />
    <glyph glyph-name="endash" unicode="&#x2013;" horiz-adv-x="500" 
d="M522 255v-78h-512v78h512z" />
    <glyph glyph-name="emdash" unicode="&#x2014;" horiz-adv-x="1000" 
d="M1022 255v-78h-1012v78h1012z" />
    <glyph glyph-name="quoteleft" unicode="&#x2018;" horiz-adv-x="279" 
d="M311 651q-92 -42 -92 -107q0 -18 5.5 -31t11.5 -23.5t11.5 -21t5.5 -24.5q0 -24 -15 -39.5t-38 -15.5q-29 0 -46.5 23t-17.5 61q0 32 11.5 62t33 56t51.5 46.5t67 33.5z" />
    <glyph glyph-name="quoteright" unicode="&#x2019;" horiz-adv-x="279" 
d="M126 409q92 42 92 107q0 18 -5.5 31t-11.5 23.5t-11.5 21t-5.5 24.5q0 24 15 39.5t38 15.5q29 0 46.5 -23t17.5 -61q0 -31 -11.5 -61.5t-33 -56.5t-51.5 -46.5t-67 -33.5z" />
    <glyph glyph-name="quotesinglbase" unicode="&#x201a;" horiz-adv-x="279" 
d="M19 -146q92 42 92 107q0 18 -5.5 31t-11.5 23.5t-11.5 21t-5.5 24.5q0 24 15 39.5t38 15.5q29 0 46.5 -23t17.5 -61q0 -31 -11.5 -61.5t-33 -56.5t-51.5 -46.5t-67 -33.5z" />
    <glyph glyph-name="quotedblleft" unicode="&#x201c;" horiz-adv-x="504" 
d="M312 651q-92 -42 -92 -108q0 -17 5.5 -30t11.5 -24.5t11.5 -22t5.5 -22.5q0 -24 -15 -39.5t-38 -15.5q-29 0 -46.5 22.5t-17.5 60.5q0 32 11.5 62t33 56t51.5 47t67 34zM531 651q-93 -43 -93 -108q0 -17 5.5 -30t12 -24.5t12 -22t5.5 -22.5q0 -24 -15 -39.5t-38 -15.5
q-29 0 -47 22.5t-18 60.5q0 32 12 62t33.5 56t51.5 47t67 34z" />
    <glyph glyph-name="quotedblright" unicode="&#x201d;" horiz-adv-x="504" 
d="M345 409q92 42 92 107q0 18 -5.5 31t-11.5 23.5t-11.5 21t-5.5 24.5q0 24 15 39.5t38 15.5q29 0 46.5 -23t17.5 -61q0 -31 -11.5 -61.5t-33 -56.5t-51.5 -46.5t-67 -33.5zM126 409q92 42 92 107q0 18 -5.5 31t-11.5 23.5t-11.5 21t-5.5 24.5q0 24 15 39.5t38 15.5
q29 0 46.5 -23t17.5 -61q0 -31 -11.5 -61.5t-33 -56.5t-51.5 -46.5t-67 -33.5z" />
    <glyph glyph-name="quotedblbase" unicode="&#x201e;" horiz-adv-x="504" 
d="M257 -145q92 42 92 107q0 18 -5.5 31t-11.5 23.5t-11.5 21t-5.5 24.5q0 24 15 39.5t38 15.5q29 0 46.5 -23t17.5 -61q0 -31 -11.5 -61.5t-33 -56.5t-51.5 -46.5t-67 -33.5zM38 -145q92 42 92 107q0 18 -5.5 31t-11.5 23.5t-11.5 21t-5.5 24.5q0 24 15 39.5t38 15.5
q29 0 46.5 -23t17.5 -61q0 -31 -11.5 -61.5t-33 -56.5t-51.5 -46.5t-67 -33.5z" />
    <glyph glyph-name="dagger" unicode="&#x2020;" horiz-adv-x="469" 
d="M238 -186q-2 -20 -7.5 -25t-26.5 -5h-66q-17 0 -23 5.5t-4 12.5l147 540l-173 -27h-4q-19 0 -17 11l13 67q3 14 9 17t22 0l158 -30l8 218q1 24 5 28.5t26 4.5h67q11 0 14.5 -2.5t3.5 -8.5q0 -4 -1 -9.5t-4 -12.5l-79 -218l176 30q7 2 14.5 -0.5t7.5 -11.5q0 -3 -1 -9.5
t-2 -8.5l-10 -46q-4 -16 -8.5 -19.5t-10.5 -2.5l-174 30z" />
    <glyph glyph-name="daggerdbl" unicode="&#x2021;" horiz-adv-x="477" 
d="M277 378l-187 -31q-4 -1 -7 2.5t-3 7.5l13 69q2 11 8.5 13.5t20.5 0.5l162 -28l1 189q0 19 5.5 24.5t22.5 5.5h60q17 0 20.5 -4.5t-0.5 -15.5l-74 -199l165 28q21 4 27 -2.5t3 -20.5l-10 -49q-3 -16 -7.5 -20t-11.5 -2l-172 32l-10 -171l-59 -168l179 33q7 2 13 -1.5
t5 -8.5l-12 -62q-3 -16 -8 -20t-14 -2l-171 22v-190q0 -14 -5.5 -19t-22.5 -5h-67q-30 0 -20 23l79 191l-165 -20q-18 -2 -24.5 0.5t-4.5 11.5l12 63q3 21 18 17l172 -33l5 168z" />
    <glyph glyph-name="bullet" unicode="&#x2022;" horiz-adv-x="350" 
d="M227 409q25 0 47 -9.5t38 -25.5t25.5 -38t9.5 -47t-9.5 -47t-25.5 -38.5t-38 -26t-47 -9.5t-47 9.5t-38.5 26t-26 38.5t-9.5 47t9.5 47t26 38t38.5 25.5t47 9.5z" />
    <glyph glyph-name="ellipsis" unicode="&#x2026;" horiz-adv-x="865" 
d="M144 102q29 0 47.5 -16t18.5 -42t-18 -40.5t-48 -14.5q-31 0 -49 14.5t-18 40.5t19 42t48 16zM722 102q29 0 47.5 -16t18.5 -42t-18 -40.5t-48 -14.5q-31 0 -49 14.5t-18 40.5t19 42t48 16zM433 102q29 0 47.5 -16t18.5 -42q0 -25 -18 -40t-48 -15q-31 0 -49 14.5
t-18 40.5t19 42t48 16z" />
    <glyph glyph-name="perthousand" unicode="&#x2030;" horiz-adv-x="1027" 
d="M274 566q0 24 -8.5 37.5t-24.5 13.5q-11 0 -18 -4.5t-13 -10.5q-16 -16 -28.5 -46.5t-21.5 -64.5t-14 -67t-5 -53q0 -52 32 -52q18 0 32 14q10 10 22 37.5t22.5 61.5t17.5 70t7 64zM339 524q0 -35 -12 -75t-33.5 -73.5t-52.5 -55.5t-69 -22q-43 0 -69.5 32t-26.5 86
q0 28 11 66.5t32.5 73t52.5 58.5t71 24q43 0 69.5 -31.5t26.5 -82.5zM656 638h61l-574 -678h-61zM1045 217q0 -35 -12 -75t-33.5 -73.5t-52.5 -55.5t-69 -22q-43 0 -69.5 32t-26.5 86q0 28 11 66.5t32.5 73t52.5 58.5t71 24q43 0 69.5 -31.5t26.5 -82.5zM980 259
q0 24 -8.5 37.5t-24.5 13.5q-11 0 -18 -4.5t-13 -10.5q-16 -16 -28.5 -46.5t-21.5 -64.5t-14 -67t-5 -53q0 -52 32 -52q18 0 32 14q10 10 22 37.5t22.5 61.5t17.5 70t7 64zM747 217q0 -35 -12 -75t-33.5 -73.5t-52.5 -55.5t-69 -22q-43 0 -69.5 32t-26.5 86q0 28 11 66.5
t32.5 73t52.5 58.5t71 24q43 0 69.5 -31.5t26.5 -82.5zM682 259q0 24 -8.5 37.5t-24.5 13.5q-11 0 -18 -4.5t-13 -10.5q-16 -16 -28.5 -46.5t-21.5 -64.5t-14 -67t-5 -53q0 -52 32 -52q18 0 32 14q10 10 22 37.5t22.5 61.5t17.5 70t7 64z" />
    <glyph glyph-name="guilsinglleft" unicode="&#x2039;" horiz-adv-x="289" 
d="M37 221l202 181h37l-144 -181l63 -184h-37z" />
    <glyph glyph-name="guilsinglright" unicode="&#x203a;" horiz-adv-x="289" 
d="M303 218l-202 -181h-37l144 181l-63 184h37z" />
    <glyph glyph-name="fraction" unicode="&#x2044;" horiz-adv-x="171" 
d="M374 638h60l-569 -678h-65z" />
    <glyph glyph-name="trademark" unicode="&#x2122;" horiz-adv-x="1000" 
d="M436 671l11 -98h-17q-6 38 -26.5 53.5t-67.5 15.5h-35v-284q0 -20 1.5 -32t7 -18.5t15.5 -9.5t26 -4v-17h-183v17q17 2 26.5 4.5t15 9.5t7 18.5t1.5 31.5v284h-39q-45 0 -64.5 -15t-27.5 -54h-17l10 98h356zM754 391l129 280h136v-18q-18 0 -28.5 -2.5t-16 -9.5t-7 -20
t-1.5 -35v-228q0 -21 1.5 -33t7 -18.5t16 -9t28.5 -3.5v-17h-195v17q19 0 30.5 2.5t18 9.5t8.5 19.5t2 32.5v240h-2l-148 -321h-16l-149 317h-2v-236q0 -40 9 -52t38 -12h18v-17h-151v17q18 0 29 2.5t17 9t8 19t2 33.5v228q0 23 -2 36t-8 20t-17 9t-29 2v18h141z" />
    <glyph glyph-name="minus" unicode="&#x2212;" horiz-adv-x="667" 
d="M601 315v-67h-463v67h463z" />
    <glyph glyph-name="fi" unicode="&#xfb01;" horiz-adv-x="504" 
d="M366 402q35 0 56 1.5t44 5.5l-54 -338q-3 -20 -1.5 -27t7.5 -7t26 16t44 40l16 -16q-44 -43 -78.5 -65.5t-56.5 -22.5t-35 17t-6 58l47 297h-160l-35 -230q-17 -112 -45.5 -183t-66.5 -109q-36 -36 -78.5 -53.5t-88.5 -17.5q-35 0 -56 14t-21 38q0 17 12 28t31 11
q15 0 26 -8t21.5 -17t22.5 -17t29 -8q19 0 35.5 10.5t31 35t26.5 64.5t21 100l52 342h-68l5 25q20 3 39.5 7t32.5 9q30 130 97 199.5t155 69.5q42 0 69 -17t27 -43q0 -17 -12 -29t-30 -12q-19 0 -30 10t-20.5 21.5t-20.5 21.5t-31 10q-48 0 -76.5 -56.5t-44.5 -174.5h142z
" />
    <glyph glyph-name="fl" unicode="&#xfb02;" horiz-adv-x="504" 
d="M474 671h34l-94 -594q-4 -24 -3 -31.5t6 -7.5q7 0 27 15.5t44 39.5l17 -16q-42 -42 -77 -65t-56 -23q-29 0 -39 17t-4 56l47 299h-161l-39 -261q-5 -35 -15 -73t-24 -73.5t-31 -65.5t-37 -49q-11 -11 -26.5 -23.5t-37 -23t-47.5 -17.5t-58 -7q-35 0 -55.5 14t-20.5 38
q0 17 12.5 28t30.5 11q15 0 26.5 -8t22.5 -17.5t22.5 -17.5t27.5 -8q15 0 31.5 9t31.5 32t28.5 63t22.5 102l52 347h-69l5 25q24 4 41 7.5t31 8.5q16 75 44 126.5t62.5 83t72.5 45.5t75 14q17 0 30 -2.5t27 -7.5zM382 402l30 185q-19 25 -34.5 35.5t-33.5 10.5
q-46 0 -76.5 -58t-44.5 -173h159z" />
  </font>
</defs>
</svg>
