<?xml version="1.0" standalone="no"?>
<!DOCTYPE svg PUBLIC "-//W3C//DTD SVG 1.1//EN" "http://www.w3.org/Graphics/SVG/1.1/DTD/svg11.dtd" >
<svg xmlns="http://www.w3.org/2000/svg" xmlns:xlink="http://www.w3.org/1999/xlink" version="1.1">
<metadata>
Created by FontForge 20170731 at Sat Nov  5 01:34:20 2005
 By Aleksey,,,
Version 1.2/ created on 23-12-97/  1997 by Dutch Type Library/ URW# D027C33T
</metadata>
<defs>
<font id="DTLDorianST-Italic" horiz-adv-x="500" >
  <font-face 
    font-family="DTLDorianST"
    font-weight="400"
    font-style="italic"
    font-stretch="normal"
    units-per-em="1000"
    panose-1="2 0 5 3 6 0 0 9 0 3"
    ascent="800"
    descent="-200"
    x-height="452"
    cap-height="665"
    bbox="-306 -345 1027 917"
    underline-thickness="20"
    underline-position="-173"
    slope="-12"
    unicode-range="U+0020-FB02"
  />
<missing-glyph 
 />
    <glyph glyph-name=".notdef" 
 />
    <glyph glyph-name=".null" horiz-adv-x="0" 
 />
    <glyph glyph-name="nonmarkingreturn" horiz-adv-x="333" 
 />
    <glyph glyph-name="space" unicode=" " horiz-adv-x="200" 
 />
    <glyph glyph-name="exclam" unicode="!" horiz-adv-x="244" 
d="M219 673q-22 -79 -49 -234l-32 -236q-4 0 -9.5 1.5t-15 9.5t-9.5 21q-4 46 -4 131q0 103 7 189q5 66 14.5 83.5t40.5 24.5zM165 54q0 -28 -15.5 -45.5t-44.5 -17.5q-23 0 -37 14t-14 36q0 31 16 49.5t42 18.5q24 0 38.5 -15.5t14.5 -39.5z" />
    <glyph glyph-name="quotedbl" unicode="&#x22;" horiz-adv-x="364" 
d="M343 669l-39 -254q-13 -2 -26 -2l-25 2l8 254q24 4 43 4zM179 669l-39 -254q-13 -2 -26 -2l-25 2l8 254q24 4 43 4z" />
    <glyph glyph-name="numbersign" unicode="#" horiz-adv-x="625" 
d="M634 455q0 -8 -3.5 -19t-6.5 -18l-4 -8h-139l-39 -154h139v-12q0 -11 -3.5 -22t-6.5 -16l-3 -6h-139l-51 -201q-14 -4 -26 -4l-28 4l49 201h-142l-51 -201q-8 -4 -25 -4l-28 4l49 201h-153l2 16q1 8 4 18t6 16l3 6h151l39 154h-151l1 16q0 7 3.5 17t6.5 17l3 6h150
l50 201q19 4 28 4l25 -4l-48 -201h142l51 201q19 4 27 4l25 -4l-48 -201h141v-11zM426 410h-142l-40 -154h142z" />
    <glyph glyph-name="dollar" unicode="$" horiz-adv-x="570" 
d="M522 596q0 -40 -21 -89q-16 -4 -44 -4q5 22 5 42q0 34 -23 54.5t-43 25t-38 4.5h-6q-16 -173 -22 -246l-2 -16q81 -44 92 -52q73 -52 73 -121v-1q0 -34 -11 -63.5t-28 -48.5t-37.5 -35t-41.5 -24.5t-38 -14.5t-28 -8l-11 -2l-5 -80q-12 -2 -23 -2l-20 2l7 75h-14
q-52 0 -94 9.5t-58 21.5q-22 15 -22 49q0 17 5.5 42.5t11.5 42.5l5 17q21 12 43 19q-7 -40 -7 -60q0 -100 130 -100l4 1l23 252q-19 11 -30 17q-74 45 -102.5 85.5t-28.5 88.5q0 49 19.5 86.5t47.5 56t55.5 30.5t46.5 14l20 3l6 77q7 2 22 2l23 -2l-7 -75h22q92 0 123 -24
q21 -15 21 -49zM310 628q-4 -1 -11 -2.5t-24.5 -10t-31 -20.5t-24.5 -35.5t-11 -53.5q0 -63 84 -116zM405 155q0 30 -18 53.5t-66 54.5l-20 -224q4 1 11 3t25 11.5t32 21t25 33t11 47.5z" />
    <glyph glyph-name="ampersand" unicode="&#x26;" horiz-adv-x="722" 
d="M724 453q0 -64 -65.5 -117t-207.5 -86q73 -27 73 -103q0 -68 -70.5 -111t-179.5 -43q-105 0 -168.5 48t-63.5 138q0 73 49.5 124t134.5 67q-93 38 -93 131q0 75 52 121.5t160 46.5q7 0 32.5 -0.5t31.5 -0.5l45 5q-5 -51 -8 -83l-7 -73h-38q0 53 -17 81t-66 28
q-51 0 -82 -35.5t-31 -92.5q0 -51 28 -79.5t79 -28.5l25 2q2 -7 2 -11q0 -41 -38 -43q-79 -5 -128 -47t-49 -106q0 -69 44.5 -108.5t111.5 -39.5q83 0 130 31t47 85q0 38 -21 60t-49 22q-67 0 -105 -59q-6 -10 -9.5 -23t-4.5 -21v-7h-23q-9 9 -9 38q0 34 26 66t68 48
q2 1 144 49q95 33 150 76.5t55 87.5q0 9 -2.5 17t-4.5 11l-2 4q54 -23 54 -69z" />
    <glyph glyph-name="quotesingle" unicode="'" horiz-adv-x="200" 
d="M179 669l-39 -254q-13 -2 -26 -2l-25 2l8 254q24 4 43 4z" />
    <glyph glyph-name="parenleft" unicode="(" horiz-adv-x="300" 
d="M311 734q-76 -87 -120.5 -227.5t-44.5 -277.5q0 -189 64 -286q-13 -12 -25 -12q-7 0 -20 12t-28.5 38t-29.5 60.5t-23 85t-9 106.5q0 116 39 234t104 208q45 63 67 63q10 0 26 -4z" />
    <glyph glyph-name="parenright" unicode=")" horiz-adv-x="300" 
d="M249 435q0 -116 -39 -234t-104 -208q-45 -63 -67 -63q-10 0 -26 4q76 87 120.5 227.5t44.5 277.5q0 189 -64 286q13 12 25 12q7 0 20 -12t28.5 -38t29.5 -60.5t23 -85t9 -106.5z" />
    <glyph glyph-name="asterisk" unicode="*" horiz-adv-x="336" 
d="M345 534q-65 -11 -128 -35q6 -1 23 -5t26.5 -6.5t23 -7t23 -9t15.5 -9.5q5 -4 5 -9q0 -8 -11.5 -26t-23.5 -33l-11 -14q-42 57 -83 100q21 -84 21 -118q0 -15 -5.5 -19t-23.5 -4q-9 0 -22.5 2.5t-21.5 4.5l-9 2q33 89 43 131q-89 -93 -102 -93q-10 0 -17 21l-16 54
q89 23 130 37q-101 25 -119 36q-6 4 -6 9q0 4 12 25l35 49l87 -100q-21 78 -21 120q0 13 6.5 16.5t22.5 3.5l54 -7q-32 -97 -44 -134q88 92 104 92q7 0 15 -22z" />
    <glyph glyph-name="plus" unicode="+" horiz-adv-x="549" 
d="M502 234l-2 -34q-125 1 -193 1l1 -201q-21 -2 -35 -2l-36 2q2 139 2 201l-189 -1q-2 21 -2 35l2 30q123 -1 189 -1l-2 192q22 2 36 2l35 -2q-1 -128 -1 -192l193 1q2 -19 2 -31z" />
    <glyph glyph-name="comma" unicode="," horiz-adv-x="250" 
d="M195 36q0 -71 -46 -127.5t-76 -56.5q-8 0 -18.5 5t-16.5 9l-7 5q39 10 67 40.5t28 64.5q0 9 -2 15.5t-4 8.5l-1 3q-7 -11 -27 -11q-47 0 -47 60q0 28 21.5 48.5t55.5 20.5q36 0 54.5 -23.5t18.5 -61.5z" />
    <glyph glyph-name="hyphen" unicode="-" horiz-adv-x="335" 
d="M301 277q0 -12 -2 -24t-4 -19l-2 -6q-57 1 -123 1l-126 -1q-2 7 -2 21q0 10 2 23t4 21l2 8q64 -1 126 -1l123 1q2 -11 2 -24z" />
    <glyph glyph-name="period" unicode="." horiz-adv-x="230" 
d="M171 61q0 -30 -19 -49t-50 -19q-27 0 -42.5 16.5t-15.5 43.5q0 30 19 48.5t46 18.5t44.5 -15.5t17.5 -43.5z" />
    <glyph glyph-name="slash" unicode="/" horiz-adv-x="404" 
d="M417 668q-64 -134 -173 -352l-163 -316q-9 -4 -30 -4l-23 4q113 205 206 391q43 85 75 153t43 95t10 27q11 4 39 4z" />
    <glyph glyph-name="zero" unicode="0" horiz-adv-x="514" 
d="M473 255q0 -119 -68 -191.5t-171 -72.5q-87 0 -137 52t-50 147q0 115 69.5 191.5t168.5 76.5q87 0 137.5 -55t50.5 -148zM391 258q0 158 -112 158q-66 0 -109 -68.5t-43 -161.5q0 -152 113 -152q68 0 109.5 58.5t41.5 165.5z" />
    <glyph glyph-name="one" unicode="1" horiz-adv-x="286" 
d="M239 30l-4 -30q-29 2 -100 2l-127 -2l4 30q50 0 65 18q17 21 41 222q7 60 7 84q0 25 -11.5 34.5t-46.5 9.5l-22 -1l4 25q28 15 92 27l82 9q-5 -15 -10 -44q-11 -68 -26 -184t-15 -138q0 -18 4 -30t19.5 -22t43.5 -10z" />
    <glyph glyph-name="two" unicode="2" horiz-adv-x="410" 
d="M363 87l-11 -87q-102 2 -188 2l-156 -2q-4 8 -4 23l4 21q97 76 150 120q72 59 95.5 99t23.5 78q0 35 -19.5 56.5t-55.5 21.5q-44 0 -62.5 -19.5t-18.5 -45.5l2 -19q-19 -6 -45 -6q-34 0 -34 30q0 39 44 68.5t129 29.5q74 0 110 -32.5t36 -80.5q0 -50 -28 -87t-78 -76
l-161 -111q74 3 136 6q115 6 131 11z" />
    <glyph glyph-name="three" unicode="3" horiz-adv-x="385" 
d="M342 328q0 -66 -46 -111.5t-124 -68.5q63 0 108.5 -41t45.5 -104q0 -97 -73 -156.5t-175 -59.5q-67 0 -93.5 13t-26.5 40l1 12q43 -18 102 -18q86 0 129.5 45.5t43.5 110.5q0 62 -37.5 92.5t-88.5 30.5l-30 -2q-2 11 -2 20q0 19 17 25q81 30 124 66t43 101q0 44 -22 69
t-62 25q-39 0 -64 -17t-25 -49l2 -20q-17 -5 -43 -5q-30 0 -30 34q0 44 43.5 70.5t124.5 26.5q75 0 116.5 -33t41.5 -96z" />
    <glyph glyph-name="four" unicode="4" horiz-adv-x="538" 
d="M518 72q-5 -22 -9 -35q-8 -23 -13.5 -27.5t-19.5 -4.5l-105 1l-22 -206h-84l28 207l-263 -1q-7 4 -17 19q-4 6 -7 12t-4 9l-1 3q59 76 129 158q154 181 200 234q23 26 99 26q-12 -78 -29 -214l-23 -186q45 0 86 1zM339 383l-265 -316h226z" />
    <glyph glyph-name="five" unicode="5" horiz-adv-x="400" 
d="M399 456q-4 -25 -15 -46q-12 -23 -37 -29t-114 -6l-90 7l-31 -186q16 2 46 2q85 0 136 -49.5t51 -123.5q0 -106 -77.5 -171t-189.5 -65q-59 0 -80 12t-21 38l2 10q29 -13 62 -13q89 0 150.5 47t61.5 130q0 68 -44.5 104t-116.5 36l-29 -2q11 52 20 131l16 170
q93 -3 148 -3q33 0 71 1.5t60 3.5z" />
    <glyph glyph-name="six" unicode="6" horiz-adv-x="478" 
d="M531 606l-4 -21q-30 20 -90 20q-132 0 -217.5 -103.5t-85.5 -268.5q0 -99 32 -148t86 -49q43 0 74 36.5t31 92.5q0 71 -32.5 110t-82.5 39q-23 0 -41 -5t-25 -9l-6 -5l2.5 7.5t10 16.5t20 21.5t34.5 17t51 7.5q65 0 108 -45.5t43 -118.5q0 -93 -54 -149.5t-139 -56.5
q-88 0 -141 60.5t-53 170.5q0 193 115 313t280 120q84 0 84 -53z" />
    <glyph glyph-name="seven" unicode="7" horiz-adv-x="406" 
d="M424 453q-30 -49 -68 -115q-106 -182 -202 -343q-101 -171 -134 -202q-17 -15 -61 -15l-36 1q51 54 137 173q93 129 179 270l93 152q-79 -3 -167 -3q-63 0 -80.5 1.5t-24.5 8.5q-6 5 -11 24t-7 35l-3 17q55 -7 196 -7z" />
    <glyph glyph-name="eight" unicode="8" horiz-adv-x="474" 
d="M447 534q0 -58 -32.5 -100t-105.5 -76q31 -16 50 -28.5t39.5 -33.5t30 -48.5t9.5 -64.5q0 -79 -64.5 -134.5t-159.5 -55.5q-79 0 -129.5 39t-50.5 109q0 68 39 112t111 79q-57 36 -77 58q-39 44 -39 107q0 75 57.5 125.5t150.5 50.5q74 0 122.5 -38t48.5 -101zM372 524
q0 51 -28.5 80t-80.5 29q-60 0 -90 -33.5t-30 -79.5q0 -49 22 -74.5t66 -49.5l39 -18q4 2 11 5t24.5 15.5t31 28t24.5 41.5t11 56zM350 161q0 83 -83 127l-45 24q-5 -2 -12.5 -6t-27 -18t-34.5 -31.5t-27 -46.5t-12 -62q0 -59 30 -87t81 -28q59 0 94.5 39t35.5 89z" />
    <glyph glyph-name="nine" unicode="9" horiz-adv-x="478" 
d="M435 225q0 -96 -32.5 -178t-87 -138t-126.5 -87.5t-152 -31.5q-84 0 -84 53l4 21q30 -20 90 -20q132 0 217.5 103.5t85.5 268.5q0 99 -32 148t-86 49q-44 0 -75.5 -35t-31.5 -94q0 -71 33 -110t84 -39q23 0 41 4.5t25 9.5l6 5l-2.5 -7.5t-9.5 -16.5t-20 -21.5t-34.5 -17
t-50.5 -7.5q-66 0 -107 46t-41 118q0 96 56 151t134 55q89 0 142.5 -59.5t53.5 -169.5z" />
    <glyph glyph-name="colon" unicode=":" horiz-adv-x="260" 
d="M207 397q0 -30 -19 -49t-50 -19q-27 0 -42.5 16.5t-15.5 43.5q0 30 19 48.5t46 18.5t44.5 -15.5t17.5 -43.5zM182 61q0 -30 -19 -49t-50 -19q-27 0 -42.5 16.5t-15.5 43.5q0 30 19 48.5t46 18.5t44.5 -15.5t17.5 -43.5z" />
    <glyph glyph-name="semicolon" unicode=";" horiz-adv-x="260" 
d="M211 397q0 -30 -19 -49t-50 -19q-27 0 -42.5 16.5t-15.5 43.5q0 30 19 48.5t46 18.5t44.5 -15.5t17.5 -43.5zM205 36q0 -71 -46 -127.5t-76 -56.5q-8 0 -18.5 5t-16.5 9l-7 5q39 10 67 40.5t28 64.5q0 9 -2 15.5t-4 8.5l-1 3q-7 -11 -27 -11q-47 0 -47 60q0 28 21.5 48.5
t55.5 20.5q36 0 54.5 -23.5t18.5 -61.5z" />
    <glyph glyph-name="less" unicode="&#x3c;" horiz-adv-x="549" 
d="M497 400l-374 -165l373 -171q0 -36 -28 -66l-410 203q-5 9 -5 32q0 8 1.5 15.5t3.5 10.5l1 3q339 157 411 201q10 -11 18.5 -30.5t8.5 -32.5z" />
    <glyph glyph-name="equal" unicode="=" horiz-adv-x="549" 
d="M503 300l-3 -35q-141 1 -211 1l-239 -1q-3 15 -3 32l3 33q173 -1 239 -1l211 1q3 -15 3 -30zM503 170l-3 -35q-141 1 -211 1l-239 -1q-3 15 -3 32l3 33q173 -1 239 -1l211 1q3 -15 3 -30z" />
    <glyph glyph-name="greater" unicode="&#x3e;" horiz-adv-x="549" 
d="M496 229q0 -8 -1.5 -15.5t-2.5 -10.5l-2 -3q-339 -157 -411 -201q-10 11 -18.5 30.5t-8.5 32.5l374 165l-373 171q0 36 28 66l410 -203q5 -9 5 -32z" />
    <glyph glyph-name="question" unicode="?" horiz-adv-x="340" 
d="M366 561q0 -42 -25 -75.5t-89 -91.5q-81 -74 -81 -121q0 -18 10 -25.5t33 -7.5l17 2q-14 -38 -67 -38q-69 0 -69 65q0 26 28.5 63t63 69.5t63 77t28.5 83.5q0 32 -22 49t-58 17q-38 0 -58.5 -17.5t-20.5 -50.5q0 -7 1.5 -13.5t3.5 -8.5l2 -3q-16 -12 -37 -12
q-43 0 -43 41q0 47 45 76t123 29q74 0 113 -29.5t39 -78.5zM195 54q0 -28 -15.5 -45.5t-44.5 -17.5q-23 0 -37 14t-14 36q0 31 16 49.5t42 18.5q24 0 38.5 -15.5t14.5 -39.5z" />
    <glyph glyph-name="at" unicode="@" horiz-adv-x="732" 
d="M711 440q0 -68 -28 -125t-70 -90.5t-86.5 -51.5t-81.5 -18q-30 0 -30 34q0 43 22 153l-5 2q-10 -42 -44 -102q-50 -85 -103 -85q-24 0 -39 25t-15 71q0 103 51 176q51 70 137 70q11 0 28.5 -1.5t30.5 -1.5l34 6q-18 -104 -26 -214q-3 -31 -3 -56q0 -27 18 -27q47 0 90 68
t43 139q0 101 -53.5 157t-151.5 56q-127 0 -210 -90.5t-83 -240.5q0 -50 14.5 -93t44.5 -79t83.5 -57t125.5 -21q164 0 254 108q6 -15 6 -29q0 -12 -3 -17q-34 -51 -99.5 -84.5t-162.5 -33.5q-157 0 -250.5 84t-93.5 235q0 65 24 128.5t68.5 116.5t117 85.5t161.5 32.5
q120 0 202.5 -61.5t82.5 -168.5zM435 468q-10 4 -27 4q-48 0 -77 -50q-35 -58 -35 -140q0 -70 25 -70q24 0 53 53q22 37 38.5 95.5t22.5 107.5z" />
    <glyph glyph-name="A" unicode="A" horiz-adv-x="680" 
d="M678 30l-2 -30q-94 1 -118 1l-135 -1l3 30q79 0 79 50q0 19 -11.5 61.5t-23.5 76.5l-12 33h-233q-15 -37 -32 -77q-34 -83 -34 -104q0 -40 72 -40l-3 -30q-82 1 -130 1l-92 -1l3 30q24 0 43 13.5t46 56.5q14 23 81.5 166.5t128.5 275.5l60 132q14 3 24 3l27 -3
q71 -236 117 -381q48 -155 76 -212q11 -22 27.5 -34.5t27.5 -14.5zM442 297l-75 259l-121 -259h196z" />
    <glyph glyph-name="B" unicode="B" horiz-adv-x="541" 
d="M494 537q0 -44 -17 -79.5t-41 -55t-47.5 -32.5t-40.5 -17l-17 -4q7 0 17.5 -1.5t38 -11t48.5 -24t38.5 -45t17.5 -71.5q0 -96 -68.5 -147t-174.5 -51q-23 0 -60 2t-61 2l-121 -2l2 30q43 0 62 20q14 14 22 67.5t21 207.5q16 210 16 238q0 42 -16 55.5t-56 16.5l2 30
q72 -2 121 -2q25 0 77 1.5t66 1.5q90 0 132 -36q39 -34 39 -93zM401 523q0 101 -120 101l-61 -2l-22 -258q17 -3 49 -3q76 0 115 44.5t39 117.5zM395 191q0 67 -41 100.5t-113 33.5l-46 -1q-15 -201 -15 -234q0 -26 14 -38t47 -12q154 0 154 151z" />
    <glyph glyph-name="C" unicode="C" horiz-adv-x="666" 
d="M631 669q-8 -55 -10 -78l-8 -101h-35q0 29 -4 48.5t-18 42t-46 34t-82 11.5q-122 0 -196 -82.5t-74 -228.5q0 -143 60 -210t149 -67q166 0 216 131l31 -11q-15 -91 -39 -123q-15 -19 -76 -33t-136 -14q-61 0 -113 16t-96.5 51t-69.5 99t-25 152q0 74 22 136t58.5 103.5
t85.5 70.5t102 42t108 13q43 0 96 -2t59 -2z" />
    <glyph glyph-name="D" unicode="D" horiz-adv-x="703" 
d="M660 403q0 -171 -101.5 -288t-284.5 -117q-24 0 -74.5 2.5t-72.5 2.5l-121 -3l2 30q43 0 62 20q14 14 22 67.5t21 207.5q16 210 16 238q0 42 -16 55.5t-56 16.5l2 30q72 -3 121 -3q20 0 82 3t99 3q147 0 223 -62.5t76 -202.5zM557 392q0 118 -58.5 174t-183.5 56l-92 -3
q-18 -166 -28 -290q-14 -163 -14 -215q0 -38 17 -55.5t61 -17.5q151 0 224.5 95.5t73.5 255.5z" />
    <glyph glyph-name="E" unicode="E" horiz-adv-x="498" 
d="M471 668q-4 -29 -5 -55l-4 -87h-30q-4 61 -30.5 78.5t-113.5 17.5l-70 -1l-21 -260q47 -2 61 -2q73 0 98.5 12t34.5 58h28q-5 -41 -10 -93l-6 -92h-30v5q0 16 -3 26q-8 29 -33.5 37t-93.5 8l-49 -1q-14 -186 -14 -221q0 -28 14.5 -40t49.5 -12q96 0 126 17t51 90l3 10
l34 -12q1 -8 1 -22q0 -38 -14 -85.5t-35 -47.5q-2 0 -64 2t-130.5 4t-88.5 2l-121 -4l2 30q43 0 62 20q14 14 22 67.5t21 207.5q16 210 16 238q0 42 -16 55.5t-56 16.5l2 30q72 -3 121 -3q87 0 159.5 1.5t102.5 2.5z" />
    <glyph glyph-name="F" unicode="F" horiz-adv-x="470" 
d="M471 668q-5 -29 -6 -55q-3 -69 -3 -87h-30q-4 61 -30.5 78.5t-113.5 17.5l-70 -1l-22 -272q47 -2 61 -2q73 0 98.5 12t33.5 58h28q-4 -41 -9 -93l-6 -92h-30v5q0 23 -4 33q-9 23 -36 30.5t-90 7.5l-49 -1q-12 -141 -12 -193t13 -65.5t60 -18.5l-2 -30q-83 4 -125 4
l-121 -4l2 30q43 0 62 20q14 14 22 67.5t21 207.5q16 210 16 238q0 42 -16 55.5t-56 16.5l2 30q72 -3 121 -3z" />
    <glyph glyph-name="G" unicode="G" horiz-adv-x="710" 
d="M654 670q-17 -90 -24 -177h-35q0 69 -34 101.5t-120 32.5q-131 0 -206 -90.5t-75 -227.5q0 -125 53 -199t165 -74q47 0 84.5 5.5t51.5 10.5l14 6q9 82 9 135q0 25 -7 37t-23 17q-10 3 -26 5t-27 2h-11l2 37q74 -2 117 -2l68 1q-1 -12 -4 -42q-1 -8 -11 -177
q-1 -27 -2.5 -33.5t-9.5 -11.5q-24 -16 -92.5 -27t-149.5 -11q-153 0 -227.5 86t-74.5 237q0 153 108 257t282 104q45 0 109.5 -2t71.5 -2z" />
    <glyph glyph-name="H" unicode="H" horiz-adv-x="714" 
d="M728 665l-2 -30q-41 -5 -55 -16.5t-23 -55.5q-11 -53 -26 -234q-14 -163 -14 -215t13 -65.5t60 -18.5l-2 -30q-83 4 -125 4l-121 -4l2 30q43 0 62 20q14 14 22 67t21 205q-151 2 -186 2l-160 -2q-13 -165 -13 -208q0 -52 13 -65.5t60 -18.5l-2 -30q-83 4 -125 4l-121 -4
l2 30q43 0 62 20q14 14 22 67.5t21 207.5q16 210 16 238q0 42 -16 55.5t-56 16.5l2 30q72 -3 121 -3l121 3l-2 -30q-41 -5 -55 -16.5t-23 -55.5q-10 -49 -22 -191q113 -2 163 -2l182 4q12 170 12 189q0 42 -16 55.5t-56 16.5l2 30q72 -3 121 -3z" />
    <glyph glyph-name="I" unicode="I" horiz-adv-x="287" 
d="M301 665l-2 -30q-41 -5 -55 -16.5t-23 -55.5q-11 -53 -26 -234q-14 -163 -14 -215t13 -65.5t60 -18.5l-2 -30q-83 4 -125 4l-121 -4l2 30q43 0 62 20q14 14 22 67.5t21 207.5q16 210 16 238q0 42 -16 55.5t-56 16.5l2 30q72 -3 121 -3z" />
    <glyph glyph-name="J" unicode="J" horiz-adv-x="284" 
d="M302 665l-2 -30q-41 -5 -55 -16.5t-23 -55.5q-12 -56 -26 -234q-1 -18 -5 -65t-7.5 -90.5t-3.5 -46.5q-14 -155 -93 -228q-36 -34 -71 -52t-58 -18q-7 0 -17 5.5t-16 10.5l-6 5q51 21 96 64q41 41 62 122q21 83 37 289q16 220 16 238q0 42 -17 55.5t-60 16.5l2 30
q77 -3 126 -3z" />
    <glyph glyph-name="K" unicode="K" horiz-adv-x="620" 
d="M301 665l-2 -30q-40 -4 -54.5 -16t-23.5 -56q-11 -53 -26 -234q-14 -163 -14 -215t13 -65.5t60 -18.5l-2 -30q-83 4 -125 4l-121 -4l2 30q43 0 62 20q14 14 22 67.5t21 207.5q16 210 16 238q0 42 -16 55.5t-56 16.5l2 30q72 -3 121 -3zM635 665l-2 -30q-56 0 -111 -44
q-42 -32 -114 -109l-107 -115q19 -30 49 -75t96 -130t101 -105q41 -24 70 -24h3v-1q0 -1 -1 -3.5t-3 -5t-5.5 -6t-8 -6.5t-12 -6t-16.5 -5t-22 -3.5t-28 -1.5q-43 0 -62.5 7.5t-33.5 24.5q-33 41 -101 148q-68 108 -85 131q-10 12 -18.5 19t-12.5 7l-4 1l1 13q26 5 56 38
q79 88 126 143q51 59 51 83q0 25 -51 25h-7l2 30q71 -3 121 -3z" />
    <glyph glyph-name="L" unicode="L" horiz-adv-x="484" 
d="M453 129q0 -38 -14 -85.5t-35 -47.5q-22 0 -139.5 3.5t-137.5 3.5l-121 -3l2 30q44 1 62 20q14 14 22 67.5t21 207.5q16 210 16 238q0 42 -16 55.5t-56 16.5l2 30q72 -3 121 -3l131 3l-2 -30q-47 -2 -62.5 -14.5t-25.5 -57.5q-11 -53 -26 -234q-15 -175 -15 -240
q0 -25 11 -34t47 -9q96 0 126 17t51 90l3 10l34 -12q1 -8 1 -22z" />
    <glyph glyph-name="M" unicode="M" horiz-adv-x="854" 
d="M855 665l-2 -30q-45 0 -63 -17.5t-21 -61.5q-5 -75 -13.5 -238.5t-8.5 -202.5q0 -56 11.5 -70.5t48.5 -14.5l-2 -30q-92 2 -114 2l-120 -2l2 30h3q58 0 72 35q16 40 23 171l16 315q-94 -190 -223 -452q-36 -73 -44.5 -87.5t-19.5 -16.5l-33 -5q-15 56 -35 128
q-17 64 -47.5 169t-52.5 177l-22 73q-48 -406 -48 -459q0 -48 63 -48l-2 -30q-71 1 -112 1l-103 -1l2 30q30 0 49.5 8.5t32.5 36.5q17 38 47 259q24 186 24 234q0 38 -17.5 50t-64.5 17l2 30q50 -1 72 -1l110 3q59 -220 109 -387l47 -165q173 347 255 517q17 34 28 34
q2 0 32.5 -1t45.5 -1z" />
    <glyph glyph-name="N" unicode="N" horiz-adv-x="759" 
d="M805 665l-2 -30q-53 -3 -80 -29q-23 -23 -36 -118.5t-32 -337.5l-9 -161q-19 -2 -32 -2q-15 0 -25 15q-3 4 -41.5 59.5t-96 138.5t-98.5 140l-154 208l-25 -293q-8 -101 -8 -132q0 -54 22 -73.5t71 -19.5l-2 -30q-82 1 -134 1l-127 -1l2 30q30 0 50.5 7.5t32 18
t19.5 36.5t11.5 46.5t8.5 64.5q26 239 26 314q0 118 -89 118l2 30q57 -1 97 -1l75 3q154 -219 200 -284q32 -45 76.5 -104.5t72.5 -96.5l29 -38q26 321 26 376q0 59 -22 86q-10 12 -28 19.5t-31 8.5l-13 1l2 30q92 -3 132 -3z" />
    <glyph glyph-name="O" unicode="O" horiz-adv-x="744" 
d="M702 374q0 -174 -93 -281.5t-251 -107.5q-133 0 -216 78.5t-83 242.5q0 163 101.5 268t247.5 105q128 0 211 -77.5t83 -227.5zM600 377q0 113 -51.5 183t-149.5 70q-82 0 -137.5 -48.5t-79 -121t-23.5 -163.5q0 -124 52.5 -193.5t156.5 -69.5q66 0 114 31t72.5 83.5
t35 108.5t10.5 120z" />
    <glyph glyph-name="P" unicode="P" horiz-adv-x="493" 
d="M493 516q0 -97 -62 -157.5t-160 -60.5q-20 0 -34 2t-18 4l-4 3q-4 6 -6 15t-3 15v6q23 -9 54 -9q66 0 104 43.5t38 113.5q0 134 -113 134l-71 -3q-5 -62 -23 -293q-14 -163 -14 -215t13 -65.5t60 -18.5l-2 -30q-83 4 -125 4l-121 -4l2 30q43 0 62 20q14 14 22 67.5
t21 207.5q16 210 16 238q0 42 -16 55.5t-56 16.5l2 30q76 -1 121 -1q14 0 55.5 1.5t88.5 1.5q79 0 124 -42t45 -109z" />
    <glyph glyph-name="Q" unicode="Q" horiz-adv-x="744" 
d="M716 -112q0 -11 -14 -28.5t-47 -34.5t-74 -17q-57 0 -95.5 19.5t-84.5 70.5q-15 16 -48 51.5t-35 37.5q-117 11 -188 89.5t-71 229.5q0 163 101.5 268t247.5 105q128 0 211 -77.5t83 -227.5q0 -161 -79.5 -265.5t-219.5 -120.5q6 -4 32 -24t36 -27.5t34 -22.5t39.5 -21.5
t36.5 -12.5t40 -6q32 0 54.5 7t29.5 14l7 7q4 -7 4 -14zM600 377q0 113 -51.5 183t-149.5 70q-82 0 -137.5 -48.5t-79 -121t-23.5 -163.5q0 -124 52.5 -193.5t156.5 -69.5q66 0 114 31t72.5 83.5t35 108.5t10.5 120z" />
    <glyph glyph-name="R" unicode="R" horiz-adv-x="605" 
d="M607 32q-7 -17 -12 -21q-18 -15 -95 -15q-56 0 -78 33q-5 8 -58 103t-76 133q-12 19 -22.5 25t-36.5 6h-37q-11 -137 -11 -182q0 -52 13 -65.5t60 -18.5l-2 -30q-83 4 -125 4l-121 -4l2 30q43 0 62 20q14 14 22 67.5t21 207.5q16 210 16 238q0 42 -16 55.5t-56 16.5l2 30
q72 -2 121 -2q30 0 77 1.5t70 1.5q91 0 134 -41t43 -106q0 -51 -18 -92t-44.5 -63.5t-46 -34t-32.5 -14.5q12 -23 31 -57.5t64.5 -104t74.5 -93.5q33 -28 71 -28h3zM414 504q0 119 -133 119l-62 -2l-24 -285q29 -7 63 -7q67 0 111.5 43.5t44.5 131.5z" />
    <glyph glyph-name="S" unicode="S" horiz-adv-x="525" 
d="M474 666q-9 -44 -12 -84l-5 -63h-35q0 108 -118 108q-126 0 -126 -109q0 -49 25.5 -79t92.5 -67q91 -50 127 -93t36 -108q0 -86 -71 -134.5t-168 -48.5q-178 0 -178 87q0 28 5.5 52t10.5 35l6 10q18 16 46 19q-6 -31 -6 -64q0 -92 124 -92q64 0 100 32.5t36 78.5
q0 49 -29.5 79.5t-115.5 80.5q-78 46 -104.5 90t-26.5 96q0 49 21.5 85.5t57 55.5t71.5 27.5t73 8.5q39 0 76.5 -2.5t44.5 -2.5z" />
    <glyph glyph-name="T" unicode="T" horiz-adv-x="634" 
d="M640 675q-3 -53 -4 -82q-2 -63 -4 -74h-36q0 4 0.5 11.5t0.5 10.5q0 60 -34 71q-13 4 -57 7t-82 3l-37 1q-15 -170 -25 -294q-14 -163 -14 -215t13 -65.5t60 -18.5l-2 -30q-83 4 -125 4l-121 -4l2 30q43 0 62 20q14 14 22 67.5t21 207.5l22 298h-46q-70 0 -102 -5
t-47 -20q-9 -9 -15 -29t-8 -35l-2 -15h-36q2 8 12 95l6 61q22 -5 55 -6q118 -4 233 -4q165 0 231 3z" />
    <glyph glyph-name="U" unicode="U" horiz-adv-x="690" 
d="M724 665l-2 -30q-38 0 -55.5 -14.5t-32 -76.5t-25.5 -197q-10 -129 -23.5 -183t-39.5 -86q-71 -88 -220 -88q-230 0 -230 212q0 33 13 171.5t13 187.5q0 38 -15 56t-59 18l2 29q76 -2 120 -2l140 3l-2 -30q-26 0 -37 -1.5t-24.5 -9.5t-20.5 -26t-13 -50
q-13 -63 -22.5 -175t-9.5 -174q0 -83 34 -121t117 -38q161 0 196 123q14 54 31 248q6 69 6 121q0 63 -17 83t-66 20l2 30q76 -3 124 -3z" />
    <glyph glyph-name="V" unicode="V" horiz-adv-x="650" 
d="M705 665l-2 -30q-35 0 -59 -18q-24 -19 -94 -159q-180 -364 -220 -451q-8 -16 -15.5 -19.5t-24.5 -3.5l-18 2q-100 345 -145 495q-27 91 -48 122.5t-53 31.5l2 30q68 -2 120 -2l127 2l-2 -30q-41 0 -58 -12.5t-17 -41.5q0 -12 2 -26t7.5 -35.5t10 -38t14 -49t15.5 -52.5
l76 -277q44 91 95 199q33 66 49 99.5t37 79t29.5 73t8.5 43.5q0 21 -19 29.5t-59 8.5l2 30q61 -2 113 -2z" />
    <glyph glyph-name="W" unicode="W" horiz-adv-x="967" 
d="M1016 665l-2 -30q-66 0 -83 -30q-34 -60 -121 -312q-20 -57 -41 -118t-34 -99t-25 -72q-6 -22 -34 -22l-22 3l-172 550q-153 -355 -229 -528q-5 -11 -7.5 -15t-10.5 -6.5t-23 -2.5l-16 2q-19 145 -39 295q-4 30 -11 85t-10 76.5t-8 53.5t-9.5 50.5t-9.5 32.5
q-12 32 -31 44.5t-52 12.5l2 30q91 -4 139 -4l144 4l-3 -31q-99 0 -99 -74q0 -29 11.5 -138t23.5 -204l11 -94l239 551h39l172 -553q39 116 62 190q66 213 66 255q0 37 -25 52.5t-76 15.5l2 30q91 -2 142 -2z" />
    <glyph glyph-name="X" unicode="X" horiz-adv-x="670" 
d="M702 665l-1 -30q-26 0 -48.5 -11t-55.5 -47q-59 -68 -110 -133l-87 -107l82 -148q50 -91 82 -125t70 -34l-2 -30q-57 3 -134 3l-148 -3l2 30q79 0 79 49q0 31 -45 112l-50 91l-69 -86q-70 -87 -70 -125q0 -19 15 -30t35 -11l-2 -30q-79 3 -129 3l-108 -3l2 30q24 0 43 10
q50 28 147 144l111 142l-66 120q-48 88 -77.5 129.5t-44.5 50.5t-38 9l2 30q71 -3 134 -3l140 3l-2 -30q-87 0 -87 -44q0 -24 52 -118l52 -94q44 54 78 99q48 64 61 85t13 35q0 37 -67 37l2 30q97 -2 139 -2z" />
    <glyph glyph-name="Y" unicode="Y" horiz-adv-x="532" 
d="M586 665l-2 -30q-9 1 -15 1q-31 0 -68 -37q-37 -38 -97 -133q-24 -38 -47.5 -80t-34.5 -65l-12 -23q-12 -140 -12 -184q0 -52 13 -65.5t60 -18.5l-2 -30q-83 4 -125 4l-121 -4l2 30q43 0 62 20q13 14 21.5 66.5t19.5 180.5q-23 88 -57 172q-36 89 -63.5 124t-62.5 35
l-25 -5q-4 10 -4 23q0 9 20 15.5t48 6.5q94 0 135 -91q21 -46 37 -105.5t22 -95.5l6 -37q25 62 55 121q64 125 103.5 167.5t96.5 42.5z" />
    <glyph glyph-name="Z" unicode="Z" horiz-adv-x="634" 
d="M604 663q0 -5 -29.5 -44t-97.5 -125t-105 -135l-227 -304h63q152 0 230 5q63 5 90 54q10 18 17 38t9 31l3 11q33 0 33 -25q0 -31 -9 -74q-15 -67 -29.5 -83.5t-48.5 -16.5q-80 0 -220 2.5t-150 2.5q-79 0 -117 -5l-5 11q13 16 56 74.5t106.5 145.5t112.5 151l179 235
l-167 1q-77 0 -117 -9t-56.5 -28t-24.5 -57h-27q3 23 8 89q2 19 2 50v14q18 -4 52 -6q43 -2 223 -2q92 0 153 1t76 2l15 1z" />
    <glyph glyph-name="bracketleft" unicode="[" horiz-adv-x="300" 
d="M317 779q0 -9 -2 -18t-4 -13l-2 -5q-19 -1 -37 -1l-73 1q-1 0 -9 -79.5t-19 -195.5t-17 -193q-6 -75 -16 -214.5t-17 -245.5t-6 -106q38 1 69 1l40 -1q3 -11 3 -20q0 -8 -2 -15.5t-4 -11.5l-2 -3q-22 4 -73 4l-104 -2q33 354 52 581l41 549q52 -2 99 -2l82 5q1 -8 1 -15z
" />
    <glyph glyph-name="backslash" unicode="\" horiz-adv-x="404" 
d="M351 -3q-9 -1 -15 -1l-38 4q-27 76 -108 316l-120 352q12 2 19 2l36 -7q20 -87 86 -275q28 -83 63 -180.5t56 -153.5z" />
    <glyph glyph-name="bracketright" unicode="]" horiz-adv-x="300" 
d="M255 791q-33 -354 -52 -581l-41 -549q-52 2 -99 2l-82 -5q-1 8 -1 15q0 9 2 18t4 13l2 5q19 1 37 1l73 -1q1 0 9 79.5t19 195.5t17 193q6 75 16 214.5t17 245.5t6 106q-38 -1 -69 -1l-40 1q-3 11 -3 20q0 8 2 15.5t4 11.5l2 3q22 -4 73 -4z" />
    <glyph glyph-name="asciicircum" unicode="^" horiz-adv-x="357" 
d="M399 448h-114l-105 147l-108 -147h-114l180 217h82z" />
    <glyph glyph-name="underscore" unicode="_" 
d="M500 -159h-500v59h500v-59z" />
    <glyph glyph-name="grave" unicode="`" 
d="M394 506q-15 -11 -32 -11q-30 0 -114 56q-31 22 -40.5 33.5t-9.5 34.5q0 11 3 27.5t6 27.5l3 12q42 -46 83 -86z" />
    <glyph glyph-name="a" unicode="a" horiz-adv-x="441" 
d="M447 67q0 -19 -15 -28q-65 -44 -113 -44q-39 0 -39 44q0 56 31 204l-3 2q-30 -101 -91 -176t-119 -75q-36 0 -50.5 32t-14.5 96q0 137 72.5 234.5t180.5 97.5q21 0 46.5 -2.5t35.5 -2.5l35 5q-16 -93 -26 -178q-15 -123 -15 -181q0 -37 30 -37q11 0 24.5 4.5t21.5 9.5
l8 4q1 -6 1 -9zM314 403q-20 6 -44 6q-75 0 -111 -58q-49 -77 -49 -189q0 -100 36 -100q29 0 70 63.5t70 155.5q9 28 16 58.5t10 46.5z" />
    <glyph glyph-name="b" unicode="b" horiz-adv-x="458" 
d="M420 325q0 -89 -26 -162t-82.5 -120.5t-136.5 -47.5q-20 0 -52 4t-35 4q-12 0 -24.5 -1.5t-18.5 -3.5l-6 -2q18 105 36 298q26 277 26 340q0 32 -17 43t-77 16q5 17 11 23t84 10q20 1 42.5 4.5t35.5 6.5l12 3q-22 -169 -42 -392l-18 -146h2q35 111 93 181.5t117 70.5
q76 0 76 -129zM339 276q0 106 -35 106t-76 -60.5t-74 -157.5q-13 -38 -20.5 -66.5t-8.5 -37.5l-1 -9q13 -12 52 -12q78 0 120.5 67.5t42.5 169.5z" />
    <glyph glyph-name="c" unicode="c" horiz-adv-x="344" 
d="M340 395q0 -34 -23 -59q-9 -9 -30 -9h-31q3 14 3 30q0 51 -47 51q-38 0 -70.5 -54.5t-32.5 -153.5q0 -78 29.5 -110.5t86.5 -32.5q44 0 106 43l-8 -27q-22 -36 -62 -56.5t-81 -20.5q-70 0 -108 40t-38 120q0 121 60.5 209t150.5 88q46 0 70.5 -16t24.5 -42z" />
    <glyph glyph-name="d" unicode="d" horiz-adv-x="459" 
d="M458 76q1 -3 1 -8q0 -19 -15 -29q-67 -44 -117 -44q-17 0 -26 11t-9 25q0 79 30 212l-3 2q-27 -85 -90.5 -168.5t-125.5 -83.5q-70 0 -70 121q0 151 70.5 245.5t176.5 94.5q14 0 27.5 -1.5t20.5 -2.5l7 -2q17 132 17 187q0 35 -15.5 44t-78.5 14q5 17 11 23t84 10
q20 1 41.5 4.5t33.5 6.5l11 3l-10 -84q-2 -19 -8.5 -73.5t-12.5 -104.5q-34 -281 -34 -387q0 -33 28 -33q12 0 26 4.5t22 9.5zM328 401q-17 8 -41 8q-61 0 -103 -39t-59 -93.5t-17 -119.5q0 -52 8 -71.5t32 -19.5q34 0 85 75t71 155z" />
    <glyph glyph-name="e" unicode="e" horiz-adv-x="350" 
d="M337 370q0 -46 -34 -84t-85 -53q-38 -12 -90 -12l-22 1q-3 -12 -3 -42q0 -125 111 -125q58 0 117 47l-6 -31q-24 -38 -64 -57t-79 -19q-78 0 -114 45t-36 135q2 115 56 195q59 84 154 84q48 0 71.5 -24t23.5 -60zM261 362q0 22 -13 34t-33 12q-44 0 -70.5 -41.5
t-35.5 -108.5q6 -1 12 -1q64 0 102 26t38 79z" />
    <glyph glyph-name="f" unicode="f" horiz-adv-x="298" 
d="M440 692q0 -19 -23 -36.5t-48 -17.5q2 8 2 13q0 48 -61 48q-53 0 -83 -45q-16 -24 -26.5 -75t-12.5 -90l-2 -39h63l71 2q-5 -28 -21 -41q-7 -6 -44 -6l-70 4q-15 -266 -30 -359q-26 -165 -90 -245q-90 -111 -190 -111q-37 0 -58 17.5t-21 44.5q0 21 9 38t17 24l9 7h8
q0 -71 77 -71q68 0 107 69q36 60 49 179l40 409h-27l-73 -3q6 27 9 31q7 12 26 12l68 -1q0 14 1.5 35.5t12.5 71.5t30 78q33 50 85.5 80.5t107.5 30.5q41 0 64.5 -14t23.5 -40z" />
    <glyph glyph-name="g" unicode="g" horiz-adv-x="450" 
d="M415 455q-11 -56 -26 -177q-17 -134 -22 -241q-5 -106 -23 -169q-23 -81 -97.5 -135t-163.5 -54q-62 0 -100 26t-38 69q0 29 18.5 50.5t42.5 21.5l20 -5q-12 -13 -12 -37q0 -37 27 -58t74 -21q142 0 168 210q26 218 40 308l-3 2q-45 -114 -101 -182.5t-112 -68.5
q-74 0 -74 127q0 138 67 236t187 98q11 0 50 -2t45 -2zM325 401q-24 7 -53 7q-45 0 -73 -17q-39 -26 -64 -87.5t-25 -154.5q0 -85 37 -85q30 0 70.5 57t69.5 132q11 29 20.5 66t13.5 59z" />
    <glyph glyph-name="h" unicode="h" horiz-adv-x="463" 
d="M461 74q-8 -27 -12 -31q-14 -15 -56.5 -32.5t-69.5 -17.5q-18 0 -25.5 7.5t-7.5 25.5t19.5 156t19.5 168q0 40 -22 40q-23 0 -61.5 -51.5t-66.5 -121.5q-19 -47 -32 -100.5t-16 -84.5l-3 -30q-30 -1 -41 -2l-40 -6q21 124 48 436q13 156 13 204q0 32 -17 43t-77 16
q5 17 11 23t84 10q20 1 42.5 4.5t34.5 6.5l13 3q-12 -75 -17 -124q-32 -335 -43 -419h3q17 68 62 139q76 117 151 117q52 0 52 -50q0 -21 -16.5 -148.5t-16.5 -150.5q0 -28 5 -37.5t19 -9.5q11 0 26.5 4.5t25.5 8.5z" />
    <glyph glyph-name="i" unicode="i" horiz-adv-x="229" 
d="M192 633q0 -58 -55 -58q-23 0 -37.5 14.5t-14.5 37.5q0 24 16.5 38.5t42.5 14.5q22 0 35 -12.5t13 -34.5zM227 76q-8 -27 -12 -31q-14 -15 -56.5 -32.5t-69.5 -17.5q-18 0 -25.5 7.5t-7.5 25.5q0 3 26 213q10 77 10 115t-31 38q-18 0 -48 -10q4 26 14 34q16 11 52 23
t58 12q36 0 36 -36q0 -25 -18 -170.5t-18 -157.5q0 -30 30 -30q9 0 24 4.5t25 8.5z" />
    <glyph glyph-name="j" unicode="j" horiz-adv-x="231" 
d="M205 633q0 -58 -55 -58q-22 0 -37 14.5t-15 37.5q0 24 16.5 38.5t42.5 14.5q22 0 35 -12.5t13 -34.5zM182 417q0 -16 -7.5 -81.5t-19.5 -166.5t-19 -167q-18 -168 -91 -244q-31 -32 -76 -56t-72 -24q-11 0 -21 7t-14 15l-4 7q87 23 128.5 72t64.5 151q7 28 22 142
q7 52 17.5 160.5t10.5 125.5q0 36 -32 36q-9 0 -21 -2.5t-19 -5.5l-7 -2q3 26 13 33q17 12 52.5 24t55.5 12q39 0 39 -36z" />
    <glyph glyph-name="k" unicode="k" horiz-adv-x="490" 
d="M509 30q-2 -21 -28 -31q-30 -12 -68 -12q-53 0 -92 29t-85 102q-8 12 -15.5 25t-11 19t-7.5 12t-6.5 8.5t-6.5 4.5q14 21 17 31q18 -6 35 -6q53 0 89 37.5t36 91.5q0 42 -38 42q-35 0 -75 -49.5t-73 -133.5q-38 -98 -46 -200q-60 0 -84 -7q16 135 24 221q36 394 36 420
q0 29 -18 41.5t-76 17.5q5 17 11 23t84 10q20 1 42.5 4.5t34.5 6.5l13 3q-5 -47 -19 -161q-10 -86 -22 -200t-19 -178l4 -1q28 72 54 119q76 135 170 135q31 0 52.5 -23.5t21.5 -62.5q0 -73 -48 -121t-126 -58q2 -2 90 -94q37 -39 64.5 -54t58.5 -15z" />
    <glyph glyph-name="l" unicode="l" horiz-adv-x="230" 
d="M229 64q0 -31 -53.5 -52t-82.5 -21q-20 0 -28 9t-8 36q0 2 26 251q29 261 29 345q0 29 -18 42t-76 18q5 17 11 23t84 10q20 1 42.5 4.5t34.5 6.5l13 4q-5 -49 -19 -163q-9 -79 -27 -269t-18 -223t31 -33q14 0 29 4t23 8l7 5v-5z" />
    <glyph glyph-name="m" unicode="m" horiz-adv-x="713" 
d="M710 74q-6 -26 -10 -30q-13 -14 -53.5 -32.5t-65.5 -18.5q-20 0 -29.5 7t-9.5 30q0 19 8 74.5t10 74.5q18 131 18 171t-19 40q-20 0 -48 -33q-69 -78 -109 -220q-5 -19 -11 -52t-9 -57l-4 -24q-27 -2 -38 -3l-43 -7q7 36 26 210q13 121 13 151q0 35 -21 35q-25 0 -66 -56
q-35 -49 -61 -113q-21 -52 -34 -106.5t-16 -82.5l-3 -29q-23 0 -38 -2l-43 -7q37 272 37 359q0 41 -29 41q-8 0 -20.5 -2.5t-21.5 -5.5l-8 -2q2 10 3 13q3 12 7 17t15 10q58 29 95 29q40 0 40 -35q0 -25 -4 -57l-22 -163h3q17 71 62 138q79 117 148 117q29 0 42 -12.5
t13 -41.5l-25 -202h3q20 69 59 136q73 120 159 120q21 0 34 -13.5t13 -36.5q0 -10 -17 -147t-17 -160q0 -39 25 -39q12 0 27.5 4.5t24.5 8.5z" />
    <glyph glyph-name="n" unicode="n" horiz-adv-x="469" 
d="M468 74q-8 -27 -12 -31q-14 -15 -56.5 -32.5t-69.5 -17.5q-18 0 -25.5 7.5t-7.5 25.5q0 21 19.5 158.5t19.5 165.5q0 40 -22 40q-24 0 -61.5 -51t-66.5 -122q-19 -47 -32 -100.5t-16 -84.5l-3 -30q-18 0 -41 -2l-40 -6q37 269 37 356q0 24 -6.5 34t-22.5 10
q-8 0 -20.5 -2.5t-21.5 -5.5l-8 -2q2 10 3 13q3 12 7 17t15 10q58 29 95 29q40 0 40 -35q0 -12 -4 -44.5t-11 -87t-11 -89.5h3q11 48 44 108.5t74 102.5q44 45 98 45q48 0 48 -52q0 -24 -16 -149.5t-16 -150.5q0 -27 6 -35.5t21 -8.5q9 0 24 4.5t26 8.5z" />
    <glyph glyph-name="o" unicode="o" horiz-adv-x="432" 
d="M398 285q0 -120 -58.5 -205.5t-156.5 -85.5q-78 0 -113.5 39.5t-35.5 127.5q0 130 63.5 212t164.5 82q136 0 136 -170zM315 266q0 79 -18.5 112.5t-58.5 33.5q-58 0 -92 -60.5t-34 -163.5q0 -83 18.5 -118t62.5 -35q61 0 91.5 67.5t30.5 163.5z" />
    <glyph glyph-name="p" unicode="p" horiz-adv-x="464" 
d="M426 312q0 -140 -64.5 -229t-168.5 -89q-20 0 -36 1t-23 3l-6 1q-23 -176 -23 -216q0 -30 22 -46t69 -22v-27q-93 3 -148 3l-124 -3v28q57 10 75 24t26 56q11 55 44 318q21 182 21 247q0 16 -8 24.5t-20 8.5t-25 -2.5t-19 -5.5l-7 -2q5 21 6 24q4 11 51 30q35 15 64 15
q39 0 39 -36t-12 -113.5t-14 -106.5l3 -1q2 10 7 27t28.5 65.5t56.5 90.5q25 32 56 53t55 21q40 0 57.5 -32.5t17.5 -108.5zM347 294q0 88 -40 88q-28 0 -70.5 -64.5t-71.5 -156.5l-29 -118q18 -8 44 -8q89 0 128 71.5t39 187.5z" />
    <glyph glyph-name="q" unicode="q" horiz-adv-x="462" 
d="M447 -312q-131 3 -155 3l-128 -3v32q57 5 83.5 19.5t32.5 52.5q9 56 35 318q8 99 13 132l-4 1q-20 -85 -84.5 -167.5t-127.5 -82.5q-79 0 -79 120q0 150 66.5 245.5t178.5 95.5q31 0 63.5 -3.5t43.5 -3.5l34 7q-6 -56 -18 -170q-17 -165 -36 -407q-5 -72 -5 -80
q0 -32 6 -46.5t27 -22.5l54 -11v-29zM329 404q-28 9 -57 9q-81 0 -121.5 -75.5t-40.5 -200.5q0 -86 39 -86q40 0 95.5 91t72.5 194z" />
    <glyph glyph-name="r" unicode="r" horiz-adv-x="348" 
d="M362 417q0 -17 -13.5 -34.5t-30.5 -26.5q-8 20 -31 20q-34 0 -72.5 -67t-62.5 -194l-17 -112h-8q-19 0 -33 -2l-40 -7q37 262 37 362q0 38 -32 38q-8 0 -20 -2.5t-19 -5.5l-8 -2q1 7 2 10q4 21 23 30q60 29 99 29q15 0 25.5 -9t10.5 -27l-26 -220h4q7 44 26 96
q25 70 63 116.5t80 46.5q21 0 32 -11.5t11 -27.5z" />
    <glyph glyph-name="s" unicode="s" horiz-adv-x="347" 
d="M330 389q0 -21 -12 -34t-35 -13l-31 4q8 7 8 27q0 23 -14.5 36t-38.5 13q-35 0 -57 -17t-22 -46q0 -23 15 -39.5t71 -60.5q50 -39 70.5 -67.5t20.5 -66.5q0 -58 -43 -95t-117 -37q-56 0 -87.5 17.5t-31.5 50.5q0 34 13 51.5t32 17.5l20 -4q-7 -18 -7 -39q0 -26 16 -41.5
t48 -15.5q38 0 60.5 19.5t22.5 46.5q0 22 -12.5 40.5t-46.5 43.5q-60 46 -83.5 78.5t-23.5 69.5q0 59 46 94t109 35q55 0 82.5 -19t27.5 -49z" />
    <glyph glyph-name="t" unicode="t" horiz-adv-x="278" 
d="M299 452q-16 -41 -39 -41l-88 3q-11 -79 -21 -158q-15 -131 -15 -158q0 -24 7.5 -33.5t24.5 -9.5q18 0 40 7.5t36 15.5l13 7q-6 -33 -14 -43q-14 -18 -52.5 -33.5t-67.5 -15.5q-34 0 -49.5 14.5t-15.5 45.5q0 3 24 208l20 154q-15 1 -24 1l-46 -4q7 23 10 27q7 12 26 12
l37 -1q1 10 6 55q6 46 9 52q5 8 26 19.5t40 19.5l18 7q-10 -53 -16 -86l-11 -67h50z" />
    <glyph glyph-name="u" unicode="u" horiz-adv-x="472" 
d="M468 68q0 -15 -12.5 -28t-48.5 -29q-37 -16 -70 -16q-21 0 -28.5 12t-7.5 43q0 28 7.5 76.5t15.5 83.5l8 34l-3 1q-41 -116 -127 -199q-51 -50 -91 -50q-50 0 -50 55q0 24 15.5 150t15.5 163q0 11 -7 20.5t-24 9.5q-10 0 -22 -2.5t-19 -5.5l-7 -2q4 25 9 30q9 9 49 24
t63 15q21 0 29.5 -10t8.5 -32q0 -18 -18 -160q-14 -109 -14 -141q0 -41 22 -41q25 0 70 65t72 137q12 31 22 87t13 92h23l61 7q-42 -291 -42 -345q0 -31 6.5 -43.5t23.5 -12.5q22 0 56 20q1 -5 1 -8z" />
    <glyph glyph-name="v" unicode="v" horiz-adv-x="421" 
d="M406 419q0 -48 -56 -165t-134 -231q-11 -17 -22.5 -23t-34.5 -7l-32 -2q0 65 -13 168q-19 158 -36.5 209t-59.5 51l-20 -3q9 36 70 36q50 0 66 -16.5t26 -82.5q10 -62 18.5 -135.5t11.5 -115.5l4 -43q16 25 39 64.5t62 124.5t39 125q0 43 -55 43l-21 -2q0 39 100 39
q48 0 48 -34z" />
    <glyph glyph-name="w" unicode="w" horiz-adv-x="646" 
d="M624 420q0 -52 -54.5 -191t-96.5 -198q-17 -24 -29.5 -31t-40.5 -7l-25 1q-5 47 -21 173q-5 41 -12.5 81.5t-12.5 61.5l-4 20q-37 -124 -74 -213q-34 -82 -47 -98q-21 -26 -67 -26l-18 1v28q0 63 -13.5 178t-28.5 161q-10 33 -24.5 47t-37.5 14l-20 -3q9 36 70 36
q49 0 65 -16t27 -83q9 -54 16.5 -128.5t11.5 -121.5l3 -48q1 0 9.5 17.5t27 66t38.5 112.5q17 51 29.5 110t12.5 83q42 7 48 7q14 0 22 -16.5t18 -66.5q23 -118 35 -198l16 -112q43 79 73 162q33 94 33 145q0 28 -13 41.5t-52 13.5q0 17 14.5 23.5t54.5 6.5q67 0 67 -33z
" />
    <glyph glyph-name="x" unicode="x" 
d="M499 410q0 -12 -5 -24.5t-10 -19.5l-5 -7q-14 29 -48 29q-38 0 -68 -40q-18 -24 -34 -53t-23 -46l-8 -17q11 -35 23 -69q20 -61 36.5 -83t49.5 -22q13 0 23.5 4t15.5 8l4 5q1 -9 1 -13q0 -15 -37.5 -40t-65.5 -25q-27 0 -45 13.5t-31 51.5l-41 128q-44 -93 -69 -132
q-43 -67 -99 -67q-24 0 -38.5 14t-14.5 40q0 15 2 26.5t4 15.5l3 4q16 -31 51 -31q48 0 101 83q13 20 25.5 42.5t18.5 34.5l6 12q-16 51 -36 96q-24 52 -40 66.5t-38 14.5q-8 0 -15 -3.5t-10 -6.5l-3 -3l-3 4q0 20 19.5 37t60.5 17q31 0 51 -13.5t37 -47.5q8 -17 18.5 -45
t17.5 -48l6 -20q25 51 39 77q53 98 122 98q52 0 52 -45z" />
    <glyph glyph-name="y" unicode="y" horiz-adv-x="458" 
d="M432 415q0 -40 -37 -156q-40 -126 -103 -244.5t-133 -202.5q-111 -134 -206 -134q-49 0 -71.5 24.5t-22.5 56.5q0 10 1.5 21t3.5 17l2 6q2 -6 7 -14t28 -22t56 -14q41 0 83.5 24t79.5 64t63 75.5t49 74.5l-45 -18q-9 59 -37 161t-58 178q-27 69 -49 89.5t-49 20.5l-10 -1
q19 31 74 31q43 0 64.5 -19.5t44.5 -80.5q25 -66 50.5 -170.5t29.5 -162.5q47 94 79 190.5t32 156.5q0 52 -55 52l-21 -2q1 21 21 27q27 9 61 9q68 0 68 -37z" />
    <glyph glyph-name="z" unicode="z" horiz-adv-x="413" 
d="M406 447q-5 -11 -15.5 -29.5t-51.5 -69.5t-92 -94q-49 -41 -88.5 -82t-54.5 -62l-15 -21h8q27 0 97 -13t112 -13q31 0 47 10t33 34l18 -4q-1 -7 -4 -18t-18 -35.5t-36 -38.5q-34 -22 -87 -22q-33 0 -93 13t-74 13q-28 0 -44.5 -4.5t-19.5 -8.5l-2 -5h-7q4 51 25.5 93.5
t67.5 94.5q29 33 139 131q20 18 37 35.5t24 26.5l8 8q-22 -1 -54 -1q-31 0 -67.5 3t-38.5 3q-41 0 -59.5 -14t-18.5 -50h-20q-3 13 -3 52q0 32 10.5 56t30.5 24q7 0 88.5 -7.5t142.5 -7.5q22 0 39.5 1.5t24.5 2.5l7 2z" />
    <glyph glyph-name="braceleft" unicode="{" horiz-adv-x="300" 
d="M346 761l-1 -6h-7q-65 0 -91 -46q-14 -27 -28 -190q-11 -117 -16 -152.5t-18 -56.5q-24 -41 -85 -64q46 -8 71 -32t25 -74q0 -30 -14.5 -160.5t-14.5 -174.5q0 -67 15.5 -94t45.5 -27l9 1q-10 -25 -39 -25q-66 0 -91 33q-14 21 -14 63q0 56 17.5 196t17.5 174
q0 47 -12.5 65t-44.5 24q-25 4 -31 12t-8 38q21 0 43.5 8.5t33.5 21.5q26 30 36 162q4 40 6 79t3.5 70t2.5 39q6 64 43.5 103.5t97.5 39.5q48 0 48 -27z" />
    <glyph glyph-name="bar" unicode="|" horiz-adv-x="357" 
d="M213 -330h-69v995h69v-995z" />
    <glyph glyph-name="braceright" unicode="}" horiz-adv-x="300" 
d="M282 232q-21 0 -43.5 -8.5t-32.5 -21.5q-18 -20 -31 -195q-1 -14 -2 -21q-5 -52 -8.5 -114.5t-4.5 -73.5q-5 -64 -42.5 -103.5t-97.5 -39.5q-26 0 -37 8.5t-11 17.5l1 7h8q64 0 90 46q13 24 27 190q3 33 6 78t5 68.5t5 50.5t6.5 42t8.5 24q26 43 86 64l-8 1q-8 2 -12.5 3
t-13 4t-15 7t-14.5 10t-14 14q-18 22 -18 69q0 32 11 147.5t11 155.5q0 110 -60 110l-11 -1q15 25 41 25q47 0 75 -19q29 -20 29 -74t-14.5 -171t-14.5 -161q0 -47 12.5 -65t44.5 -24q25 -5 31 -12.5t7 -37.5z" />
    <glyph glyph-name="asciitilde" unicode="~" horiz-adv-x="549" 
d="M508 301q0 -15 -5.5 -34t-19 -42t-42.5 -38t-69 -15q-39 0 -75 20.5t-67.5 41t-61.5 20.5q-62 0 -82 -71h-44q0 15 5.5 34t19 42t42.5 38.5t69 15.5q39 0 75 -19.5t67.5 -38.5t61.5 -19q64 0 82 65h44z" />
    <glyph glyph-name="nbspace" unicode="&#xa0;" horiz-adv-x="200" 
 />
    <glyph glyph-name="exclamdown" unicode="&#xa1;" horiz-adv-x="244" 
d="M192 405q0 -31 -16 -49.5t-42 -18.5q-24 0 -38.5 15.5t-14.5 39.5q0 28 15.5 45.5t44.5 17.5q23 0 37 -14t14 -36zM146 80q0 -103 -7 -189q-5 -66 -14.5 -83.5t-40.5 -24.5l-57 -10q22 79 49 234l32 236q4 0 9.5 -1.5t15 -9.5t9.5 -21q4 -46 4 -131z" />
    <glyph glyph-name="cent" unicode="&#xa2;" horiz-adv-x="570" 
d="M443 513q0 -37 -23 -62q-10 -10 -29 -10h-31q3 14 3 30q0 51 -48 51q-40 0 -71.5 -53.5t-31.5 -155.5q0 -78 29.5 -110.5t86.5 -32.5q44 0 106 43l-8 -27q-7 -22 -40 -44.5t-78 -30.5q-1 -73 -3 -84q-1 -18 -13.5 -23.5t-42.5 -5.5q1 6 4 27t6.5 48t4.5 37
q-127 11 -127 159q0 108 45.5 189.5t119.5 101.5q4 34 7 81q1 10 15.5 16.5t29.5 8.5l14 2q-7 -16 -12 -51l-7 -51q44 -1 69 -15t25 -38z" />
    <glyph glyph-name="sterling" unicode="&#xa3;" horiz-adv-x="570" 
d="M527 606q0 -60 -49 -60l-35 3q4 11 4 25q0 23 -18 36t-47 13q-51 0 -87 -52.5t-43 -143.5l-5 -56h103l69 5q-4 -51 -23 -51l-153 4l-3 -34q-2 -32 -7 -71q-4 -34 -16 -63t-25 -45t-25.5 -27t-20.5 -15l-9 -4q36 7 92 7q39 0 94 -6t72 -6q38 0 54.5 14t26.5 57l26 -14
q-13 -66 -38 -100.5t-84 -34.5q-24 0 -84 10t-94 10q-61 0 -100.5 -6t-49.5 -11l-9 -6l-8 36q29 12 62 55q29 38 40 74.5t24 126.5l7 53q-39 0 -55 -2l-45 -7l2 20q1 20 7.5 25.5t28.5 5.5l69 -1q1 15 4 38.5t17.5 76t34.5 81.5q34 49 86 76.5t105 27.5t79 -19t26 -45z" />
    <glyph glyph-name="currency" unicode="&#xa4;" horiz-adv-x="570" 
d="M533 529l-74 -72q36 -49 36 -125q0 -34 -8.5 -64.5t-17.5 -43.5l-9 -14l72 -71q-5 -12 -19.5 -27t-26.5 -19l-66 72q-6 -5 -16.5 -11.5t-44 -18t-67.5 -11.5t-65.5 10.5t-46.5 21.5l-14 10l-69 -73q-12 4 -26.5 19t-19.5 27l75 72q-36 45 -36 120q0 35 9 66.5t19 46.5
l9 14l-74 70q5 12 19.5 27t26.5 19l69 -72q46 38 124 38q33 0 64.5 -10t45.5 -20l15 -10l70 75q12 -4 26.5 -19t19.5 -27zM436 331q0 65 -40 110.5t-103 45.5q-68 0 -106.5 -40.5t-38.5 -118.5q0 -63 41.5 -107t103.5 -44q63 0 103 41t40 113z" />
    <glyph glyph-name="yen" unicode="&#xa5;" horiz-adv-x="570" 
d="M589 665l-2 -30h-3q-29 0 -44 -7q-48 -25 -143 -171q-15 -23 -33 -56.5t-28 -55.5l-11 -22l148 7q1 -5 1 -13l-6 -41l-147 4l-4 -48q130 4 149 6q1 -4 1 -11q0 -12 -1.5 -22.5t-3.5 -15.5l-2 -5q-37 4 -145 6q-2 -30 -2 -73q0 -57 12 -69q8 -8 23 -12.5t26 -5.5h11
l-2 -30q-83 4 -125 4l-120 -4l2 30q42 2 60 18q16 15 32 142q-108 -2 -144 -6q-1 6 -1 17l5 37l144 -6l4 48q-126 -2 -145 -4q-1 5 -1 16l5 38q50 -5 145 -7q-26 87 -84 195q-34 65 -68 97q-21 20 -48 20l2 30q7 3 34 3q51 0 76.5 -7t39.5 -25q32 -44 58 -111t36 -113
l10 -45q60 135 97 191q47 73 73 91.5t77 18.5z" />
    <glyph glyph-name="section" unicode="&#xa7;" horiz-adv-x="570" 
d="M515 581q0 -17 -6 -36t-12 -30l-6 -11l-51 -3q5 26 5 45q0 87 -111 87q-59 0 -94.5 -34.5t-35.5 -81.5q0 -37 22 -65.5t79 -61.5q46 -26 70 -41.5t52 -38.5t40 -48.5t12 -55.5q0 -76 -61 -123.5t-135 -47.5h-12q90 -47 108 -60q67 -45 67 -117q0 -90 -71 -144.5
t-176 -54.5q-92 0 -129.5 23.5t-37.5 71.5q0 31 7.5 52.5t19.5 29.5t20 11t16 3h3q-5 -17 -5 -54q0 -47 30 -70t96 -23q60 0 99 34t39 80q0 32 -13.5 51.5t-55.5 48.5q-1 1 -45.5 27t-71.5 45q-53 36 -74 68t-21 83q0 67 63.5 111.5t135.5 44.5q-3 2 -22.5 13.5t-26.5 16
t-24.5 17t-25.5 21t-21 23t-18.5 28.5t-10.5 32.5t-5 38.5q0 80 64.5 133.5t161.5 53.5q95 0 131.5 -23.5t36.5 -68.5zM391 171q0 56 -65 97h-13q-21 0 -41.5 -3.5t-48.5 -13t-45.5 -33.5t-17.5 -60q0 -18 6.5 -34t15 -26t17.5 -17.5t15 -10.5l7 -4h1q14 0 33 2.5t54 11
t58.5 32t23.5 59.5z" />
    <glyph glyph-name="dieresis" unicode="&#xa8;" 
d="M442 563q0 -23 -14.5 -40t-41.5 -17q-24 0 -38 14t-14 34q0 26 15 42t40 16q24 0 38.5 -13t14.5 -36zM233 563q0 -23 -14.5 -40t-41.5 -17q-24 0 -38 14t-14 34q0 26 15 42t40 16q24 0 38.5 -13t14.5 -36z" />
    <glyph glyph-name="copyright" unicode="&#xa9;" horiz-adv-x="810" 
d="M755 331q0 -153 -99 -254q-92 -92 -239 -92q-146 0 -238 94q-100 100 -100 252q0 151 93 247q95 101 245 101q149 0 246 -103q92 -100 92 -245zM708 332q0 130 -80 219q-91 91 -210 91q-129 0 -217 -91q-74 -86 -74 -219t87 -225q81 -83 204 -83q127 0 205 78
q41 41 63 102.5t22 127.5zM579 234q-12 -70 -25 -88q-8 -11 -50 -20t-85 -9t-79 10t-69.5 32.5t-53 66t-19.5 103.5q0 59 21.5 104t57 70t77 37t87.5 12q28 0 58 -4.5t35 -4.5l30 1q-1 -31 -1 -47v-65h-33v7q0 11 -3 21.5t-11.5 25t-30 23t-52.5 8.5q-75 0 -114.5 -48
t-39.5 -141q0 -173 141 -173q99 0 127 86z" />
    <glyph glyph-name="ordfeminine" unicode="&#xaa;" horiz-adv-x="334" 
d="M350 406q0 -12 -10 -19q-47 -28 -82 -28q-26 0 -26 28q0 45 21 146l-2 1q-23 -78 -62.5 -127t-82.5 -49q-47 0 -47 83q0 61 25.5 115t68.5 85q43 29 109 29q16 0 32 -2t24 -4l8 -3q-15 -39 -23 -107q-10 -84 -10 -130q0 -24 19 -24q8 0 17.5 3t14.5 5l5 3q1 -3 1 -5z
M252 633q-14 5 -36 5q-43 0 -70.5 -49.5t-27.5 -121.5q0 -65 21 -65q20 0 46.5 45.5t49.5 110.5q6 18 10 36.5t5 28.5z" />
    <glyph glyph-name="guillemotleft" unicode="&#xab;" horiz-adv-x="466" 
d="M416 398q0 -19 -30 -52.5t-60 -57.5l-30 -25q11 -10 27.5 -27t44 -54.5t27.5 -58.5q0 -15 -22 -50q-22 39 -55 81q-15 19 -41 46t-45 45l-19 18q61 44 101 87q25 26 45 51.5t27 37.5l7 12q23 -30 23 -53zM239 398q0 -19 -30 -52.5t-60 -57.5l-30 -25q11 -10 27.5 -27
t44 -54.5t27.5 -58.5q0 -15 -22 -50q-22 39 -55 81q-15 19 -41 46t-45 45l-19 18q61 44 101 87q25 26 45 51.5t27 37.5l7 12q23 -30 23 -53z" />
    <glyph glyph-name="logicalnot" unicode="&#xac;" horiz-adv-x="549" 
d="M502 136q-22 -2 -36 -2l-36 2l1 129q-32 1 -141 1l-239 -1q-3 15 -3 32l3 33q173 -1 239 -1l211 1z" />
    <glyph glyph-name="registered" unicode="&#xae;" horiz-adv-x="810" 
d="M755 331q0 -153 -99 -254q-92 -92 -239 -92q-146 0 -238 94q-100 100 -100 252q0 151 93 247q95 101 245 101q149 0 246 -103q92 -100 92 -245zM708 332q0 130 -80 219q-91 91 -210 91q-129 0 -217 -91q-74 -86 -74 -219t87 -225q81 -83 204 -83q127 0 205 78
q41 41 63 102.5t22 127.5zM631 156q-3 -13 -7 -16q-13 -9 -61 -9q-25 0 -36 4t-21 17q-7 9 -55 83q-7 12 -47 67q-12 15 -17.5 18t-21.5 3h-23q0 -92 3 -119t12 -34q6 -4 14.5 -7t13.5 -4l5 -1v-23q-49 1 -77 1l-76 -1v23q18 2 29 11q5 5 7.5 15.5t4 47.5t1.5 111
q0 123 -2 148.5t-12 34.5q-4 4 -10.5 7t-10.5 3l-4 1v23q38 -1 73 -1q19 0 51 1t48 1q143 0 143 -104q0 -29 -12 -53t-31.5 -38.5t-30.5 -20.5t-22 -11q46 -66 69 -95q35 -45 59 -64q12 -8 23 -13t16 -6h5zM481 452q0 44 -22.5 61t-75.5 17l-41 -2l-1 -172q20 -5 42 -5
q27 0 50 9q48 21 48 92z" />
    <glyph glyph-name="macron" unicode="&#xaf;" 
d="M450 567l-4 -41q-97 2 -158 2l-161 -1q0 19 1 31l4 27q98 -1 161 -1l157 1v-18z" />
    <glyph glyph-name="degree" unicode="&#xb0;" horiz-adv-x="310" 
d="M276 580q0 -50 -35 -82.5t-88 -32.5q-57 0 -88 32t-31 83q0 47 35.5 81t86.5 34q53 0 86.5 -32.5t33.5 -82.5zM226 580q0 31 -20 51.5t-51 20.5t-51.5 -21t-20.5 -51q0 -33 20 -53t52 -20t51.5 20.5t19.5 52.5z" />
    <glyph glyph-name="plusminus" unicode="&#xb1;" horiz-adv-x="549" 
d="M467 263h-167v-166h-55v166h-165v55h165v166h55v-166h167v-55zM470 0h-391v55h391v-55z" />
    <glyph glyph-name="acute" unicode="&#xb4;" 
d="M396 653q0 -42 -11 -58t-53 -42q-93 -56 -122 -56q-7 0 -14 2t-10 4l-3 2q61 49 112 93l99 87q2 -15 2 -32z" />
    <glyph glyph-name="mu" unicode="&#xb5;" horiz-adv-x="541" 
d="M531 68q-21 -89 -110 -89q-33 0 -48.5 20.5t-24.5 55.5q-21 -21 -61 -43t-85 -22q-57 0 -84 30v-28q0 -29 14 -74t14 -60q0 -61 -44 -61q-40 0 -40 61q0 15 12 60t12 74v327q0 54 -9.5 69t-43.5 15h-7v22h12q12 0 29 -1t29 -1q10 0 25 1t25 1h13v-286q0 -46 21 -67.5
t69 -21.5q54 0 99 28v241q0 55 -9 69.5t-43 14.5h-9v22h14q11 0 28 -1t28 -1q10 0 25 1t25 1h14v-289q0 -58 9.5 -78t32.5 -20q7 0 13 1t9.5 2.5t8 5t6 5t6.5 8t7 8.5h18z" />
    <glyph glyph-name="paragraph" unicode="&#xb6;" horiz-adv-x="490" 
d="M408 676q-18 -162 -35 -364q-8 -101 -21 -265t-13 -168q-1 -11 -5.5 -14.5t-23.5 -3.5l-32 2q19 183 37 399l30 373q-13 2 -20 2l-20 1q-19 -230 -31 -375l-31 -400h-61q9 51 35 360l8 114q-24 -8 -54 -8q-55 0 -94 38.5t-39 104.5q0 90 59.5 145.5t158.5 55.5
q30 0 61 -3t47 -6l16 -3z" />
    <glyph glyph-name="periodcentered" unicode="&#xb7;" horiz-adv-x="570" 
d="M354 337q0 -30 -19 -49t-50 -19q-27 0 -42.5 16.5t-15.5 43.5q0 30 19 48.5t46 18.5t44.5 -15.5t17.5 -43.5z" />
    <glyph glyph-name="cedilla" unicode="&#xb8;" 
d="M311 25q-42 -22 -68 -39l-36 -28q10 1 16 1q28 0 50 -16t22 -48q0 -37 -41.5 -69t-93.5 -32q-5 0 -11 6t-9 12l-4 7q10 2 24 6t37.5 22t23.5 41q0 43 -52 48l-9 10q28 50 91 88q9 5 19 9.5t16 6.5l5 1z" />
    <glyph glyph-name="ordmasculine" unicode="&#xba;" horiz-adv-x="316" 
d="M323 550q0 -77 -42.5 -133t-108.5 -56q-54 0 -82 28.5t-28 79.5q0 85 46 144.5t115 59.5q48 0 74 -33t26 -90zM259 537q0 103 -53 103q-39 0 -61.5 -45t-22.5 -107q0 -52 12.5 -74t42.5 -22q40 0 61 43.5t21 101.5z" />
    <glyph glyph-name="guillemotright" unicode="&#xbb;" horiz-adv-x="466" 
d="M436 261q-61 -44 -101 -87q-25 -26 -45 -51.5t-27 -37.5l-7 -12q-23 30 -23 53q0 19 30 52.5t60 57.5l30 25q-11 10 -27.5 27t-44 54.5t-27.5 58.5q0 15 22 50q22 -39 55 -81q15 -19 41 -46t45 -45zM259 261q-61 -44 -101 -87q-25 -26 -45 -51.5t-27 -37.5l-7 -12
q-23 30 -23 53q0 19 30 52.5t60 57.5l30 25q-11 10 -27.5 27t-44 54.5t-27.5 58.5q0 15 22 50q22 -39 55 -81q15 -19 41 -46t45 -45z" />
    <glyph glyph-name="questiondown" unicode="&#xbf;" horiz-adv-x="340" 
d="M252 405q0 -31 -16 -49.5t-42 -18.5q-24 0 -38.5 15.5t-14.5 39.5q0 28 15.5 45.5t44.5 17.5q23 0 37 -14t14 -36zM290 -118q0 -47 -45 -76t-123 -29q-74 0 -113 29.5t-39 78.5q0 42 25 75.5t89 91.5q81 74 81 121q0 18 -10 25.5t-33 7.5l-17 -2q14 38 67 38q69 0 69 -65
q0 -26 -28.5 -63t-63 -69.5t-63 -77t-28.5 -83.5q0 -32 22 -49t58 -17q38 0 58.5 17.5t20.5 50.5q0 7 -1.5 13.5t-3.5 8.5l-2 3q16 12 37 12q43 0 43 -41z" />
    <glyph glyph-name="Agrave" unicode="&#xc0;" horiz-adv-x="680" 
d="M441 716q-15 -11 -32 -11q-30 0 -114 56q-31 22 -40.5 33.5t-9.5 34.5q0 11 3 27.5t6 27.5l3 12q42 -46 83 -86zM678 30l-2 -30q-94 1 -118 1l-135 -1l3 30q79 0 79 50q0 19 -11.5 61.5t-23.5 76.5l-12 33h-233q-15 -37 -32 -77q-34 -83 -34 -104q0 -40 72 -40l-3 -30
q-82 1 -130 1l-92 -1l3 30q24 0 43 13.5t46 56.5q14 23 81.5 166.5t128.5 275.5l60 132q14 3 24 3l27 -3q71 -236 117 -381q48 -155 76 -212q11 -22 27.5 -34.5t27.5 -14.5zM442 297l-75 259l-121 -259h196z" />
    <glyph glyph-name="Aacute" unicode="&#xc1;" horiz-adv-x="680" 
d="M558 863q0 -42 -11 -58t-53 -42q-93 -56 -122 -56q-7 0 -14 2t-10 4l-3 2q61 49 112 93l99 87q2 -15 2 -32zM678 30l-2 -30q-94 1 -118 1l-135 -1l3 30q79 0 79 50q0 19 -11.5 61.5t-23.5 76.5l-12 33h-233q-15 -37 -32 -77q-34 -83 -34 -104q0 -40 72 -40l-3 -30
q-82 1 -130 1l-92 -1l3 30q24 0 43 13.5t46 56.5q14 23 81.5 166.5t128.5 275.5l60 132q14 3 24 3l27 -3q71 -236 117 -381q48 -155 76 -212q11 -22 27.5 -34.5t27.5 -14.5zM442 297l-75 259l-121 -259h196z" />
    <glyph glyph-name="Acircumflex" unicode="&#xc2;" horiz-adv-x="680" 
d="M562 721q-34 -18 -63 -18q-20 0 -45 24.5t-40 48.5l-15 24q-8 -11 -21.5 -27.5t-44.5 -43.5t-49 -27q-24 0 -42 8q28 22 82 71q17 16 41 42t39 44l15 18q28 -50 60 -85q20 -23 40.5 -42.5t31.5 -27.5zM678 30l-2 -30q-94 1 -118 1l-135 -1l3 30q79 0 79 50
q0 19 -11.5 61.5t-23.5 76.5l-12 33h-233q-15 -37 -32 -77q-34 -83 -34 -104q0 -40 72 -40l-3 -30q-82 1 -130 1l-92 -1l3 30q24 0 43 13.5t46 56.5q14 23 81.5 166.5t128.5 275.5l60 132q14 3 24 3l27 -3q71 -236 117 -381q48 -155 76 -212q11 -22 27.5 -34.5t27.5 -14.5z
M442 297l-75 259l-121 -259h196z" />
    <glyph glyph-name="Atilde" unicode="&#xc3;" horiz-adv-x="680" 
d="M563 831q0 -40 -30.5 -79.5t-73.5 -39.5q-31 0 -70.5 36t-64.5 36q-17 0 -34 -12.5t-27 -30.5l-10 -20q-13 5 -13 14q0 37 28.5 75t71.5 38q33 0 73.5 -33t64.5 -33q38 0 60 41l11 21q14 -4 14 -13zM678 30l-2 -30q-94 1 -118 1l-135 -1l3 30q79 0 79 50q0 19 -11.5 61.5
t-23.5 76.5l-12 33h-233q-15 -37 -32 -77q-34 -83 -34 -104q0 -40 72 -40l-3 -30q-82 1 -130 1l-92 -1l3 30q24 0 43 13.5t46 56.5q14 23 81.5 166.5t128.5 275.5l60 132q14 3 24 3l27 -3q71 -236 117 -381q48 -155 76 -212q11 -22 27.5 -34.5t27.5 -14.5zM442 297l-75 259
l-121 -259h196z" />
    <glyph glyph-name="Adieresis" unicode="&#xc4;" horiz-adv-x="680" 
d="M557 773q0 -23 -14.5 -40t-41.5 -17q-24 0 -38 14t-14 34q0 26 15 42t40 16q24 0 38.5 -13t14.5 -36zM348 773q0 -23 -14.5 -40t-41.5 -17q-24 0 -38 14t-14 34q0 26 15 42t40 16q24 0 38.5 -13t14.5 -36zM678 30l-2 -30q-94 1 -118 1l-135 -1l3 30q79 0 79 50
q0 19 -11.5 61.5t-23.5 76.5l-12 33h-233q-15 -37 -32 -77q-34 -83 -34 -104q0 -40 72 -40l-3 -30q-82 1 -130 1l-92 -1l3 30q24 0 43 13.5t46 56.5q14 23 81.5 166.5t128.5 275.5l60 132q14 3 24 3l27 -3q71 -236 117 -381q48 -155 76 -212q11 -22 27.5 -34.5t27.5 -14.5z
M442 297l-75 259l-121 -259h196z" />
    <glyph glyph-name="Aring" unicode="&#xc5;" horiz-adv-x="680" 
d="M489 802q0 -39 -25.5 -66.5t-61.5 -27.5q-37 0 -62 25.5t-25 66.5q0 39 25.5 65.5t62.5 26.5q38 0 62 -25.5t24 -64.5zM678 30l-2 -30q-94 1 -118 1l-135 -1l3 30q79 0 79 50q0 19 -11.5 61.5t-23.5 76.5l-12 33h-233q-15 -37 -32 -77q-34 -83 -34 -104q0 -40 72 -40
l-3 -30q-82 1 -130 1l-92 -1l3 30q24 0 43 13.5t46 56.5q14 23 81.5 166.5t128.5 275.5l60 132q14 3 24 3l27 -3q71 -236 117 -381q48 -155 76 -212q11 -22 27.5 -34.5t27.5 -14.5zM447 800q0 20 -13 35t-32 15t-32 -15t-13 -35q0 -21 13.5 -36.5t31.5 -15.5t31.5 15.5
t13.5 36.5zM442 297l-75 259l-121 -259h196z" />
    <glyph glyph-name="AE" unicode="&#xc6;" horiz-adv-x="879" 
d="M852 668q-4 -29 -5 -55l-4 -87h-30q-4 61 -30.5 78.5t-113.5 17.5l-70 -1l-21 -260q47 -2 61 -2q73 0 98.5 12t34.5 58h28q-5 -41 -10 -93l-6 -92h-30v5q0 16 -3 26q-8 29 -33.5 37t-93.5 8l-49 -1q-14 -186 -14 -221q0 -28 14.5 -40t49.5 -12q96 0 126 17t51 90l3 10
l34 -12q1 -8 1 -22q0 -38 -14 -85.5t-35 -47.5q-2 0 -64 2t-130.5 4t-88.5 2l-121 -4l2 30q43 0 62 20t41 249h-156q-64 -93 -91 -132q-61 -88 -61 -104q0 -18 11.5 -25.5t39.5 -7.5l-2 -30q-80 1 -128 1l-94 -1l2 30q54 0 117 71q16 18 110 144.5t180 244.5l85 117
q-13 23 -67 28l2 30q72 -3 121 -3q87 0 159.5 1.5t101.5 2.5zM509 538l-144 -200h130z" />
    <glyph glyph-name="Ccedilla" unicode="&#xc7;" horiz-adv-x="666" 
d="M631 669q-8 -55 -10 -78l-8 -101h-35q0 29 -4 48.5t-18 42t-46 34t-82 11.5q-122 0 -196 -82.5t-74 -228.5q0 -143 60 -210t149 -67q166 0 216 131l31 -11q-15 -91 -39 -123q-21 -28 -121 -41l1 -1q-42 -22 -68 -39l-36 -28q10 1 16 1q28 0 50 -16t22 -48
q0 -37 -41.5 -69t-93.5 -32q-5 0 -11 6t-9 12l-4 7q10 2 24 6t37.5 22t23.5 41q0 43 -52 48l-9 10q22 39 70 74h-11q-61 0 -113 16t-96.5 51t-69.5 99t-25 152q0 74 22 136t58.5 103.5t85.5 70.5t102 42t108 13q43 0 96 -2t59 -2z" />
    <glyph glyph-name="Egrave" unicode="&#xc8;" horiz-adv-x="498" 
d="M376 726q-15 -11 -32 -11q-30 0 -114 56q-31 22 -40.5 33.5t-9.5 34.5q0 11 3 27.5t6 27.5l3 12q42 -46 83 -86zM471 668q-4 -29 -5 -55l-4 -87h-30q-4 61 -30.5 78.5t-113.5 17.5l-70 -1l-21 -260q47 -2 61 -2q73 0 98.5 12t34.5 58h28q-5 -41 -10 -93l-6 -92h-30v5
q0 16 -3 26q-8 29 -33.5 37t-93.5 8l-49 -1q-14 -186 -14 -221q0 -28 14.5 -40t49.5 -12q96 0 126 17t51 90l3 10l34 -12q1 -8 1 -22q0 -38 -14 -85.5t-35 -47.5q-2 0 -64 2t-130.5 4t-88.5 2l-121 -4l2 30q43 0 62 20q14 14 22 67.5t21 207.5q16 210 16 238q0 42 -16 55.5
t-56 16.5l2 30q72 -3 121 -3q87 0 159.5 1.5t102.5 2.5z" />
    <glyph glyph-name="Eacute" unicode="&#xc9;" horiz-adv-x="498" 
d="M446 863q0 -42 -11 -58t-53 -42q-93 -56 -122 -56q-7 0 -14 2t-10 4l-3 2q61 49 112 93l99 87q2 -15 2 -32zM471 668q-4 -29 -5 -55l-4 -87h-30q-4 61 -30.5 78.5t-113.5 17.5l-70 -1l-21 -260q47 -2 61 -2q73 0 98.5 12t34.5 58h28q-5 -41 -10 -93l-6 -92h-30v5
q0 16 -3 26q-8 29 -33.5 37t-93.5 8l-49 -1q-14 -186 -14 -221q0 -28 14.5 -40t49.5 -12q96 0 126 17t51 90l3 10l34 -12q1 -8 1 -22q0 -38 -14 -85.5t-35 -47.5q-2 0 -64 2t-130.5 4t-88.5 2l-121 -4l2 30q43 0 62 20q14 14 22 67.5t21 207.5q16 210 16 238q0 42 -16 55.5
t-56 16.5l2 30q72 -3 121 -3q87 0 159.5 1.5t102.5 2.5z" />
    <glyph glyph-name="Ecircumflex" unicode="&#xca;" horiz-adv-x="498" 
d="M452 721q-34 -18 -63 -18q-20 0 -45 24.5t-40 48.5l-15 24q-8 -11 -21.5 -27.5t-44.5 -43.5t-49 -27q-24 0 -42 8q28 22 82 71q17 16 41 42t39 44l15 18q28 -50 60 -85q20 -23 40.5 -42.5t31.5 -27.5zM471 668q-4 -29 -5 -55l-4 -87h-30q-4 61 -30.5 78.5t-113.5 17.5
l-70 -1l-21 -260q47 -2 61 -2q73 0 98.5 12t34.5 58h28q-5 -41 -10 -93l-6 -92h-30v5q0 16 -3 26q-8 29 -33.5 37t-93.5 8l-49 -1q-14 -186 -14 -221q0 -28 14.5 -40t49.5 -12q96 0 126 17t51 90l3 10l34 -12q1 -8 1 -22q0 -38 -14 -85.5t-35 -47.5q-2 0 -64 2t-130.5 4
t-88.5 2l-121 -4l2 30q43 0 62 20q14 14 22 67.5t21 207.5q16 210 16 238q0 42 -16 55.5t-56 16.5l2 30q72 -3 121 -3q87 0 159.5 1.5t102.5 2.5z" />
    <glyph glyph-name="Edieresis" unicode="&#xcb;" horiz-adv-x="498" 
d="M456 773q0 -23 -14.5 -40t-41.5 -17q-24 0 -38 14t-14 34q0 26 15 42t40 16q24 0 38.5 -13t14.5 -36zM247 773q0 -23 -14.5 -40t-41.5 -17q-24 0 -38 14t-14 34q0 26 15 42t40 16q24 0 38.5 -13t14.5 -36zM471 668q-4 -29 -5 -55l-4 -87h-30q-4 61 -30.5 78.5
t-113.5 17.5l-70 -1l-21 -260q47 -2 61 -2q73 0 98.5 12t34.5 58h28q-5 -41 -10 -93l-6 -92h-30v5q0 16 -3 26q-8 29 -33.5 37t-93.5 8l-49 -1q-14 -186 -14 -221q0 -28 14.5 -40t49.5 -12q96 0 126 17t51 90l3 10l34 -12q1 -8 1 -22q0 -38 -14 -85.5t-35 -47.5q-2 0 -64 2
t-130.5 4t-88.5 2l-121 -4l2 30q43 0 62 20q14 14 22 67.5t21 207.5q16 210 16 238q0 42 -16 55.5t-56 16.5l2 30q72 -3 121 -3q87 0 159.5 1.5t102.5 2.5z" />
    <glyph glyph-name="Igrave" unicode="&#xcc;" horiz-adv-x="287" 
d="M254 716q-15 -11 -32 -11q-30 0 -114 56q-31 22 -40.5 33.5t-9.5 34.5q0 11 3 27.5t6 27.5l3 12q42 -46 83 -86zM301 665l-2 -30q-41 -5 -55 -16.5t-23 -55.5q-11 -53 -26 -234q-14 -163 -14 -215t13 -65.5t60 -18.5l-2 -30q-83 4 -125 4l-121 -4l2 30q43 0 62 20
q14 14 22 67.5t21 207.5q16 210 16 238q0 42 -16 55.5t-56 16.5l2 30q72 -3 121 -3z" />
    <glyph glyph-name="Iacute" unicode="&#xcd;" horiz-adv-x="287" 
d="M334 863q0 -42 -11 -58t-53 -42q-93 -56 -122 -56q-7 0 -14 2t-10 4l-3 2q61 49 112 93l99 87q2 -15 2 -32zM301 665l-2 -30q-41 -5 -55 -16.5t-23 -55.5q-11 -53 -26 -234q-14 -163 -14 -215t13 -65.5t60 -18.5l-2 -30q-83 4 -125 4l-121 -4l2 30q43 0 62 20
q14 14 22 67.5t21 207.5q16 210 16 238q0 42 -16 55.5t-56 16.5l2 30q72 -3 121 -3z" />
    <glyph glyph-name="Icircumflex" unicode="&#xce;" horiz-adv-x="287" 
d="M354 721q-34 -18 -63 -18q-20 0 -45 24.5t-40 48.5l-15 24q-8 -11 -21.5 -27.5t-44.5 -43.5t-49 -27q-24 0 -42 8q28 22 82 71q17 16 41 42t39 44l15 18q28 -50 60 -85q20 -23 41 -42.5t32 -27.5zM301 665l-2 -30q-41 -5 -55 -16.5t-23 -55.5q-11 -53 -26 -234
q-14 -163 -14 -215t13 -65.5t60 -18.5l-2 -30q-83 4 -125 4l-121 -4l2 30q43 0 62 20q14 14 22 67.5t21 207.5q16 210 16 238q0 42 -16 55.5t-56 16.5l2 30q72 -3 121 -3z" />
    <glyph glyph-name="Idieresis" unicode="&#xcf;" horiz-adv-x="287" 
d="M349 773q0 -23 -14.5 -40t-41.5 -17q-24 0 -38 14t-14 34q0 26 15 42t40 16q24 0 38.5 -13t14.5 -36zM140 773q0 -23 -14.5 -40t-41.5 -17q-24 0 -38 14t-14 34q0 26 15 42t40 16q24 0 38.5 -13t14.5 -36zM301 665l-2 -30q-41 -5 -55 -16.5t-23 -55.5q-11 -53 -26 -234
q-14 -163 -14 -215t13 -65.5t60 -18.5l-2 -30q-83 4 -125 4l-121 -4l2 30q43 0 62 20q14 14 22 67.5t21 207.5q16 210 16 238q0 42 -16 55.5t-56 16.5l2 30q72 -3 121 -3z" />
    <glyph glyph-name="Ntilde" unicode="&#xd1;" horiz-adv-x="759" 
d="M617 831q0 -40 -30.5 -79.5t-73.5 -39.5q-31 0 -70.5 36t-64.5 36q-17 0 -34 -12.5t-27 -30.5l-10 -20q-13 5 -13 14q0 37 28.5 75t71.5 38q33 0 73.5 -33t64.5 -33q38 0 60 41l11 21q14 -4 14 -13zM805 665l-2 -30q-53 -3 -80 -29q-23 -23 -36 -118.5t-32 -337.5
l-9 -161q-19 -2 -32 -2q-15 0 -25 15q-3 4 -41.5 59.5t-96 138.5t-98.5 140l-154 208l-25 -293q-8 -101 -8 -132q0 -54 22 -73.5t71 -19.5l-2 -30q-82 1 -134 1l-127 -1l2 30q30 0 50.5 7.5t32 18t19.5 36.5t11.5 46.5t8.5 64.5q26 239 26 314q0 118 -89 118l2 30
q57 -1 97 -1l75 3q154 -219 200 -284q32 -45 76.5 -104.5t72.5 -96.5l29 -38q26 321 26 376q0 59 -22 86q-10 12 -28 19.5t-31 8.5l-13 1l2 30q92 -3 132 -3z" />
    <glyph glyph-name="Ograve" unicode="&#xd2;" horiz-adv-x="744" 
d="M484 726q-15 -11 -32 -11q-30 0 -114 56q-31 22 -40.5 33.5t-9.5 34.5q0 11 3 27.5t6 27.5l3 12q42 -46 83 -86zM702 374q0 -174 -93 -281.5t-251 -107.5q-133 0 -216 78.5t-83 242.5q0 163 101.5 268t247.5 105q128 0 211 -77.5t83 -227.5zM600 377q0 113 -51.5 183
t-149.5 70q-82 0 -137.5 -48.5t-79 -121t-23.5 -163.5q0 -124 52.5 -193.5t156.5 -69.5q66 0 114 31t72.5 83.5t35 108.5t10.5 120z" />
    <glyph glyph-name="Oacute" unicode="&#xd3;" horiz-adv-x="744" 
d="M528 863q0 -42 -11 -58t-53 -42q-93 -56 -122 -56q-7 0 -14 2t-10 4l-3 2q61 49 112 93l99 87q2 -15 2 -32zM702 374q0 -174 -93 -281.5t-251 -107.5q-133 0 -216 78.5t-83 242.5q0 163 101.5 268t247.5 105q128 0 211 -77.5t83 -227.5zM600 377q0 113 -51.5 183
t-149.5 70q-82 0 -137.5 -48.5t-79 -121t-23.5 -163.5q0 -124 52.5 -193.5t156.5 -69.5q66 0 114 31t72.5 83.5t35 108.5t10.5 120z" />
    <glyph glyph-name="Ocircumflex" unicode="&#xd4;" horiz-adv-x="744" 
d="M575 721q-34 -18 -63 -18q-20 0 -45 24.5t-40 48.5l-15 24q-8 -11 -21.5 -27.5t-44.5 -43.5t-49 -27q-24 0 -42 8q28 22 82 71q17 16 41 42t39 44l15 18q28 -50 60 -85q20 -23 41 -42.5t31 -27.5zM702 374q0 -174 -93 -281.5t-251 -107.5q-133 0 -216 78.5t-83 242.5
q0 163 101.5 268t247.5 105q128 0 211 -77.5t83 -227.5zM600 377q0 113 -51.5 183t-149.5 70q-82 0 -137.5 -48.5t-79 -121t-23.5 -163.5q0 -124 52.5 -193.5t156.5 -69.5q66 0 114 31t72.5 83.5t35 108.5t10.5 120z" />
    <glyph glyph-name="Otilde" unicode="&#xd5;" horiz-adv-x="744" 
d="M584 831q0 -40 -30.5 -79.5t-73.5 -39.5q-31 0 -70.5 36t-64.5 36q-17 0 -34 -12.5t-27 -30.5l-10 -20q-13 5 -13 14q0 37 28.5 75t71.5 38q33 0 73.5 -33t64.5 -33q38 0 60 41l11 21q14 -4 14 -13zM702 374q0 -174 -93 -281.5t-251 -107.5q-133 0 -216 78.5t-83 242.5
q0 163 101.5 268t247.5 105q128 0 211 -77.5t83 -227.5zM600 377q0 113 -51.5 183t-149.5 70q-82 0 -137.5 -48.5t-79 -121t-23.5 -163.5q0 -124 52.5 -193.5t156.5 -69.5q66 0 114 31t72.5 83.5t35 108.5t10.5 120z" />
    <glyph glyph-name="Odieresis" unicode="&#xd6;" horiz-adv-x="744" 
d="M566 773q0 -23 -14.5 -40t-41.5 -17q-24 0 -38 14t-14 34q0 26 15 42t40 16q24 0 38.5 -13t14.5 -36zM357 773q0 -23 -14.5 -40t-41.5 -17q-24 0 -38 14t-14 34q0 26 15 42t40 16q24 0 38.5 -13t14.5 -36zM702 374q0 -174 -93 -281.5t-251 -107.5q-133 0 -216 78.5
t-83 242.5q0 163 101.5 268t247.5 105q128 0 211 -77.5t83 -227.5zM600 377q0 113 -51.5 183t-149.5 70q-82 0 -137.5 -48.5t-79 -121t-23.5 -163.5q0 -124 52.5 -193.5t156.5 -69.5q66 0 114 31t72.5 83.5t35 108.5t10.5 120z" />
    <glyph glyph-name="Oslash" unicode="&#xd8;" horiz-adv-x="764" 
d="M738 665l-87 -88q7 -8 17 -23t27 -67.5t17 -112.5q0 -174 -93 -281.5t-251 -107.5q-43 0 -81 8.5t-62.5 20t-42.5 23.5t-26 21l-7 8l-67 -69q-23 -2 -36 -2l-29 2l104 104q-6 8 -14.5 22.5t-23 68t-14.5 114.5q0 163 101.5 268t247.5 105q61 0 111.5 -17.5t70.5 -35.5
l20 -17l53 56q23 2 35 2zM565 551q-2 3 -5.5 8.5t-17 19t-30 24t-44.5 19t-59 8.5q-82 0 -137.5 -48.5t-79 -121t-23.5 -163.5q0 -36 4.5 -68.5t9.5 -46.5l5 -14q125 126 204 207zM610 377q0 39 -6 72.5t-12 46.5l-6 14q-97 -97 -160 -161l-219 -224q2 -4 5.5 -10
t17.5 -21.5t31.5 -27.5t49 -22t67.5 -10q66 0 114 31t72.5 83.5t35 108.5t10.5 120z" />
    <glyph glyph-name="Ugrave" unicode="&#xd9;" horiz-adv-x="690" 
d="M464 716q-15 -11 -32 -11q-30 0 -114 56q-31 22 -40.5 33.5t-9.5 34.5q0 11 3 27.5t6 27.5l3 12q42 -46 83 -86zM724 665l-2 -30q-38 0 -55.5 -14.5t-32 -76.5t-25.5 -197q-10 -129 -23.5 -183t-39.5 -86q-71 -88 -220 -88q-230 0 -230 212q0 33 13 171.5t13 187.5
q0 38 -15 56t-59 18l2 29q76 -2 120 -2l140 3l-2 -30q-26 0 -37 -1.5t-24.5 -9.5t-20.5 -26t-13 -50q-13 -63 -22.5 -175t-9.5 -174q0 -83 34 -121t117 -38q161 0 196 123q14 54 31 248q6 69 6 121q0 63 -17 83t-66 20l2 30q76 -3 124 -3z" />
    <glyph glyph-name="Uacute" unicode="&#xda;" horiz-adv-x="690" 
d="M556 873q0 -42 -11 -58t-53 -42q-93 -56 -122 -56q-7 0 -14 2t-10 4l-3 2q61 49 112 93l99 87q2 -15 2 -32zM724 665l-2 -30q-38 0 -55.5 -14.5t-32 -76.5t-25.5 -197q-10 -129 -23.5 -183t-39.5 -86q-71 -88 -220 -88q-230 0 -230 212q0 33 13 171.5t13 187.5
q0 38 -15 56t-59 18l2 29q76 -2 120 -2l140 3l-2 -30q-26 0 -37 -1.5t-24.5 -9.5t-20.5 -26t-13 -50q-13 -63 -22.5 -175t-9.5 -174q0 -83 34 -121t117 -38q161 0 196 123q14 54 31 248q6 69 6 121q0 63 -17 83t-66 20l2 30q76 -3 124 -3z" />
    <glyph glyph-name="Ucircumflex" unicode="&#xdb;" horiz-adv-x="690" 
d="M571 721q-34 -18 -63 -18q-20 0 -45 24.5t-40 48.5l-15 24q-8 -11 -21.5 -27.5t-44.5 -43.5t-49 -27q-24 0 -42 8q28 22 82 71q17 16 41 42t39 44l15 18q28 -50 60 -85q20 -23 41 -42.5t31 -27.5zM724 665l-2 -30q-38 0 -55.5 -14.5t-32 -76.5t-25.5 -197
q-10 -129 -23.5 -183t-39.5 -86q-71 -88 -220 -88q-230 0 -230 212q0 33 13 171.5t13 187.5q0 38 -15 56t-59 18l2 29q76 -2 120 -2l140 3l-2 -30q-26 0 -37 -1.5t-24.5 -9.5t-20.5 -26t-13 -50q-13 -63 -22.5 -175t-9.5 -174q0 -83 34 -121t117 -38q161 0 196 123
q14 54 31 248q6 69 6 121q0 63 -17 83t-66 20l2 30q76 -3 124 -3z" />
    <glyph glyph-name="Udieresis" unicode="&#xdc;" horiz-adv-x="690" 
d="M575 773q0 -23 -14.5 -40t-41.5 -17q-24 0 -38 14t-14 34q0 26 15 42t40 16q24 0 38.5 -13t14.5 -36zM366 773q0 -23 -14.5 -40t-41.5 -17q-24 0 -38 14t-14 34q0 26 15 42t40 16q24 0 38.5 -13t14.5 -36zM724 665l-2 -30q-38 0 -55.5 -14.5t-32 -76.5t-25.5 -197
q-10 -129 -23.5 -183t-39.5 -86q-71 -88 -220 -88q-230 0 -230 212q0 33 13 171.5t13 187.5q0 38 -15 56t-59 18l2 29q76 -2 120 -2l140 3l-2 -30q-26 0 -37 -1.5t-24.5 -9.5t-20.5 -26t-13 -50q-13 -63 -22.5 -175t-9.5 -174q0 -83 34 -121t117 -38q161 0 196 123
q14 54 31 248q6 69 6 121q0 63 -17 83t-66 20l2 30q76 -3 124 -3z" />
    <glyph glyph-name="germandbls" unicode="&#xdf;" horiz-adv-x="522" 
d="M500 123q0 -58 -42.5 -94t-116.5 -36q-56 0 -87 17.5t-31 50.5q0 34 12.5 51.5t31.5 17.5l20 -4q-7 -18 -7 -39q0 -26 16 -41.5t48 -15.5q38 0 60 18.5t22 45.5q0 22 -12 40.5t-46 43.5q-60 46 -83.5 79t-23.5 71q0 35 13 61.5t43.5 59.5t38.5 44q51 67 51 111
q0 38 -26.5 66.5t-71.5 28.5q-53 0 -82 -45q-29 -44 -38 -157q-2 -26 -5.5 -97t-5.5 -107q-11 -175 -23 -243q-25 -164 -90 -245q-90 -111 -190 -111q-37 0 -58 17.5t-21 44.5q0 21 9 38t17 24l9 7h8q0 -71 77 -71q68 0 107 69q36 60 49 179l40 409h-27l-73 -3q6 27 9 31
q7 12 26 12l68 -1q0 14 1.5 35.5t12.5 71.5t30 78q34 51 82.5 81t102.5 30q67 0 105.5 -34t38.5 -85q0 -43 -25.5 -85t-56.5 -69.5t-56.5 -58.5t-25.5 -55q0 -23 15.5 -41t70.5 -61q49 -39 69.5 -67.5t20.5 -66.5z" />
    <glyph glyph-name="agrave" unicode="&#xe0;" horiz-adv-x="437" 
d="M355 506q-15 -11 -32 -11q-30 0 -114 56q-31 22 -40.5 33.5t-9.5 34.5q0 11 3 27.5t6 27.5l3 12q42 -46 83 -86zM447 67q0 -19 -15 -28q-65 -44 -113 -44q-39 0 -39 44q0 56 31 204l-3 2q-30 -101 -91 -176t-119 -75q-36 0 -50.5 32t-14.5 96q0 137 72.5 234.5
t180.5 97.5q21 0 46.5 -2.5t35.5 -2.5l35 5q-16 -93 -26 -178q-15 -123 -15 -181q0 -37 30 -37q11 0 24.5 4.5t21.5 9.5l8 4q1 -6 1 -9zM314 403q-20 6 -44 6q-75 0 -111 -58q-49 -77 -49 -189q0 -100 36 -100q29 0 70 63.5t70 155.5q9 28 16 58.5t10 46.5z" />
    <glyph glyph-name="aacute" unicode="&#xe1;" horiz-adv-x="437" 
d="M420 653q0 -42 -11 -58t-53 -42q-93 -56 -122 -56q-7 0 -14 2t-10 4l-3 2q61 49 112 93l99 87q2 -15 2 -32zM447 67q0 -19 -15 -28q-65 -44 -113 -44q-39 0 -39 44q0 56 31 204l-3 2q-30 -101 -91 -176t-119 -75q-36 0 -50.5 32t-14.5 96q0 137 72.5 234.5t180.5 97.5
q21 0 46.5 -2.5t35.5 -2.5l35 5q-16 -93 -26 -178q-15 -123 -15 -181q0 -37 30 -37q11 0 24.5 4.5t21.5 9.5l8 4q1 -6 1 -9zM314 403q-20 6 -44 6q-75 0 -111 -58q-49 -77 -49 -189q0 -100 36 -100q29 0 70 63.5t70 155.5q9 28 16 58.5t10 46.5z" />
    <glyph glyph-name="acircumflex" unicode="&#xe2;" horiz-adv-x="437" 
d="M452 511q-34 -18 -63 -18q-20 0 -45 24.5t-40 48.5l-15 24q-8 -11 -21.5 -27.5t-44.5 -43.5t-49 -27q-24 0 -42 8q28 22 82 71q17 16 41 42t39 44l15 18q28 -50 60 -85q20 -23 40.5 -42.5t31.5 -27.5zM447 67q0 -19 -15 -28q-65 -44 -113 -44q-39 0 -39 44q0 56 31 204
l-3 2q-30 -101 -91 -176t-119 -75q-36 0 -50.5 32t-14.5 96q0 137 72.5 234.5t180.5 97.5q21 0 46.5 -2.5t35.5 -2.5l35 5q-16 -93 -26 -178q-15 -123 -15 -181q0 -37 30 -37q11 0 24.5 4.5t21.5 9.5l8 4q1 -6 1 -9zM314 403q-20 6 -44 6q-75 0 -111 -58q-49 -77 -49 -189
q0 -100 36 -100q29 0 70 63.5t70 155.5q9 28 16 58.5t10 46.5z" />
    <glyph glyph-name="atilde" unicode="&#xe3;" horiz-adv-x="437" 
d="M445 621q0 -40 -30.5 -79.5t-73.5 -39.5q-31 0 -70.5 36t-64.5 36q-17 0 -34 -12.5t-27 -30.5l-10 -20q-13 5 -13 14q0 37 28.5 75t71.5 38q33 0 73.5 -33t64.5 -33q38 0 60 41l11 21q14 -4 14 -13zM447 67q0 -19 -15 -28q-65 -44 -113 -44q-39 0 -39 44q0 56 31 204
l-3 2q-30 -101 -91 -176t-119 -75q-36 0 -50.5 32t-14.5 96q0 137 72.5 234.5t180.5 97.5q21 0 46.5 -2.5t35.5 -2.5l35 5q-16 -93 -26 -178q-15 -123 -15 -181q0 -37 30 -37q11 0 24.5 4.5t21.5 9.5l8 4q1 -6 1 -9zM314 403q-20 6 -44 6q-75 0 -111 -58q-49 -77 -49 -189
q0 -100 36 -100q29 0 70 63.5t70 155.5q9 28 16 58.5t10 46.5z" />
    <glyph glyph-name="adieresis" unicode="&#xe4;" horiz-adv-x="437" 
d="M444 563q0 -23 -14.5 -40t-41.5 -17q-24 0 -38 14t-14 34q0 26 15 42t40 16q24 0 38.5 -13t14.5 -36zM235 563q0 -23 -14.5 -40t-41.5 -17q-24 0 -38 14t-14 34q0 26 15 42t40 16q24 0 38.5 -13t14.5 -36zM447 67q0 -19 -15 -28q-65 -44 -113 -44q-39 0 -39 44
q0 56 31 204l-3 2q-30 -101 -91 -176t-119 -75q-36 0 -50.5 32t-14.5 96q0 137 72.5 234.5t180.5 97.5q21 0 46.5 -2.5t35.5 -2.5l35 5q-16 -93 -26 -178q-15 -123 -15 -181q0 -37 30 -37q11 0 24.5 4.5t21.5 9.5l8 4q1 -6 1 -9zM314 403q-20 6 -44 6q-75 0 -111 -58
q-49 -77 -49 -189q0 -100 36 -100q29 0 70 63.5t70 155.5q9 28 16 58.5t10 46.5z" />
    <glyph glyph-name="aring" unicode="&#xe5;" horiz-adv-x="437" 
d="M393 588q0 -39 -25.5 -66.5t-61.5 -27.5q-37 0 -62 25.5t-25 66.5q0 39 25.5 65.5t62.5 26.5q38 0 62 -25.5t24 -64.5zM447 67q0 -19 -15 -28q-65 -44 -113 -44q-39 0 -39 44q0 56 31 204l-3 2q-30 -101 -91 -176t-119 -75q-36 0 -50.5 32t-14.5 96q0 137 72.5 234.5
t180.5 97.5q21 0 46.5 -2.5t35.5 -2.5l35 5q-16 -93 -26 -178q-15 -123 -15 -181q0 -37 30 -37q11 0 24.5 4.5t21.5 9.5l8 4q1 -6 1 -9zM351 586q0 20 -13 35t-32 15t-32 -15t-13 -35q0 -21 13.5 -36.5t31.5 -15.5t31.5 15.5t13.5 36.5zM314 403q-20 6 -44 6q-75 0 -111 -58
q-49 -77 -49 -189q0 -100 36 -100q29 0 70 63.5t70 155.5q9 28 16 58.5t10 46.5z" />
    <glyph glyph-name="ae" unicode="&#xe6;" horiz-adv-x="589" 
d="M576 370q0 -46 -34 -84t-85 -53q-38 -12 -90 -12l-22 1q-3 -21 -3 -37q0 -130 111 -130q58 0 117 47l-6 -31q-24 -38 -64 -57t-79 -19q-141 0 -150 159q-36 -70 -83 -115t-90 -45q-36 0 -50.5 32t-14.5 96q0 137 72.5 234.5t180.5 97.5q32 0 56.5 -5t33.5 -11l8 -5
q33 21 97 21q48 0 71.5 -24t23.5 -60zM500 362q0 22 -13 34t-33 12q-41 0 -68.5 -39t-37.5 -111q6 -1 12 -1q64 0 102 26t38 79zM314 402q-16 9 -44 9q-40 0 -65 -13.5t-46 -46.5q-49 -77 -49 -189q0 -100 36 -100q29 0 70 63.5t70 155.5q9 28 16 58t10 47z" />
    <glyph glyph-name="ccedilla" unicode="&#xe7;" horiz-adv-x="344" 
d="M340 395q0 -34 -23 -59q-9 -9 -30 -9h-31q3 14 3 30q0 51 -47 51q-38 0 -70.5 -54.5t-32.5 -153.5q0 -78 29.5 -110.5t86.5 -32.5q44 0 106 43l-8 -27q-26 -44 -80 -64l2 -3q-42 -22 -68 -39l-36 -28q10 1 16 1q28 0 50 -16t22 -48q0 -37 -41.5 -69t-93.5 -32
q-5 0 -11 6.5t-9 12.5l-4 6q10 2 24 6t37.5 22t23.5 41q0 43 -52 48l-9 10q20 36 65 70q-125 13 -125 159q0 121 60.5 209t150.5 88q46 0 70.5 -16t24.5 -42z" />
    <glyph glyph-name="egrave" unicode="&#xe8;" horiz-adv-x="350" 
d="M304 506q-15 -11 -32 -11q-30 0 -114 56q-31 22 -40.5 33.5t-9.5 34.5q0 11 3 27.5t6 27.5l3 12q42 -46 83 -86zM337 370q0 -46 -34 -84t-85 -53q-38 -12 -90 -12l-22 1q-3 -12 -3 -42q0 -125 111 -125q58 0 117 47l-6 -31q-24 -38 -64 -57t-79 -19q-78 0 -114 45
t-36 135q2 115 56 195q59 84 154 84q48 0 71.5 -24t23.5 -60zM261 362q0 22 -13 34t-33 12q-44 0 -70.5 -41.5t-35.5 -108.5q6 -1 12 -1q64 0 102 26t38 79z" />
    <glyph glyph-name="eacute" unicode="&#xe9;" horiz-adv-x="350" 
d="M374 653q0 -42 -11 -58t-53 -42q-93 -56 -122 -56q-7 0 -14 2t-10 4l-3 2q61 49 112 93l99 87q2 -15 2 -32zM337 370q0 -46 -34 -84t-85 -53q-38 -12 -90 -12l-22 1q-3 -12 -3 -42q0 -125 111 -125q58 0 117 47l-6 -31q-24 -38 -64 -57t-79 -19q-78 0 -114 45t-36 135
q2 115 56 195q59 84 154 84q48 0 71.5 -24t23.5 -60zM261 362q0 22 -13 34t-33 12q-44 0 -70.5 -41.5t-35.5 -108.5q6 -1 12 -1q64 0 102 26t38 79z" />
    <glyph glyph-name="ecircumflex" unicode="&#xea;" horiz-adv-x="350" 
d="M401 511q-34 -18 -63 -18q-20 0 -45 24.5t-40 48.5l-15 24q-8 -11 -21.5 -27.5t-44.5 -43.5t-49 -27q-24 0 -42 8q28 22 82 71q17 16 41 42t39 44l15 18q28 -50 60 -85q20 -23 41 -42.5t31 -27.5zM337 370q0 -46 -34 -84t-85 -53q-38 -12 -90 -12l-22 1q-3 -12 -3 -42
q0 -125 111 -125q58 0 117 47l-6 -31q-24 -38 -64 -57t-79 -19q-78 0 -114 45t-36 135q2 115 56 195q59 84 154 84q48 0 71.5 -24t23.5 -60zM261 362q0 22 -13 34t-33 12q-44 0 -70.5 -41.5t-35.5 -108.5q6 -1 12 -1q64 0 102 26t38 79z" />
    <glyph glyph-name="edieresis" unicode="&#xeb;" horiz-adv-x="350" 
d="M402 563q0 -23 -14.5 -40t-41.5 -17q-24 0 -38 14t-14 34q0 26 15 42t40 16q24 0 38.5 -13t14.5 -36zM193 563q0 -23 -14.5 -40t-41.5 -17q-24 0 -38 14t-14 34q0 26 15 42t40 16q24 0 38.5 -13t14.5 -36zM337 370q0 -46 -34 -84t-85 -53q-38 -12 -90 -12l-22 1
q-3 -12 -3 -42q0 -125 111 -125q58 0 117 47l-6 -31q-24 -38 -64 -57t-79 -19q-78 0 -114 45t-36 135q2 115 56 195q59 84 154 84q48 0 71.5 -24t23.5 -60zM261 362q0 22 -13 34t-33 12q-44 0 -70.5 -41.5t-35.5 -108.5q6 -1 12 -1q64 0 102 26t38 79z" />
    <glyph glyph-name="igrave" unicode="&#xec;" horiz-adv-x="229" 
d="M201 506q-15 -11 -32 -11q-30 0 -114 56q-31 22 -40.5 33.5t-9.5 34.5q0 11 3 27.5t6 27.5l3 12q42 -46 83 -86zM227 76q-8 -27 -12 -31q-14 -15 -56.5 -32.5t-69.5 -17.5q-18 0 -25.5 7.5t-7.5 25.5q0 3 26 213q10 77 10 115t-31 38q-18 0 -48 -10q4 26 14 34
q16 11 52 23t58 12q36 0 36 -36q0 -25 -18 -170.5t-18 -157.5q0 -30 30 -30q9 0 24 4.5t25 8.5z" />
    <glyph glyph-name="iacute" unicode="&#xed;" horiz-adv-x="229" 
d="M278 653q0 -42 -11 -58t-53 -42q-93 -56 -122 -56q-7 0 -14 2t-10 4l-3 2q61 49 112 93l99 87q2 -15 2 -32zM227 76q-8 -27 -12 -31q-14 -15 -56.5 -32.5t-69.5 -17.5q-18 0 -25.5 7.5t-7.5 25.5q0 3 26 213q10 77 10 115t-31 38q-18 0 -48 -10q4 26 14 34q16 11 52 23
t58 12q36 0 36 -36q0 -25 -18 -170.5t-18 -157.5q0 -30 30 -30q9 0 24 4.5t25 8.5z" />
    <glyph glyph-name="icircumflex" unicode="&#xee;" horiz-adv-x="229" 
d="M304 511q-34 -18 -63 -18q-20 0 -45 24.5t-40 48.5l-15 24q-8 -11 -21.5 -27.5t-44.5 -43.5t-49 -27q-24 0 -42 8q28 22 82 71q17 16 41 42t39 44l15 18q28 -50 60 -85q20 -23 40.5 -42.5t31.5 -27.5zM227 76q-8 -27 -12 -31q-14 -15 -56.5 -32.5t-69.5 -17.5
q-18 0 -25.5 7.5t-7.5 25.5q0 3 26 213q10 77 10 115t-31 38q-18 0 -48 -10q4 26 14 34q16 11 52 23t58 12q36 0 36 -36q0 -25 -18 -170.5t-18 -157.5q0 -30 30 -30q9 0 24 4.5t25 8.5z" />
    <glyph glyph-name="idieresis" unicode="&#xef;" horiz-adv-x="229" 
d="M283 563q0 -23 -14.5 -40t-41.5 -17q-24 0 -38 14t-14 34q0 26 15 42t40 16q24 0 38.5 -13t14.5 -36zM104 563q0 -23 -14.5 -40t-41.5 -17q-24 0 -38 14t-14 34q0 26 15 42t40 16q24 0 38.5 -13t14.5 -36zM227 76q-8 -27 -12 -31q-14 -15 -56.5 -32.5t-69.5 -17.5
q-18 0 -25.5 7.5t-7.5 25.5q0 3 26 213q10 77 10 115t-31 38q-18 0 -48 -10q4 26 14 34q16 11 52 23t58 12q36 0 36 -36q0 -25 -18 -170.5t-18 -157.5q0 -30 30 -30q9 0 24 4.5t25 8.5z" />
    <glyph glyph-name="ntilde" unicode="&#xf1;" horiz-adv-x="469" 
d="M429 621q0 -40 -30.5 -79.5t-73.5 -39.5q-31 0 -70.5 36t-64.5 36q-17 0 -34 -12.5t-27 -30.5l-10 -20q-13 5 -13 14q0 37 28.5 75t71.5 38q33 0 73.5 -33t64.5 -33q38 0 60 41l11 21q14 -4 14 -13zM468 74q-8 -27 -12 -31q-14 -15 -56.5 -32.5t-69.5 -17.5
q-18 0 -25.5 7.5t-7.5 25.5q0 21 19.5 158.5t19.5 165.5q0 40 -22 40q-24 0 -61.5 -51t-66.5 -122q-19 -47 -32 -100.5t-16 -84.5l-3 -30q-18 0 -41 -2l-40 -6q37 269 37 356q0 24 -6.5 34t-22.5 10q-8 0 -20.5 -2.5t-21.5 -5.5l-8 -2q2 10 3 13q3 12 7 17t15 10
q58 29 95 29q40 0 40 -35q0 -12 -4 -44.5t-11 -87t-11 -89.5h3q11 48 44 108.5t74 102.5q44 45 98 45q48 0 48 -52q0 -24 -16 -149.5t-16 -150.5q0 -27 6 -35.5t21 -8.5q9 0 24 4.5t26 8.5z" />
    <glyph glyph-name="ograve" unicode="&#xf2;" horiz-adv-x="432" 
d="M339 506q-15 -11 -32 -11q-30 0 -114 56q-31 22 -40.5 33.5t-9.5 34.5q0 11 3 27.5t6 27.5l3 12q42 -46 83 -86zM398 285q0 -120 -58.5 -205.5t-156.5 -85.5q-78 0 -113.5 39.5t-35.5 127.5q0 130 63.5 212t164.5 82q136 0 136 -170zM315 266q0 79 -18.5 112.5
t-58.5 33.5q-58 0 -92 -60.5t-34 -163.5q0 -83 18.5 -118t62.5 -35q61 0 91.5 67.5t30.5 163.5z" />
    <glyph glyph-name="oacute" unicode="&#xf3;" horiz-adv-x="432" 
d="M393 653v-6q0 -37 -11.5 -52.5t-52.5 -41.5q-93 -56 -122 -56q-7 0 -14 2t-10 4l-3 2q61 49 112 93l99 87q2 -15 2 -32zM398 285q0 -120 -58.5 -205.5t-156.5 -85.5q-78 0 -113.5 39.5t-35.5 127.5q0 130 63.5 212t164.5 82q136 0 136 -170zM315 266q0 79 -18.5 112.5
t-58.5 33.5q-58 0 -92 -60.5t-34 -163.5q0 -83 18.5 -118t62.5 -35q61 0 91.5 67.5t30.5 163.5z" />
    <glyph glyph-name="ocircumflex" unicode="&#xf4;" horiz-adv-x="432" 
d="M425 511q-34 -18 -63 -18q-20 0 -45 24.5t-40 48.5l-15 24q-8 -11 -21.5 -27.5t-44.5 -43.5t-49 -27q-24 0 -42 8q28 22 82 71q17 16 41 42t39 44l15 18q28 -50 60 -85q20 -23 41 -42.5t31 -27.5zM398 285q0 -120 -58.5 -205.5t-156.5 -85.5q-78 0 -113.5 39.5
t-35.5 127.5q0 130 63.5 212t164.5 82q136 0 136 -170zM315 266q0 79 -18.5 112.5t-58.5 33.5q-58 0 -92 -60.5t-34 -163.5q0 -83 18.5 -118t62.5 -35q61 0 91.5 67.5t30.5 163.5z" />
    <glyph glyph-name="otilde" unicode="&#xf5;" horiz-adv-x="432" 
d="M422 621q0 -40 -30.5 -79.5t-73.5 -39.5q-31 0 -70.5 36t-64.5 36q-17 0 -34 -12.5t-27 -30.5l-10 -20q-13 5 -13 14q0 37 28.5 75t71.5 38q33 0 73.5 -33t64.5 -33q38 0 60 41l11 21q14 -4 14 -13zM398 285q0 -120 -58.5 -205.5t-156.5 -85.5q-78 0 -113.5 39.5
t-35.5 127.5q0 130 63.5 212t164.5 82q136 0 136 -170zM315 266q0 79 -18.5 112.5t-58.5 33.5q-58 0 -92 -60.5t-34 -163.5q0 -83 18.5 -118t62.5 -35q61 0 91.5 67.5t30.5 163.5z" />
    <glyph glyph-name="odieresis" unicode="&#xf6;" horiz-adv-x="432" 
d="M420 563q0 -23 -14.5 -40t-41.5 -17q-24 0 -38 14t-14 34q0 26 15 42t40 16q24 0 38.5 -13t14.5 -36zM211 563q0 -23 -14.5 -40t-41.5 -17q-24 0 -38 14t-14 34q0 26 15 42t40 16q24 0 38.5 -13t14.5 -36zM398 285q0 -120 -58.5 -205.5t-156.5 -85.5q-78 0 -113.5 39.5
t-35.5 127.5q0 130 63.5 212t164.5 82q136 0 136 -170zM315 266q0 79 -18.5 112.5t-58.5 33.5q-58 0 -92 -60.5t-34 -163.5q0 -83 18.5 -118t62.5 -35q61 0 91.5 67.5t30.5 163.5z" />
    <glyph glyph-name="divide" unicode="&#xf7;" horiz-adv-x="549" 
d="M328 371q0 -24 -16.5 -40t-41.5 -16q-22 0 -37.5 16.5t-15.5 39.5t16.5 39.5t39.5 16.5t39 -16t16 -40zM464 198h-379v55h379v-55zM328 81q0 -24 -16.5 -40t-41.5 -16q-22 0 -37.5 16.5t-15.5 39.5t16.5 39.5t39.5 16.5t39 -16t16 -40z" />
    <glyph glyph-name="oslash" unicode="&#xf8;" horiz-adv-x="460" 
d="M489 449l-86 -86q9 -27 9 -78q0 -120 -58.5 -205.5t-156.5 -85.5q-41 0 -70 11t-38 22l-9 11q-32 -34 -35 -37q-18 -2 -31 -2q-16 0 -24 2l71 71q-13 32 -13 89q0 130 63.5 212t164.5 82q39 0 67 -14t37 -28l8 -14l46 50q20 1 32 1zM324 334q0 3 -1 8.5t-5 19t-11 23.5
t-21.5 18.5t-33.5 8.5q-58 0 -92 -60.5t-34 -163.5l2 -50zM329 266v23l-194 -195q0 -2 1 -6t6.5 -14.5t12.5 -18t20.5 -14t30.5 -6.5q61 0 92 68t31 163z" />
    <glyph glyph-name="ugrave" unicode="&#xf9;" horiz-adv-x="473" 
d="M326 506q-15 -11 -32 -11q-30 0 -114 56q-31 22 -40.5 33.5t-9.5 34.5q0 11 3 27.5t6 27.5l3 12q42 -46 83 -86zM468 68q0 -15 -12.5 -28t-48.5 -29q-37 -16 -70 -16q-21 0 -28.5 12t-7.5 43q0 28 7.5 76.5t15.5 83.5l8 34l-3 1q-41 -116 -127 -199q-51 -50 -91 -50
q-50 0 -50 55q0 24 15.5 150t15.5 163q0 11 -7 20.5t-24 9.5q-10 0 -22 -2.5t-19 -5.5l-7 -2q4 25 9 30q9 9 49 24t63 15q21 0 29.5 -10t8.5 -32q0 -18 -18 -160q-14 -109 -14 -141q0 -41 22 -41q25 0 70 65t72 137q12 31 22 87t13 92h23l61 7q-42 -291 -42 -345
q0 -31 6.5 -43.5t23.5 -12.5q22 0 56 20q1 -5 1 -8z" />
    <glyph glyph-name="uacute" unicode="&#xfa;" horiz-adv-x="473" 
d="M411 653q0 -42 -11 -58t-53 -42q-93 -56 -122 -56q-7 0 -14 2t-10 4l-3 2q61 49 112 93l99 87q2 -15 2 -32zM468 68q0 -15 -12.5 -28t-48.5 -29q-37 -16 -70 -16q-21 0 -28.5 12t-7.5 43q0 28 7.5 76.5t15.5 83.5l8 34l-3 1q-41 -116 -127 -199q-51 -50 -91 -50
q-50 0 -50 55q0 24 15.5 150t15.5 163q0 11 -7 20.5t-24 9.5q-10 0 -22 -2.5t-19 -5.5l-7 -2q4 25 9 30q9 9 49 24t63 15q21 0 29.5 -10t8.5 -32q0 -18 -18 -160q-14 -109 -14 -141q0 -41 22 -41q25 0 70 65t72 137q12 31 22 87t13 92h23l61 7q-42 -291 -42 -345
q0 -31 6.5 -43.5t23.5 -12.5q22 0 56 20q1 -5 1 -8z" />
    <glyph glyph-name="ucircumflex" unicode="&#xfb;" horiz-adv-x="473" 
d="M423 511q-34 -18 -63 -18q-20 0 -45 24.5t-40 48.5l-15 24q-8 -11 -21.5 -27.5t-44.5 -43.5t-49 -27q-24 0 -42 8q28 22 82 71q17 16 41 42t39 44l15 18q28 -50 60 -85q20 -23 41 -42.5t31 -27.5zM468 68q0 -15 -12.5 -28t-48.5 -29q-37 -16 -70 -16q-21 0 -28.5 12
t-7.5 43q0 28 7.5 76.5t15.5 83.5l8 34l-3 1q-41 -116 -127 -199q-51 -50 -91 -50q-50 0 -50 55q0 24 15.5 150t15.5 163q0 11 -7 20.5t-24 9.5q-10 0 -22 -2.5t-19 -5.5l-7 -2q4 25 9 30q9 9 49 24t63 15q21 0 29.5 -10t8.5 -32q0 -18 -18 -160q-14 -109 -14 -141
q0 -41 22 -41q25 0 70 65t72 137q12 31 22 87t13 92h23l61 7q-42 -291 -42 -345q0 -31 6.5 -43.5t23.5 -12.5q22 0 56 20q1 -5 1 -8z" />
    <glyph glyph-name="udieresis" unicode="&#xfc;" horiz-adv-x="473" 
d="M419 563q0 -23 -14.5 -40t-41.5 -17q-24 0 -38 14t-14 34q0 26 15 42t40 16q24 0 38.5 -13t14.5 -36zM210 563q0 -23 -14.5 -40t-41.5 -17q-24 0 -38 14t-14 34q0 26 15 42t40 16q24 0 38.5 -13t14.5 -36zM468 68q0 -15 -12.5 -28t-48.5 -29q-37 -16 -70 -16
q-21 0 -28.5 12t-7.5 43q0 28 7.5 76.5t15.5 83.5l8 34l-3 1q-41 -116 -127 -199q-51 -50 -91 -50q-50 0 -50 55q0 24 15.5 150t15.5 163q0 11 -7 20.5t-24 9.5q-10 0 -22 -2.5t-19 -5.5l-7 -2q4 25 9 30q9 9 49 24t63 15q21 0 29.5 -10t8.5 -32q0 -18 -18 -160
q-14 -109 -14 -141q0 -41 22 -41q25 0 70 65t72 137q12 31 22 87t13 92h23l61 7q-42 -291 -42 -345q0 -31 6.5 -43.5t23.5 -12.5q22 0 56 20q1 -5 1 -8z" />
    <glyph glyph-name="ydieresis" unicode="&#xff;" horiz-adv-x="458" 
d="M407 563q0 -23 -14.5 -40t-41.5 -17q-24 0 -38 14t-14 34q0 26 15 42t40 16q24 0 38.5 -13t14.5 -36zM198 563q0 -23 -14.5 -40t-41.5 -17q-24 0 -38 14t-14 34q0 26 15 42t40 16q24 0 38.5 -13t14.5 -36zM432 415q0 -40 -37 -156q-40 -126 -103 -244.5t-133 -202.5
q-111 -134 -206 -134q-49 0 -71.5 24.5t-22.5 56.5q0 10 1.5 21t3.5 17l2 6q2 -6 7 -14t28 -22t56 -14q41 0 83.5 24t79.5 64t63 75.5t49 74.5l-45 -18q-9 59 -37 161t-58 178q-27 69 -49 89.5t-49 20.5l-10 -1q19 31 74 31q43 0 64.5 -19.5t44.5 -80.5q25 -66 50.5 -170.5
t29.5 -162.5q47 94 79 190.5t32 156.5q0 52 -55 52l-21 -2q1 21 21 27q27 9 61 9q68 0 68 -37z" />
    <glyph glyph-name="dotlessi" unicode="&#x131;" horiz-adv-x="229" 
d="M227 76q-8 -27 -12 -31q-14 -15 -56.5 -32.5t-69.5 -17.5q-18 0 -25.5 7.5t-7.5 25.5q0 3 26 213q10 77 10 115t-31 38q-18 0 -48 -10q4 26 14 34q16 11 52 23t58 12q36 0 36 -36q0 -25 -18 -170.5t-18 -157.5q0 -30 30 -30q9 0 24 4.5t25 8.5z" />
    <glyph glyph-name="OE" unicode="&#x152;" horiz-adv-x="987" 
d="M960 668q-4 -29 -5 -55l-4 -87h-30q-4 61 -30.5 78.5t-113.5 17.5l-70 -1l-21 -260q47 -2 61 -2q73 0 98.5 12t34.5 58h28q-5 -41 -10 -93l-6 -92h-30v5q0 16 -3 26q-8 29 -33.5 37t-93.5 8l-49 -1q-14 -186 -14 -221q0 -28 14.5 -40t49.5 -12q96 0 126 17t51 90l3 10
l34 -12q1 -8 1 -22q0 -38 -14 -85.5t-35 -47.5q-2 0 -56.5 1.5t-115.5 3t-81 1.5q-9 0 -100 -6t-146 -6q-151 0 -235 68q-106 84 -106 248q0 159 103 262q55 57 125.5 81t171.5 24q61 0 134.5 -5t75.5 -5zM617 560l-1 36q-65 30 -184 30q-127 0 -192 -81q-40 -48 -61 -114
t-21 -134q0 -128 59 -195t166 -67q59 0 106.5 11.5t66.5 23.5l18 11q16 79 28 244q15 220 15 235z" />
    <glyph glyph-name="oe" unicode="&#x153;" horiz-adv-x="639" 
d="M626 370q0 -46 -34 -84t-85 -53q-38 -12 -90 -12l-22 1q-3 -19 -3 -35q0 -132 111 -132q58 0 117 47l-6 -31q-24 -38 -64 -57t-79 -19q-104 0 -134 83q-20 -34 -62 -59t-92 -25q-78 0 -113.5 39.5t-35.5 127.5q0 130 63.5 212t164.5 82q94 0 122 -76q56 75 147 75
q47 0 71 -24.5t24 -59.5zM550 362q0 22 -13 34t-33 12q-40 0 -68.5 -38.5t-37.5 -111.5q6 -1 12 -1q64 0 102 26t38 79zM315 266q0 79 -18.5 112.5t-58.5 33.5q-58 0 -92 -60.5t-34 -163.5q0 -83 18.5 -118t62.5 -35q61 0 91.5 67.5t30.5 163.5z" />
    <glyph glyph-name="Ydieresis" unicode="&#x178;" horiz-adv-x="532" 
d="M483 773q0 -23 -14.5 -40t-41.5 -17q-24 0 -38 14t-14 34q0 26 15 42t40 16q24 0 38.5 -13t14.5 -36zM274 773q0 -23 -14.5 -40t-41.5 -17q-24 0 -38 14t-14 34q0 26 15 42t40 16q24 0 38.5 -13t14.5 -36zM586 665l-2 -30q-9 1 -15 1q-31 0 -68 -37q-37 -38 -97 -133
q-24 -38 -47.5 -80t-34.5 -65l-12 -23q-12 -140 -12 -184q0 -52 13 -65.5t60 -18.5l-2 -30q-83 4 -125 4l-121 -4l2 30q43 0 62 20q13 14 21.5 66.5t19.5 180.5q-23 88 -57 172q-36 89 -63.5 124t-62.5 35l-25 -5q-4 10 -4 23q0 9 20 15.5t48 6.5q94 0 135 -91
q21 -46 37 -105.5t22 -95.5l6 -37q25 62 55 121q64 125 103.5 167.5t96.5 42.5z" />
    <glyph glyph-name="florin" unicode="&#x192;" horiz-adv-x="570" 
d="M587 645q0 -23 -13.5 -38t-32.5 -15l-37 3q5 16 5 25q0 47 -61 47q-49 0 -79 -40.5t-45 -129.5l-15 -100q53 -1 79 -1l68 4q-1 -6 -4.5 -14.5t-16.5 -22.5t-31 -14l-99 6q-25 -212 -47 -305q-37 -157 -110 -245q-46 -54 -90.5 -81.5t-99.5 -27.5q-36 0 -59.5 14.5
t-23.5 43.5q0 31 20.5 46.5t41.5 15.5l14 -3q-4 -12 -4 -25q0 -43 59 -43q111 0 160 257l63 353q-15 1 -34 1q-18 0 -42 -2l-44 -7q10 35 13 39q8 12 26 12l87 -2q20 141 66 206q36 52 86 82t104 30q52 0 74 -20.5t22 -48.5z" />
    <glyph glyph-name="circumflex" unicode="&#x2c6;" 
d="M439 511q-34 -18 -63 -18q-20 0 -45 24.5t-40 48.5l-15 24q-8 -11 -21.5 -27.5t-44.5 -43.5t-49 -27q-24 0 -42 8q28 22 82 71q17 16 41 42t39 44l15 18q28 -50 60 -85q20 -23 40.5 -42.5t31.5 -27.5z" />
    <glyph glyph-name="caron" unicode="&#x2c7;" 
d="M459 661q-28 -22 -82 -71q-17 -16 -41 -42t-39 -44l-15 -18q-28 50 -61 85q-20 23 -40.5 42.5t-30.5 28.5l-11 8q34 18 63 18q21 0 45.5 -24t38.5 -48l15 -25q8 11 22 27.5t45 43.5t49 27q11 0 21.5 -2t15.5 -4z" />
    <glyph glyph-name="breve" unicode="&#x2d8;" 
d="M415 633q-12 -60 -50.5 -100t-92.5 -40q-58 0 -86 39t-30 101h24q16 -78 101 -78q80 0 110 78h24z" />
    <glyph glyph-name="dotaccent" unicode="&#x2d9;" 
d="M346 633q0 -58 -55 -58q-23 0 -37.5 14.5t-14.5 37.5q0 24 16.5 38.5t42.5 14.5q22 0 35 -12.5t13 -34.5z" />
    <glyph glyph-name="ring" unicode="&#x2da;" 
d="M367 582q0 -39 -25.5 -66.5t-61.5 -27.5q-37 0 -62 25.5t-25 66.5q0 39 25.5 65.5t62.5 26.5q38 0 62 -25.5t24 -64.5zM325 580q0 20 -13 35t-32 15t-32 -15t-13 -35q0 -21 13.5 -36.5t31.5 -15.5t31.5 15.5t13.5 36.5z" />
    <glyph glyph-name="ogonek" unicode="&#x2db;" 
d="M328 -104q-2 -23 -5 -34q-6 -23 -32.5 -42t-55.5 -19q-41 0 -66 20.5t-25 57.5q0 72 115 157l36 -10q-2 -2 -18.5 -16t-24 -22.5t-19.5 -23t-17.5 -30t-5.5 -32.5q0 -23 11.5 -35t30.5 -12q21 0 40 10t28 21z" />
    <glyph glyph-name="tilde" unicode="&#x2dc;" 
d="M443 621q0 -40 -30.5 -79.5t-73.5 -39.5q-31 0 -70.5 36t-64.5 36q-17 0 -34 -12.5t-27 -30.5l-10 -20q-13 5 -13 14q0 37 28.5 75t71.5 38q33 0 73.5 -33t64.5 -33q38 0 60 41l11 21q14 -4 14 -13z" />
    <glyph glyph-name="hungarumlaut" unicode="&#x2dd;" 
d="M446 679q0 -58 -62 -101q-95 -66 -107 -66q-6 0 -12.5 2t-10.5 4l-3 1q33 30 103 98l89 90q3 -13 3 -28zM311 679q0 -58 -62 -101q-95 -66 -107 -66q-6 0 -12.5 2t-9.5 4l-4 1q33 30 103 98l89 90q3 -13 3 -28z" />
    <glyph glyph-name="pi" unicode="&#x3c0;" horiz-adv-x="549" 
d="M506 136q0 -65 -31 -106t-73 -41q-35 0 -54.5 28t-19.5 76l18 257h-131l-22 -174q-16 -127 -30 -157q-15 -32 -44 -32q-25 0 -38.5 12t-13.5 31q0 17 10.5 32t23.5 25.5t26.5 34t18.5 54.5l27 174h-54q-22 0 -44 -14t-33 -42h-15l3 10q2 9 4.5 15t7 17.5t10 20.5t13 20
t17 19t21 15.5t26.5 11t32 3.5h338v-76h-111q-12 -142 -12 -174q0 -50 12 -78t48 -28q20 0 36 21t16 45h18z" />
    <glyph glyph-name="endash" unicode="&#x2013;" 
d="M501 279q0 -13 -1.5 -24t-3.5 -15l-1 -5q-164 1 -230 1l-263 -1q-3 4 -3 20q0 9 1.5 19t3.5 15l2 5q202 -1 264 -1l230 1q1 -6 1 -15z" />
    <glyph glyph-name="emdash" unicode="&#x2014;" horiz-adv-x="1000" 
d="M1001 281l-6 -46q-254 1 -480 1l-513 -1q-3 4 -3 19l7 40q279 -1 514 -1l480 1q1 -5 1 -13z" />
    <glyph glyph-name="quoteleft" unicode="&#x2018;" horiz-adv-x="235" 
d="M229 653q-26 -14 -47 -40q-16 -18 -27 -39t-13 -32l-3 -12q9 6 21 6q45 0 45 -52q0 -34 -20.5 -52.5t-50.5 -18.5q-25 0 -41 18t-16 53q0 73 75 148q40 40 60 40q2 0 6.5 -5t7.5 -9z" />
    <glyph glyph-name="quoteright" unicode="&#x2019;" horiz-adv-x="235" 
d="M224 601q0 -73 -75 -148q-40 -40 -60 -40q-2 0 -6.5 4.5t-7.5 9.5l-3 5q26 14 47 40q16 18 27 39t14 33l2 11q-9 -6 -21 -6q-45 0 -45 52q0 34 20.5 52.5t50.5 18.5q25 0 41 -18t16 -53z" />
    <glyph glyph-name="quotesinglbase" unicode="&#x201a;" horiz-adv-x="235" 
d="M173 50q0 -73 -75 -148q-40 -40 -60 -40q-2 0 -6.5 5t-7.5 9l-3 5q26 14 47 40q16 18 27 39t13 32l3 12q-9 -6 -21 -6q-45 0 -45 52q0 34 20.5 52.5t50.5 18.5q25 0 41 -18t16 -53z" />
    <glyph glyph-name="quotedblleft" unicode="&#x201c;" horiz-adv-x="426" 
d="M420 653q-26 -14 -47 -40q-16 -18 -27 -39t-14 -32l-2 -12q9 6 21 6q45 0 45 -52q0 -34 -20.5 -52.5t-50.5 -18.5q-25 0 -41 18t-16 53q0 73 75 148q40 40 60 40q2 0 6.5 -5t7.5 -9zM229 653q-26 -14 -47 -40q-16 -18 -27 -39t-13 -32l-3 -12q9 6 21 6q45 0 45 -52
q0 -34 -20.5 -52.5t-50.5 -18.5q-25 0 -41 18t-16 53q0 73 75 148q40 40 60 40q2 0 6.5 -5t7.5 -9z" />
    <glyph glyph-name="quotedblright" unicode="&#x201d;" horiz-adv-x="426" 
d="M415 601q0 -73 -75 -148q-40 -40 -60 -40q-2 0 -6.5 4.5t-7.5 9.5l-3 5q26 14 47 40q16 18 27 39t13 33l3 11q-9 -6 -21 -6q-45 0 -45 52q0 34 20.5 52.5t50.5 18.5q25 0 41 -18t16 -53zM224 601q0 -73 -75 -148q-40 -40 -60 -40q-2 0 -6.5 4.5t-7.5 9.5l-3 5
q26 14 47 40q16 18 27 39t14 33l2 11q-9 -6 -21 -6q-45 0 -45 52q0 34 20.5 52.5t50.5 18.5q25 0 41 -18t16 -53z" />
    <glyph glyph-name="quotedblbase" unicode="&#x201e;" horiz-adv-x="426" 
d="M364 50q0 -73 -75 -148q-40 -40 -60 -40q-2 0 -6.5 5t-7.5 9l-3 5q26 14 47 40q16 18 27 39t14 32l2 12q-9 -6 -21 -6q-45 0 -45 52q0 34 20.5 52.5t50.5 18.5q25 0 41 -18t16 -53zM173 50q0 -73 -75 -148q-40 -40 -60 -40q-2 0 -6.5 5t-7.5 9l-3 5q26 14 47 40
q16 18 27 39t13 32l3 12q-9 -6 -21 -6q-45 0 -45 52q0 34 20.5 52.5t50.5 18.5q25 0 41 -18t16 -53z" />
    <glyph glyph-name="dagger" unicode="&#x2020;" horiz-adv-x="570" 
d="M491 496q0 -15 -1.5 -28.5t-3.5 -19.5l-2 -6q-107 11 -157 14l-26 -566q-17 -8 -41 -8q-13 0 -23.5 2t-14.5 4l-5 2l61 565l-158 -13q-1 10 -1 20q0 16 1.5 29.5t3.5 18.5l1 5q103 -13 157 -15l-2 176q14 8 45 8q12 0 21 -2t12 -4l4 -2l-31 -176l159 15q1 -8 1 -19z" />
    <glyph glyph-name="daggerdbl" unicode="&#x2021;" horiz-adv-x="570" 
d="M491 496l-7 -54q-107 11 -157 14q1 -71 1 -100q0 -43 -7 -104.5t-13 -101.5l-7 -39l158 13q1 -9 1 -19l-7 -54q-101 13 -156 15l1 -176q-13 -8 -44 -8q-11 0 -20.5 2t-13.5 4l-4 2l32 176l-158 -15q-1 9 -1 21l6 52q107 -11 157 -14q-2 44 -2 81q0 47 7 113t14 108l7 43
l-158 -13q-1 10 -1 20l6 53q103 -13 157 -15l-2 176q14 8 45 8q12 0 21 -2t12 -4l4 -2l-31 -176l159 15q1 -8 1 -19z" />
    <glyph glyph-name="bullet" unicode="&#x2022;" horiz-adv-x="570" 
d="M428 331q0 -62 -42 -107t-101 -45q-61 0 -102 45t-41 107q0 63 40.5 108t102.5 45q61 0 102 -45t41 -108z" />
    <glyph glyph-name="ellipsis" unicode="&#x2026;" horiz-adv-x="1000" 
d="M906 61q0 -30 -19 -49t-50 -19q-27 0 -42.5 16.5t-15.5 43.5q0 30 19 48.5t46 18.5t44.5 -15.5t17.5 -43.5zM573 61q0 -30 -19 -49t-50 -19q-27 0 -42.5 16.5t-15.5 43.5q0 30 19 48.5t46 18.5t44.5 -15.5t17.5 -43.5zM240 61q0 -30 -19 -49t-50 -19q-27 0 -42.5 16.5
t-15.5 43.5q0 30 19 48.5t46 18.5t44.5 -15.5t17.5 -43.5z" />
    <glyph glyph-name="perthousand" unicode="&#x2030;" horiz-adv-x="1053" 
d="M365 529q0 -86 -52 -138.5t-127 -52.5q-61 0 -99.5 39t-38.5 104q0 82 52 136.5t124 54.5q64 0 102.5 -39t38.5 -104zM657 659q0 -26 -3 -41t-7.5 -21.5t-14.5 -16.5q-6 -6 -117.5 -119.5t-148.5 -150.5q-57 -57 -123.5 -125t-103.5 -105l-88 -93q-3 14 -3 31v6
q0 21 6 33.5t25 30.5q15 12 65 62t123 124.5t112 112.5q128 125 209 216q19 20 35.5 40.5t24.5 30.5l7 10q2 -13 2 -25zM1027 182q0 -86 -52 -138.5t-127 -52.5q-61 0 -99.5 39t-38.5 104q0 82 52 136.5t124 54.5q64 0 102.5 -39t38.5 -104zM659 182q0 -86 -52 -138.5
t-127 -52.5q-61 0 -99.5 39t-38.5 104q0 82 52 136.5t124 54.5q64 0 102.5 -39t38.5 -104zM293 526q0 106 -79 106q-45 0 -69.5 -44t-24.5 -117q0 -93 72 -93q46 0 73.5 38.5t27.5 109.5zM955 179q0 106 -79 106q-45 0 -69.5 -44t-24.5 -117q0 -93 72 -93q46 0 73.5 38.5
t27.5 109.5zM587 179q0 106 -79 106q-45 0 -69.5 -44t-24.5 -117q0 -93 72 -93q46 0 73.5 38.5t27.5 109.5z" />
    <glyph glyph-name="guilsinglleft" unicode="&#x2039;" horiz-adv-x="289" 
d="M239 398q0 -19 -30 -52.5t-60 -57.5l-30 -25q11 -10 27.5 -27t44 -54.5t27.5 -58.5q0 -15 -22 -50q-22 39 -55 81q-15 19 -41 46t-45 45l-19 18q61 44 101 87q25 26 45 51.5t27 37.5l7 12q23 -30 23 -53z" />
    <glyph glyph-name="guilsinglright" unicode="&#x203a;" horiz-adv-x="289" 
d="M259 261q-61 -44 -101 -87q-25 -26 -45 -51.5t-27 -37.5l-7 -12q-23 30 -23 53q0 19 30 52.5t60 57.5l30 25q-11 10 -27.5 27t-44 54.5t-27.5 58.5q0 15 22 50q22 -39 55 -81q15 -19 41 -46t45 -45z" />
    <glyph glyph-name="fraction" unicode="&#x2044;" horiz-adv-x="0" 
d="M307 662q0 -40 -12.5 -58.5t-82.5 -89.5q-23 -23 -68.5 -69t-79.5 -81t-53 -54q-53 -54 -130 -132t-95 -96l-91 -94q-1 14 -1 30q0 30 7 42q7 13 78 82q28 27 65.5 64.5t91.5 92t88 88.5q131 132 182 190q40 44 63.5 74t28 39t3.5 9q6 -14 6 -37z" />
    <glyph glyph-name="trademark" unicode="&#x2122;" horiz-adv-x="943" 
d="M401 671q-2 -31 -3 -46l-3 -53h-28q0 3 0.5 8.5t0.5 6.5q0 26 -21 33q-16 5 -70 5h-23q-4 -43 -12 -143q-7 -89 -7 -102q0 -28 9 -35q4 -4 12.5 -6.5t15.5 -2.5l6 -1l-2 -30q-52 1 -78 1l-78 -1l2 30q27 2 36 10q9 7 13 30.5t11 103.5l12 146h-25h-20q-47 0 -61 -12
q-4 -4 -8 -14t-6 -19l-1 -8h-29q7 42 9 60l3 37q97 -4 174 -4q78 0 134 2zM919 665l-2 -31q-25 0 -34 -9t-11 -33q-8 -112 -8 -213q0 -27 7 -35.5t28 -8.5l-2 -30q-61 1 -74 1l-72 -1l2 30h3q30 0 37 17q8 21 12 80l6 163q-83 -152 -153 -284q-2 -4 -11.5 -6.5t-18.5 -3.5
l-8 -1l-97 287q-8 -54 -15 -112q-12 -106 -12 -115q0 -13 7.5 -18t30.5 -7l-2 -30q-43 1 -68 1l-65 -1l2 30q32 0 45 23q12 22 25 116q13 97 13 116q0 26 -11.5 35t-37.5 9l3 31h48l76 2q5 -21 28.5 -90.5t44.5 -128.5l21 -59q101 180 139 255q12 21 25 21q2 0 24.5 -0.5
t29.5 -0.5z" />
    <glyph glyph-name="Omega" unicode="&#x2126;" horiz-adv-x="768" 
d="M736 0h-295l16 140q62 24 107 86.5t45 177.5t-56.5 191t-167.5 76q-113 0 -168.5 -73.5t-55.5 -193.5q0 -116 46 -180t106 -84l16 -140h-295v150h25q9 -37 22 -49t44 -12h148l-2 28q-102 23 -158 106.5t-56 180.5q0 136 92 217.5t236 81.5q149 0 238.5 -81t89.5 -218
q0 -64 -20 -120.5t-70 -103.5t-124 -63l-3 -28h149q31 0 44 12t22 49h25v-150z" />
    <glyph glyph-name="partialdiff" unicode="&#x2202;" horiz-adv-x="494" 
d="M462 393q0 -107 -25.5 -196.5t-85 -150.5t-144.5 -61q-76 0 -121 47t-45 143q0 132 58.5 197.5t141.5 65.5q51 0 80 -14t61 -49q3 36 3 75q0 104 -39.5 156t-129.5 52q-17 0 -31.5 -1.5t-23.5 -3.5t-19.5 -6t-14 -6t-13 -7.5t-10.5 -6.5l-39 50q56 28 134 28
q125 0 194 -89.5t69 -222.5zM377 335q-16 18 -25.5 27t-34 20t-52.5 11q-70 0 -105.5 -58t-35.5 -160q0 -87 22.5 -122.5t69.5 -35.5q136 0 161 318z" />
    <glyph glyph-name="Delta" unicode="&#x2206;" horiz-adv-x="612" 
d="M608 0h-602l320 688zM484 49l-194 468l-218 -468h412z" />
    <glyph glyph-name="product" unicode="&#x220f;" horiz-adv-x="823" 
d="M803 -101h-306v23q49 0 72.5 16t23.5 65v693h-358v-693q0 -49 23.5 -65t73.5 -16v-23h-307v23q50 0 73.5 16t23.5 65v626q0 99 -95 99v23h773v-23q-94 0 -94 -99v-626q0 -49 23.5 -65t73.5 -16v-23z" />
    <glyph glyph-name="summation" unicode="&#x2211;" horiz-adv-x="713" 
d="M695 122q-30 -123 -43 -224q-72 11 -77 11h-503q-10 0 -29 -1.5t-29 -1.5l349 398l-347 454q8 0 46 -3.5t58 -3.5h497l6 -159h-20q-1 5 -4 13q-8 28 -14 41.5t-21.5 30t-43 23t-70.5 6.5h-263l273 -358l-294 -339h371q51 0 80 24t55 89h23z" />
    <glyph glyph-name="radical" unicode="&#x221a;" horiz-adv-x="549" 
d="M515 912l-150 -950l-243 502l-96 -47l-16 33l146 72l197 -403l127 798z" />
    <glyph glyph-name="infinity" unicode="&#x221e;" horiz-adv-x="713" 
d="M687 269q0 -62 -39 -103.5t-96 -41.5q-48 0 -86.5 22t-108.5 85q-62 -59 -104 -82.5t-99 -23.5q-58 0 -92.5 35.5t-34.5 98.5q0 62 39 103.5t96 41.5q48 0 86.5 -22t108.5 -85q63 59 104.5 82.5t98.5 23.5q58 0 92.5 -35.5t34.5 -98.5zM633 268q0 44 -26 65.5t-65 21.5
q-35 0 -67.5 -20t-84.5 -71q59 -50 93 -69t63 -19q87 0 87 92zM324 264q-59 50 -93 69t-63 19q-87 0 -87 -92q0 -44 26 -65.5t65 -21.5q35 0 67.5 20t84.5 71z" />
    <glyph glyph-name="integral" unicode="&#x222b;" horiz-adv-x="274" 
d="M291 822q0 -20 -15 -33t-37 -13q-14 0 -29.5 13t-20.5 13q-18 0 -18 -24v-6q0 -12 9.5 -130t9.5 -194l-1 -216q-1 -201 -38 -295q-32 -84 -93 -84q-26 0 -42 15t-16 34q0 18 12 34t34 16q23 0 36.5 -12t22.5 -12q8 0 14.5 27.5t6.5 65.5v13q-6 201 -6 272v42v144
q0 222 26 310q8 27 31 50.5t52 23.5q62 0 62 -54z" />
    <glyph glyph-name="approxequal" unicode="&#x2248;" horiz-adv-x="549" 
d="M479 310q-18 -34 -49 -53t-63 -19q-16 0 -33 5l-120 39q-19 4 -34 6h-2q-14 0 -26.5 -4t-21.5 -12t-14 -13.5t-11 -14.5t-6 -10l-36 37q49 71 117 71q24 0 42 -6l121 -38q7 -2 24 -2q19 0 43 11.5t39 36.5zM479 180q-18 -34 -49 -52.5t-63 -18.5q-20 0 -33 4l-120 39
q-19 4 -34 6h-2q-14 0 -26.5 -4t-21.5 -12t-14 -13.5t-11 -14.5t-6 -10l-36 37q49 71 117 71q24 0 42 -6l121 -38q14 -2 24 -2q19 0 43 11.5t39 36.5z" />
    <glyph glyph-name="notequal" unicode="&#x2260;" horiz-adv-x="549" 
d="M464 129h-202l-42 -107h-49l42 107h-128v55h149l30 82h-179v55h198l37 104h49l-36 -104h131v-55h-151l-30 -82h181v-55z" />
    <glyph glyph-name="lessequal" unicode="&#x2264;" horiz-adv-x="549" 
d="M455 101l-391 163v56l391 174v-57l-321 -143l321 -130v-63zM456 0h-391v55h391v-55z" />
    <glyph glyph-name="greaterequal" unicode="&#x2265;" horiz-adv-x="549" 
d="M482 265l-391 -164v57l321 133l-321 140v63l391 -173v-56zM484 0h-391v55h391v-55z" />
    <glyph glyph-name="lozenge" unicode="&#x25ca;" horiz-adv-x="494" 
d="M466 377l-194 -377h-60l-194 377l194 368h60zM406 377l-164 314l-164 -314l164 -323z" />
    <glyph glyph-name="fi" unicode="&#xfb01;" horiz-adv-x="469" 
d="M475 76q-8 -27 -12 -31q-14 -15 -56.5 -32.5t-69.5 -17.5q-18 0 -25.5 7.5t-7.5 25.5q0 3 26 213q10 77 10 113q0 35 -8 45.5t-34 10.5l-113 -1q-15 -266 -30 -359q-26 -165 -90 -245q-90 -111 -190 -111q-37 0 -58 17.5t-21 44.5q0 21 9 38t17 24l9 7h8q0 -71 77 -71
q68 0 107 69q36 60 49 179l40 409h-27l-73 -3q6 27 9 31q7 12 26 12l68 -1q0 30 6 69q16 104 78 165.5t153 61.5q44 0 72 -16t28 -49q0 -22 -19.5 -40t-49.5 -18q2 8 2 13q0 26 -20.5 44.5t-54.5 18.5q-53 0 -83 -45q-16 -24 -26.5 -75t-12.5 -90l-2 -39h52l191 5
q-44 -355 -44 -366q0 -30 30 -30q9 0 24 4.5t25 8.5z" />
    <glyph glyph-name="fl" unicode="&#xfb02;" horiz-adv-x="482" 
d="M481 64q0 -31 -53.5 -52t-82.5 -21q-20 0 -28 9t-8 36q0 4 26 251q13 124 20.5 218t8.5 127l2 32q-22 35 -56 35q-53 0 -83 -45q-16 -24 -26.5 -75t-12.5 -90l-2 -39h58l74 2q-4 -28 -20 -41q-7 -6 -48 -6l-65 4q-15 -266 -30 -359q-26 -165 -90 -245q-90 -111 -190 -111
q-37 0 -58 17.5t-21 44.5q0 21 9 38t17 24l9 7h8q0 -71 77 -71q68 0 107 69q36 60 49 179l40 409h-17l-83 -3q6 27 9 31q7 12 26 12l68 -1q3 127 46 200q55 96 163 96q27 0 49.5 -8t31.5 -16l9 -9q12 5 22 11.5t14 11.5l5 4q-7 -49 -19 -163q-45 -414 -45 -492q0 -33 31 -33
q14 0 29 4t23 8l7 5v-5z" />
    <glyph glyph-name="percent" horiz-adv-x="685" 
d="M365 529q0 -86 -52 -138.5t-127 -52.5q-61 0 -99.5 39t-38.5 104q0 82 52 136.5t124 54.5q64 0 102.5 -39t38.5 -104zM657 659q0 -26 -3 -41t-7.5 -21.5t-14.5 -16.5q-6 -6 -117.5 -119.5t-148.5 -150.5q-57 -57 -123.5 -125t-103.5 -105l-88 -93q-3 14 -3 31v6
q0 21 6 33.5t25 30.5q15 12 65 62t123 124.5t112 112.5q128 125 209 216q19 20 35.5 40.5t24.5 30.5l7 10q2 -13 2 -25zM659 182q0 -86 -52 -138.5t-127 -52.5q-61 0 -99.5 39t-38.5 104q0 82 52 136.5t124 54.5q64 0 102.5 -39t38.5 -104zM293 526q0 106 -79 106
q-45 0 -69.5 -44t-24.5 -117q0 -93 72 -93q46 0 73.5 38.5t27.5 109.5zM587 179q0 106 -79 106q-45 0 -69.5 -44t-24.5 -117q0 -93 72 -93q46 0 73.5 38.5t27.5 109.5z" />
    <glyph glyph-name="apple" horiz-adv-x="804" 
d="M672 272q0 -118 -64 -199.5t-139 -81.5q-29 0 -41.5 8.5t-18.5 8.5q-5 0 -19.5 -8.5t-48.5 -8.5q-23 0 -55 14.5t-68.5 45t-62 90.5t-25.5 138q0 164 135 164q44 0 71 -13t33 -13q19 0 19 34q0 12 -2.5 37.5t-2.5 35.5v6q0 101 54 140q15 11 43.5 19.5t50 13t38.5 19
t17 38.5h3q11 -30 11 -74q0 -31 -7 -60q-8 -36 -39 -59.5t-62.5 -32.5t-56.5 -24t-25 -37q0 -59 29 -59q6 0 15.5 7t31.5 14.5t59 7.5q42 0 69.5 -14.5t39 -42.5t15 -52.5t3.5 -61.5zM582 709q-7 -16 -20 -30.5t-21 -21t-32 -22t-29 -19.5q-57 -39 -80 -104q13 25 27.5 42
t24 24t29 19.5t31.5 20.5q66 48 70 91zM312 137q-25 53 -25 89q0 21 11 49.5t11 45.5q0 41 -30 41q-28 0 -40 -18.5t-12 -43.5q0 -55 85 -163z" />
    </font>
</defs>
</svg>
